  0
SECTION
  2
HEADER
  9
$ACADVER
  1
AC1014
  9
$HANDSEED
  5
FFFF
  9
$MEASUREMENT
 70
     1
  0
ENDSEC
  0
SECTION
  2
TABLES
  0
TABLE
  2
VPORT
  5
8
330
0
100
AcDbSymbolTable
 70
     4
  0
VPORT
  5
2E
330
8
100
AcDbSymbolTableRecord
100
AcDbViewportTableRecord
  2
*ACTIVE
 70
     0
 10
0.0
 20
0.0
 11
1.0
 21
1.0
 12
210.0
 22
148.5
 13
0.0
 23
0.0
 14
10.0
 24
10.0
 15
10.0
 25
10.0
 16
0.0
 26
0.0
 36
1.0
 17
0.0
 27
0.0
 37
0.0
 40
341.0
 41
1.24
 42
50.0
 43
0.0
 44
0.0
 50
0.0
 51
0.0
 71
     0
 72
   100
 73
     1
 74
     3
 75
     0
 76
     0
 77
     0
 78
     0
  0
ENDTAB
  0
TABLE
  2
LTYPE
  5
5
330
0
100
AcDbSymbolTable
 70
     1
  0
LTYPE
  5
14
330
5
100
AcDbSymbolTableRecord
100
AcDbLinetypeTableRecord
  2
BYBLOCK
 70
     0
  3

 72
    65
 73
     0
 40
0.0
  0
LTYPE
  5
15
330
5
100
AcDbSymbolTableRecord
100
AcDbLinetypeTableRecord
  2
BYLAYER
 70
     0
  3

 72
    65
 73
     0
 40
0.0
  0
LTYPE
  5
16
330
5
100
AcDbSymbolTableRecord
100
AcDbLinetypeTableRecord
  2
CONTINUOUS
 70
     0
  3
Solid line
 72
    65
 73
     0
 40
0.0
  0
ENDTAB
  0
TABLE
  2
LAYER
  5
2
100
AcDbSymbolTable
 70
2
  0
LAYER
  5
50
100
AcDbSymbolTableRecord
100
AcDbLayerTableRecord
  2
0
 70
0
  6
CONTINUOUS
  0
LAYER
  5
51
100
AcDbSymbolTableRecord
100
AcDbLayerTableRecord
  2
Calque_1
 70
0
  6
CONTINUOUS
  0
ENDTAB
  0
TABLE
  2
STYLE
  5
3
330
0
100
AcDbSymbolTable
 70
     1
  0
STYLE
  5
11
330
3
100
AcDbSymbolTableRecord
100
AcDbTextStyleTableRecord
  2
STANDARD
 70
     0
 40
0.0
 41
1.0
 50
0.0
 71
     0
 42
2.5
  3
txt
  4

  0
ENDTAB
  0
TABLE
  2
VIEW
  5
6
330
0
100
AcDbSymbolTable
 70
     0
  0
ENDTAB
  0
TABLE
  2
UCS
  5
7
330
0
100
AcDbSymbolTable
 70
     0
  0
ENDTAB
  0
TABLE
  2
APPID
  5
9
330
0
100
AcDbSymbolTable
 70
     2
  0
APPID
  5
12
330
9
100
AcDbSymbolTableRecord
100
AcDbRegAppTableRecord
  2
ACAD
 70
     0
  0
ENDTAB
  0
TABLE
  2
DIMSTYLE
  5
A
330
0
100
AcDbSymbolTable
 70
     1
  0
DIMSTYLE
105
27
330
A
100
AcDbSymbolTableRecord
100
AcDbDimStyleTableRecord
  2
ISO-25
 70
     0
  3

  4

  5

  6

  7

 40
1.0
 41
2.5
 42
0.625
 43
3.75
 44
1.25
 45
0.0
 46
0.0
 47
0.0
 48
0.0
140
2.5
141
2.5
142
0.0
143
0.03937007874016
144
1.0
145
0.0
146
1.0
147
0.625
 71
     0
 72
     0
 73
     0
 74
     0
 75
     0
 76
     0
 77
     1
 78
     8
170
     0
171
     3
172
     1
173
     0
174
     0
175
     0
176
     0
177
     0
178
     0
270
     2
271
     2
272
     2
273
     2
274
     3
340
11
275
     0
280
     0
281
     0
282
     0
283
     0
284
     8
285
     0
286
     0
287
     3
288
     0
  0
ENDTAB
  0
TABLE
  2
BLOCK_RECORD
  5
1
330
0
100
AcDbSymbolTable
 70
     1
  0
BLOCK_RECORD
  5
1F
330
1
100
AcDbSymbolTableRecord
100
AcDbBlockTableRecord
  2
*MODEL_SPACE
  0
BLOCK_RECORD
  5
1B
330
1
100
AcDbSymbolTableRecord
100
AcDbBlockTableRecord
  2
*PAPER_SPACE
  0
ENDTAB
  0
ENDSEC
  0
SECTION
  2
BLOCKS
  0
BLOCK
  5
20
330
1F
100
AcDbEntity
  8
0
100
AcDbBlockBegin
  2
*MODEL_SPACE
 70
     0
 10
0.0
 20
0.0
 30
0.0
  3
*MODEL_SPACE
  1

  0
ENDBLK
  5
21
330
1F
100
AcDbEntity
  8
0
100
AcDbBlockEnd
  0
BLOCK
  5
1C
330
1B
100
AcDbEntity
 67
     1
  8
0
100
AcDbBlockBegin
  2
*PAPER_SPACE
  1

  0
ENDBLK
  5
1D
330
1B
100
AcDbEntity
 67
     1
  8
0
100
AcDbBlockEnd
  0
ENDSEC
  0
SECTION
  2
ENTITIES
  0
LWPOLYLINE
  5
100
100
AcDbEntity
  8
Calque_1
 62
5
100
AcDbPolyline
 90
12
 70
1
 10
47.905593
 20
66.088061
 30
0.0
 10
47.905593
 20
67.683777
 30
0.0
 10
48.404279
 20
68.581365
 30
0.0
 10
49.700855
 20
69.478952
 30
0.0
 10
51.296645
 20
69.478952
 30
0.0
 10
52.194274
 20
68.980290
 30
0.0
 10
53.091905
 20
67.683777
 30
0.0
 10
53.091905
 20
66.088061
 30
0.0
 10
52.593221
 20
65.190477
 30
0.0
 10
51.296645
 20
64.292887
 30
0.0
 10
49.700855
 20
64.292887
 30
0.0
 10
48.803224
 20
64.791546
 30
0.0
  0
LWPOLYLINE
  5
101
100
AcDbEntity
  8
Calque_1
 62
5
100
AcDbPolyline
 90
12
 70
1
 10
44.789539
 20
65.128914
 30
0.0
 10
44.789539
 20
68.642425
 30
0.0
 10
45.887528
 20
70.618757
 30
0.0
 10
48.742291
 20
72.595097
 30
0.0
 10
52.255844
 20
72.595097
 30
0.0
 10
54.232219
 20
71.497130
 30
0.0
 10
56.208596
 20
68.642425
 30
0.0
 10
56.208596
 20
65.128914
 30
0.0
 10
55.110608
 20
63.152582
 30
0.0
 10
52.255844
 20
61.176234
 30
0.0
 10
48.742291
 20
61.176234
 30
0.0
 10
46.765911
 20
62.274203
 30
0.0
  0
LWPOLYLINE
  5
102
100
AcDbEntity
  8
Calque_1
 62
5
100
AcDbPolyline
 90
12
 70
1
 10
44.789539
 20
100.101921
 30
0.0
 10
44.789539
 20
103.615433
 30
0.0
 10
45.887528
 20
105.591765
 30
0.0
 10
48.742291
 20
107.568105
 30
0.0
 10
52.255844
 20
107.568105
 30
0.0
 10
54.232219
 20
106.470138
 30
0.0
 10
56.208596
 20
103.615433
 30
0.0
 10
56.208596
 20
100.101921
 30
0.0
 10
55.110608
 20
98.125588
 30
0.0
 10
52.255844
 20
96.149243
 30
0.0
 10
48.742291
 20
96.149243
 30
0.0
 10
46.765911
 20
97.247210
 30
0.0
  0
LWPOLYLINE
  5
103
100
AcDbEntity
  8
Calque_1
 62
5
100
AcDbPolyline
 90
12
 70
1
 10
47.905593
 20
101.060878
 30
0.0
 10
47.905593
 20
102.656590
 30
0.0
 10
48.404279
 20
103.554177
 30
0.0
 10
49.700855
 20
104.451765
 30
0.0
 10
51.296645
 20
104.451765
 30
0.0
 10
52.194274
 20
103.953102
 30
0.0
 10
53.091905
 20
102.656590
 30
0.0
 10
53.091905
 20
101.060878
 30
0.0
 10
52.593221
 20
100.163291
 30
0.0
 10
51.296645
 20
99.265702
 30
0.0
 10
49.700855
 20
99.265702
 30
0.0
 10
48.803224
 20
99.764362
 30
0.0
  0
LWPOLYLINE
  5
104
100
AcDbEntity
  8
Calque_1
 62
5
100
AcDbPolyline
 90
51
 70
1
 10
0.132291
 20
39.544986
 30
0.0
 10
0.381630
 20
37.299941
 30
0.0
 10
1.179514
 20
34.905227
 30
0.0
 10
2.476077
 20
32.859739
 30
0.0
 10
4.121713
 20
31.263266
 30
0.0
 10
6.066557
 20
30.315358
 30
0.0
 10
11.153070
 20
29.567006
 30
0.0
 10
14.145137
 20
28.469428
 30
0.0
 10
16.937734
 20
26.523725
 30
0.0
 10
19.381254
 20
24.029228
 30
0.0
 10
21.326099
 20
21.085726
 30
0.0
 10
22.822131
 20
17.543542
 30
0.0
 10
23.719751
 20
13.801804
 30
0.0
 10
24.318165
 20
7.465787
 30
0.0
 10
25.116049
 20
5.071070
 30
0.0
 10
26.362743
 20
3.075477
 30
0.0
 10
28.058249
 20
1.429109
 30
0.0
 10
30.003091
 20
0.481201
 30
0.0
 10
31.997801
 20
0.131972
 30
0.0
 10
68.002342
 20
0.131972
 30
0.0
 10
70.046920
 20
0.481201
 30
0.0
 10
71.991765
 20
1.528889
 30
0.0
 10
73.637401
 20
3.125364
 30
0.0
 10
74.884096
 20
5.170850
 30
0.0
 10
75.681977
 20
7.565567
 30
0.0
 10
76.280393
 20
14.001360
 30
0.0
 10
77.178011
 20
17.743104
 30
0.0
 10
78.674045
 20
21.185506
 30
0.0
 10
80.668758
 20
24.178897
 30
0.0
 10
83.112278
 20
26.673394
 30
0.0
 10
85.805136
 20
28.469428
 30
0.0
 10
88.896940
 20
29.616898
 30
0.0
 10
93.983453
 20
30.315358
 30
0.0
 10
95.878429
 20
31.363043
 30
0.0
 10
97.524065
 20
32.959521
 30
0.0
 10
98.820628
 20
35.005007
 30
0.0
 10
99.568644
 20
37.449611
 30
0.0
 10
99.867852
 20
39.944105
 30
0.0
 10
99.867852
 20
112.933014
 30
0.0
 10
99.568644
 20
114.679159
 30
0.0
 10
98.671026
 20
116.774535
 30
0.0
 10
97.673668
 20
118.071673
 30
0.0
 10
95.978163
 20
119.318921
 30
0.0
 10
94.083187
 20
119.867709
 30
0.0
 10
5.916953
 20
119.867709
 30
0.0
 10
4.021978
 20
119.318921
 30
0.0
 10
3.124357
 20
118.770131
 30
0.0
 10
1.628325
 20
117.223544
 30
0.0
 10
1.029911
 20
116.275638
 30
0.0
 10
0.281895
 20
114.080482
 30
0.0
 10
0.132291
 20
112.933014
 30
0.0
  0
ENDSEC
  0
SECTION
  2
OBJECTS
  0
DICTIONARY
  5
C
330
0
100
AcDbDictionary
  3
ACAD_GROUP
350
D
  3
ACAD_MLINESTYLE
350
17
  0
DICTIONARY
  5
D
330
C
100
AcDbDictionary
  0
DICTIONARY
  5
1A
330
C
100
AcDbDictionary
  0
DICTIONARY
  5
17
330
C
100
AcDbDictionary
  3
STANDARD
350
18
  0
DICTIONARY
  5
19
330
C
100
AcDbDictionary
  0
ENDSEC
  0
EOF
