<?xml version="1.0" encoding="UTF-8" standalone="no"?>
<!-- Created with LibSL -->
<svg
   xmlns="http://www.w3.org/2000/svg"
   baseProfile="full"
   version="1.1"
   viewBox="-0.35 -153.3 179.3 128.2"
   width="179.3mm"
   height="128.2mm"
>
  <g id="layer1">
    <path 
style="fill:none;fill-rule:nonzero;stroke:#939598;stroke-width:1px;stroke-linecap:butt;stroke-linejoin:miter;stroke-opacity:1"
d="M 0.65,-132.75 1.5,-129.35 2.9,-127.2 4.85,-125.2 6.8,-123.85 8.4,-123.25 8.85,-123.1 13.1,-123.05 24.1,-124.05 28,-123.7 30.75,-122.5 32.8,-120.3 34.8,-115.35 37.45,-106.85 39.85,-97.95 41.3,-90.9 41.25,-86.65 40.35,-83.05 38.55,-79.8 35.7,-76.75 33,-74.7 30.1,-73.55 25.95,-73.05 13.1,-72.8 9.25,-72.15 6.55,-70.8 4.1,-68.35 2.75,-65.95 2.15,-63.05 2.35,-59.75 3.25,-56.9 7.1,-51.3 14.85,-41.5 21.95,-33.1 27.1,-27.75 30.25,-26.25 34.15,-26.15 38.6,-27.5 44.15,-30.25 56.5,-36.1 62,-38.05 67.4,-39.45 73.1,-40.4 78.75,-40.9 93.8,-41 106,-40.25 115.25,-38.6 124,-35.45 134.25,-30.2 141.1,-26.85 143.25,-26.25 145.9,-26.1 148.9,-26.45 152.05,-28 155.55,-31.3 160,-36.7 170.25,-49.6 174.2,-55 176.15,-58.65 176.6,-62.65 175.85,-66.15 174.1,-69.2 171.25,-71.65 167,-72.45 151.15,-73.4 146.35,-74.3 143.1,-76.1 140.45,-79.15 137.8,-83.75 137.2,-86.05 137.1,-89.1 138.3,-96.4 141.5,-107.95 144.3,-116.5 146.75,-121.25 148.15,-122.65 149.7,-123.45 153.65,-123.9 168.5,-123 169.1,-123 172.05,-123.85 174.3,-125.4 176.2,-127.6 177.4,-130.1 177.95,-132.6 177.95,-135.2 177.3,-138 177.05,-138.5 175.9,-140.55 174,-142.5 168.85,-144.8 159.25,-148.2 150.2,-151.05 144.9,-152.3 144.45,-152.3 141.7,-151.8 138.25,-149.95 133.4,-146.05 118.75,-132.35 115.55,-130 112.5,-128.5 108.65,-127.5 104.2,-127.05 90.8,-126.75 71.8,-126.75 68.4,-127.2 66.2,-128.05 60.6,-132.3 50.45,-141.4 44.6,-146.8 39.2,-150.7 36.9,-151.7 35.2,-152.05 34.45,-152.05 30.55,-151.65 17.45,-147.6 5.55,-142.95 2.8,-140.2 2.6,-139.8 1.15,-136.75 Z M 8.15,-132.9 8.25,-134.15 8.75,-135.15 9.6,-135.9 10.8,-136.3 12,-136.2 13,-135.7 13.75,-134.85 14.15,-133.7 14.05,-132.45 13.55,-131.45 12.7,-130.7 11.55,-130.3 10.3,-130.4 9.3,-130.9 8.55,-131.75 Z M 15.05,-58.35 15.15,-59.55 15.65,-60.55 16.5,-61.3 17.65,-61.7 18.9,-61.6 19.9,-61.1 20.65,-60.25 21.05,-59.1 21,-58 20.45,-56.85 19.6,-56.1 18.45,-55.7 17.2,-55.8 16.2,-56.3 15.45,-57.15 Z M 22.4,-135.65 22.5,-136.6 23.1,-137.75 24.05,-138.5 25.05,-138.8 26.25,-138.7 27.2,-138.25 27.7,-137.8 28.05,-137.3 28.4,-136.3 28.4,-135.25 27.9,-134.05 27.4,-133.5 26.9,-133.15 25.85,-132.8 24.55,-132.9 23.5,-133.45 22.85,-134.2 22.5,-135 Z M 29.35,-43 29.35,-44.25 29.5,-45 29.9,-45.95 30.5,-46.8 31.35,-47.55 32.15,-48 33.1,-48.3 33.95,-48.4 35.05,-48.3 35.9,-48.05 37.2,-47.25 38,-46.35 38.45,-45.55 38.75,-44.6 38.85,-43.7 38.75,-42.65 38.55,-41.95 38.1,-41.05 37.6,-40.4 36.4,-39.45 35.45,-39.05 34.7,-38.9 33.45,-38.9 32.75,-39.05 31.95,-39.35 31.15,-39.85 30.05,-41.05 29.55,-42.1 Z M 36.25,-130.05 36.25,-131.5 36.45,-132.5 36.9,-133.6 37.6,-134.65 38.35,-135.4 39.6,-136.2 40.9,-136.65 42.15,-136.8 43.3,-136.7 44.4,-136.4 45.15,-136.05 46.1,-135.4 46.85,-134.65 47.75,-133.2 48.1,-132.1 48.25,-130.9 48.2,-130 47.9,-128.75 47.5,-127.85 46.85,-126.9 46.1,-126.15 45.15,-125.5 43.95,-125 42.95,-124.8 41.5,-124.8 40.5,-125 39.4,-125.45 38.55,-126 37.65,-126.85 36.9,-127.95 36.45,-129.05 Z M 39.25,-62.95 39.35,-64 39.7,-64.8 40,-65.2 40.5,-65.65 41.15,-66 42.05,-66.2 43.05,-66.1 44.15,-65.55 44.85,-64.75 45.25,-63.65 45.2,-62.45 44.75,-61.45 43.85,-60.6 42.75,-60.2 41.5,-60.25 40.45,-60.75 39.65,-61.65 39.35,-62.35 Z M 54,-46.05 54.1,-46.95 54.65,-48.05 55.45,-48.75 56.55,-49.15 57.7,-49.1 58.75,-48.65 59.6,-47.75 60,-46.65 59.95,-45.4 59.45,-44.35 58.55,-43.55 57.35,-43.15 56.2,-43.25 55.4,-43.6 55,-43.9 54.55,-44.4 54.2,-45.05 Z M 56.3,-68 56.35,-69.1 56.8,-70 57.45,-70.6 58.55,-71 59.5,-70.95 60.35,-70.6 61.2,-69.7 61.5,-68.85 61.45,-67.7 60.95,-66.7 60.15,-66.05 59.4,-65.8 58.7,-65.75 58.15,-65.85 57.25,-66.3 56.7,-66.9 Z M 56.3,-102.95 56.3,-103.9 56.7,-104.9 57.4,-105.6 58.35,-106 59.5,-106 60.4,-105.6 61.2,-104.75 61.5,-103.85 61.45,-102.75 61.1,-101.95 60.35,-101.2 59.25,-100.8 58.35,-100.85 57.45,-101.2 56.8,-101.8 Z M 86.65,-50.4 86.65,-51.35 87,-52.25 87.75,-53.05 88.65,-53.45 89.6,-53.5 90.2,-53.35 90.85,-53 91.55,-52.2 91.9,-51 91.75,-50 91.3,-49.2 90.6,-48.6 89.5,-48.25 88.5,-48.35 87.75,-48.7 87,-49.5 Z M 86.65,-120.45 86.65,-121.35 86.9,-122.15 87.6,-123 88.65,-123.5 89.45,-123.55 90.05,-123.45 90.6,-123.2 91.45,-122.4 91.85,-121.4 91.85,-120.45 91.45,-119.45 90.7,-118.7 89.55,-118.3 88.7,-118.35 87.75,-118.75 87.05,-119.45 Z M 116.95,-68.15 117,-69 117.65,-70.2 118.2,-70.65 119.25,-71 120.25,-70.95 120.85,-70.7 121.4,-70.3 121.85,-69.75 122.2,-68.75 122.15,-67.75 121.55,-66.6 120.6,-65.95 119.7,-65.75 118.7,-65.9 118.25,-66.1 117.75,-66.5 117.15,-67.35 Z M 117,-102.9 117,-103.95 117.4,-104.9 118.15,-105.65 118.85,-105.95 119.4,-106.05 120.5,-105.9 121.35,-105.4 121.8,-104.85 122.2,-103.75 122.15,-102.8 121.75,-101.9 120.95,-101.15 119.95,-100.8 119,-100.85 118.15,-101.2 117.65,-101.6 117.35,-102 Z M 118.55,-45.8 118.65,-47 119.15,-48 119.45,-48.35 120.15,-48.85 121.1,-49.15 122.25,-49.1 123.35,-48.6 124.1,-47.8 124.55,-46.55 124.45,-45.3 123.9,-44.25 123,-43.5 121.85,-43.15 120.75,-43.25 119.65,-43.8 118.9,-44.7 Z M 130.45,-130.1 130.45,-131.45 130.65,-132.45 131.2,-133.75 131.7,-134.5 132.45,-135.3 133.6,-136.1 134.7,-136.55 135.7,-136.75 137.2,-136.75 138.15,-136.55 139.45,-136 140.25,-135.45 141.1,-134.6 141.65,-133.8 142.2,-132.55 142.45,-131.1 142.4,-129.95 142.2,-129 141.65,-127.75 141.1,-126.95 140.25,-126.1 139.35,-125.5 138.15,-125 137.15,-124.8 135.7,-124.8 134.75,-125 133.35,-125.6 132.7,-126.05 132,-126.7 131.2,-127.8 130.65,-129.1 Z M 133.3,-62.9 133.4,-64 134,-65.15 134.7,-65.75 135.5,-66.1 136.1,-66.2 137.1,-66.1 138.2,-65.55 138.9,-64.75 139.3,-63.65 139.25,-62.5 138.75,-61.4 138.05,-60.7 137.5,-60.4 136.8,-60.2 135.55,-60.25 134.5,-60.75 133.7,-61.65 133.4,-62.35 Z M 139.65,-43.05 139.65,-44.2 139.8,-44.95 140.3,-46.1 140.65,-46.6 141.1,-47.1 142.05,-47.8 142.85,-48.15 143.7,-48.35 144.5,-48.4 145.75,-48.2 146.8,-47.75 147.45,-47.3 148.05,-46.7 148.5,-46.05 148.95,-45.05 149.15,-43.9 148.95,-42.2 148.5,-41.2 148,-40.5 147.5,-40 146.7,-39.45 145.75,-39.05 145,-38.9 143.75,-38.9 143.05,-39.05 141.9,-39.55 141.4,-39.9 140.65,-40.65 140.25,-41.25 139.9,-42 Z M 150.15,-135.35 150.25,-136.7 150.75,-137.65 151.6,-138.4 152.8,-138.8 154,-138.7 155.05,-138.15 155.8,-137.25 156.15,-136.1 156,-134.8 155.5,-133.9 154.7,-133.2 153.55,-132.8 152.45,-132.85 151.35,-133.35 150.6,-134.15 Z M 157.5,-58.45 157.6,-59.5 157.8,-60.05 158.2,-60.65 159.05,-61.35 160.15,-61.7 161.2,-61.65 162.3,-61.15 163.05,-60.35 163.5,-59.2 163.45,-58 162.95,-56.9 162.15,-56.15 160.9,-55.7 159.65,-55.8 158.6,-56.35 157.85,-57.25 Z M 164.4,-133 164.5,-134.1 165.05,-135.2 165.95,-135.95 167.05,-136.3 168.25,-136.2 169.25,-135.7 169.95,-134.95 170.4,-133.75 170.35,-132.6 169.85,-131.5 169.05,-130.75 168.45,-130.45 167.8,-130.3 166.55,-130.4 165.5,-130.95 164.75,-131.85 Z "
/>
</g>
</svg>
