<?xml version="1.0" encoding="UTF-8" standalone="no"?>
<!-- Created with LibSL -->
<svg
   xmlns="http://www.w3.org/2000/svg"
   baseProfile="full"
   version="1.1"
   viewBox="-0.35 -153.3 179.3 128.2"
   width="179.3mm"
   height="128.2mm"
>
  <g id="layer1">
    <path 
style="fill:none;fill-rule:nonzero;stroke:#939598;stroke-width:1px;stroke-linecap:butt;stroke-linejoin:miter;stroke-opacity:1"
d="M 0.65,-132.75 1.5,-129.35 2.9,-127.2 4.85,-125.2 6.8,-123.85 8.4,-123.25 8.85,-123.1 13.1,-123.05 24.1,-124.05 28,-123.7 30.8,-122.45 32.8,-120.3 34.8,-115.35 37.45,-106.85 39.85,-97.95 41.3,-90.9 41.25,-86.65 40.35,-83.05 38.55,-79.8 35.75,-76.8 33,-74.7 30.1,-73.55 25.95,-73.05 13.1,-72.8 9.25,-72.15 6.55,-70.8 4.1,-68.35 2.75,-65.95 2.15,-63.05 2.35,-59.7 3.25,-56.9 7.1,-51.3 14.85,-41.5 21.95,-33.1 27.1,-27.75 30.25,-26.25 34,-26.1 38.6,-27.5 45.3,-30.8 56.75,-36.2 62,-38.05 67.4,-39.45 73.1,-40.4 78.75,-40.9 94.6,-40.95 106,-40.25 115.25,-38.6 124,-35.45 133.75,-30.45 141.1,-26.85 143.55,-26.2 145.9,-26.1 148.95,-26.45 152.05,-28 155.55,-31.3 159.8,-36.45 170.25,-49.6 174.2,-55 176.15,-58.65 176.6,-62.6 175.85,-66.15 174.1,-69.2 171.25,-71.65 167,-72.45 151.1,-73.4 146.35,-74.3 143.1,-76.1 140.45,-79.15 137.8,-83.75 137.2,-86.05 137.1,-89.1 138.25,-96.2 141.5,-107.95 144.3,-116.5 146.75,-121.25 148.15,-122.65 149.7,-123.45 153.65,-123.9 168.5,-123 169.1,-123 172.05,-123.85 174.3,-125.4 176.2,-127.6 177.4,-130.1 177.95,-132.6 177.95,-135.2 177.3,-138 177.05,-138.5 175.85,-140.6 174,-142.5 168.85,-144.8 159.25,-148.2 150.2,-151.05 144.9,-152.3 144.45,-152.3 141.7,-151.8 138.25,-149.95 133.45,-146.1 118.75,-132.35 115.55,-130 112.35,-128.45 108.65,-127.5 104.2,-127.05 90.7,-126.75 71.8,-126.75 68.4,-127.2 66.2,-128.05 60.6,-132.3 50.45,-141.4 44.6,-146.8 39.2,-150.7 37.1,-151.65 35.2,-152.05 34.45,-152.05 30.55,-151.65 16.8,-147.4 5.55,-142.95 2.8,-140.2 2.6,-139.8 1.15,-136.75 Z M 56.3,-68 56.35,-69.1 56.8,-70 57.45,-70.6 58.55,-71 59.5,-70.95 60.35,-70.6 61.2,-69.7 61.5,-68.85 61.45,-67.7 60.95,-66.7 60.15,-66.05 59.4,-65.8 58.65,-65.75 58.15,-65.85 57.25,-66.3 56.7,-66.9 Z M 56.3,-102.95 56.3,-103.9 56.7,-104.9 57.55,-105.7 58.4,-106 59.5,-106 60.4,-105.6 61.1,-104.9 61.5,-103.85 61.45,-102.75 61.1,-101.95 60.35,-101.2 59.25,-100.8 58.15,-100.9 57.45,-101.2 56.8,-101.8 Z M 69.25,-85.95 69.35,-87.95 69.65,-89.95 70.1,-91.75 70.7,-93.45 71.6,-95.4 72.65,-97.15 73.8,-98.7 74.75,-99.75 76.55,-101.45 78.1,-102.6 79.75,-103.6 81.65,-104.5 83.5,-105.15 85.55,-105.65 87.25,-105.9 89.2,-106 91.3,-105.9 93,-105.65 95.05,-105.15 96.9,-104.5 98.8,-103.6 100.3,-102.7 102,-101.45 103,-100.55 104.75,-98.7 105.9,-97.15 106.9,-95.5 107.8,-93.6 108.45,-91.75 108.9,-89.95 109.2,-88 109.3,-86.1 109.2,-83.95 108.9,-82 108.45,-80.2 107.8,-78.35 106.95,-76.55 105.9,-74.8 104.75,-73.25 103.8,-72.2 102,-70.5 100.45,-69.35 98.7,-68.3 97,-67.5 95.05,-66.8 93.25,-66.35 90.3,-66 87.3,-66.05 85.6,-66.3 83.5,-66.8 81.95,-67.35 79.85,-68.3 78.35,-69.2 76.5,-70.55 75.4,-71.55 73.85,-73.2 72.8,-74.6 71.6,-76.55 70.8,-78.25 70.1,-80.2 69.65,-82 69.35,-84 Z M 86.65,-50.4 86.65,-51.35 87,-52.25 87.75,-53.05 88.65,-53.45 89.6,-53.5 90.2,-53.35 90.85,-53 91.55,-52.2 91.9,-51 91.75,-50 91.3,-49.2 90.6,-48.6 89.5,-48.25 88.65,-48.3 87.75,-48.7 87,-49.5 Z M 86.65,-120.45 86.65,-121.4 86.9,-122.15 87.6,-123 88.65,-123.5 89.45,-123.55 90.05,-123.45 90.6,-123.2 91.45,-122.4 91.85,-121.4 91.85,-120.45 91.45,-119.45 90.6,-118.65 89.55,-118.3 88.7,-118.35 87.75,-118.75 87.05,-119.45 Z M 116.95,-68.15 117,-69 117.65,-70.2 118.2,-70.65 119.25,-71 120.25,-70.95 120.85,-70.7 121.4,-70.3 121.85,-69.75 122.2,-68.75 122.15,-67.75 121.55,-66.6 120.6,-65.95 119.7,-65.75 118.7,-65.9 118.25,-66.1 117.75,-66.5 117.15,-67.35 Z M 116.95,-103.65 117.05,-104.2 117.35,-104.85 117.95,-105.5 118.55,-105.85 119.4,-106.05 120.5,-105.9 121.35,-105.4 121.8,-104.85 122.2,-103.7 122.1,-102.6 121.7,-101.85 120.95,-101.15 119.95,-100.8 119.25,-100.8 118.65,-100.95 117.65,-101.6 117.1,-102.5 Z "
/>
</g>
</svg>
