<?xml version="1.0" encoding="UTF-8" standalone="no"?>
<svg
   xmlns:dc="http://purl.org/dc/elements/1.1/"
   xmlns:cc="http://creativecommons.org/ns#"
   xmlns:rdf="http://www.w3.org/1999/02/22-rdf-syntax-ns#"
   xmlns:svg="http://www.w3.org/2000/svg"
   xmlns="http://www.w3.org/2000/svg"
   xmlns:sodipodi="http://sodipodi.sourceforge.net/DTD/sodipodi-0.dtd"
   xmlns:inkscape="http://www.inkscape.org/namespaces/inkscape"
   sodipodi:docname="turn_r20_upd1.svg"
   inkscape:version="1.0 (4035a4fb49, 2020-05-01)"
   id="svg8"
   version="1.1"
   viewBox="0 0 290.39099 186.74899"
   height="186.74899mm"
   width="290.39099mm">
  <defs
     id="defs2">
    <marker
       id="DistanceX"
       orient="auto"
       refX="0"
       refY="0"
       style="overflow:visible">
      <path
         d="M 3,-3 -3,3 M 0,-5 V 5"
         style="stroke:#000000;stroke-width:0.5"
         id="path10" />
    </marker>
    <pattern
       id="Hatch"
       patternUnits="userSpaceOnUse"
       width="8"
       height="8"
       x="0"
       y="0">
      <path
         d="M8 4 l-4,4"
         stroke="#000000"
         stroke-width="0.25"
         linecap="square"
         id="path13" />
      <path
         d="M6 2 l-4,4"
         stroke="#000000"
         stroke-width="0.25"
         linecap="square"
         id="path15" />
      <path
         d="M4 0 l-4,4"
         stroke="#000000"
         stroke-width="0.25"
         linecap="square"
         id="path17" />
    </pattern>
    <symbol
       id="*MODEL_SPACE" />
    <symbol
       id="*PAPER_SPACE" />
  </defs>
  <sodipodi:namedview
     inkscape:window-maximized="0"
     inkscape:window-y="0"
     inkscape:window-x="208"
     inkscape:window-height="1041"
     inkscape:window-width="1452"
     showgrid="false"
     inkscape:document-rotation="0"
     inkscape:current-layer="layer1"
     inkscape:document-units="mm"
     inkscape:cy="-11.428571"
     inkscape:cx="400"
     inkscape:zoom="0.35"
     inkscape:pageshadow="2"
     inkscape:pageopacity="0.0"
     borderopacity="1.0"
     bordercolor="#666666"
     pagecolor="#ffffff"
     id="base" />
  <metadata
     id="metadata5">
    <rdf:RDF>
      <cc:Work
         rdf:about="">
        <dc:format>image/svg+xml</dc:format>
        <dc:type
           rdf:resource="http://purl.org/dc/dcmitype/StillImage" />
        <dc:title></dc:title>
      </cc:Work>
    </rdf:RDF>
  </metadata>
  <g
     id="layer1"
     inkscape:groupmode="layer"
     inkscape:label="Calque 1">
    <path
       id="path185"
       d="m 88.345361,182.81863 c -21.7098,-1.73248 -36.1409,-6.94075 -48.1014,-17.36006 C 17.990961,146.073 2.2446509,110.63144 0.13269095,75.176681 c -0.53931,-9.05386 0.62573,-27.1847 2.40131995,-37.36998 2.55771,-14.67179 9.7112801,-31.1488898 15.3900801,-35.4486098 3.14525,-2.38142001 3.69027,-2.53416001 8.05169,-2.25645001 6.09287,0.38797 12.815,3.70749001 14.966,7.39050001 3.46674,5.9358998 1.36894,14.8070198 -6.34143,26.8164198 l -5.30879,8.26878 v 5.98007 c 0,9.14083 1.92267,12.0243 11.12517,16.68463 4.16944,2.1115 11.02269,2.73894 13.78263,1.26186 0.75564,-0.4044 5.56553,-1.25422 10.68864,-1.88847 l 9.31476,-1.15319 17.04291,-7.86262 c 29.525899,-13.62155 32.906899,-14.67592 49.170889,-15.33396 19.28929,-0.78046 27.45142,1.60735 62.24064,18.20833 10.91723,5.20957 11.89149,5.52814 18.41172,6.02034 3.78648,0.28585 8.80665,1.02037 11.15593,1.63228 6.99126,1.82099 10.47177,1.47323 16.39213,-1.63782 7.92283,-4.16334 10.49249,-8.12919 10.46329,-16.14842 -0.0152,-4.17205 -1.67079,-7.92886 -6.88566,-15.6247 -2.20632,-3.25597 -4.60545,-7.62084 -5.3314,-9.69971 -1.84029,-5.26995 -1.78392,-12.9178 0.11821,-16.0374398 3.15458,-5.17374 15.64778,-8.75173 20.9623,-6.00349001 11.29945,5.84317001 20.75677,39.52181981 19.66804,70.04009981 -1.6278,45.628279 -24.28475,89.320589 -53.69126,103.539799 -7.15462,3.45955 -17.62263,6.38331 -27.3581,7.64126 -8.49727,1.09795 -105.83608,1.61047 -118.217039,0.62244 z m 43.377749,-10.50207 c 0,-1.38546 -0.45489,-1.95448 -1.70427,-2.13189 -1.85746,-0.26376 -2.91243,1.35739 -2.15975,3.31884 0.2732,0.71196 1.13749,1.0901 2.15975,0.94494 1.24938,-0.17741 1.70427,-0.74643 1.70427,-2.13189 z m 27.97024,0 c 0,-1.49974 -0.42916,-1.93926 -2.07887,-2.12908 -1.87638,-0.2159 -2.07887,-0.008 -2.07887,2.12908 0,2.1376 0.20249,2.34498 2.07887,2.12908 1.64971,-0.18982 2.07887,-0.62935 2.07887,-2.12908 z m -76.729169,-2.64583 c 0,-1.51191 -0.37797,-1.88989 -1.88988,-1.88989 -1.5119,0 -1.88988,0.37798 -1.88988,1.88989 0,1.5119 0.37798,1.88988 1.88988,1.88988 1.51191,0 1.88988,-0.37798 1.88988,-1.88988 z m 125.866069,0 c 0,-1.0874 -0.5837,-1.57907 -2.07887,-1.75111 -1.80203,-0.20735 -2.07887,0.0258 -2.07887,1.75111 0,1.72526 0.27684,1.95845 2.07887,1.7511 1.49517,-0.17204 2.07887,-0.66371 2.07887,-1.7511 z M 130.89976,157.14 c 0.23892,-0.23953 0.16407,-7.04336 -0.16634,-15.11965 -0.58161,-14.21593 -0.67034,-14.81201 -2.78301,-18.69366 -1.20024,-2.20524 -5.35717,-7.56278 -9.23764,-11.90566 -6.83879,-7.65372 -6.98692,-7.89614 -4.82503,-7.89614 2.96364,0 4.6062,-1.78919 4.6062,-5.017379 0,-4.33776 -1.08426,-5.56595 -4.91369,-5.56595 -3.79548,0 -4.91369,1.23161 -4.91369,5.41204 v 2.487619 l -5.48065,-5.383339 c -8.490099,-8.33934 -7.203189,-8.00441 -33.072919,-8.6077 -24.61376,-0.57402 -22.84892,-0.84035 -29.38732,4.43482 -4.32805,3.49187 -6.10714,7.49158 -6.11686,13.751799 -0.0171,10.98614 5.89111,23.80567 16.82852,36.51445 6.90317,8.02118 17.05506,13.83451 27.23481,15.59563 4.19774,0.72621 51.502549,0.71998 52.227619,-0.007 z m 82.58816,-0.88176 c 10.43949,-3.09401 17.86002,-8.36943 25.68626,-18.26093 5.31765,-6.72093 10.78871,-16.68713 12.67076,-23.08135 0.66468,-2.25828 1.20853,-6.6091 1.20853,-9.66851 0,-8.093989 -2.50052,-12.262059 -10.20536,-17.011119 l -3.02381,-1.86379 -21.92262,0.50664 c -25.6162,0.59201 -25.3719,0.53179 -33.07292,8.15334 -4.82203,4.77229 -5.10268,4.93682 -5.10268,2.99144 0,-2.86234 -2.45298,-5.0824 -5.61564,-5.0824 -3.37043,0 -4.96769,1.68112 -4.96769,5.2285 0,3.232569 1.57732,5.093539 4.64521,5.480579 1.91253,0.24128 1.70562,0.5806 -4.76308,7.81175 -3.71933,4.15774 -7.574,8.92024 -8.56591,10.58334 -2.3586,3.95457 -3.31538,10.35077 -3.58718,23.98055 -0.18765,9.40975 -0.0452,11.18271 0.92183,11.47453 0.62908,0.18983 12.53976,0.2481 26.46818,0.12948 20.03609,-0.17065 26.13917,-0.45716 29.22612,-1.37205 z M 37.985021,141.32251 c 0,-1.49973 -0.42917,-1.93926 -2.07887,-2.12908 -1.87638,-0.2159 -2.07887,-0.008 -2.07887,2.12908 0,2.1376 0.20249,2.34498 2.07887,2.12908 1.6497,-0.18982 2.07887,-0.62934 2.07887,-2.12908 z m 215.824399,0 c 0,-1.89832 -0.29965,-2.26786 -1.83894,-2.26786 -1.17226,0 -2.01213,0.54566 -2.31665,1.50514 -0.64855,2.04339 0.10402,3.03058 2.31032,3.03058 1.54633,0 1.84527,-0.3674 1.84527,-2.26786 z M 147.97608,119.39989 c 3.21835,-3.21834 0.53512,-9.07143 -4.1586,-9.07143 -3.33956,0 -4.91282,1.69459 -4.91282,5.29167 0,1.64281 0.51863,3.43445 1.18792,4.10374 1.68904,1.68904 6.04969,1.50983 7.8835,-0.32398 z M 19.086211,79.334421 c 0,-1.49974 -0.42917,-1.93926 -2.07887,-2.12908 -1.75679,-0.20215 -2.07887,0.0419 -2.07887,1.57489 0,2.27781 0.65507,2.94546 2.61472,2.66494 1.08302,-0.15502 1.54302,-0.78429 1.54302,-2.11075 z m 253.244039,0 c 0,-1.49974 -0.42916,-1.93926 -2.07886,-2.12908 -1.8764,-0.2159 -2.07888,-0.009 -2.07888,2.12908 0,2.13759 0.20248,2.34498 2.07888,2.12908 1.6497,-0.18982 2.07886,-0.62935 2.07886,-2.12908 z M 117.54478,67.085841 c 1.14832,-0.95303 1.24847,-5.43442 0.16662,-7.45588 -1.14622,-2.14171 -7.14768,-2.08268 -8.30601,0.0817 -1.43146,2.67469 -0.61647,6.98365 1.52903,8.08422 1.94606,0.99826 4.93939,0.67674 6.61036,-0.71004 z m 60.6694,0.15334 c 1.80862,-1.80862 1.95676,-5.07609 0.33511,-7.39132 -0.85839,-1.22552 -1.93221,-1.67698 -3.96875,-1.66853 -3.38179,0.014 -4.39286,0.59232 -5.30364,3.03357 -0.80842,2.16691 0.0762,5.18229 1.93426,6.59324 1.86592,1.41692 5.29691,1.13915 7.00302,-0.56696 z m -30.17946,-17.83552 c 0.54983,-0.66252 0.9997,-2.33162 0.9997,-3.70912 0,-3.36363 -1.45187,-4.9137 -4.60238,-4.9137 -4.29454,0 -5.52738,1.09352 -5.52738,4.90273 0,2.38119 0.37909,3.55843 1.32291,4.10815 2.06072,1.20026 6.67949,0.97068 7.80715,-0.38806 z M 27.399531,18.109041 c 0.65046,-2.0494 -0.10522,-3.03058 -2.33404,-3.03058 -2.18857,0 -3.1476,1.804 -1.81356,3.41142 1.32676,1.59864 3.58516,1.39127 4.1476,-0.38084 z m 237.369059,0 c 0.65045,-2.0494 -0.10523,-3.03058 -2.33406,-3.03058 -2.18856,0 -3.14759,1.804 -1.81355,3.41142 1.32676,1.59864 3.58516,1.39127 4.14761,-0.38084 z"
       style="fill:#00ff00;stroke-width:0.571429" />
    <path
       transform="scale(0.26458333)"
       id="path187"
       d=""
       style="fill:#00ff00;stroke-width:2.15973" />
  </g>
</svg>
