<?xml version="1.0" encoding="UTF-8" standalone="no"?>
<!-- Created with LibSL -->
<svg
   xmlns="http://www.w3.org/2000/svg"
   baseProfile="full"
   version="1.1"
   viewBox="52.15 -180.7 76.7 180"
   width="76.7mm"
   height="180mm"
>
  <g id="layer1">
    <path 
style="fill:#939598;fill-rule:nonzero;stroke:#939598;stroke-width:0px;stroke-linecap:butt;stroke-linejoin:miter;stroke-opacity:1"
d="M 52.15,-10.65 52.5,-8.05 53.55,-5.65 55.15,-3.6 57.2,-2 59.65,-1.05 62.15,-0.7 118.75,-0.7 121.4,-1.05 123.8,-2.1 125.85,-3.7 127.45,-5.75 128.4,-8.2 128.85,-11.15 128.8,-171 128.5,-173.3 127.45,-175.75 125.9,-177.75 123.85,-179.35 121.45,-180.35 118.9,-180.7 83.9,-180.7 81.35,-180.35 78.9,-179.3 76.9,-177.75 75.3,-175.7 74.3,-173.3 73.85,-170.25 73.8,-80.6 73.55,-76.8 72.85,-73.05 71.75,-69.6 70.25,-66.6 68.4,-64.1 66.35,-62.3 64.1,-61.15 59.5,-60.45 57.1,-59.4 55.05,-57.8 53.45,-55.75 52.5,-53.3 52.15,-50.8 Z M 98.45,-162.55 98.45,-164.15 98.95,-165.05 100.25,-165.95 101.85,-165.95 102.75,-165.45 103.45,-164.65 103.75,-163.6 103.45,-162.1 102.75,-161.25 101.85,-160.75 100.25,-160.75 99.35,-161.25 Z M 98.45,-127.5 98.45,-129.1 98.95,-130 100.25,-130.9 101.85,-130.9 102.75,-130.4 103.65,-129.1 103.65,-127.5 103.15,-126.6 101.85,-125.7 100.25,-125.7 99.35,-126.2 Z "
/>
</g>
</svg>
