<?xml version="1.0" encoding="UTF-8" standalone="no"?>
<!-- Created with LibSL -->
<svg
   xmlns="http://www.w3.org/2000/svg"
   baseProfile="full"
   version="1.1"
   viewBox="1.1 -221.85 292 150"
   width="292mm"
   height="150mm"
>
  <g id="layer1">
    <path 
style="fill:#939598;fill-rule:nonzero;stroke:#939598;stroke-width:0px;stroke-linecap:butt;stroke-linejoin:miter;stroke-opacity:1"
d="M 1.1,-140.25 1.15,-135.6 1.55,-127.9 2.35,-120.4 2.95,-116.75 3.6,-113.05 5,-107.05 6.6,-101.65 8.3,-96.9 10.5,-91.7 12.75,-87.3 15,-83.55 17.55,-80 20,-77.25 22.35,-75.05 23.3,-74.3 25.05,-73.25 27.05,-72.45 29.1,-72.05 31.45,-71.9 35.75,-72.2 38.65,-72.7 44.35,-74.1 58.85,-77.95 59.45,-77.85 59.6,-77.3 59.8,-77.05 60.4,-77.1 70.9,-79.55 76.3,-80.7 81.4,-81.65 88.75,-82.7 98.1,-82.95 115.05,-82.95 126.5,-82.75 131.55,-82.3 140,-81 142.3,-80.75 144.85,-80.55 147.35,-80.5 149.45,-80.55 154.3,-81 163.1,-82.35 167.75,-82.75 177.3,-82.95 190.25,-83.05 203.2,-82.85 209.15,-82.2 215.25,-81.25 218.9,-80.55 226.1,-78.95 234.55,-76.9 235,-77.8 235.85,-77.8 248.1,-74.6 256.45,-72.6 259.7,-72.05 262,-71.85 264.1,-71.85 266.05,-72.15 267.7,-72.6 269.9,-73.6 271.95,-74.95 274.15,-76.9 276.5,-79.45 278.65,-82.35 280.7,-85.65 282.75,-89.35 284.7,-93.5 286.1,-96.85 287.45,-100.5 289.45,-107.15 291.2,-115.2 291.9,-119.35 292.7,-125.4 293,-129.75 293.1,-134.3 293.1,-145.55 293,-152.4 292.75,-157.35 291.9,-165.25 291.05,-170.65 289.9,-176.15 288.55,-181.6 287.05,-186.9 285.35,-191.85 283.55,-196.35 281.7,-200.3 279.95,-203.3 277.7,-206.3 275,-209 272.25,-211.25 269.25,-213.15 267.25,-214.2 267.65,-215.15 268.85,-217.2 264.4,-219.35 262.15,-220.25 258.35,-221.2 254.15,-221.75 249.75,-221.85 245.2,-221.55 240.6,-220.8 236,-219.7 231.3,-218.05 227.5,-216.3 223.75,-214.1 220.05,-211.2 212.75,-204.7 211.15,-203.4 208,-201.1 206.5,-200.15 203.2,-198.35 200.7,-197.2 198.2,-196.25 192.1,-194.5 189.1,-193.9 183.1,-193.15 178.9,-193.1 176.8,-193.25 174.6,-193.65 166.4,-196.05 162.95,-196.95 158.8,-197.85 152.3,-198.85 149.45,-199.1 146.4,-199.15 143.9,-199.05 141.3,-198.75 139.05,-198.45 133.9,-197.5 126.55,-195.65 119.95,-193.65 116.7,-193.15 113.95,-193.1 111.35,-193.15 108.75,-193.4 105.85,-193.8 102.95,-194.35 99.85,-195.1 97.05,-195.95 92,-197.95 90.25,-198.8 86.9,-200.8 83.5,-203.25 81.8,-204.6 73.6,-211.85 70.05,-214.5 68.55,-215.45 66.85,-216.35 63.3,-218 58.7,-219.6 53.35,-220.9 48.5,-221.6 46,-221.8 41.85,-221.85 37.55,-221.5 34.95,-221 33.7,-220.65 30.3,-219.45 28.1,-218.45 25.9,-217.25 25.75,-217 26.95,-214.85 27.05,-214.35 26.35,-213.8 22.25,-211.35 20.75,-210.2 18.1,-207.8 15.85,-205.25 14.75,-203.75 12.65,-200.1 10.85,-196.35 9,-191.75 7.3,-186.7 5.75,-181.35 4.3,-175.3 3.25,-170 2.4,-164.3 1.65,-157.35 1.2,-147.9 Z M 37.05,-209.8 37.1,-211.45 37.6,-212.95 38.55,-214.35 39.65,-215.35 40.8,-216.05 41.95,-216.45 43.2,-216.65 44.5,-216.55 45.65,-216.25 46.8,-215.65 47.85,-214.8 48.8,-213.45 49.35,-212.2 49.65,-210.75 49.6,-209.4 49.25,-207.95 48.6,-206.65 47.65,-205.55 45.85,-204.45 44.6,-204.1 43.55,-203.95 41.95,-204.05 40.35,-204.7 39.15,-205.6 38,-206.95 37.35,-208.35 Z M 244.75,-209.6 244.75,-210.9 245.1,-212.7 245.3,-213.15 246.35,-214.6 247.7,-215.7 249.25,-216.35 250.95,-216.6 252.6,-216.4 254.05,-215.9 255.5,-214.85 256.55,-213.45 256.85,-212.75 257.05,-212 257.2,-210.35 257.05,-208.6 256.85,-207.85 256.55,-207.1 255.4,-205.65 254.25,-204.8 253.7,-204.55 252.45,-204.1 251.25,-203.9 250.35,-203.9 248.9,-204.3 247.4,-205.15 246.75,-205.7 246.05,-206.4 245.2,-207.75 244.8,-209 Z M 233.8,-213.55 233.85,-214.2 234.3,-214.95 234.7,-215.25 235.35,-215.45 236.05,-215.4 236.55,-215.15 237.1,-214.55 237.3,-213.9 237.25,-213.2 237,-212.7 236.4,-212.15 235.75,-211.95 235.05,-212 234.3,-212.45 234,-212.85 Z M 57.05,-213.55 57.1,-214.2 57.55,-214.95 57.95,-215.25 58.6,-215.45 59.3,-215.4 60.05,-214.95 60.35,-214.55 60.55,-213.85 60.5,-213.2 60.05,-212.45 59.65,-212.15 59,-211.95 58.3,-212 57.55,-212.45 57.25,-212.85 Z M 60.8,-200.6 60.85,-201.7 61.05,-202.55 61.4,-203.5 62.3,-204.9 63,-205.6 64.6,-206.6 65.6,-206.9 66.75,-207.05 67.95,-207 69.15,-206.7 70.2,-206.3 71.15,-205.7 71.95,-204.95 72.55,-204.15 73.1,-202.8 73.35,-201.55 73.35,-200.2 73.15,-199.05 72.65,-197.75 71.95,-196.7 71.1,-195.85 70,-195.15 68.35,-194.55 66.75,-194.45 65.2,-194.7 63.8,-195.35 62.65,-196.25 61.65,-197.55 61,-199.05 Z M 221,-200.9 221.25,-202.65 221.9,-204.05 222.75,-205.2 223.95,-206.1 225.35,-206.75 227,-207.05 228.45,-206.95 230.1,-206.4 231.25,-205.75 232.15,-204.9 232.85,-203.8 233.3,-202.6 233.55,-201.5 233.6,-200.4 233.45,-199.25 233.1,-198.25 232.65,-197.4 232,-196.55 231.15,-195.75 230.25,-195.15 228.6,-194.55 226.95,-194.4 225.4,-194.7 224.1,-195.3 222.75,-196.35 221.8,-197.6 221.2,-199.15 Z M 19.85,-197.15 19.85,-197.7 20.05,-198.25 20.6,-198.85 21.35,-199.15 21.9,-199.15 22.6,-198.85 23.05,-198.4 23.35,-197.7 23.3,-196.95 23.05,-196.4 22.6,-195.95 21.85,-195.65 21.1,-195.7 20.55,-196 20.15,-196.4 Z M 270.85,-197.15 270.9,-197.9 271.15,-198.4 271.85,-199 272.35,-199.15 273.1,-199.1 273.65,-198.8 274.2,-198.15 274.35,-197.65 274.35,-197.1 274.05,-196.4 273.35,-195.8 272.85,-195.65 272.1,-195.7 271.55,-196 271.15,-196.4 Z M 21.55,-167.1 21.55,-169.05 21.8,-172.75 22.35,-176.35 22.85,-178.55 24.1,-183 24.75,-185.05 26.15,-188.7 27.7,-191.75 29.25,-193.9 30.1,-194.85 32.15,-196.7 33.15,-197.45 34.2,-198.1 36.15,-199 37.55,-196.6 40.55,-197.9 43.15,-198.45 44.6,-198.55 46.25,-198.5 49.3,-198.05 51.05,-197.55 53.55,-196.6 55.8,-195.4 58.25,-193.75 60.2,-192.1 62.1,-190.2 63.55,-188.35 64.85,-186.15 65.6,-184.1 65.9,-182.85 66.25,-179.9 66.5,-173.5 66.4,-164.85 66.15,-159 66.05,-158.5 65.85,-158.3 64.9,-158.05 53.3,-157.2 42.35,-156.85 33.95,-157 32.4,-157.15 30.4,-157.55 28.75,-158 27.15,-158.6 25.7,-159.35 24.55,-160.2 23.5,-161.25 22.75,-162.35 22.05,-163.65 21.8,-164.5 Z M 227.85,-169.05 227.85,-173.6 228.05,-177.95 228.35,-181.25 228.75,-183.95 229.25,-185.7 229.85,-186.85 231.8,-189.55 232.9,-190.75 235.6,-193.3 238.55,-195.4 241.6,-196.9 243.4,-197.55 246.5,-198.3 248.25,-198.5 249.85,-198.55 251.35,-198.45 253.5,-198.05 254.7,-197.65 256.8,-196.6 257,-196.75 257.55,-197.85 258.4,-199 261.55,-197.2 263,-196.1 264.3,-194.85 265.55,-193.4 266.65,-191.75 267.7,-189.9 269.5,-185.55 271.45,-178.95 272.55,-173.2 272.85,-170.7 272.95,-168.05 272.85,-165.95 272.55,-164.4 271.95,-162.85 271.15,-161.5 270.25,-160.5 269.15,-159.65 267.6,-158.8 265.9,-158.1 263.8,-157.55 260.3,-157 253.2,-156.8 246.9,-156.9 236.1,-157.55 228.45,-158.15 228.3,-158.7 228.05,-161.85 Z M 143.2,-182.85 143.2,-183.65 143.35,-184.45 144.1,-185.85 144.65,-186.4 145.65,-187 146.8,-187.3 147.65,-187.3 148.4,-187.15 149.75,-186.4 150.35,-185.85 150.95,-184.8 151.25,-183.25 150.95,-181.75 150.35,-180.7 149.1,-179.7 148.4,-179.4 147.65,-179.25 146.8,-179.25 146.05,-179.4 145.3,-179.7 144.65,-180.15 143.65,-181.35 143.35,-182.1 Z M 212.75,-176.65 212.85,-177.95 213.15,-179 213.65,-180.1 214.45,-181.15 215.25,-181.9 216.35,-182.6 218.3,-183.1 219.8,-183.1 221.15,-182.85 221.85,-182.55 223.3,-181.55 224.45,-180.2 225.15,-178.45 225.35,-176.85 225.15,-175.3 224.5,-173.65 223.35,-172.15 221.75,-171.1 220.45,-170.65 219.1,-170.5 217.7,-170.65 216.4,-171.1 215.8,-171.4 214.5,-172.35 213.85,-173.2 213.3,-174.25 212.9,-175.45 Z M 69.05,-176.65 69.05,-177.6 69.35,-179.05 69.65,-179.75 70.4,-180.85 71.25,-181.7 72.25,-182.4 73.4,-182.85 74.6,-183.1 75.9,-183.1 77.05,-182.9 78.3,-182.4 79.3,-181.75 80.15,-180.95 80.8,-180 81.25,-178.9 81.5,-177.85 81.55,-176.5 81.4,-175.3 81,-174 80.45,-173.05 79.95,-172.55 78.9,-171.65 77.35,-170.8 76.2,-170.55 75.1,-170.5 74.05,-170.6 73,-170.9 72.05,-171.35 71.2,-172 70.4,-172.8 69.8,-173.65 69.45,-174.4 69.1,-175.9 Z M 108.05,-166.95 108.35,-168.5 108.75,-169.25 109.25,-169.85 110.2,-170.55 110.9,-170.85 111.7,-171 112.5,-171 113.25,-170.85 114.65,-170.1 115.2,-169.55 115.65,-168.85 115.95,-168.15 116.1,-167.4 116.1,-166.6 115.95,-165.8 115.65,-165.05 115.2,-164.4 114,-163.4 113.25,-163.1 112.5,-162.95 111.7,-162.95 110.9,-163.1 109.85,-163.6 109.2,-164.15 108.75,-164.7 108.35,-165.45 Z M 178.25,-166.6 178.25,-167.4 178.4,-168.15 179.15,-169.55 179.7,-170.1 180.4,-170.55 181.1,-170.85 181.85,-171 182.65,-171 183.4,-170.85 184.8,-170.1 185.8,-168.9 186,-168.5 186.25,-167.4 186.2,-166.2 186,-165.45 185.4,-164.45 184.8,-163.85 184.15,-163.4 182.7,-162.95 181.45,-163 180,-163.6 179.15,-164.4 178.7,-165.05 178.4,-165.8 Z M 211.95,-151.1 212.05,-152.35 212.4,-153.5 213,-154.6 213.9,-155.6 214.75,-156.25 215.7,-156.75 217.6,-157.25 218.65,-157.25 220.55,-156.85 221.45,-156.4 222.45,-155.7 223.25,-154.9 223.75,-154.05 224.2,-152.8 224.45,-151.6 224.45,-150.4 224.25,-149.25 223.9,-148.25 223.35,-147.25 222.55,-146.3 221.75,-145.65 220.7,-145.05 219.8,-144.75 218.95,-144.65 217.95,-144.65 216.05,-145.05 214.4,-145.85 213.75,-146.4 212.9,-147.45 212.35,-148.6 212,-149.95 Z M 69.85,-150.75 70,-152.25 70.5,-153.7 71.35,-154.95 72.4,-156 73.85,-156.8 75.25,-157.2 76.85,-157.25 77.9,-157.05 79.6,-156.35 80.25,-155.85 81.45,-154.5 82.2,-152.8 82.45,-151.55 82.45,-150.45 82.3,-149.3 81.95,-148.25 80.85,-146.65 80,-145.9 79.05,-145.3 77.6,-144.8 76.2,-144.65 75.4,-144.7 74,-145.05 72.75,-145.65 71.75,-146.4 70.9,-147.4 70.3,-148.55 70.1,-149.15 Z M 280.6,-152.15 280.6,-152.7 280.9,-153.4 281.3,-153.8 281.85,-154.1 282.65,-154.15 283.35,-153.85 283.8,-153.4 284.1,-152.65 284.05,-151.9 283.75,-151.35 283.1,-150.8 282.6,-150.65 281.85,-150.7 281.3,-151 280.75,-151.65 Z M 10.1,-152.15 10.15,-152.9 10.4,-153.4 11.1,-154 11.55,-154.15 12.35,-154.1 12.9,-153.8 13.45,-153.15 13.6,-152.65 13.55,-151.9 13.25,-151.35 12.85,-150.95 12.15,-150.65 11.35,-150.7 10.8,-151 10.25,-151.65 Z M 166.1,-150.75 166.2,-151.9 166.75,-152.85 167.15,-153.25 167.85,-153.7 168.65,-153.9 169.25,-153.9 170.05,-153.7 171,-153.05 171.5,-152.4 171.8,-151.3 171.7,-150.15 171.2,-149.2 170.05,-148.35 169.25,-148.15 168.65,-148.15 167.85,-148.35 166.9,-149 166.4,-149.7 Z M 122.55,-151.05 122.7,-151.9 123.2,-152.85 124.05,-153.55 124.6,-153.8 125.15,-153.9 125.7,-153.9 126.55,-153.7 127.25,-153.25 127.95,-152.4 128.2,-151.85 128.3,-151.3 128.2,-150.2 127.65,-149.2 127.25,-148.8 126.55,-148.35 125.75,-148.15 124.6,-148.25 123.6,-148.8 122.9,-149.65 122.6,-150.45 Z M 44.95,-150.6 45,-151.4 45.45,-152.15 45.95,-152.5 46.45,-152.65 47,-152.65 47.7,-152.35 48.1,-151.95 48.45,-151.15 48.4,-150.4 48.1,-149.85 47.75,-149.5 47.2,-149.2 46.2,-149.2 45.65,-149.5 45.3,-149.85 Z M 245.75,-150.65 245.8,-151.4 246.1,-151.95 246.75,-152.5 247.25,-152.65 248,-152.6 248.55,-152.3 249.1,-151.65 249.25,-151.15 249.2,-150.4 248.9,-149.85 248.5,-149.45 247.75,-149.15 247,-149.2 246.45,-149.5 246.05,-149.9 Z M 143.2,-148.15 143.2,-149 143.35,-149.75 143.65,-150.45 144.4,-151.45 145.7,-152.3 147.2,-152.6 148.75,-152.3 149.8,-151.65 150.35,-151.1 150.95,-150.1 151.25,-148.6 150.95,-147 150.35,-146 149.15,-145 148.4,-144.7 147.65,-144.55 146.8,-144.55 146.05,-144.7 145.3,-145 144.65,-145.45 143.65,-146.65 143.35,-147.4 Z M 230.6,-136.6 230.75,-137.4 231.5,-138.3 232.85,-139.4 235.25,-141 238.45,-142.5 241.1,-143.4 243.8,-144.1 247.4,-144.8 250.8,-145.25 254.1,-145.5 257.55,-145.65 261.9,-145.65 265.8,-145.5 268.6,-145.2 270.75,-144.7 271.75,-144.35 273.7,-143.4 275.3,-142.15 276,-141.4 277.1,-139.6 277.9,-137.35 278.2,-135.1 278.35,-131.9 278.05,-126.4 277.45,-122.25 275.6,-113.25 274.15,-107.35 272.6,-101.75 271.3,-97.75 269.95,-94.4 268.5,-91.55 266.9,-89.2 265.15,-87.35 263.15,-85.85 260.95,-84.7 258.4,-83.85 255.85,-83.45 252.4,-83.2 248.4,-83.15 245.1,-83.35 240.5,-84 237.4,-84.6 237.4,-85.2 238,-87.4 237.1,-88.3 235.6,-90.2 234.4,-92.35 234,-93.55 233.8,-95.3 233.85,-96.1 234.05,-96.85 234.75,-98.4 236.6,-101.05 237.4,-102.4 237.65,-103 237.9,-104.15 237.9,-105.5 237.1,-109.15 234.25,-119.45 232.3,-127.05 231.05,-132.95 Z M 16.1,-130.35 16.1,-133.5 16.3,-136.15 16.95,-138.7 17.65,-140.2 18.4,-141.35 19.35,-142.4 20.55,-143.3 21.9,-144 23.5,-144.65 25.35,-145.15 29.2,-145.55 37.9,-145.6 43.7,-145.25 45.8,-145 51.25,-143.95 53.85,-143.25 56.15,-142.45 59.65,-140.75 61.2,-139.7 62.45,-138.65 63.4,-137.65 63.65,-137.25 63.8,-136.7 63.8,-136 63.5,-133.85 62.05,-126.75 60.35,-120.1 57.75,-110.9 57.05,-108.2 56.65,-106.15 56.55,-104.6 56.7,-103.25 57.2,-102.05 58,-100.7 59.65,-98.4 60.35,-96.8 60.6,-95.35 60.6,-94.5 60.35,-93.05 59.4,-91.2 58.4,-89.65 56.55,-87.4 56.6,-86.75 57.15,-84.65 56.2,-84.35 51.5,-83.65 47.15,-83.3 41.05,-83.2 38.25,-83.35 35.9,-83.85 33.6,-84.6 31.4,-85.75 29.55,-87.05 27.8,-88.9 26.35,-90.9 25.1,-93.1 23.85,-95.85 22.75,-98.8 20.6,-106.05 18.65,-114.05 17,-122.05 16.45,-125.65 Z M 215.1,-128 215.4,-129.95 216.25,-131.55 217.45,-132.8 218.85,-133.65 220.7,-134.15 222.6,-134.1 224.3,-133.5 225.8,-132.45 226.8,-131.2 227.35,-130 227.65,-128.6 227.65,-127.15 227.35,-125.75 226.75,-124.5 225.85,-123.35 224.7,-122.45 224.1,-122.15 222.7,-121.75 221.25,-121.6 219.8,-121.7 218.35,-122.3 217.55,-122.85 216.8,-123.6 215.7,-125.2 215.15,-127 Z M 66.65,-128.1 67,-129.8 67.7,-131.3 68.95,-132.75 70.5,-133.7 72.45,-134.15 73.4,-134.15 75.2,-133.8 76.05,-133.45 77.45,-132.5 78.05,-131.9 78.95,-130.1 79.2,-128.75 79.25,-127.6 79.1,-126.35 78.7,-125.1 78.15,-124.15 77.3,-123.2 76.4,-122.5 75.65,-122.1 74.65,-121.8 72.75,-121.6 71,-121.85 69.95,-122.35 68.9,-123.1 67.6,-124.6 66.85,-126.3 Z M 144.3,-113 144.3,-113.6 144.5,-114.4 144.95,-115.15 145.85,-115.85 146.85,-116.15 148,-116.05 149,-115.5 149.7,-114.65 150,-113.85 150.05,-113.3 149.8,-112.15 149.4,-111.45 148.55,-110.75 147.15,-110.4 146.05,-110.65 145.35,-111.05 144.95,-111.45 144.5,-112.2 Z M 218.95,-105 219.15,-106.6 219.85,-108.15 220.85,-109.35 222,-110.2 223.3,-110.8 224.65,-111.05 226.05,-111.05 227.35,-110.75 228.6,-110.15 229.65,-109.4 230.85,-107.85 231.35,-106.45 231.4,-105.55 231.35,-103.45 231.1,-102.35 230.5,-101.2 229.8,-100.35 228.9,-99.6 227.85,-99 226.6,-98.6 225.45,-98.45 224.7,-98.45 223.15,-98.8 221.65,-99.55 220.45,-100.65 219.55,-102.1 219.05,-103.6 Z M 62.9,-104 63.05,-106.4 63.5,-107.7 63.95,-108.5 65.15,-109.75 65.85,-110.25 67.4,-110.85 68.25,-111 69.3,-111.05 70.5,-110.95 71.7,-110.6 72.75,-110.05 73.65,-109.35 74.4,-108.45 74.95,-107.4 75.3,-106.25 75.4,-104.95 75.4,-104 75.25,-103.2 74.95,-102.3 74.1,-100.85 72.9,-99.65 72.05,-99.15 70.25,-98.6 68.8,-98.5 67.45,-98.65 66.4,-99.05 65.45,-99.65 64,-101.05 63.35,-102.05 63.15,-102.55 Z M 227,-84.1 227.05,-84.75 227.5,-85.5 227.9,-85.8 228.55,-86 229.25,-85.95 230,-85.5 230.3,-85.1 230.5,-84.45 230.45,-83.75 230.2,-83.25 229.6,-82.7 228.95,-82.5 228.25,-82.55 227.5,-83 227.2,-83.4 Z M 63.85,-84.1 63.9,-84.75 64.35,-85.5 64.75,-85.8 65.45,-86 66.1,-85.95 66.85,-85.5 67.15,-85.1 67.35,-84.4 67.3,-83.75 66.85,-83 66.45,-82.7 65.8,-82.5 65.1,-82.55 64.35,-83 64.05,-83.4 Z M 264.85,-79.4 264.9,-80.15 265.2,-80.7 265.85,-81.25 266.3,-81.4 267.1,-81.35 267.6,-81.1 268.05,-80.65 268.35,-79.85 268.3,-79.15 267.85,-78.4 267.35,-78.05 266.85,-77.9 266.3,-77.9 265.6,-78.2 265,-78.9 Z M 25.85,-79.35 25.9,-80.15 26.2,-80.7 26.85,-81.25 27.35,-81.4 28.1,-81.35 28.6,-81.1 29.05,-80.65 29.35,-79.9 29.35,-79.35 29.05,-78.65 28.35,-78.05 27.85,-77.9 27.1,-77.95 26.55,-78.25 26,-78.9 Z "
/>
</g>
</svg>
