<?xml version="1.0" encoding="UTF-8" standalone="no"?>
<!-- Created with LibSL -->
<svg
   xmlns="http://www.w3.org/2000/svg"
   baseProfile="full"
   version="1.1"
   viewBox="10.4 -120.45 100 120"
   width="100mm"
   height="120mm"
>
  <g id="layer1">
    <path 
style="fill:#939598;fill-rule:nonzero;stroke:#939598;stroke-width:0px;stroke-linecap:butt;stroke-linejoin:miter;stroke-opacity:1"
d="M 10.4,-39.95 10.65,-37.7 11.45,-35.3 12.75,-33.25 14.4,-31.65 16.35,-30.7 21.45,-29.95 24.45,-28.85 27.25,-26.9 29.7,-24.4 31.65,-21.45 33.15,-17.9 34.05,-14.15 34.65,-7.8 35.45,-5.4 36.7,-3.4 38.4,-1.75 40.35,-0.8 42.35,-0.45 78.45,-0.45 80.5,-0.8 82.45,-1.85 84.1,-3.45 85.35,-5.5 86.15,-7.9 86.75,-14.35 87.65,-18.1 89.15,-21.55 91.15,-24.55 93.6,-27.05 96.3,-28.85 99.4,-30 104.5,-30.7 106.4,-31.75 108.05,-33.35 109.35,-35.4 110.1,-37.85 110.4,-40.35 110.4,-113.5 110.1,-115.25 109.2,-117.35 108.2,-118.65 106.5,-119.9 104.6,-120.45 16.2,-120.45 14.3,-119.9 13.4,-119.35 11.9,-117.8 11.3,-116.85 10.55,-114.65 10.4,-113.5 Z M 58.3,-101.6 58.3,-103.2 58.8,-104.1 60.1,-105 61.7,-105 62.6,-104.5 63.5,-103.2 63.5,-101.6 63,-100.7 61.7,-99.8 60.1,-99.8 59.2,-100.3 Z M 58.3,-66.55 58.3,-68.15 58.8,-69.05 60.1,-69.95 61.7,-69.95 62.6,-69.45 63.5,-68.15 63.5,-66.55 63,-65.65 61.7,-64.75 60.1,-64.75 59.2,-65.25 Z "
/>
</g>
</svg>
