<?xml version="1.0" encoding="UTF-8" standalone="no"?>
<!-- Created with LibSL -->
<svg
   xmlns="http://www.w3.org/2000/svg"
   baseProfile="full"
   version="1.1"
   viewBox="0.7 -158.47 180.6 135.13"
   width="180.6mm"
   height="135.13mm"
>
  <g id="layer1">
    <path 
style="fill:#939598;fill-rule:nonzero;stroke:#939598;stroke-width:0px;stroke-linecap:butt;stroke-linejoin:miter;stroke-opacity:1"
d="M 0.7,-149.45 0.93,-147.44 1.59,-145.54 2.66,-143.83 4.08,-142.4 5.79,-141.32 7.79,-140.64 10.82,-140.35 12.05,-139.97 13.04,-139.38 13.77,-138.62 14.18,-137.86 23.6,-108.82 23.95,-107.88 24.88,-106.39 26.09,-105.09 27.6,-104.02 29.13,-103.33 30.84,-102.93 32.81,-102.89 32.81,-102.86 40.1,-103.5 40.1,-91.59 29.53,-74.68 29.55,-74.66 28.94,-73.7 27.87,-72.69 26.61,-72.04 25.4,-71.84 25.4,-71.79 16.39,-70.19 16.4,-70.12 14.93,-69.7 13.54,-68.97 12.36,-68.05 11.3,-66.78 10.57,-65.49 10.09,-64 9.9,-62.39 9.92,-61.56 12.06,-37.14 12.1,-37.17 12.16,-37.11 12.04,-37.08 12.7,-33.79 14.08,-30.74 16.1,-28.08 18.66,-25.92 21.63,-24.39 24.87,-23.57 26.71,-23.45 26.71,-23.37 56.71,-23.38 56.71,-23.42 59.5,-23.73 62.25,-24.69 64.77,-26.28 65.8,-27.22 69.2,-30.6 71.28,-32.19 73.69,-33.2 76.11,-33.53 106.05,-33.52 108.47,-33.2 110.88,-32.19 112.97,-30.62 116.36,-27.22 116.4,-27.22 117.49,-26.22 119.95,-24.68 122.7,-23.72 125.47,-23.41 125.48,-23.37 155.47,-23.34 155.49,-23.47 157.34,-23.59 160.58,-24.41 163.56,-25.93 166.12,-28.1 168.13,-30.76 169.51,-33.81 170.17,-37.06 170.04,-37.09 170.03,-37.11 170.1,-37.16 170.14,-37.16 172.27,-61.58 172.29,-62.53 172.12,-64.02 171.63,-65.51 170.87,-66.86 170.86,-66.85 169.78,-68.09 168.53,-69.03 167.14,-69.73 165.8,-70.1 165.81,-70.18 156.79,-71.77 156.79,-71.82 155.52,-72.04 154.32,-72.67 153.26,-73.68 142.1,-91.52 142.11,-103.46 142.12,-103.48 149.2,-102.86 149.21,-102.89 149.39,-102.87 151.16,-102.93 152.87,-103.33 154.49,-104.06 155.91,-105.09 157.12,-106.39 158.07,-107.93 158.42,-108.87 167.82,-137.86 168.24,-138.66 169,-139.42 170.06,-140.02 171.18,-140.35 172.3,-140.45 172.3,-140.43 174.31,-140.66 176.21,-141.32 177.91,-142.4 179.34,-143.83 180.41,-145.54 181.08,-147.43 181.3,-149.45 181.08,-151.46 180.41,-153.36 179.34,-155.07 177.91,-156.49 176.21,-157.57 174.31,-158.23 172.31,-158.47 152.31,-158.47 152.31,-158.41 149.84,-158.14 147.4,-157.34 145.21,-156.03 143.38,-154.28 142.62,-153.2 142.58,-153.19 131.39,-136.58 131.4,-136.55 131.08,-136.2 129.9,-136.71 128.14,-137.29 125.89,-137.86 123.41,-138.38 116.07,-139.45 108.72,-140.12 103.26,-140.45 98.84,-140.61 93.01,-140.72 86.82,-140.7 78.55,-140.43 74.87,-140.23 69.37,-139.79 62.92,-139.05 58.55,-138.36 55.98,-137.81 53.97,-137.29 52.2,-136.71 50.95,-136.17 50.6,-136.56 50.61,-136.58 39.4,-153.18 38.62,-154.28 36.79,-156.03 34.6,-157.34 32.16,-158.14 29.69,-158.41 29.69,-158.47 9.7,-158.47 7.69,-158.23 5.79,-157.57 4.08,-156.49 2.66,-155.07 1.59,-153.36 0.93,-151.46 Z M 162.26,-141.17 162.29,-141.65 162.46,-142.13 162.8,-142.56 163.18,-142.85 163.48,-142.97 164.01,-143.05 164.52,-142.97 164.84,-142.85 165.22,-142.56 165.56,-142.13 165.68,-141.81 165.76,-141.27 165.68,-140.8 165.47,-140.33 165.37,-140.19 164.95,-139.83 164.49,-139.62 164.18,-139.56 163.67,-139.59 163.18,-139.76 162.77,-140.07 162.55,-140.33 162.31,-140.8 Z M 15.83,-141.17 15.86,-141.65 16.03,-142.13 16.37,-142.56 16.75,-142.85 17.05,-142.97 17.58,-143.05 18.09,-142.97 18.4,-142.85 18.78,-142.56 19.12,-142.13 19.25,-141.81 19.32,-141.27 19.25,-140.8 18.98,-140.25 18.51,-139.83 18.06,-139.62 17.75,-139.56 17.24,-139.59 16.75,-139.76 16.34,-140.07 16.12,-140.33 15.88,-140.8 Z M 49.89,-78.24 49.89,-122.73 50,-123.26 51.02,-124.95 51.59,-125.54 73.32,-135.64 75.11,-136.28 79.14,-137.6 82.23,-138.24 88.09,-139.01 89.25,-139.09 90.45,-139.09 95.77,-138.83 99.45,-138.12 101.93,-137.69 106.51,-136.23 108.06,-135.68 130.01,-125.46 130.53,-124.99 131.3,-123.97 131.5,-123.3 131.58,-122.73 131.55,-77.85 131.14,-75.3 130.96,-74.55 129.74,-71.23 127.15,-67.29 124.27,-63.83 122.01,-61.56 118.07,-58.06 113.59,-55.04 107.11,-51.9 100.97,-50 98.58,-49.52 95.38,-49.03 92.48,-48.89 89.27,-48.84 86.17,-49.2 83.51,-49.4 81.19,-49.83 75.24,-51.56 71.98,-52.94 69.68,-54.04 66.5,-55.91 65.02,-56.86 60.09,-60.84 57.66,-63.47 54.13,-67.53 54.03,-67.79 53.78,-68.01 51.64,-71.4 51.06,-73.12 50.01,-77.09 Z M 120.97,-131.63 120.99,-131.64 121,-132.06 121.19,-132.64 121.38,-132.93 121.76,-133.27 122.3,-133.51 122.74,-133.57 122.92,-133.57 122.93,-133.55 123.44,-133.47 123.76,-133.34 124.14,-133.06 124.48,-132.62 124.61,-132.3 124.68,-131.76 124.61,-131.31 124.37,-130.83 124.27,-130.69 123.85,-130.33 123.39,-130.12 122.99,-130.06 122.48,-130.07 121.9,-130.26 121.56,-130.5 121.37,-130.69 121.08,-131.21 Z M 57.21,-131.71 57.23,-131.72 57.28,-132.23 57.36,-132.49 57.63,-132.93 58.07,-133.31 58.55,-133.51 59.08,-133.57 59.09,-133.55 59.59,-133.46 59.91,-133.33 60.34,-133 60.63,-132.61 60.77,-132.26 60.83,-131.93 60.77,-131.43 60.75,-131.42 60.66,-131.12 60.42,-130.71 60.12,-130.42 59.83,-130.23 59.52,-130.11 59.23,-130.07 58.72,-130.07 58.08,-130.3 57.73,-130.57 57.47,-130.9 57.35,-131.13 Z M 15.02,-45.77 15.04,-45.78 15.11,-46.24 15.24,-46.56 15.58,-47 15.96,-47.28 16.31,-47.42 16.79,-47.49 16.8,-47.47 17.31,-47.38 17.66,-47.23 18.06,-46.92 18.35,-46.53 18.49,-46.18 18.55,-45.67 18.48,-45.22 18.22,-44.74 17.87,-44.36 17.4,-44.08 17.15,-44.01 16.44,-44.01 15.92,-44.21 15.54,-44.49 15.23,-44.91 15.09,-45.25 Z M 163.38,-45.77 163.4,-45.78 163.47,-46.24 163.6,-46.56 163.94,-47 164.32,-47.28 164.67,-47.42 165.14,-47.49 165.15,-47.47 165.66,-47.38 166.01,-47.23 166.41,-46.92 166.7,-46.53 166.84,-46.18 166.9,-45.67 166.83,-45.22 166.57,-44.74 166.22,-44.36 165.75,-44.08 165.5,-44.01 164.8,-44.01 164.28,-44.21 163.9,-44.49 163.59,-44.91 163.45,-45.25 Z M 44.82,-29.13 44.84,-29.14 44.91,-29.61 45.04,-29.92 45.38,-30.36 45.76,-30.64 46.11,-30.78 46.59,-30.85 46.6,-30.83 47.11,-30.74 47.46,-30.59 47.86,-30.28 48.15,-29.89 48.29,-29.54 48.35,-29.04 48.28,-28.58 48.02,-28.1 47.67,-27.72 47.2,-27.44 46.95,-27.37 46.24,-27.37 45.72,-27.57 45.34,-27.85 45.03,-28.27 44.89,-28.61 Z M 133.26,-29.03 133.33,-29.54 133.56,-29.99 133.86,-30.32 134.36,-30.61 134.83,-30.74 135.17,-30.73 135.51,-30.66 135.83,-30.53 136.24,-30.23 136.36,-30.11 136.63,-29.63 136.75,-29.13 136.69,-28.6 136.53,-28.15 136.22,-27.73 135.73,-27.39 135.62,-27.34 135.17,-27.25 134.62,-27.28 134.33,-27.37 133.86,-27.66 133.55,-28.02 133.31,-28.51 Z "
/>
</g>
</svg>
