<?xml version="1.0" encoding="UTF-8" standalone="no"?>
<!-- Created with LibSL -->
<svg
   xmlns="http://www.w3.org/2000/svg"
   baseProfile="full"
   version="1.1"
   viewBox="0.7 -158.47 180.6 135.13"
   width="180.6mm"
   height="135.13mm"
>
  <g id="layer1">
    <path 
style="fill:#939598;fill-rule:nonzero;stroke:#939598;stroke-width:0px;stroke-linecap:butt;stroke-linejoin:miter;stroke-opacity:1"
d="M 0.7,-149.45 0.93,-147.44 1.59,-145.54 2.66,-143.83 4.08,-142.4 5.79,-141.32 7.79,-140.64 10.82,-140.35 12.05,-139.97 13.04,-139.38 13.77,-138.62 14.18,-137.86 23.6,-108.82 23.95,-107.88 24.88,-106.39 26.09,-105.09 27.6,-104.02 29.13,-103.33 30.84,-102.93 32.81,-102.89 32.81,-102.86 40.1,-103.5 40.1,-91.58 29.53,-74.68 29.55,-74.66 28.94,-73.7 27.87,-72.69 26.61,-72.04 25.4,-71.84 25.4,-71.79 16.39,-70.19 16.4,-70.12 14.93,-69.7 13.54,-68.97 12.36,-68.05 11.3,-66.78 10.57,-65.49 10.09,-64 9.9,-62.39 9.92,-61.56 12.06,-37.14 12.1,-37.17 12.16,-37.11 12.04,-37.08 12.7,-33.79 14.08,-30.74 16.1,-28.07 18.66,-25.91 21.63,-24.38 24.87,-23.56 26.71,-23.44 26.71,-23.36 56.71,-23.37 56.71,-23.41 59.5,-23.72 62.25,-24.68 64.77,-26.28 65.8,-27.21 69.2,-30.6 71.28,-32.19 73.69,-33.2 76.11,-33.53 106.05,-33.52 108.47,-33.2 110.88,-32.19 112.97,-30.62 116.4,-27.21 117.49,-26.22 119.95,-24.67 122.7,-23.71 125.47,-23.4 125.48,-23.36 155.47,-23.34 155.49,-23.46 157.34,-23.58 160.58,-24.4 163.56,-25.93 166.12,-28.09 168.13,-30.76 169.51,-33.81 170.17,-37.06 170.04,-37.09 170.03,-37.11 170.08,-37.16 170.14,-37.16 172.27,-61.58 172.29,-62.53 172.12,-64.02 171.63,-65.51 170.86,-66.87 169.79,-68.1 168.53,-69.03 167.14,-69.73 165.8,-70.1 165.81,-70.18 156.79,-71.77 156.79,-71.82 155.52,-72.04 154.32,-72.67 153.26,-73.68 142.1,-91.53 142.11,-103.46 142.12,-103.48 149.2,-102.86 149.21,-102.89 149.39,-102.87 151.16,-102.93 152.87,-103.33 154.49,-104.06 155.91,-105.09 157.12,-106.39 158.07,-107.93 158.42,-108.87 167.82,-137.86 168.24,-138.66 169,-139.42 170.06,-140.02 171.18,-140.35 172.3,-140.45 172.3,-140.43 174.31,-140.66 176.21,-141.32 177.91,-142.4 179.34,-143.83 180.41,-145.54 181.08,-147.43 181.3,-149.45 181.08,-151.46 180.41,-153.36 179.34,-155.07 177.91,-156.5 176.21,-157.57 174.31,-158.24 172.31,-158.47 152.31,-158.47 152.31,-158.42 149.84,-158.15 147.4,-157.34 145.21,-156.03 143.38,-154.28 142.62,-153.2 142.58,-153.19 131.39,-136.58 131.4,-136.55 131.08,-136.2 129.9,-136.71 128.14,-137.29 125.89,-137.86 123.41,-138.38 116.07,-139.45 108.72,-140.12 103.26,-140.45 98.84,-140.61 93.01,-140.72 86.82,-140.7 78.55,-140.43 74.87,-140.23 69.37,-139.79 62.92,-139.05 58.55,-138.36 55.98,-137.81 53.97,-137.29 52.2,-136.71 50.95,-136.17 50.6,-136.56 50.61,-136.58 39.4,-153.18 38.62,-154.28 36.79,-156.03 34.6,-157.33 32.16,-158.15 29.69,-158.42 29.69,-158.47 9.7,-158.47 7.69,-158.24 5.79,-157.57 4.08,-156.5 2.66,-155.07 1.59,-153.36 0.93,-151.46 Z M 24.56,-148.83 24.57,-149.52 24.62,-149.85 24.82,-150.5 24.97,-150.82 25.35,-151.39 25.58,-151.64 26.11,-152.08 26.72,-152.4 27.04,-152.52 27.71,-152.65 28.06,-152.68 28.07,-152.66 28.75,-152.59 29.09,-152.51 29.72,-152.24 30.02,-152.07 30.54,-151.63 30.77,-151.38 31.15,-150.81 31.41,-150.17 31.55,-149.51 31.55,-148.83 31.53,-148.82 31.39,-148.15 31.28,-147.82 30.95,-147.22 30.75,-146.94 30.21,-146.42 30,-146.25 29.39,-145.93 28.73,-145.73 28.46,-145.69 27.65,-145.7 27.04,-145.82 26.41,-146.09 26.11,-146.26 25.58,-146.7 25.35,-146.95 24.97,-147.52 24.8,-147.9 24.61,-148.49 Z M 6.09,-148.83 6.1,-149.52 6.15,-149.85 6.35,-150.5 6.5,-150.82 6.88,-151.39 7.11,-151.64 7.64,-152.08 8.42,-152.47 8.57,-152.52 9.24,-152.65 9.59,-152.68 9.6,-152.66 10.61,-152.51 11.41,-152.15 11.54,-152.07 12.07,-151.63 12.3,-151.38 12.71,-150.74 12.94,-150.17 13.08,-149.51 13.08,-148.83 13.06,-148.82 12.92,-148.15 12.78,-147.76 12.48,-147.22 12.28,-146.94 11.79,-146.46 11.52,-146.25 10.91,-145.93 10.19,-145.72 9.92,-145.69 9.25,-145.7 8.91,-145.74 8.57,-145.82 7.94,-146.09 7.59,-146.3 7.11,-146.7 6.84,-147.01 6.47,-147.59 6.24,-148.16 6.14,-148.49 Z M 168.45,-148.83 168.46,-149.52 168.6,-150.18 168.86,-150.82 169.24,-151.39 169.47,-151.64 170.06,-152.11 170.78,-152.47 170.93,-152.52 171.6,-152.65 171.95,-152.68 171.96,-152.66 172.64,-152.59 172.98,-152.51 173.61,-152.24 173.9,-152.07 174.43,-151.63 174.66,-151.38 175.04,-150.81 175.3,-150.17 175.44,-149.51 175.44,-148.83 175.42,-148.82 175.37,-148.48 175.17,-147.82 175.02,-147.51 174.64,-146.94 174.36,-146.64 173.88,-146.25 173.28,-145.93 172.96,-145.81 172.36,-145.7 171.95,-145.7 171.27,-145.74 170.93,-145.82 170.24,-146.12 170,-146.26 169.47,-146.7 169.24,-146.95 168.86,-147.52 168.71,-147.83 168.52,-148.48 Z M 150.07,-148.83 150.09,-148.84 150.1,-149.53 150.24,-150.19 150.5,-150.83 150.88,-151.4 151.11,-151.65 151.64,-152.09 152.42,-152.48 153.24,-152.67 153.25,-152.65 153.92,-152.64 154.6,-152.51 155.4,-152.15 155.53,-152.07 156.06,-151.63 156.29,-151.38 156.67,-150.81 156.93,-150.17 157.07,-149.51 157.07,-148.83 157.05,-148.82 157,-148.48 156.8,-147.82 156.65,-147.51 156.27,-146.94 155.78,-146.46 155.51,-146.25 154.9,-145.93 154.58,-145.81 153.82,-145.66 152.9,-145.74 152.56,-145.82 151.93,-146.09 151.63,-146.26 151.1,-146.7 150.87,-146.95 150.49,-147.52 150.32,-147.9 Z M 15.83,-141.17 15.86,-141.65 16.03,-142.13 16.37,-142.56 16.75,-142.85 17.05,-142.97 17.57,-143.05 18.09,-142.97 18.4,-142.85 18.78,-142.56 19.12,-142.13 19.25,-141.81 19.32,-141.27 19.25,-140.8 18.98,-140.25 18.51,-139.83 18.05,-139.62 17.74,-139.56 17.24,-139.59 16.75,-139.76 16.34,-140.07 16.12,-140.33 15.88,-140.8 Z M 162.26,-141.17 162.29,-141.65 162.46,-142.13 162.8,-142.56 163.18,-142.85 163.48,-142.97 164.01,-143.05 164.52,-142.97 164.84,-142.85 165.22,-142.56 165.56,-142.13 165.68,-141.81 165.75,-141.27 165.68,-140.8 165.47,-140.33 165.37,-140.19 164.95,-139.83 164.49,-139.62 164.18,-139.56 163.67,-139.59 163.18,-139.76 162.77,-140.07 162.55,-140.33 162.31,-140.8 Z M 33.96,-136.45 33.96,-137.14 34.01,-137.48 34.21,-138.13 34.36,-138.45 34.74,-139.02 34.97,-139.27 35.56,-139.74 36.11,-140.03 36.43,-140.15 37.1,-140.28 37.44,-140.31 37.45,-140.29 38.13,-140.22 38.47,-140.14 39.16,-139.84 39.4,-139.7 40.16,-139.01 40.57,-138.37 40.82,-137.73 40.94,-137.13 40.94,-136.46 40.92,-136.45 40.85,-136.04 40.67,-135.45 40.52,-135.14 40.14,-134.57 39.65,-134.09 39.38,-133.88 38.77,-133.56 38.11,-133.36 37.85,-133.33 37.1,-133.32 36.43,-133.45 35.63,-133.81 35.5,-133.89 34.86,-134.44 34.36,-135.15 34.21,-135.46 34.01,-136.11 Z M 140.69,-136.46 140.7,-137.14 140.84,-137.81 140.95,-138.13 141.1,-138.45 141.48,-139.02 141.71,-139.27 142.3,-139.74 142.85,-140.03 143.16,-140.15 143.85,-140.28 144.19,-140.31 144.2,-140.29 145.22,-140.14 145.85,-139.87 146.15,-139.7 146.67,-139.26 146.94,-138.95 147.28,-138.44 147.52,-137.87 147.63,-137.47 147.68,-137.06 147.68,-136.46 147.66,-136.45 147.59,-136.04 147.41,-135.45 147.26,-135.14 146.89,-134.57 146.13,-133.88 145.52,-133.56 145.2,-133.44 144.59,-133.32 143.85,-133.32 143.17,-133.45 142.54,-133.72 142.24,-133.89 141.71,-134.33 141.48,-134.58 141.1,-135.15 140.95,-135.46 140.82,-135.84 Z M 57.31,-131.84 57.33,-131.85 57.4,-132.32 57.52,-132.64 57.71,-132.93 58.13,-133.29 58.56,-133.49 59.08,-133.57 59.09,-133.55 59.59,-133.46 59.91,-133.33 60.34,-133 60.63,-132.61 60.77,-132.26 60.83,-131.93 60.77,-131.43 60.75,-131.42 60.66,-131.12 60.42,-130.71 60.12,-130.42 59.83,-130.23 59.52,-130.11 59.22,-130.06 58.89,-130.07 58.52,-130.15 58.23,-130.27 57.92,-130.48 57.7,-130.7 57.51,-130.99 57.37,-131.34 Z M 121.17,-131.68 121.2,-132.16 121.37,-132.63 121.71,-133.07 122.09,-133.35 122.39,-133.48 122.92,-133.56 123.43,-133.48 123.75,-133.35 124.13,-133.07 124.47,-132.63 124.6,-132.31 124.67,-131.77 124.6,-131.31 124.38,-130.84 124.28,-130.7 123.86,-130.34 123.4,-130.13 123.09,-130.07 122.58,-130.1 122.09,-130.27 121.68,-130.58 121.46,-130.84 121.22,-131.31 Z M 87.66,-129.23 87.68,-129.24 87.76,-129.87 87.84,-130.18 88.09,-130.76 88.46,-131.28 88.92,-131.73 89.45,-132.07 90.05,-132.29 90.66,-132.41 91.32,-132.38 91.32,-132.36 91.88,-132.25 92.18,-132.15 92.79,-131.81 93.27,-131.4 93.63,-130.95 93.94,-130.39 94.13,-129.72 94.17,-129.46 94.15,-128.84 94.13,-128.83 93.95,-128.04 93.73,-127.56 93.36,-127.04 92.9,-126.6 92.38,-126.26 91.61,-125.98 91.23,-125.93 90.6,-125.94 89.98,-126.06 89.39,-126.31 89.11,-126.47 88.58,-126.92 88.13,-127.51 87.89,-127.98 87.72,-128.53 Z M 118.03,-111.6 118.05,-111.99 118.19,-112.61 118.41,-113.14 118.61,-113.46 118.98,-113.9 119.47,-114.3 119.8,-114.49 120.33,-114.71 120.93,-114.83 121.59,-114.83 122.21,-114.71 122.52,-114.61 123.13,-114.27 123.38,-114.08 123.82,-113.62 124.17,-113.08 124.28,-112.85 124.47,-112.18 124.51,-111.92 124.48,-111.2 124.38,-110.7 124.26,-110.34 124.09,-110 123.76,-109.53 123.26,-109.04 122.73,-108.7 121.89,-108.4 121.33,-108.36 120.57,-108.44 119.97,-108.64 119.42,-108.95 118.94,-109.36 118.54,-109.86 118.3,-110.29 118.06,-111.05 Z M 57.17,-111.3 57.19,-111.31 57.21,-112.01 57.43,-112.87 57.76,-113.48 58.13,-113.92 58.68,-114.36 59.49,-114.73 60.11,-114.83 60.81,-114.82 60.81,-114.8 61.37,-114.69 62.24,-114.29 62.54,-114.06 62.94,-113.65 63.17,-113.34 63.33,-113.06 63.54,-112.53 63.67,-111.9 63.64,-111.91 63.63,-111.21 63.49,-110.59 63.27,-110.06 63.07,-109.74 62.7,-109.3 62.15,-108.87 61.64,-108.6 61.04,-108.41 60.66,-108.36 60.12,-108.38 59.77,-108.42 59.11,-108.64 58.55,-108.95 58.07,-109.36 57.68,-109.86 57.41,-110.36 Z M 57.17,-76.84 57.18,-77.16 57.42,-78.09 57.59,-78.42 57.95,-78.94 58.41,-79.39 58.94,-79.73 59.48,-79.95 60.16,-80.08 60.17,-80.06 60.81,-80.05 60.81,-80.03 61.37,-79.92 62.02,-79.64 62.54,-79.28 62.98,-78.82 63.3,-78.34 63.46,-78 63.63,-77.39 63.68,-76.81 63.66,-76.81 63.62,-76.43 63.52,-75.93 63.37,-75.51 63.23,-75.23 62.9,-74.75 62.4,-74.26 61.87,-73.93 61.1,-73.65 60.65,-73.59 60.41,-73.59 59.77,-73.65 59.11,-73.86 58.55,-74.17 58.11,-74.53 57.68,-75.08 57.41,-75.59 57.23,-76.2 Z M 118.02,-76.52 118.05,-76.52 118.06,-77.23 118.16,-77.73 118.31,-78.15 118.62,-78.69 119.04,-79.18 119.8,-79.73 120.4,-79.96 120.96,-80.05 121.66,-80.04 122.22,-79.93 122.87,-79.65 123.39,-79.29 123.79,-78.88 124.02,-78.58 124.29,-78.07 124.48,-77.4 124.54,-76.83 124.51,-76.82 124.49,-76.44 124.39,-75.94 124.24,-75.52 123.93,-74.97 123.51,-74.48 123.01,-74.1 122.44,-73.81 121.83,-73.63 121.27,-73.59 120.57,-73.67 119.97,-73.86 119.42,-74.17 118.94,-74.58 118.58,-75.03 118.38,-75.36 118.15,-75.95 Z M 35.49,-67.02 35.51,-67.03 35.58,-67.76 35.8,-68.34 36.32,-69.01 36.83,-69.37 37.05,-69.48 37.63,-69.64 38,-69.67 38.01,-69.65 38.5,-69.6 38.97,-69.46 39.4,-69.23 39.78,-68.91 40.15,-68.44 40.37,-67.98 40.51,-67.28 40.44,-66.56 40.42,-66.55 40.2,-65.96 39.76,-65.37 39.38,-65.06 38.95,-64.83 38.37,-64.67 38.24,-64.66 37.75,-64.66 37.27,-64.76 37.04,-64.84 36.61,-65.07 36.23,-65.38 35.79,-65.97 35.6,-66.43 Z M 141.2,-67.04 141.27,-67.75 141.49,-68.33 142.01,-69 142.52,-69.36 142.74,-69.47 143.31,-69.63 143.7,-69.66 144.19,-69.61 144.66,-69.47 145.09,-69.24 145.47,-68.92 145.91,-68.33 146.1,-67.88 146.2,-67.27 146.14,-66.66 146.09,-66.42 145.9,-65.96 145.46,-65.37 145.08,-65.06 144.65,-64.83 143.95,-64.66 143.46,-64.66 142.97,-64.76 142.74,-64.84 142.31,-65.07 141.93,-65.38 141.49,-65.97 141.24,-66.67 Z M 157.76,-60.63 157.78,-60.64 157.79,-61.32 157.95,-62.06 158.19,-62.62 158.57,-63.2 158.8,-63.45 159.33,-63.89 159.94,-64.21 160.25,-64.33 160.93,-64.46 161.27,-64.47 161.28,-64.45 161.96,-64.38 162.3,-64.3 163.1,-63.94 163.23,-63.86 163.76,-63.42 163.99,-63.17 164.37,-62.59 164.52,-62.28 164.72,-61.63 164.77,-61.29 164.77,-60.63 164.74,-60.61 164.69,-60.28 164.49,-59.62 164.34,-59.31 163.96,-58.74 163.47,-58.26 162.9,-57.87 162.27,-57.61 161.6,-57.48 160.92,-57.49 160.58,-57.54 160.24,-57.62 159.32,-58.06 158.68,-58.61 158.18,-59.32 158.03,-59.63 Z M 16.98,-60.63 16.98,-61.31 17.03,-61.65 17.23,-62.3 17.56,-62.91 17.76,-63.19 17.99,-63.44 18.58,-63.91 19.13,-64.2 19.45,-64.32 20.12,-64.45 20.48,-64.46 21.16,-64.39 21.5,-64.31 22.13,-64.04 22.43,-63.87 22.96,-63.43 23.19,-63.18 23.72,-62.29 23.91,-61.64 23.96,-61.3 23.94,-60.6 23.79,-59.94 23.69,-59.61 23.54,-59.3 23.16,-58.73 22.62,-58.21 22.4,-58.04 22.1,-57.86 21.47,-57.6 20.8,-57.48 20.06,-57.5 19.45,-57.62 18.82,-57.88 18.52,-58.06 17.99,-58.5 17.76,-58.75 17.38,-59.32 17.23,-59.63 17.02,-60.29 Z M 28,-49.9 28.06,-51.25 28.26,-52.59 28.59,-53.9 29.04,-55.17 29.62,-56.39 30.31,-57.55 31.12,-58.63 32.03,-59.63 33.03,-60.54 34.11,-61.34 35.27,-62.03 36.49,-62.61 37.76,-63.06 39.07,-63.39 40.4,-63.59 41.76,-63.66 43.11,-63.58 44.44,-63.38 45.75,-63.05 47.02,-62.6 48.24,-62.02 49.4,-61.33 50.48,-60.53 51.48,-59.62 52.39,-58.62 53.19,-57.54 53.89,-56.38 54.47,-55.16 54.92,-53.89 55.25,-52.58 55.45,-51.24 55.51,-49.89 55.45,-48.56 55.43,-48.55 55.23,-47.21 54.9,-45.9 54.45,-44.63 53.87,-43.41 53.17,-42.25 52.37,-41.17 51.46,-40.17 50.46,-39.26 49.38,-38.46 48.22,-37.77 47,-37.19 45.73,-36.73 44.42,-36.41 43.09,-36.21 41.75,-36.15 40.4,-36.22 39.07,-36.42 37.76,-36.74 36.49,-37.2 35.27,-37.78 34.11,-38.47 33.03,-39.27 32.03,-40.18 31.12,-41.18 30.31,-42.26 29.62,-43.42 29.04,-44.64 28.59,-45.91 28.26,-47.22 28.05,-48.56 Z M 126.15,-49.9 126.21,-51.25 126.41,-52.59 126.74,-53.9 127.19,-55.17 127.77,-56.39 128.47,-57.55 129.27,-58.63 130.18,-59.63 131.18,-60.54 132.26,-61.34 133.42,-62.03 134.64,-62.61 135.91,-63.06 137.22,-63.39 138.55,-63.59 139.91,-63.66 141.26,-63.58 142.59,-63.38 143.9,-63.05 145.17,-62.6 146.39,-62.02 147.55,-61.33 148.63,-60.53 149.63,-59.62 150.54,-58.62 151.35,-57.54 152.04,-56.38 152.62,-55.16 153.07,-53.89 153.4,-52.58 153.6,-51.24 153.66,-49.89 153.6,-48.56 153.58,-48.55 153.38,-47.21 153.05,-45.9 152.6,-44.63 152.02,-43.41 151.33,-42.25 150.52,-41.17 149.61,-40.17 148.61,-39.26 147.53,-38.46 146.37,-37.77 145.15,-37.19 143.88,-36.73 142.57,-36.41 141.24,-36.21 139.9,-36.15 138.55,-36.22 137.22,-36.42 135.91,-36.74 134.64,-37.2 133.42,-37.78 132.26,-38.47 131.18,-39.27 130.18,-40.18 129.27,-41.18 128.47,-42.26 127.77,-43.42 127.19,-44.64 126.74,-45.91 126.41,-47.22 126.2,-48.56 Z M 87.67,-59.44 87.75,-60.07 87.83,-60.38 88.08,-60.95 88.45,-61.47 88.91,-61.92 89.44,-62.26 90.04,-62.49 90.64,-62.6 91.32,-62.57 91.88,-62.46 92.18,-62.35 92.79,-62.01 93.23,-61.64 93.48,-61.36 93.83,-60.82 93.94,-60.6 94.13,-59.93 94.17,-59.67 94.15,-59.67 94.13,-59.04 94.02,-58.47 93.87,-58.05 93.73,-57.77 93.36,-57.24 92.9,-56.8 92.42,-56.49 92.14,-56.35 91.47,-56.16 90.98,-56.12 89.98,-56.27 89.11,-56.67 88.62,-57.07 88.18,-57.62 87.89,-58.19 87.71,-58.8 Z M 15.02,-45.76 15.04,-45.77 15.11,-46.24 15.24,-46.56 15.58,-47 15.96,-47.28 16.31,-47.42 16.79,-47.49 16.8,-47.47 17.31,-47.38 17.66,-47.23 18.06,-46.92 18.35,-46.53 18.49,-46.18 18.55,-45.67 18.48,-45.22 18.22,-44.74 17.87,-44.36 17.59,-44.17 17.15,-44.01 16.44,-44.01 15.92,-44.21 15.54,-44.49 15.23,-44.91 15.09,-45.24 Z M 163.38,-45.76 163.4,-45.77 163.47,-46.24 163.6,-46.56 163.94,-47 164.32,-47.28 164.66,-47.42 165.14,-47.49 165.15,-47.47 165.66,-47.38 166.01,-47.23 166.41,-46.92 166.7,-46.53 166.84,-46.18 166.9,-45.67 166.83,-45.22 166.57,-44.74 166.22,-44.36 165.75,-44.08 165.5,-44.01 164.79,-44.01 164.28,-44.21 163.9,-44.49 163.59,-44.91 163.45,-45.24 Z M 154.96,-34.38 154.98,-34.39 154.99,-35.08 155.13,-35.75 155.24,-36.07 155.57,-36.68 155.77,-36.96 156,-37.21 156.53,-37.65 157.14,-37.97 157.46,-38.09 158.14,-38.22 158.46,-38.25 158.47,-38.22 159.15,-38.16 159.48,-38.08 160.11,-37.81 160.42,-37.64 160.94,-37.2 161.17,-36.95 161.55,-36.37 161.72,-36 161.9,-35.41 161.96,-35.06 161.94,-34.37 161.89,-34.03 161.69,-33.38 161.54,-33.07 161.16,-32.5 160.53,-31.9 160.11,-31.63 159.48,-31.36 158.8,-31.24 158.13,-31.25 157.45,-31.38 156.82,-31.64 156.52,-31.82 155.99,-32.26 155.76,-32.51 155.38,-33.08 155.21,-33.46 Z M 19.67,-34.38 19.68,-35.07 19.73,-35.41 19.93,-36.06 20.26,-36.67 20.46,-36.95 20.69,-37.2 21.22,-37.64 21.83,-37.96 22.48,-38.16 23.17,-38.24 23.18,-38.21 23.85,-38.15 24.2,-38.07 24.82,-37.8 25.12,-37.63 25.65,-37.19 25.88,-36.94 26.26,-36.36 26.41,-36.05 26.6,-35.4 26.66,-35.06 26.63,-34.36 26.49,-33.7 26.38,-33.37 26.23,-33.06 25.85,-32.49 25.36,-32.01 24.79,-31.62 24.16,-31.36 23.5,-31.24 22.83,-31.25 22.15,-31.38 21.52,-31.64 21.22,-31.82 20.69,-32.26 20.46,-32.51 20.08,-33.08 19.91,-33.46 19.72,-34.04 Z M 44.82,-29.12 44.84,-29.13 44.91,-29.6 45.04,-29.92 45.38,-30.36 45.76,-30.64 46.11,-30.78 46.59,-30.85 46.6,-30.83 47.11,-30.74 47.46,-30.59 47.86,-30.28 48.15,-29.89 48.29,-29.54 48.35,-29.04 48.28,-28.58 48.02,-28.1 47.67,-27.72 47.2,-27.44 46.95,-27.37 46.24,-27.37 45.72,-27.57 45.34,-27.85 45.03,-28.27 44.89,-28.61 Z M 133.25,-29.03 133.33,-29.53 133.56,-29.99 133.86,-30.32 134.36,-30.61 134.81,-30.73 135.17,-30.73 135.51,-30.66 135.83,-30.53 136.14,-30.32 136.36,-30.1 136.63,-29.62 136.75,-29.13 136.69,-28.6 136.53,-28.15 136.22,-27.73 135.81,-27.43 135.62,-27.34 135.17,-27.25 134.62,-27.28 134.33,-27.37 133.86,-27.66 133.54,-28.02 133.29,-28.52 Z "
/>
</g>
</svg>
