  0
SECTION
  2
HEADER
  9
$ACADVER
  1
AC1014
  9
$HANDSEED
  5
FFFF
  9
$MEASUREMENT
 70
     1
  0
ENDSEC
  0
SECTION
  2
TABLES
  0
TABLE
  2
VPORT
  5
8
330
0
100
AcDbSymbolTable
 70
     4
  0
VPORT
  5
2E
330
8
100
AcDbSymbolTableRecord
100
AcDbViewportTableRecord
  2
*ACTIVE
 70
     0
 10
0.0
 20
0.0
 11
1.0
 21
1.0
 12
210.0
 22
148.5
 13
0.0
 23
0.0
 14
10.0
 24
10.0
 15
10.0
 25
10.0
 16
0.0
 26
0.0
 36
1.0
 17
0.0
 27
0.0
 37
0.0
 40
341.0
 41
1.24
 42
50.0
 43
0.0
 44
0.0
 50
0.0
 51
0.0
 71
     0
 72
   100
 73
     1
 74
     3
 75
     0
 76
     0
 77
     0
 78
     0
  0
ENDTAB
  0
TABLE
  2
LTYPE
  5
5
330
0
100
AcDbSymbolTable
 70
     1
  0
LTYPE
  5
14
330
5
100
AcDbSymbolTableRecord
100
AcDbLinetypeTableRecord
  2
BYBLOCK
 70
     0
  3

 72
    65
 73
     0
 40
0.0
  0
LTYPE
  5
15
330
5
100
AcDbSymbolTableRecord
100
AcDbLinetypeTableRecord
  2
BYLAYER
 70
     0
  3

 72
    65
 73
     0
 40
0.0
  0
LTYPE
  5
16
330
5
100
AcDbSymbolTableRecord
100
AcDbLinetypeTableRecord
  2
CONTINUOUS
 70
     0
  3
Solid line
 72
    65
 73
     0
 40
0.0
  0
ENDTAB
  0
TABLE
  2
LAYER
  5
2
100
AcDbSymbolTable
 70
2
  0
LAYER
  5
50
100
AcDbSymbolTableRecord
100
AcDbLayerTableRecord
  2
0
 70
0
  6
CONTINUOUS
  0
LAYER
  5
51
100
AcDbSymbolTableRecord
100
AcDbLayerTableRecord
  2
Calque_1
 70
0
  6
CONTINUOUS
  0
ENDTAB
  0
TABLE
  2
STYLE
  5
3
330
0
100
AcDbSymbolTable
 70
     1
  0
STYLE
  5
11
330
3
100
AcDbSymbolTableRecord
100
AcDbTextStyleTableRecord
  2
STANDARD
 70
     0
 40
0.0
 41
1.0
 50
0.0
 71
     0
 42
2.5
  3
txt
  4

  0
ENDTAB
  0
TABLE
  2
VIEW
  5
6
330
0
100
AcDbSymbolTable
 70
     0
  0
ENDTAB
  0
TABLE
  2
UCS
  5
7
330
0
100
AcDbSymbolTable
 70
     0
  0
ENDTAB
  0
TABLE
  2
APPID
  5
9
330
0
100
AcDbSymbolTable
 70
     2
  0
APPID
  5
12
330
9
100
AcDbSymbolTableRecord
100
AcDbRegAppTableRecord
  2
ACAD
 70
     0
  0
ENDTAB
  0
TABLE
  2
DIMSTYLE
  5
A
330
0
100
AcDbSymbolTable
 70
     1
  0
DIMSTYLE
105
27
330
A
100
AcDbSymbolTableRecord
100
AcDbDimStyleTableRecord
  2
ISO-25
 70
     0
  3

  4

  5

  6

  7

 40
1.0
 41
2.5
 42
0.625
 43
3.75
 44
1.25
 45
0.0
 46
0.0
 47
0.0
 48
0.0
140
2.5
141
2.5
142
0.0
143
0.03937007874016
144
1.0
145
0.0
146
1.0
147
0.625
 71
     0
 72
     0
 73
     0
 74
     0
 75
     0
 76
     0
 77
     1
 78
     8
170
     0
171
     3
172
     1
173
     0
174
     0
175
     0
176
     0
177
     0
178
     0
270
     2
271
     2
272
     2
273
     2
274
     3
340
11
275
     0
280
     0
281
     0
282
     0
283
     0
284
     8
285
     0
286
     0
287
     3
288
     0
  0
ENDTAB
  0
TABLE
  2
BLOCK_RECORD
  5
1
330
0
100
AcDbSymbolTable
 70
     1
  0
BLOCK_RECORD
  5
1F
330
1
100
AcDbSymbolTableRecord
100
AcDbBlockTableRecord
  2
*MODEL_SPACE
  0
BLOCK_RECORD
  5
1B
330
1
100
AcDbSymbolTableRecord
100
AcDbBlockTableRecord
  2
*PAPER_SPACE
  0
ENDTAB
  0
ENDSEC
  0
SECTION
  2
BLOCKS
  0
BLOCK
  5
20
330
1F
100
AcDbEntity
  8
0
100
AcDbBlockBegin
  2
*MODEL_SPACE
 70
     0
 10
0.0
 20
0.0
 30
0.0
  3
*MODEL_SPACE
  1

  0
ENDBLK
  5
21
330
1F
100
AcDbEntity
  8
0
100
AcDbBlockEnd
  0
BLOCK
  5
1C
330
1B
100
AcDbEntity
 67
     1
  8
0
100
AcDbBlockBegin
  2
*PAPER_SPACE
  1

  0
ENDBLK
  5
1D
330
1B
100
AcDbEntity
 67
     1
  8
0
100
AcDbBlockEnd
  0
ENDSEC
  0
SECTION
  2
ENTITIES
  0
LWPOLYLINE
  5
100
100
AcDbEntity
  8
Calque_1
 62
5
100
AcDbPolyline
 90
181
 70
1
 10
0.557497
 20
214.616520
 30
0.0
 10
0.607452
 20
209.974718
 30
0.0
 10
1.007090
 20
202.288294
 30
0.0
 10
1.806366
 20
194.801520
 30
0.0
 10
2.405823
 20
191.157950
 30
0.0
 10
3.055235
 20
187.464470
 30
0.0
 10
4.453969
 20
181.475050
 30
0.0
 10
6.052521
 20
176.084570
 30
0.0
 10
7.750983
 20
171.342950
 30
0.0
 10
9.948992
 20
166.152120
 30
0.0
 10
12.196957
 20
161.759870
 30
0.0
 10
14.444921
 20
158.016480
 30
0.0
 10
16.992614
 20
154.472740
 30
0.0
 10
19.440397
 20
151.727590
 30
0.0
 10
21.788271
 20
149.531470
 30
0.0
 10
22.737412
 20
148.782790
 30
0.0
 10
24.485828
 20
147.734640
 30
0.0
 10
26.484019
 20
146.936050
 30
0.0
 10
28.532163
 20
146.536760
 30
0.0
 10
30.880037
 20
146.387020
 30
0.0
 10
35.176147
 20
146.686490
 30
0.0
 10
38.073524
 20
147.185610
 30
0.0
 10
43.768367
 20
148.583140
 30
0.0
 10
58.255248
 20
152.426360
 30
0.0
 10
58.854704
 20
152.326560
 30
0.0
 10
59.004568
 20
151.777530
 30
0.0
 10
59.204389
 20
151.527970
 30
0.0
 10
59.803844
 20
151.577870
 30
0.0
 10
70.294344
 20
154.023560
 30
0.0
 10
75.689459
 20
155.171530
 30
0.0
 10
80.784844
 20
156.119850
 30
0.0
 10
88.128195
 20
157.168000
 30
0.0
 10
97.469735
 20
157.417560
 30
0.0
 10
114.404400
 20
157.417560
 30
0.0
 10
125.844040
 20
157.217910
 30
0.0
 10
130.889470
 20
156.768710
 30
0.0
 10
139.331830
 20
155.471000
 30
0.0
 10
141.629750
 20
155.221440
 30
0.0
 10
144.177440
 20
155.021790
 30
0.0
 10
146.675180
 20
154.971890
 30
0.0
 10
148.773280
 20
155.021790
 30
0.0
 10
153.618890
 20
155.471000
 30
0.0
 10
162.410930
 20
156.818620
 30
0.0
 10
167.056720
 20
157.217910
 30
0.0
 10
176.598080
 20
157.417560
 30
0.0
 10
189.536360
 20
157.517360
 30
0.0
 10
202.474650
 20
157.317720
 30
0.0
 10
208.419260
 20
156.668860
 30
0.0
 10
214.513740
 20
155.720540
 30
0.0
 10
218.160440
 20
155.021770
 30
0.0
 10
225.353930
 20
153.424590
 30
0.0
 10
233.796280
 20
151.378210
 30
0.0
 10
234.245880
 20
152.276620
 30
0.0
 10
235.095100
 20
152.276620
 30
0.0
 10
247.334020
 20
149.082260
 30
0.0
 10
255.676470
 20
147.085790
 30
0.0
 10
258.923530
 20
146.536760
 30
0.0
 10
261.221450
 20
146.337110
 30
0.0
 10
263.319550
 20
146.337110
 30
0.0
 10
265.267780
 20
146.636580
 30
0.0
 10
266.916280
 20
147.085790
 30
0.0
 10
269.114300
 20
148.084030
 30
0.0
 10
271.162440
 20
149.431650
 30
0.0
 10
273.360460
 20
151.378210
 30
0.0
 10
275.708340
 20
153.923710
 30
0.0
 10
277.856390
 20
156.818600
 30
0.0
 10
279.904530
 20
160.112780
 30
0.0
 10
281.952670
 20
163.806260
 30
0.0
 10
283.900910
 20
167.948940
 30
0.0
 10
285.299630
 20
171.293030
 30
0.0
 10
286.648420
 20
174.936600
 30
0.0
 10
288.646620
 20
181.574880
 30
0.0
 10
290.395020
 20
189.610680
 30
0.0
 10
291.094400
 20
193.753370
 30
0.0
 10
291.893670
 20
199.792701
 30
0.0
 10
292.193410
 20
204.135032
 30
0.0
 10
292.293310
 20
208.677010
 30
0.0
 10
292.293310
 20
219.907176
 30
0.0
 10
292.193410
 20
226.745100
 30
0.0
 10
291.943630
 20
231.686373
 30
0.0
 10
291.094400
 20
239.572445
 30
0.0
 10
290.245160
 20
244.962925
 30
0.0
 10
289.096190
 20
250.453229
 30
0.0
 10
287.747430
 20
255.893619
 30
0.0
 10
286.248790
 20
261.184276
 30
0.0
 10
284.550320
 20
266.125549
 30
0.0
 10
282.751940
 20
270.617614
 30
0.0
 10
280.903620
 20
274.560652
 30
0.0
 10
279.155200
 20
277.555362
 30
0.0
 10
276.907240
 20
280.550072
 30
0.0
 10
274.209690
 20
283.245314
 30
0.0
 10
271.462180
 20
285.491348
 30
0.0
 10
268.464890
 20
287.387997
 30
0.0
 10
266.466690
 20
288.436145
 30
0.0
 10
266.866350
 20
289.384470
 30
0.0
 10
268.065250
 20
291.430855
 30
0.0
 10
263.619280
 20
293.577066
 30
0.0
 10
261.371310
 20
294.475479
 30
0.0
 10
257.574750
 20
295.423803
 30
0.0
 10
253.378550
 20
295.972834
 30
0.0
 10
248.982530
 20
296.072659
 30
0.0
 10
244.436650
 20
295.773188
 30
0.0
 10
239.840810
 20
295.024509
 30
0.0
 10
235.244970
 20
293.926448
 30
0.0
 10
230.549220
 20
292.279357
 30
0.0
 10
226.752660
 20
290.532443
 30
0.0
 10
223.006050
 20
288.336322
 30
0.0
 10
219.309400
 20
285.441435
 30
0.0
 10
212.016010
 20
278.952894
 30
0.0
 10
210.417450
 20
277.655185
 30
0.0
 10
207.270300
 20
275.359241
 30
0.0
 10
205.771660
 20
274.410916
 30
0.0
 10
202.474650
 20
272.614089
 30
0.0
 10
199.976910
 20
271.466116
 30
0.0
 10
197.479170
 20
270.517791
 30
0.0
 10
191.384690
 20
268.770877
 30
0.0
 10
188.387400
 20
268.171934
 30
0.0
 10
182.392830
 20
267.423258
 30
0.0
 10
178.196630
 20
267.373348
 30
0.0
 10
176.098530
 20
267.523084
 30
0.0
 10
173.900520
 20
267.922378
 30
0.0
 10
165.707940
 20
270.318148
 30
0.0
 10
162.261060
 20
271.216560
 30
0.0
 10
158.114820
 20
272.114975
 30
0.0
 10
151.620700
 20
273.113210
 30
0.0
 10
148.773280
 20
273.362771
 30
0.0
 10
145.726040
 20
273.412681
 30
0.0
 10
143.228300
 20
273.312861
 30
0.0
 10
140.630650
 20
273.013390
 30
0.0
 10
138.382690
 20
272.713918
 30
0.0
 10
133.237350
 20
271.765593
 30
0.0
 10
125.893990
 20
269.918857
 30
0.0
 10
119.299970
 20
267.922381
 30
0.0
 10
116.052910
 20
267.423264
 30
0.0
 10
113.305390
 20
267.373354
 30
0.0
 10
110.707750
 20
267.423264
 30
0.0
 10
108.110100
 20
267.672823
 30
0.0
 10
105.212720
 20
268.072117
 30
0.0
 10
102.315350
 20
268.621147
 30
0.0
 10
99.218153
 20
269.369826
 30
0.0
 10
96.420686
 20
270.218326
 30
0.0
 10
91.375256
 20
272.214801
 30
0.0
 10
89.626838
 20
273.063303
 30
0.0
 10
86.279868
 20
275.059775
 30
0.0
 10
82.882945
 20
277.505455
 30
0.0
 10
81.184482
 20
278.853071
 30
0.0
 10
72.991903
 20
286.090288
 30
0.0
 10
69.445115
 20
288.735617
 30
0.0
 10
67.946470
 20
289.683942
 30
0.0
 10
66.248010
 20
290.582356
 30
0.0
 10
62.701220
 20
292.229447
 30
0.0
 10
58.105384
 20
293.826625
 30
0.0
 10
52.760222
 20
295.124334
 30
0.0
 10
47.914613
 20
295.823101
 30
0.0
 10
45.416874
 20
296.022746
 30
0.0
 10
41.270629
 20
296.072659
 30
0.0
 10
36.974519
 20
295.723275
 30
0.0
 10
34.376872
 20
295.224157
 30
0.0
 10
33.128002
 20
294.874776
 30
0.0
 10
29.731077
 20
293.676889
 30
0.0
 10
27.533068
 20
292.678652
 30
0.0
 10
25.335059
 20
291.480768
 30
0.0
 10
25.185195
 20
291.231209
 30
0.0
 10
26.384110
 20
289.084998
 30
0.0
 10
26.484020
 20
288.585881
 30
0.0
 10
25.784653
 20
288.036851
 30
0.0
 10
21.688363
 20
285.591171
 30
0.0
 10
20.189720
 20
284.443197
 30
0.0
 10
17.542117
 20
282.047430
 30
0.0
 10
15.294153
 20
279.501925
 30
0.0
 10
14.195148
 20
278.004569
 30
0.0
 10
12.097048
 20
274.361003
 30
0.0
 10
10.298677
 20
270.617614
 30
0.0
 10
8.450351
 20
266.025726
 30
0.0
 10
6.751889
 20
260.984627
 30
0.0
 10
5.203291
 20
255.644060
 30
0.0
 10
3.754603
 20
249.604727
 30
0.0
 10
2.705553
 20
244.314071
 30
0.0
 10
1.856322
 20
238.624120
 30
0.0
 10
1.107000
 20
231.686373
 30
0.0
 10
0.657408
 20
222.253033
 30
0.0
  0
LWPOLYLINE
  5
101
100
AcDbEntity
  8
Calque_1
 62
5
100
AcDbPolyline
 90
27
 70
1
 10
36.474972
 20
284.043903
 30
0.0
 10
36.524922
 20
285.690994
 30
0.0
 10
37.024472
 20
287.188349
 30
0.0
 10
37.973612
 20
288.585881
 30
0.0
 10
39.072616
 20
289.584119
 30
0.0
 10
40.221574
 20
290.282885
 30
0.0
 10
41.370535
 20
290.682179
 30
0.0
 10
42.619404
 20
290.881825
 30
0.0
 10
43.918229
 20
290.782002
 30
0.0
 10
45.067186
 20
290.482531
 30
0.0
 10
46.216147
 20
289.883590
 30
0.0
 10
47.265196
 20
289.035088
 30
0.0
 10
48.214336
 20
287.687469
 30
0.0
 10
48.763838
 20
286.439673
 30
0.0
 10
49.063567
 20
284.992228
 30
0.0
 10
49.013617
 20
283.644608
 30
0.0
 10
48.663933
 20
282.197163
 30
0.0
 10
48.014521
 20
280.899457
 30
0.0
 10
47.065381
 20
279.801396
 30
0.0
 10
45.267010
 20
278.703335
 30
0.0
 10
44.018141
 20
278.353951
 30
0.0
 10
42.969089
 20
278.204215
 30
0.0
 10
41.370538
 20
278.304045
 30
0.0
 10
39.771986
 20
278.952898
 30
0.0
 10
38.573070
 20
279.851310
 30
0.0
 10
37.424112
 20
281.198932
 30
0.0
 10
36.774699
 20
282.596464
 30
0.0
  0
LWPOLYLINE
  5
102
100
AcDbEntity
  8
Calque_1
 62
5
100
AcDbPolyline
 90
30
 70
1
 10
243.987050
 20
283.844254
 30
0.0
 10
243.987050
 20
285.141963
 30
0.0
 10
244.336740
 20
286.938790
 30
0.0
 10
244.536560
 20
287.387997
 30
0.0
 10
245.585600
 20
288.835440
 30
0.0
 10
246.934390
 20
289.933500
 30
0.0
 10
248.482980
 20
290.582356
 30
0.0
 10
250.181440
 20
290.831915
 30
0.0
 10
251.829950
 20
290.632266
 30
0.0
 10
253.278640
 20
290.133149
 30
0.0
 10
254.727330
 20
289.084998
 30
0.0
 10
255.776380
 20
287.687469
 30
0.0
 10
256.076100
 20
286.988703
 30
0.0
 10
256.275930
 20
286.240024
 30
0.0
 10
256.425790
 20
284.592933
 30
0.0
 10
256.275930
 20
282.846019
 30
0.0
 10
256.076100
 20
282.097340
 30
0.0
 10
255.776380
 20
281.348664
 30
0.0
 10
254.627420
 20
279.901219
 30
0.0
 10
253.478460
 20
279.052717
 30
0.0
 10
252.928960
 20
278.803158
 30
0.0
 10
251.680090
 20
278.353951
 30
0.0
 10
250.481170
 20
278.154305
 30
0.0
 10
249.581990
 20
278.154305
 30
0.0
 10
248.133300
 20
278.553600
 30
0.0
 10
246.634660
 20
279.402102
 30
0.0
 10
245.985250
 20
279.951132
 30
0.0
 10
245.285880
 20
280.649898
 30
0.0
 10
244.436650
 20
281.997517
 30
0.0
 10
244.037010
 20
283.245314
 30
0.0
  0
LWPOLYLINE
  5
103
100
AcDbEntity
  8
Calque_1
 62
5
100
AcDbPolyline
 90
16
 70
1
 10
233.046960
 20
287.787292
 30
0.0
 10
233.096960
 20
288.436145
 30
0.0
 10
233.546550
 20
289.184824
 30
0.0
 10
233.946190
 20
289.484296
 30
0.0
 10
234.595600
 20
289.683942
 30
0.0
 10
235.294960
 20
289.634028
 30
0.0
 10
235.794510
 20
289.384470
 30
0.0
 10
236.344010
 20
288.785529
 30
0.0
 10
236.543830
 20
288.136673
 30
0.0
 10
236.493930
 20
287.437907
 30
0.0
 10
236.244150
 20
286.938790
 30
0.0
 10
235.644700
 20
286.389760
 30
0.0
 10
234.995290
 20
286.190111
 30
0.0
 10
234.295920
 20
286.240021
 30
0.0
 10
233.546600
 20
286.689228
 30
0.0
 10
233.246870
 20
287.088523
 30
0.0
  0
LWPOLYLINE
  5
104
100
AcDbEntity
  8
Calque_1
 62
5
100
AcDbPolyline
 90
16
 70
1
 10
56.456877
 20
287.787292
 30
0.0
 10
56.506827
 20
288.436145
 30
0.0
 10
56.956420
 20
289.184824
 30
0.0
 10
57.356058
 20
289.484296
 30
0.0
 10
58.005469
 20
289.683942
 30
0.0
 10
58.704836
 20
289.634028
 30
0.0
 10
59.454159
 20
289.184824
 30
0.0
 10
59.753888
 20
288.785529
 30
0.0
 10
59.953705
 20
288.086763
 30
0.0
 10
59.903755
 20
287.437907
 30
0.0
 10
59.454162
 20
286.689231
 30
0.0
 10
59.054524
 20
286.389760
 30
0.0
 10
58.405113
 20
286.190111
 30
0.0
 10
57.705746
 20
286.240021
 30
0.0
 10
56.956423
 20
286.689228
 30
0.0
 10
56.656694
 20
287.088523
 30
0.0
  0
LWPOLYLINE
  5
105
100
AcDbEntity
  8
Calque_1
 62
5
100
AcDbPolyline
 90
30
 70
1
 10
60.203484
 20
274.860123
 30
0.0
 10
60.253434
 20
275.958184
 30
0.0
 10
60.453255
 20
276.806686
 30
0.0
 10
60.802937
 20
277.755011
 30
0.0
 10
61.702124
 20
279.152543
 30
0.0
 10
62.401491
 20
279.851306
 30
0.0
 10
64.000042
 20
280.849544
 30
0.0
 10
64.999138
 20
281.149015
 30
0.0
 10
66.148096
 20
281.298751
 30
0.0
 10
67.347012
 20
281.248841
 30
0.0
 10
68.545925
 20
280.949370
 30
0.0
 10
69.594974
 20
280.550075
 30
0.0
 10
70.544117
 20
279.951135
 30
0.0
 10
71.343393
 20
279.202456
 30
0.0
 10
71.942848
 20
278.403867
 30
0.0
 10
72.492351
 20
277.056248
 30
0.0
 10
72.742127
 20
275.808451
 30
0.0
 10
72.742127
 20
274.460832
 30
0.0
 10
72.542306
 20
273.312858
 30
0.0
 10
72.042760
 20
272.015149
 30
0.0
 10
71.343393
 20
270.967001
 30
0.0
 10
70.494161
 20
270.118500
 30
0.0
 10
69.395157
 20
269.419733
 30
0.0
 10
67.746650
 20
268.820790
 30
0.0
 10
66.148096
 20
268.720970
 30
0.0
 10
64.599500
 20
268.970529
 30
0.0
 10
63.200766
 20
269.619385
 30
0.0
 10
62.051806
 20
270.517797
 30
0.0
 10
61.052710
 20
271.815506
 30
0.0
 10
60.403299
 20
273.312861
 30
0.0
  0
LWPOLYLINE
  5
106
100
AcDbEntity
  8
Calque_1
 62
5
100
AcDbPolyline
 90
28
 70
1
 10
220.258540
 20
275.159592
 30
0.0
 10
220.508310
 20
276.906509
 30
0.0
 10
221.157730
 20
278.304041
 30
0.0
 10
222.006960
 20
279.452012
 30
0.0
 10
223.205870
 20
280.350426
 30
0.0
 10
224.604610
 20
280.999280
 30
0.0
 10
226.253110
 20
281.298751
 30
0.0
 10
227.701800
 20
281.198931
 30
0.0
 10
229.350310
 20
280.649901
 30
0.0
 10
230.499270
 20
280.001045
 30
0.0
 10
231.398450
 20
279.152546
 30
0.0
 10
232.097820
 20
278.054483
 30
0.0
 10
232.547410
 20
276.856599
 30
0.0
 10
232.797190
 20
275.758538
 30
0.0
 10
232.847090
 20
274.660478
 30
0.0
 10
232.697230
 20
273.512504
 30
0.0
 10
232.347540
 20
272.514269
 30
0.0
 10
231.897950
 20
271.665768
 30
0.0
 10
231.248540
 20
270.817266
 30
0.0
 10
230.399310
 20
270.018677
 30
0.0
 10
229.500120
 20
269.419733
 30
0.0
 10
227.851620
 20
268.820790
 30
0.0
 10
226.203110
 20
268.671057
 30
0.0
 10
224.654510
 20
268.970526
 30
0.0
 10
223.355690
 20
269.569469
 30
0.0
 10
222.006910
 20
270.617617
 30
0.0
 10
221.057770
 20
271.865413
 30
0.0
 10
220.458310
 20
273.412681
 30
0.0
  0
LWPOLYLINE
  5
107
100
AcDbEntity
  8
Calque_1
 62
5
100
AcDbPolyline
 90
16
 70
1
 10
19.290533
 20
271.416206
 30
0.0
 10
19.290533
 20
271.965236
 30
0.0
 10
19.490352
 20
272.514266
 30
0.0
 10
20.039855
 20
273.113207
 30
0.0
 10
20.789176
 20
273.412678
 30
0.0
 10
21.338678
 20
273.412678
 30
0.0
 10
22.038045
 20
273.113207
 30
0.0
 10
22.487638
 20
272.664002
 30
0.0
 10
22.787366
 20
271.965236
 30
0.0
 10
22.737416
 20
271.216557
 30
0.0
 10
22.487642
 20
270.667527
 30
0.0
 10
22.038049
 20
270.218320
 30
0.0
 10
21.288727
 20
269.918851
 30
0.0
 10
20.539406
 20
269.968761
 30
0.0
 10
19.989904
 20
270.268232
 30
0.0
 10
19.590265
 20
270.667527
 30
0.0
  0
LWPOLYLINE
  5
108
100
AcDbEntity
  8
Calque_1
 62
5
100
AcDbPolyline
 90
16
 70
1
 10
270.063430
 20
271.416206
 30
0.0
 10
270.113430
 20
272.164882
 30
0.0
 10
270.363210
 20
272.664002
 30
0.0
 10
271.062580
 20
273.262943
 30
0.0
 10
271.562110
 20
273.412678
 30
0.0
 10
272.311450
 20
273.362768
 30
0.0
 10
272.860940
 20
273.063297
 30
0.0
 10
273.410460
 20
272.414441
 30
0.0
 10
273.560320
 20
271.915323
 30
0.0
 10
273.560320
 20
271.366293
 30
0.0
 10
273.260580
 20
270.667527
 30
0.0
 10
272.561230
 20
270.068584
 30
0.0
 10
272.061670
 20
269.918851
 30
0.0
 10
271.312340
 20
269.968761
 30
0.0
 10
270.762840
 20
270.268232
 30
0.0
 10
270.363210
 20
270.667527
 30
0.0
  0
LWPOLYLINE
  5
109
100
AcDbEntity
  8
Calque_1
 62
5
100
AcDbPolyline
 90
51
 70
1
 10
20.988995
 20
241.419183
 30
0.0
 10
20.988995
 20
243.365746
 30
0.0
 10
21.238769
 20
247.059223
 30
0.0
 10
21.788271
 20
250.652875
 30
0.0
 10
22.287819
 20
252.848996
 30
0.0
 10
23.536688
 20
257.291151
 30
0.0
 10
24.186100
 20
259.337536
 30
0.0
 10
25.584833
 20
262.981103
 30
0.0
 10
27.133430
 20
266.025726
 30
0.0
 10
28.682028
 20
268.171934
 30
0.0
 10
29.531259
 20
269.120259
 30
0.0
 10
31.579404
 20
270.966998
 30
0.0
 10
32.578500
 20
271.715675
 30
0.0
 10
33.627549
 20
272.364531
 30
0.0
 10
35.575785
 20
273.262943
 30
0.0
 10
36.974519
 20
270.867175
 30
0.0
 10
39.971804
 20
272.164882
 30
0.0
 10
42.569451
 20
272.713912
 30
0.0
 10
44.018141
 20
272.813742
 30
0.0
 10
45.666648
 20
272.763832
 30
0.0
 10
48.713888
 20
272.314625
 30
0.0
 10
50.462304
 20
271.815507
 30
0.0
 10
52.960043
 20
270.867182
 30
0.0
 10
55.208008
 20
269.669296
 30
0.0
 10
57.655790
 20
268.022205
 30
0.0
 10
59.604026
 20
266.375114
 30
0.0
 10
61.502307
 20
264.478465
 30
0.0
 10
62.950996
 20
262.631725
 30
0.0
 10
64.249818
 20
260.435604
 30
0.0
 10
64.999141
 20
258.389219
 30
0.0
 10
65.298870
 20
257.141422
 30
0.0
 10
65.648552
 20
254.196625
 30
0.0
 10
65.898325
 20
247.807907
 30
0.0
 10
65.798415
 20
239.173157
 30
0.0
 10
65.548641
 20
233.333471
 30
0.0
 10
65.448731
 20
232.834352
 30
0.0
 10
65.248913
 20
232.634705
 30
0.0
 10
64.299773
 20
232.385146
 30
0.0
 10
52.710268
 20
231.536644
 30
0.0
 10
41.770174
 20
231.187261
 30
0.0
 10
33.377775
 20
231.336997
 30
0.0
 10
31.829177
 20
231.486733
 30
0.0
 10
29.830987
 20
231.886027
 30
0.0
 10
28.182480
 20
232.335234
 30
0.0
 10
26.583926
 20
232.934176
 30
0.0
 10
25.135239
 20
233.682854
 30
0.0
 10
23.986280
 20
234.531355
 30
0.0
 10
22.937230
 20
235.579504
 30
0.0
 10
22.187908
 20
236.677565
 30
0.0
 10
21.488542
 20
237.975273
 30
0.0
 10
21.238768
 20
238.823774
 30
0.0
  0
LWPOLYLINE
  5
10a
100
AcDbEntity
  8
Calque_1
 62
5
100
AcDbPolyline
 90
50
 70
1
 10
227.102340
 20
243.365746
 30
0.0
 10
227.102340
 20
247.907723
 30
0.0
 10
227.302160
 20
252.250055
 30
0.0
 10
227.601890
 20
255.544237
 30
0.0
 10
228.001530
 20
258.239476
 30
0.0
 10
228.501080
 20
259.986392
 30
0.0
 10
229.100530
 20
261.134363
 30
0.0
 10
231.048770
 20
263.829605
 30
0.0
 10
232.147780
 20
265.027488
 30
0.0
 10
234.845330
 20
267.572994
 30
0.0
 10
237.792660
 20
269.669289
 30
0.0
 10
240.839900
 20
271.166644
 30
0.0
 10
242.638280
 20
271.815500
 30
0.0
 10
245.735470
 20
272.564177
 30
0.0
 10
247.483890
 20
272.763825
 30
0.0
 10
249.082440
 20
272.813735
 30
0.0
 10
250.581080
 20
272.713905
 30
0.0
 10
252.729140
 20
272.314611
 30
0.0
 10
253.928050
 20
271.915316
 30
0.0
 10
256.026150
 20
270.867168
 30
0.0
 10
256.225970
 20
271.016904
 30
0.0
 10
256.775470
 20
272.114965
 30
0.0
 10
257.624700
 20
273.262936
 30
0.0
 10
260.771850
 20
271.466109
 30
0.0
 10
262.220540
 20
270.368048
 30
0.0
 10
263.519360
 20
269.120252
 30
0.0
 10
264.768220
 20
267.672810
 30
0.0
 10
265.867230
 20
266.025719
 30
0.0
 10
266.916280
 20
264.178979
 30
0.0
 10
268.714670
 20
259.836650
 30
0.0
 10
270.662910
 20
253.248286
 30
0.0
 10
271.761890
 20
247.508422
 30
0.0
 10
272.061630
 20
245.012830
 30
0.0
 10
272.161530
 20
242.367502
 30
0.0
 10
272.061630
 20
240.271204
 30
0.0
 10
271.761890
 20
238.723937
 30
0.0
 10
271.162440
 20
237.176669
 30
0.0
 10
270.363170
 20
235.829049
 30
0.0
 10
269.463980
 20
234.830812
 30
0.0
 10
268.364970
 20
233.982311
 30
0.0
 10
266.816390
 20
233.133809
 30
0.0
 10
265.117920
 20
232.435044
 30
0.0
 10
263.019820
 20
231.886013
 30
0.0
 10
259.522980
 20
231.336983
 30
0.0
 10
252.429410
 20
231.137335
 30
0.0
 10
246.135110
 20
231.237155
 30
0.0
 10
235.344880
 20
231.886009
 30
0.0
 10
227.701800
 20
232.484951
 30
0.0
 10
227.551940
 20
233.033982
 30
0.0
 10
227.302160
 20
236.178428
 30
0.0
  0
LWPOLYLINE
  5
10b
100
AcDbEntity
  8
Calque_1
 62
5
100
AcDbPolyline
 90
24
 70
1
 10
142.528930
 20
257.141415
 30
0.0
 10
142.528930
 20
257.940004
 30
0.0
 10
142.678800
 20
258.738596
 30
0.0
 10
143.428120
 20
260.136128
 30
0.0
 10
143.977620
 20
260.685158
 30
0.0
 10
144.976710
 20
261.284099
 30
0.0
 10
146.125680
 20
261.583570
 30
0.0
 10
146.974900
 20
261.583570
 30
0.0
 10
147.724230
 20
261.433835
 30
0.0
 10
149.073000
 20
260.685158
 30
0.0
 10
149.672460
 20
260.136128
 30
0.0
 10
150.271920
 20
259.087978
 30
0.0
 10
150.571650
 20
257.540710
 30
0.0
 10
150.271920
 20
256.043355
 30
0.0
 10
149.672460
 20
254.995207
 30
0.0
 10
148.423590
 20
253.996969
 30
0.0
 10
147.724230
 20
253.697498
 30
0.0
 10
146.974900
 20
253.547762
 30
0.0
 10
146.125680
 20
253.547762
 30
0.0
 10
145.376350
 20
253.697498
 30
0.0
 10
144.627030
 20
253.996969
 30
0.0
 10
143.977620
 20
254.446177
 30
0.0
 10
142.978520
 20
255.644060
 30
0.0
 10
142.678800
 20
256.392739
 30
0.0
  0
LWPOLYLINE
  5
10c
100
AcDbEntity
  8
Calque_1
 62
5
100
AcDbPolyline
 90
28
 70
1
 10
212.016010
 20
250.952346
 30
0.0
 10
212.115910
 20
252.250055
 30
0.0
 10
212.415640
 20
253.298203
 30
0.0
 10
212.915190
 20
254.396264
 30
0.0
 10
213.714470
 20
255.444414
 30
0.0
 10
214.513740
 20
256.193090
 30
0.0
 10
215.612750
 20
256.891857
 30
0.0
 10
217.560990
 20
257.390974
 30
0.0
 10
219.059630
 20
257.390974
 30
0.0
 10
220.408410
 20
257.141415
 30
0.0
 10
221.107770
 20
256.841944
 30
0.0
 10
222.556460
 20
255.843709
 30
0.0
 10
223.705420
 20
254.496089
 30
0.0
 10
224.404790
 20
252.749173
 30
0.0
 10
224.604610
 20
251.151995
 30
0.0
 10
224.404790
 20
249.604727
 30
0.0
 10
223.755380
 20
247.957636
 30
0.0
 10
222.606420
 20
246.460280
 30
0.0
 10
221.007860
 20
245.412131
 30
0.0
 10
219.709040
 20
244.962925
 30
0.0
 10
218.360260
 20
244.813189
 30
0.0
 10
216.961530
 20
244.962925
 30
0.0
 10
215.662700
 20
245.412131
 30
0.0
 10
215.063250
 20
245.711602
 30
0.0
 10
213.764420
 20
246.659928
 30
0.0
 10
213.115010
 20
247.508429
 30
0.0
 10
212.565510
 20
248.556579
 30
0.0
 10
212.165870
 20
249.754463
 30
0.0
  0
LWPOLYLINE
  5
10d
100
AcDbEntity
  8
Calque_1
 62
5
100
AcDbPolyline
 90
34
 70
1
 10
68.446020
 20
250.952346
 30
0.0
 10
68.446020
 20
251.900671
 30
0.0
 10
68.745749
 20
253.348116
 30
0.0
 10
69.045475
 20
254.046882
 30
0.0
 10
69.794798
 20
255.144943
 30
0.0
 10
70.644029
 20
255.993444
 30
0.0
 10
71.643125
 20
256.692211
 30
0.0
 10
72.792083
 20
257.141415
 30
0.0
 10
73.990999
 20
257.390974
 30
0.0
 10
75.289821
 20
257.390974
 30
0.0
 10
76.438781
 20
257.191328
 30
0.0
 10
77.687651
 20
256.692211
 30
0.0
 10
78.686746
 20
256.043355
 30
0.0
 10
79.535975
 20
255.244766
 30
0.0
 10
80.185389
 20
254.296441
 30
0.0
 10
80.634980
 20
253.198380
 30
0.0
 10
80.884756
 20
252.150232
 30
0.0
 10
80.934706
 20
250.802610
 30
0.0
 10
80.784841
 20
249.604727
 30
0.0
 10
80.385204
 20
248.307018
 30
0.0
 10
79.835701
 20
247.358694
 30
0.0
 10
79.336155
 20
246.859575
 30
0.0
 10
78.287103
 20
245.961162
 30
0.0
 10
76.738507
 20
245.112660
 30
0.0
 10
75.589547
 20
244.863101
 30
0.0
 10
74.490542
 20
244.813191
 30
0.0
 10
73.441493
 20
244.913011
 30
0.0
 10
72.392442
 20
245.212482
 30
0.0
 10
71.443302
 20
245.661689
 30
0.0
 10
70.594070
 20
246.310543
 30
0.0
 10
69.794795
 20
247.109132
 30
0.0
 10
69.195336
 20
247.957634
 30
0.0
 10
68.845654
 20
248.706313
 30
0.0
 10
68.495970
 20
250.203668
 30
0.0
  0
LWPOLYLINE
  5
10e
100
AcDbEntity
  8
Calque_1
 62
5
100
AcDbPolyline
 90
27
 70
1
 10
107.410730
 20
241.269448
 30
0.0
 10
107.710460
 20
242.816715
 30
0.0
 10
108.110100
 20
243.565393
 30
0.0
 10
108.609650
 20
244.164335
 30
0.0
 10
109.558790
 20
244.863101
 30
0.0
 10
110.258160
 20
245.162572
 30
0.0
 10
111.057430
 20
245.312308
 30
0.0
 10
111.856710
 20
245.312308
 30
0.0
 10
112.606030
 20
245.162572
 30
0.0
 10
114.004760
 20
244.413895
 30
0.0
 10
114.554260
 20
243.864864
 30
0.0
 10
115.003860
 20
243.166098
 30
0.0
 10
115.303590
 20
242.467332
 30
0.0
 10
115.453450
 20
241.718655
 30
0.0
 10
115.453450
 20
240.920065
 30
0.0
 10
115.303590
 20
240.121475
 30
0.0
 10
115.003860
 20
239.372798
 30
0.0
 10
114.554260
 20
238.723944
 30
0.0
 10
113.355350
 20
237.725707
 30
0.0
 10
112.606030
 20
237.426236
 30
0.0
 10
111.856710
 20
237.276500
 30
0.0
 10
111.057430
 20
237.276500
 30
0.0
 10
110.258160
 20
237.426236
 30
0.0
 10
109.209100
 20
237.925354
 30
0.0
 10
108.559690
 20
238.474384
 30
0.0
 10
108.110100
 20
239.023415
 30
0.0
 10
107.710460
 20
239.772092
 30
0.0
  0
LWPOLYLINE
  5
10f
100
AcDbEntity
  8
Calque_1
 62
5
100
AcDbPolyline
 90
25
 70
1
 10
177.547220
 20
240.920065
 30
0.0
 10
177.547220
 20
241.718655
 30
0.0
 10
177.697080
 20
242.467332
 30
0.0
 10
178.446400
 20
243.864864
 30
0.0
 10
178.995910
 20
244.413895
 30
0.0
 10
179.695270
 20
244.863101
 30
0.0
 10
180.394640
 20
245.162572
 30
0.0
 10
181.143960
 20
245.312308
 30
0.0
 10
181.943240
 20
245.312308
 30
0.0
 10
182.692560
 20
245.162572
 30
0.0
 10
184.091290
 20
244.413895
 30
0.0
 10
185.090390
 20
243.216010
 30
0.0
 10
185.290210
 20
242.816715
 30
0.0
 10
185.539980
 20
241.718655
 30
0.0
 10
185.489980
 20
240.520770
 30
0.0
 10
185.290160
 20
239.772092
 30
0.0
 10
184.690700
 20
238.773855
 30
0.0
 10
184.091240
 20
238.174913
 30
0.0
 10
183.441830
 20
237.725707
 30
0.0
 10
181.993140
 20
237.276500
 30
0.0
 10
180.744280
 20
237.326410
 30
0.0
 10
179.295590
 20
237.925352
 30
0.0
 10
178.446350
 20
238.723942
 30
0.0
 10
177.996760
 20
239.372796
 30
0.0
 10
177.697030
 20
240.121473
 30
0.0
  0
LWPOLYLINE
  5
110
100
AcDbEntity
  8
Calque_1
 62
5
100
AcDbPolyline
 90
32
 70
1
 10
211.216730
 20
225.447392
 30
0.0
 10
211.316630
 20
226.695188
 30
0.0
 10
211.666310
 20
227.843160
 30
0.0
 10
212.265770
 20
228.941221
 30
0.0
 10
213.164960
 20
229.939458
 30
0.0
 10
214.014190
 20
230.588312
 30
0.0
 10
214.963330
 20
231.087431
 30
0.0
 10
216.861610
 20
231.586549
 30
0.0
 10
217.910660
 20
231.586549
 30
0.0
 10
219.808940
 20
231.187254
 30
0.0
 10
220.708120
 20
230.738048
 30
0.0
 10
221.707220
 20
230.039282
 30
0.0
 10
222.506500
 20
229.240692
 30
0.0
 10
223.006040
 20
228.392191
 30
0.0
 10
223.455640
 20
227.144395
 30
0.0
 10
223.705410
 20
225.946510
 30
0.0
 10
223.705410
 20
224.748626
 30
0.0
 10
223.505590
 20
223.600653
 30
0.0
 10
223.155910
 20
222.602416
 30
0.0
 10
222.606410
 20
221.604179
 30
0.0
 10
221.807130
 20
220.655854
 30
0.0
 10
221.007850
 20
220.007000
 30
0.0
 10
219.958800
 20
219.408058
 30
0.0
 10
219.059620
 20
219.108587
 30
0.0
 10
218.210390
 20
219.008767
 30
0.0
 10
217.211290
 20
219.008767
 30
0.0
 10
215.313010
 20
219.408062
 30
0.0
 10
213.664500
 20
220.206651
 30
0.0
 10
213.015090
 20
220.755682
 30
0.0
 10
212.165860
 20
221.803831
 30
0.0
 10
211.616360
 20
222.951803
 30
0.0
 10
211.266670
 20
224.299423
 30
0.0
  0
LWPOLYLINE
  5
111
100
AcDbEntity
  8
Calque_1
 62
5
100
AcDbPolyline
 90
29
 70
1
 10
69.245295
 20
225.098009
 30
0.0
 10
69.395160
 20
226.595364
 30
0.0
 10
69.894706
 20
228.042808
 30
0.0
 10
70.743938
 20
229.290604
 30
0.0
 10
71.792987
 20
230.338753
 30
0.0
 10
73.241676
 20
231.137342
 30
0.0
 10
74.640410
 20
231.536637
 30
0.0
 10
76.238961
 20
231.586547
 30
0.0
 10
77.288013
 20
231.386900
 30
0.0
 10
78.986473
 20
230.688134
 30
0.0
 10
79.635887
 20
230.189015
 30
0.0
 10
80.834800
 20
228.841395
 30
0.0
 10
81.584120
 20
227.144393
 30
0.0
 10
81.833896
 20
225.896596
 30
0.0
 10
81.833896
 20
224.798536
 30
0.0
 10
81.684031
 20
223.650563
 30
0.0
 10
81.334347
 20
222.602414
 30
0.0
 10
80.235342
 20
221.005235
 30
0.0
 10
79.386113
 20
220.256557
 30
0.0
 10
78.436971
 20
219.657615
 30
0.0
 10
76.988284
 20
219.158497
 30
0.0
 10
75.589550
 20
219.008761
 30
0.0
 10
74.790274
 20
219.058671
 30
0.0
 10
73.391541
 20
219.408054
 30
0.0
 10
72.142671
 20
220.006996
 30
0.0
 10
71.143576
 20
220.755674
 30
0.0
 10
70.294344
 20
221.753911
 30
0.0
 10
69.694889
 20
222.901883
 30
0.0
 10
69.495069
 20
223.500825
 30
0.0
  0
LWPOLYLINE
  5
112
100
AcDbEntity
  8
Calque_1
 62
5
100
AcDbPolyline
 90
16
 70
1
 10
279.804610
 20
226.495541
 30
0.0
 10
279.804610
 20
227.044571
 30
0.0
 10
280.104350
 20
227.743337
 30
0.0
 10
280.503980
 20
228.142631
 30
0.0
 10
281.053480
 20
228.442103
 30
0.0
 10
281.852770
 20
228.492013
 30
0.0
 10
282.552120
 20
228.192542
 30
0.0
 10
283.001720
 20
227.743336
 30
0.0
 10
283.301460
 20
226.994658
 30
0.0
 10
283.251460
 20
226.245980
 30
0.0
 10
282.951720
 20
225.696950
 30
0.0
 10
282.302330
 20
225.147920
 30
0.0
 10
281.802770
 20
224.998184
 30
0.0
 10
281.053440
 20
225.048094
 30
0.0
 10
280.503940
 20
225.347565
 30
0.0
 10
279.954450
 20
225.996419
 30
0.0
  0
LWPOLYLINE
  5
113
100
AcDbEntity
  8
Calque_1
 62
5
100
AcDbPolyline
 90
16
 70
1
 10
9.549354
 20
226.495541
 30
0.0
 10
9.599309
 20
227.244218
 30
0.0
 10
9.849083
 20
227.743337
 30
0.0
 10
10.548450
 20
228.342279
 30
0.0
 10
10.998042
 20
228.492014
 30
0.0
 10
11.797319
 20
228.442104
 30
0.0
 10
12.346821
 20
228.142632
 30
0.0
 10
12.896324
 20
227.493778
 30
0.0
 10
13.046188
 20
226.994660
 30
0.0
 10
12.996228
 20
226.245982
 30
0.0
 10
12.696499
 20
225.696952
 30
0.0
 10
12.296861
 20
225.297657
 30
0.0
 10
11.597495
 20
224.998186
 30
0.0
 10
10.798218
 20
225.048096
 30
0.0
 10
10.248716
 20
225.347567
 30
0.0
 10
9.699214
 20
225.996421
 30
0.0
  0
LWPOLYLINE
  5
114
100
AcDbEntity
  8
Calque_1
 62
5
100
AcDbPolyline
 90
19
 70
1
 10
165.408210
 20
225.098009
 30
0.0
 10
165.508110
 20
226.245981
 30
0.0
 10
166.057610
 20
227.194306
 30
0.0
 10
166.457250
 20
227.593601
 30
0.0
 10
167.156620
 20
228.042808
 30
0.0
 10
167.955890
 20
228.242455
 30
0.0
 10
168.555350
 20
228.242455
 30
0.0
 10
169.354630
 20
228.042808
 30
0.0
 10
170.303770
 20
227.393954
 30
0.0
 10
170.803320
 20
226.745100
 30
0.0
 10
171.103050
 20
225.647039
 30
0.0
 10
171.003150
 20
224.499067
 30
0.0
 10
170.503600
 20
223.550741
 30
0.0
 10
169.354640
 20
222.702240
 30
0.0
 10
168.555360
 20
222.502593
 30
0.0
 10
167.955900
 20
222.502593
 30
0.0
 10
167.156630
 20
222.702240
 30
0.0
 10
166.207490
 20
223.351094
 30
0.0
 10
165.707940
 20
224.049860
 30
0.0
  0
LWPOLYLINE
  5
115
100
AcDbEntity
  8
Calque_1
 62
5
100
AcDbPolyline
 90
21
 70
1
 10
121.897610
 20
225.397480
 30
0.0
 10
122.047480
 20
226.245981
 30
0.0
 10
122.547030
 20
227.194306
 30
0.0
 10
123.396260
 20
227.893072
 30
0.0
 10
123.945760
 20
228.142631
 30
0.0
 10
124.495260
 20
228.242451
 30
0.0
 10
125.044760
 20
228.242451
 30
0.0
 10
125.893990
 20
228.042804
 30
0.0
 10
126.593360
 20
227.593597
 30
0.0
 10
127.292730
 20
226.745096
 30
0.0
 10
127.542500
 20
226.196065
 30
0.0
 10
127.642400
 20
225.647035
 30
0.0
 10
127.542500
 20
224.548974
 30
0.0
 10
126.993000
 20
223.550737
 30
0.0
 10
126.593360
 20
223.151443
 30
0.0
 10
125.893990
 20
222.702236
 30
0.0
 10
125.094720
 20
222.502589
 30
0.0
 10
123.945760
 20
222.602409
 30
0.0
 10
122.946670
 20
223.151440
 30
0.0
 10
122.247300
 20
223.999941
 30
0.0
 10
121.947570
 20
224.798531
 30
0.0
  0
LWPOLYLINE
  5
116
100
AcDbEntity
  8
Calque_1
 62
5
100
AcDbPolyline
 90
16
 70
1
 10
44.367823
 20
224.948273
 30
0.0
 10
44.417773
 20
225.746863
 30
0.0
 10
44.867367
 20
226.495541
 30
0.0
 10
45.366914
 20
226.844924
 30
0.0
 10
45.866460
 20
226.994659
 30
0.0
 10
46.415962
 20
226.994659
 30
0.0
 10
47.115329
 20
226.695188
 30
0.0
 10
47.514970
 20
226.295893
 30
0.0
 10
47.864652
 20
225.497303
 30
0.0
 10
47.814692
 20
224.748626
 30
0.0
 10
47.514966
 20
224.199596
 30
0.0
 10
47.165281
 20
223.850212
 30
0.0
 10
46.615779
 20
223.550741
 30
0.0
 10
45.616683
 20
223.550741
 30
0.0
 10
45.067180
 20
223.850212
 30
0.0
 10
44.717498
 20
224.199596
 30
0.0
  0
LWPOLYLINE
  5
117
100
AcDbEntity
  8
Calque_1
 62
5
100
AcDbPolyline
 90
16
 70
1
 10
244.986150
 20
224.998185
 30
0.0
 10
245.036050
 20
225.746863
 30
0.0
 10
245.335780
 20
226.295893
 30
0.0
 10
245.985200
 20
226.844924
 30
0.0
 10
246.484740
 20
226.994659
 30
0.0
 10
247.234060
 20
226.944749
 30
0.0
 10
247.783560
 20
226.645278
 30
0.0
 10
248.333070
 20
225.996424
 30
0.0
 10
248.482930
 20
225.497305
 30
0.0
 10
248.433030
 20
224.748628
 30
0.0
 10
248.133300
 20
224.199598
 30
0.0
 10
247.733660
 20
223.800303
 30
0.0
 10
246.984340
 20
223.500831
 30
0.0
 10
246.235020
 20
223.550741
 30
0.0
 10
245.685520
 20
223.850212
 30
0.0
 10
245.285880
 20
224.249507
 30
0.0
  0
LWPOLYLINE
  5
118
100
AcDbEntity
  8
Calque_1
 62
5
100
AcDbPolyline
 90
23
 70
1
 10
142.528930
 20
222.502593
 30
0.0
 10
142.528930
 20
223.351094
 30
0.0
 10
142.678800
 20
224.099772
 30
0.0
 10
142.978520
 20
224.798538
 30
0.0
 10
143.727850
 20
225.796775
 30
0.0
 10
145.026670
 20
226.645276
 30
0.0
 10
146.525310
 20
226.944747
 30
0.0
 10
148.073910
 20
226.645276
 30
0.0
 10
149.122960
 20
225.996422
 30
0.0
 10
149.672460
 20
225.447392
 30
0.0
 10
150.271920
 20
224.449155
 30
0.0
 10
150.571650
 20
222.951799
 30
0.0
 10
150.271920
 20
221.354620
 30
0.0
 10
149.672460
 20
220.356383
 30
0.0
 10
148.473550
 20
219.358146
 30
0.0
 10
147.724230
 20
219.058675
 30
0.0
 10
146.974900
 20
218.908939
 30
0.0
 10
146.125680
 20
218.908939
 30
0.0
 10
145.376350
 20
219.058675
 30
0.0
 10
144.627030
 20
219.358146
 30
0.0
 10
143.977620
 20
219.807353
 30
0.0
 10
142.978520
 20
221.005237
 30
0.0
 10
142.678800
 20
221.753915
 30
0.0
  0
LWPOLYLINE
  5
119
100
AcDbEntity
  8
Calque_1
 62
5
100
AcDbPolyline
 90
62
 70
1
 10
229.849850
 20
210.972955
 30
0.0
 10
229.999720
 20
211.771545
 30
0.0
 10
230.749040
 20
212.669958
 30
0.0
 10
232.097820
 20
213.768019
 30
0.0
 10
234.495650
 20
215.365198
 30
0.0
 10
237.692750
 20
216.862554
 30
0.0
 10
240.340350
 20
217.760967
 30
0.0
 10
243.037910
 20
218.459733
 30
0.0
 10
246.634660
 20
219.158499
 30
0.0
 10
250.031580
 20
219.607705
 30
0.0
 10
253.328590
 20
219.857265
 30
0.0
 10
256.775470
 20
220.007000
 30
0.0
 10
261.121540
 20
220.007000
 30
0.0
 10
265.018000
 20
219.857265
 30
0.0
 10
267.815470
 20
219.557793
 30
0.0
 10
269.963530
 20
219.058675
 30
0.0
 10
270.962620
 20
218.709292
 30
0.0
 10
272.910860
 20
217.760967
 30
0.0
 10
274.509400
 20
216.513171
 30
0.0
 10
275.208780
 20
215.764493
 30
0.0
 10
276.307790
 20
213.967666
 30
0.0
 10
277.107060
 20
211.721633
 30
0.0
 10
277.406800
 20
209.475600
 30
0.0
 10
277.556650
 20
206.281242
 30
0.0
 10
277.256920
 20
200.790938
 30
0.0
 10
276.657460
 20
196.648250
 30
0.0
 10
274.809140
 20
187.664120
 30
0.0
 10
273.360460
 20
181.774520
 30
0.0
 10
271.811850
 20
176.184400
 30
0.0
 10
270.513030
 20
172.191450
 30
0.0
 10
269.164260
 20
168.847350
 30
0.0
 10
267.715550
 20
166.002380
 30
0.0
 10
266.117010
 20
163.656520
 30
0.0
 10
264.368590
 20
161.809780
 30
0.0
 10
262.370410
 20
160.312430
 30
0.0
 10
260.172400
 20
159.164450
 30
0.0
 10
257.624700
 20
158.315960
 30
0.0
 10
255.077010
 20
157.916660
 30
0.0
 10
251.630130
 20
157.667100
 30
0.0
 10
247.633750
 20
157.617200
 30
0.0
 10
244.336740
 20
157.816850
 30
0.0
 10
239.740900
 20
158.465700
 30
0.0
 10
236.643700
 20
159.064640
 30
0.0
 10
236.643700
 20
159.663580
 30
0.0
 10
237.243160
 20
161.859710
 30
0.0
 10
236.343970
 20
162.758120
 30
0.0
 10
234.845330
 20
164.654770
 30
0.0
 10
233.646420
 20
166.800980
 30
0.0
 10
233.246780
 20
167.998860
 30
0.0
 10
233.046960
 20
169.745780
 30
0.0
 10
233.096960
 20
170.544370
 30
0.0
 10
233.296780
 20
171.293040
 30
0.0
 10
233.996140
 20
172.840310
 30
0.0
 10
235.844470
 20
175.485640
 30
0.0
 10
236.643740
 20
176.833260
 30
0.0
 10
236.893520
 20
177.432200
 30
0.0
 10
237.143290
 20
178.580170
 30
0.0
 10
237.143290
 20
179.927800
 30
0.0
 10
236.344010
 20
183.571360
 30
0.0
 10
233.496590
 20
193.853200
 30
0.0
 10
231.548360
 20
201.439802
 30
0.0
 10
230.299490
 20
207.329400
 30
0.0
  0
LWPOLYLINE
  5
11a
100
AcDbEntity
  8
Calque_1
 62
5
100
AcDbPolyline
 90
63
 70
1
 10
15.543926
 20
204.733974
 30
0.0
 10
15.543926
 20
207.878421
 30
0.0
 10
15.743745
 20
210.523749
 30
0.0
 10
16.393157
 20
213.069253
 30
0.0
 10
17.092523
 20
214.566609
 30
0.0
 10
17.841845
 20
215.714581
 30
0.0
 10
18.790985
 20
216.762730
 30
0.0
 10
19.989900
 20
217.661143
 30
0.0
 10
21.338678
 20
218.359909
 30
0.0
 10
22.937231
 20
219.008763
 30
0.0
 10
24.785557
 20
219.507882
 30
0.0
 10
28.632075
 20
219.907176
 30
0.0
 10
37.324201
 20
219.957086
 30
0.0
 10
43.118953
 20
219.607703
 30
0.0
 10
45.217054
 20
219.358144
 30
0.0
 10
50.662124
 20
218.309995
 30
0.0
 10
53.259772
 20
217.611229
 30
0.0
 10
55.557690
 20
216.812640
 30
0.0
 10
59.054524
 20
215.115637
 30
0.0
 10
60.603122
 20
214.067488
 30
0.0
 10
61.851991
 20
213.019339
 30
0.0
 10
62.801132
 20
212.021102
 30
0.0
 10
63.050905
 20
211.621807
 30
0.0
 10
63.200769
 20
211.072777
 30
0.0
 10
63.200769
 20
210.374011
 30
0.0
 10
62.901040
 20
208.227802
 30
0.0
 10
61.452351
 20
201.140319
 30
0.0
 10
59.753891
 20
194.502050
 30
0.0
 10
57.156244
 20
185.318270
 30
0.0
 10
56.456877
 20
182.623020
 30
0.0
 10
56.057239
 20
180.576640
 30
0.0
 10
55.957329
 20
179.029370
 30
0.0
 10
56.107193
 20
177.681750
 30
0.0
 10
56.606742
 20
176.483870
 30
0.0
 10
57.406018
 20
175.136250
 30
0.0
 10
59.054525
 20
172.840300
 30
0.0
 10
59.753892
 20
171.243120
 30
0.0
 10
60.003665
 20
169.795680
 30
0.0
 10
60.003665
 20
168.947180
 30
0.0
 10
59.753892
 20
167.499730
 30
0.0
 10
58.804752
 20
165.653000
 30
0.0
 10
57.805656
 20
164.105730
 30
0.0
 10
55.957329
 20
161.859700
 30
0.0
 10
56.007289
 20
161.210840
 30
0.0
 10
56.556792
 20
159.114540
 30
0.0
 10
55.607651
 20
158.815070
 30
0.0
 10
50.911904
 20
158.116310
 30
0.0
 10
46.565838
 20
157.766920
 30
0.0
 10
40.471359
 20
157.667120
 30
0.0
 10
37.673892
 20
157.816860
 30
0.0
 10
35.326018
 20
158.315980
 30
0.0
 10
33.028100
 20
159.064650
 30
0.0
 10
30.830090
 20
160.212630
 30
0.0
 10
28.981763
 20
161.510330
 30
0.0
 10
27.233347
 20
163.357070
 30
0.0
 10
25.784658
 20
165.353540
 30
0.0
 10
24.535789
 20
167.549670
 30
0.0
 10
23.286920
 20
170.294820
 30
0.0
 10
22.187915
 20
173.239620
 30
0.0
 10
20.039861
 20
180.476840
 30
0.0
 10
18.091625
 20
188.462730
 30
0.0
 10
16.443118
 20
196.448630
 30
0.0
 10
15.893615
 20
200.042278
 30
0.0
  0
LWPOLYLINE
  5
11b
100
AcDbEntity
  8
Calque_1
 62
5
100
AcDbPolyline
 90
26
 70
1
 10
214.363880
 20
202.388117
 30
0.0
 10
214.663610
 20
204.334679
 30
0.0
 10
215.512840
 20
205.931858
 30
0.0
 10
216.711750
 20
207.179655
 30
0.0
 10
218.110490
 20
208.028156
 30
0.0
 10
219.958810
 20
208.527275
 30
0.0
 10
221.857100
 20
208.477365
 30
0.0
 10
223.555560
 20
207.878423
 30
0.0
 10
225.054200
 20
206.830274
 30
0.0
 10
226.053290
 20
205.582478
 30
0.0
 10
226.602800
 20
204.384593
 30
0.0
 10
226.902530
 20
202.987061
 30
0.0
 10
226.902530
 20
201.539618
 30
0.0
 10
226.602800
 20
200.142086
 30
0.0
 10
226.003340
 20
198.894290
 30
0.0
 10
225.104150
 20
197.746317
 30
0.0
 10
223.955190
 20
196.847900
 30
0.0
 10
223.355740
 20
196.548430
 30
0.0
 10
221.957000
 20
196.149140
 30
0.0
 10
220.508310
 20
195.999400
 30
0.0
 10
219.059630
 20
196.099200
 30
0.0
 10
217.610940
 20
196.698150
 30
0.0
 10
216.811660
 20
197.247179
 30
0.0
 10
216.062340
 20
197.995856
 30
0.0
 10
214.963340
 20
199.593036
 30
0.0
 10
214.413830
 20
201.389862
 30
0.0
  0
LWPOLYLINE
  5
11c
100
AcDbEntity
  8
Calque_1
 62
5
100
AcDbPolyline
 90
27
 70
1
 10
66.048190
 20
202.487941
 30
0.0
 10
66.397875
 20
204.184944
 30
0.0
 10
67.097242
 20
205.682299
 30
0.0
 10
68.346111
 20
207.129743
 30
0.0
 10
69.894706
 20
208.078068
 30
0.0
 10
71.842942
 20
208.527275
 30
0.0
 10
72.792083
 20
208.527275
 30
0.0
 10
74.590454
 20
208.177892
 30
0.0
 10
75.439685
 20
207.828509
 30
0.0
 10
76.838419
 20
206.880184
 30
0.0
 10
77.437877
 20
206.281242
 30
0.0
 10
78.337062
 20
204.484415
 30
0.0
 10
78.586835
 20
203.136795
 30
0.0
 10
78.636795
 20
201.988822
 30
0.0
 10
78.486930
 20
200.741026
 30
0.0
 10
78.087292
 20
199.493230
 30
0.0
 10
77.537790
 20
198.544905
 30
0.0
 10
76.688559
 20
197.596580
 30
0.0
 10
75.789374
 20
196.897810
 30
0.0
 10
75.040052
 20
196.498520
 30
0.0
 10
74.040956
 20
196.199050
 30
0.0
 10
72.142675
 20
195.999400
 30
0.0
 10
70.394260
 20
196.248960
 30
0.0
 10
69.345208
 20
196.748080
 30
0.0
 10
68.296159
 20
197.496756
 30
0.0
 10
66.997334
 20
198.994112
 30
0.0
 10
66.248014
 20
200.691114
 30
0.0
  0
LWPOLYLINE
  5
11d
100
AcDbEntity
  8
Calque_1
 62
5
100
AcDbPolyline
 90
19
 70
1
 10
143.627940
 20
187.414560
 30
0.0
 10
143.627940
 20
188.013500
 30
0.0
 10
143.827750
 20
188.812090
 30
0.0
 10
144.277350
 20
189.560770
 30
0.0
 10
145.176530
 20
190.259540
 30
0.0
 10
146.175630
 20
190.559010
 30
0.0
 10
147.324590
 20
190.459210
 30
0.0
 10
148.323680
 20
189.910180
 30
0.0
 10
149.023050
 20
189.061680
 30
0.0
 10
149.322780
 20
188.263090
 30
0.0
 10
149.372680
 20
187.714060
 30
0.0
 10
149.122910
 20
186.566090
 30
0.0
 10
148.723270
 20
185.867330
 30
0.0
 10
147.874040
 20
185.168560
 30
0.0
 10
146.475310
 20
184.819180
 30
0.0
 10
145.376300
 20
185.068730
 30
0.0
 10
144.676940
 20
185.468030
 30
0.0
 10
144.277300
 20
185.867330
 30
0.0
 10
143.827700
 20
186.616000
 30
0.0
  0
LWPOLYLINE
  5
11e
100
AcDbEntity
  8
Calque_1
 62
5
100
AcDbPolyline
 90
19
 70
1
 10
141.954890
 20
187.257720
 30
0.0
 10
141.954890
 20
188.205090
 30
0.0
 10
142.270680
 20
189.468250
 30
0.0
 10
142.981270
 20
190.652480
 30
0.0
 10
144.402420
 20
191.757750
 30
0.0
 10
145.981490
 20
192.231430
 30
0.0
 10
147.797410
 20
192.073570
 30
0.0
 10
149.376460
 20
191.205150
 30
0.0
 10
150.481810
 20
189.863050
 30
0.0
 10
150.955520
 20
188.599870
 30
0.0
 10
151.034420
 20
187.731460
 30
0.0
 10
150.639660
 20
185.915670
 30
0.0
 10
150.008020
 20
184.810410
 30
0.0
 10
148.665830
 20
183.705140
 30
0.0
 10
146.455150
 20
183.152500
 30
0.0
 10
144.718170
 20
183.547240
 30
0.0
 10
143.612840
 20
184.178820
 30
0.0
 10
142.981210
 20
184.810410
 30
0.0
 10
142.270620
 20
185.994610
 30
0.0
  0
LWPOLYLINE
  5
11f
100
AcDbEntity
  8
Calque_1
 62
5
100
AcDbPolyline
 90
19
 70
1
 10
120.223890
 20
224.939727
 30
0.0
 10
120.223890
 20
225.887097
 30
0.0
 10
120.539680
 20
227.150254
 30
0.0
 10
121.250270
 20
228.334484
 30
0.0
 10
122.671420
 20
229.439754
 30
0.0
 10
124.250490
 20
229.913434
 30
0.0
 10
126.066410
 20
229.755574
 30
0.0
 10
127.645460
 20
228.887154
 30
0.0
 10
128.750810
 20
227.545054
 30
0.0
 10
129.224520
 20
226.281877
 30
0.0
 10
129.303420
 20
225.413467
 30
0.0
 10
128.908660
 20
223.597677
 30
0.0
 10
128.277020
 20
222.492417
 30
0.0
 10
126.934830
 20
221.387147
 30
0.0
 10
124.724150
 20
220.834507
 30
0.0
 10
122.987170
 20
221.229247
 30
0.0
 10
121.881840
 20
221.860827
 30
0.0
 10
121.250210
 20
222.492417
 30
0.0
 10
120.539620
 20
223.676617
 30
0.0
  0
LWPOLYLINE
  5
120
100
AcDbEntity
  8
Calque_1
 62
5
100
AcDbPolyline
 90
19
 70
1
 10
163.732890
 20
224.939727
 30
0.0
 10
163.732890
 20
225.887097
 30
0.0
 10
164.048680
 20
227.150254
 30
0.0
 10
164.759270
 20
228.334484
 30
0.0
 10
166.180420
 20
229.439754
 30
0.0
 10
167.759490
 20
229.913434
 30
0.0
 10
169.575410
 20
229.755574
 30
0.0
 10
171.154460
 20
228.887154
 30
0.0
 10
172.259810
 20
227.545054
 30
0.0
 10
172.733520
 20
226.281877
 30
0.0
 10
172.812420
 20
225.413467
 30
0.0
 10
172.417660
 20
223.597677
 30
0.0
 10
171.786020
 20
222.492417
 30
0.0
 10
170.443830
 20
221.387147
 30
0.0
 10
168.233150
 20
220.834507
 30
0.0
 10
166.496170
 20
221.229247
 30
0.0
 10
165.390840
 20
221.860827
 30
0.0
 10
164.759210
 20
222.492417
 30
0.0
 10
164.048620
 20
223.676617
 30
0.0
  0
LWPOLYLINE
  5
121
100
AcDbEntity
  8
Calque_1
 62
5
100
AcDbPolyline
 90
28
 70
1
 10
218.210400
 20
179.428670
 30
0.0
 10
218.410210
 20
181.025850
 30
0.0
 10
219.109580
 20
182.573110
 30
0.0
 10
220.108680
 20
183.771000
 30
0.0
 10
221.257640
 20
184.619500
 30
0.0
 10
222.556460
 20
185.218440
 30
0.0
 10
223.905240
 20
185.468000
 30
0.0
 10
225.303970
 20
185.468000
 30
0.0
 10
226.602800
 20
185.168530
 30
0.0
 10
227.851670
 20
184.569590
 30
0.0
 10
228.900710
 20
183.820910
 30
0.0
 10
230.099630
 20
182.273640
 30
0.0
 10
230.599180
 20
180.876110
 30
0.0
 10
230.649180
 20
179.977700
 30
0.0
 10
230.599180
 20
177.881400
 30
0.0
 10
230.349400
 20
176.783340
 30
0.0
 10
229.749950
 20
175.635370
 30
0.0
 10
229.050580
 20
174.786860
 30
0.0
 10
228.151390
 20
174.038190
 30
0.0
 10
227.102340
 20
173.439250
 30
0.0
 10
225.853480
 20
173.039950
 30
0.0
 10
224.704520
 20
172.890210
 30
0.0
 10
223.955190
 20
172.890210
 30
0.0
 10
222.406590
 20
173.239600
 30
0.0
 10
220.907950
 20
173.988280
 30
0.0
 10
219.709040
 20
175.086340
 30
0.0
 10
218.809850
 20
176.533780
 30
0.0
 10
218.310310
 20
178.031130
 30
0.0
  0
LWPOLYLINE
  5
122
100
AcDbEntity
  8
Calque_1
 62
5
100
AcDbPolyline
 90
31
 70
1
 10
62.301582
 20
178.430430
 30
0.0
 10
62.451447
 20
180.826200
 30
0.0
 10
62.901040
 20
182.123910
 30
0.0
 10
63.350634
 20
182.922500
 30
0.0
 10
64.549547
 20
184.170290
 30
0.0
 10
65.248914
 20
184.669410
 30
0.0
 10
66.797513
 20
185.268350
 30
0.0
 10
67.646744
 20
185.418090
 30
0.0
 10
68.695793
 20
185.467990
 30
0.0
 10
69.894706
 20
185.368190
 30
0.0
 10
71.093622
 20
185.018800
 30
0.0
 10
72.142671
 20
184.469770
 30
0.0
 10
73.041859
 20
183.771010
 30
0.0
 10
73.791178
 20
182.872590
 30
0.0
 10
74.340681
 20
181.824450
 30
0.0
 10
74.690366
 20
180.676470
 30
0.0
 10
74.790276
 20
179.378770
 30
0.0
 10
74.790276
 20
178.430440
 30
0.0
 10
74.640412
 20
177.631850
 30
0.0
 10
74.340683
 20
176.733440
 30
0.0
 10
73.491451
 20
175.285990
 30
0.0
 10
72.292538
 20
174.088110
 30
0.0
 10
71.443307
 20
173.588990
 30
0.0
 10
69.644935
 20
173.039960
 30
0.0
 10
68.196248
 20
172.940160
 30
0.0
 10
66.847468
 20
173.089890
 30
0.0
 10
65.798419
 20
173.489190
 30
0.0
 10
64.849278
 20
174.088130
 30
0.0
 10
63.400589
 20
175.485660
 30
0.0
 10
62.751178
 20
176.483900
 30
0.0
 10
62.551358
 20
176.983020
 30
0.0
  0
LWPOLYLINE
  5
123
100
AcDbEntity
  8
Calque_1
 62
5
100
AcDbPolyline
 90
16
 70
1
 10
226.253110
 20
158.565510
 30
0.0
 10
226.303110
 20
159.214370
 30
0.0
 10
226.752700
 20
159.963050
 30
0.0
 10
227.152340
 20
160.262520
 30
0.0
 10
227.801750
 20
160.462160
 30
0.0
 10
228.501120
 20
160.412260
 30
0.0
 10
229.250440
 20
159.963060
 30
0.0
 10
229.550170
 20
159.563760
 30
0.0
 10
229.749990
 20
158.914910
 30
0.0
 10
229.699990
 20
158.216140
 30
0.0
 10
229.450220
 20
157.717020
 30
0.0
 10
228.850760
 20
157.167990
 30
0.0
 10
228.201350
 20
156.968340
 30
0.0
 10
227.501980
 20
157.018240
 30
0.0
 10
226.752660
 20
157.467440
 30
0.0
 10
226.452930
 20
157.866740
 30
0.0
  0
LWPOLYLINE
  5
124
100
AcDbEntity
  8
Calque_1
 62
5
100
AcDbPolyline
 90
16
 70
1
 10
63.250723
 20
158.565510
 30
0.0
 10
63.300673
 20
159.214370
 30
0.0
 10
63.750267
 20
159.963050
 30
0.0
 10
64.149905
 20
160.262520
 30
0.0
 10
64.849271
 20
160.462160
 30
0.0
 10
65.498683
 20
160.412260
 30
0.0
 10
66.248005
 20
159.963060
 30
0.0
 10
66.547734
 20
159.563760
 30
0.0
 10
66.747552
 20
158.865000
 30
0.0
 10
66.697592
 20
158.216140
 30
0.0
 10
66.248001
 20
157.467460
 30
0.0
 10
65.848363
 20
157.167990
 30
0.0
 10
65.198950
 20
156.968340
 30
0.0
 10
64.499583
 20
157.018240
 30
0.0
 10
63.750263
 20
157.467440
 30
0.0
 10
63.450534
 20
157.866740
 30
0.0
  0
LWPOLYLINE
  5
125
100
AcDbEntity
  8
Calque_1
 62
5
100
AcDbPolyline
 90
16
 70
1
 10
62.412241
 20
158.525730
 30
0.0
 10
62.485211
 20
159.475090
 30
0.0
 10
63.142036
 20
160.570490
 30
0.0
 10
63.725879
 20
161.008650
 30
0.0
 10
64.747602
 20
161.300750
 30
0.0
 10
65.696346
 20
161.227750
 30
0.0
 10
66.791051
 20
160.570520
 30
0.0
 10
67.228933
 20
159.986290
 30
0.0
 10
67.520853
 20
158.963940
 30
0.0
 10
67.447873
 20
158.014580
 30
0.0
 10
66.791053
 20
156.919180
 30
0.0
 10
66.207210
 20
156.481020
 30
0.0
 10
65.258465
 20
156.188910
 30
0.0
 10
64.236740
 20
156.261910
 30
0.0
 10
63.142038
 20
156.919140
 30
0.0
 10
62.704156
 20
157.503360
 30
0.0
  0
LWPOLYLINE
  5
126
100
AcDbEntity
  8
Calque_1
 62
5
100
AcDbPolyline
 90
16
 70
1
 10
225.415240
 20
158.525730
 30
0.0
 10
225.488240
 20
159.475090
 30
0.0
 10
226.145060
 20
160.570490
 30
0.0
 10
226.728910
 20
161.008650
 30
0.0
 10
227.750630
 20
161.300750
 30
0.0
 10
228.699370
 20
161.227750
 30
0.0
 10
229.794080
 20
160.570520
 30
0.0
 10
230.231960
 20
159.986290
 30
0.0
 10
230.523880
 20
158.963940
 30
0.0
 10
230.450880
 20
158.014580
 30
0.0
 10
229.794060
 20
156.919180
 30
0.0
 10
229.210220
 20
156.481020
 30
0.0
 10
228.261470
 20
156.188910
 30
0.0
 10
227.239750
 20
156.261910
 30
0.0
 10
226.145040
 20
156.919140
 30
0.0
 10
225.707160
 20
157.503360
 30
0.0
  0
LWPOLYLINE
  5
127
100
AcDbEntity
  8
Calque_1
 62
5
100
AcDbPolyline
 90
16
 70
1
 10
55.618241
 20
287.746734
 30
0.0
 10
55.691211
 20
288.696095
 30
0.0
 10
56.348036
 20
289.791495
 30
0.0
 10
56.931879
 20
290.229655
 30
0.0
 10
57.953602
 20
290.521755
 30
0.0
 10
58.902346
 20
290.448755
 30
0.0
 10
59.997051
 20
289.791525
 30
0.0
 10
60.434933
 20
289.207295
 30
0.0
 10
60.726853
 20
288.184945
 30
0.0
 10
60.653873
 20
287.235585
 30
0.0
 10
59.997053
 20
286.140184
 30
0.0
 10
59.413210
 20
285.702024
 30
0.0
 10
58.464465
 20
285.409914
 30
0.0
 10
57.442740
 20
285.482914
 30
0.0
 10
56.348038
 20
286.140144
 30
0.0
 10
55.910156
 20
286.724364
 30
0.0
  0
LWPOLYLINE
  5
128
100
AcDbEntity
  8
Calque_1
 62
5
100
AcDbPolyline
 90
16
 70
1
 10
232.208240
 20
287.746734
 30
0.0
 10
232.281240
 20
288.696095
 30
0.0
 10
232.938070
 20
289.791495
 30
0.0
 10
233.521910
 20
290.229655
 30
0.0
 10
234.543630
 20
290.521755
 30
0.0
 10
235.492380
 20
290.448755
 30
0.0
 10
236.587080
 20
289.791525
 30
0.0
 10
237.024970
 20
289.207295
 30
0.0
 10
237.316890
 20
288.184945
 30
0.0
 10
237.243890
 20
287.235585
 30
0.0
 10
236.587070
 20
286.140184
 30
0.0
 10
236.003220
 20
285.702024
 30
0.0
 10
235.054480
 20
285.409914
 30
0.0
 10
234.032750
 20
285.482914
 30
0.0
 10
232.938050
 20
286.140144
 30
0.0
 10
232.500170
 20
286.724364
 30
0.0
  0
LWPOLYLINE
  5
129
100
AcDbEntity
  8
Calque_1
 62
5
100
AcDbPolyline
 90
16
 70
1
 10
264.068870
 20
153.873800
 30
0.0
 10
264.118870
 20
154.622480
 30
0.0
 10
264.418580
 20
155.171510
 30
0.0
 10
265.067990
 20
155.720540
 30
0.0
 10
265.517590
 20
155.870270
 30
0.0
 10
266.316860
 20
155.820370
 30
0.0
 10
266.816420
 20
155.570810
 30
0.0
 10
267.266010
 20
155.121610
 30
0.0
 10
267.565730
 20
154.323020
 30
0.0
 10
267.515730
 20
153.624250
 30
0.0
 10
267.066160
 20
152.875570
 30
0.0
 10
266.566610
 20
152.526190
 30
0.0
 10
266.067050
 20
152.376460
 30
0.0
 10
265.517560
 20
152.376460
 30
0.0
 10
264.818180
 20
152.675920
 30
0.0
 10
264.218730
 20
153.374690
 30
0.0
  0
LWPOLYLINE
  5
12a
100
AcDbEntity
  8
Calque_1
 62
5
100
AcDbPolyline
 90
16
 70
1
 10
25.285104
 20
153.823890
 30
0.0
 10
25.335064
 20
154.622480
 30
0.0
 10
25.634793
 20
155.171510
 30
0.0
 10
26.284206
 20
155.720540
 30
0.0
 10
26.783753
 20
155.870270
 30
0.0
 10
27.533073
 20
155.820370
 30
0.0
 10
28.032622
 20
155.570810
 30
0.0
 10
28.482215
 20
155.121610
 30
0.0
 10
28.781942
 20
154.372930
 30
0.0
 10
28.781942
 20
153.823900
 30
0.0
 10
28.482215
 20
153.125130
 30
0.0
 10
27.782849
 20
152.526190
 30
0.0
 10
27.283299
 20
152.376460
 30
0.0
 10
26.533979
 20
152.426360
 30
0.0
 10
25.984477
 20
152.725830
 30
0.0
 10
25.434974
 20
153.374680
 30
0.0
  0
ENDSEC
  0
SECTION
  2
OBJECTS
  0
DICTIONARY
  5
C
330
0
100
AcDbDictionary
  3
ACAD_GROUP
350
D
  3
ACAD_MLINESTYLE
350
17
  0
DICTIONARY
  5
D
330
C
100
AcDbDictionary
  0
DICTIONARY
  5
1A
330
C
100
AcDbDictionary
  0
DICTIONARY
  5
17
330
C
100
AcDbDictionary
  3
STANDARD
350
18
  0
DICTIONARY
  5
19
330
C
100
AcDbDictionary
  0
ENDSEC
  0
EOF
