  0
SECTION
  2
HEADER
  9
$ACADVER
  1
AC1014
  9
$HANDSEED
  5
FFFF
  9
$MEASUREMENT
 70
     1
  0
ENDSEC
  0
SECTION
  2
TABLES
  0
TABLE
  2
VPORT
  5
8
330
0
100
AcDbSymbolTable
 70
     4
  0
VPORT
  5
2E
330
8
100
AcDbSymbolTableRecord
100
AcDbViewportTableRecord
  2
*ACTIVE
 70
     0
 10
0.0
 20
0.0
 11
1.0
 21
1.0
 12
210.0
 22
148.5
 13
0.0
 23
0.0
 14
10.0
 24
10.0
 15
10.0
 25
10.0
 16
0.0
 26
0.0
 36
1.0
 17
0.0
 27
0.0
 37
0.0
 40
341.0
 41
1.24
 42
50.0
 43
0.0
 44
0.0
 50
0.0
 51
0.0
 71
     0
 72
   100
 73
     1
 74
     3
 75
     0
 76
     0
 77
     0
 78
     0
  0
ENDTAB
  0
TABLE
  2
LTYPE
  5
5
330
0
100
AcDbSymbolTable
 70
     1
  0
LTYPE
  5
14
330
5
100
AcDbSymbolTableRecord
100
AcDbLinetypeTableRecord
  2
BYBLOCK
 70
     0
  3

 72
    65
 73
     0
 40
0.0
  0
LTYPE
  5
15
330
5
100
AcDbSymbolTableRecord
100
AcDbLinetypeTableRecord
  2
BYLAYER
 70
     0
  3

 72
    65
 73
     0
 40
0.0
  0
LTYPE
  5
16
330
5
100
AcDbSymbolTableRecord
100
AcDbLinetypeTableRecord
  2
CONTINUOUS
 70
     0
  3
Solid line
 72
    65
 73
     0
 40
0.0
  0
ENDTAB
  0
TABLE
  2
LAYER
  5
2
100
AcDbSymbolTable
 70
1
  0
LAYER
  5
50
100
AcDbSymbolTableRecord
100
AcDbLayerTableRecord
  2
0
 70
0
  6
CONTINUOUS
  0
ENDTAB
  0
TABLE
  2
STYLE
  5
3
330
0
100
AcDbSymbolTable
 70
     1
  0
STYLE
  5
11
330
3
100
AcDbSymbolTableRecord
100
AcDbTextStyleTableRecord
  2
STANDARD
 70
     0
 40
0.0
 41
1.0
 50
0.0
 71
     0
 42
2.5
  3
txt
  4

  0
ENDTAB
  0
TABLE
  2
VIEW
  5
6
330
0
100
AcDbSymbolTable
 70
     0
  0
ENDTAB
  0
TABLE
  2
UCS
  5
7
330
0
100
AcDbSymbolTable
 70
     0
  0
ENDTAB
  0
TABLE
  2
APPID
  5
9
330
0
100
AcDbSymbolTable
 70
     2
  0
APPID
  5
12
330
9
100
AcDbSymbolTableRecord
100
AcDbRegAppTableRecord
  2
ACAD
 70
     0
  0
ENDTAB
  0
TABLE
  2
DIMSTYLE
  5
A
330
0
100
AcDbSymbolTable
 70
     1
  0
DIMSTYLE
105
27
330
A
100
AcDbSymbolTableRecord
100
AcDbDimStyleTableRecord
  2
ISO-25
 70
     0
  3

  4

  5

  6

  7

 40
1.0
 41
2.5
 42
0.625
 43
3.75
 44
1.25
 45
0.0
 46
0.0
 47
0.0
 48
0.0
140
2.5
141
2.5
142
0.0
143
0.03937007874016
144
1.0
145
0.0
146
1.0
147
0.625
 71
     0
 72
     0
 73
     0
 74
     0
 75
     0
 76
     0
 77
     1
 78
     8
170
     0
171
     3
172
     1
173
     0
174
     0
175
     0
176
     0
177
     0
178
     0
270
     2
271
     2
272
     2
273
     2
274
     3
340
11
275
     0
280
     0
281
     0
282
     0
283
     0
284
     8
285
     0
286
     0
287
     3
288
     0
  0
ENDTAB
  0
TABLE
  2
BLOCK_RECORD
  5
1
330
0
100
AcDbSymbolTable
 70
     1
  0
BLOCK_RECORD
  5
1F
330
1
100
AcDbSymbolTableRecord
100
AcDbBlockTableRecord
  2
*MODEL_SPACE
  0
BLOCK_RECORD
  5
1B
330
1
100
AcDbSymbolTableRecord
100
AcDbBlockTableRecord
  2
*PAPER_SPACE
  0
ENDTAB
  0
ENDSEC
  0
SECTION
  2
BLOCKS
  0
BLOCK
  5
20
330
1F
100
AcDbEntity
  8
0
100
AcDbBlockBegin
  2
*MODEL_SPACE
 70
     0
 10
0.0
 20
0.0
 30
0.0
  3
*MODEL_SPACE
  1

  0
ENDBLK
  5
21
330
1F
100
AcDbEntity
  8
0
100
AcDbBlockEnd
  0
BLOCK
  5
1C
330
1B
100
AcDbEntity
 67
     1
  8
0
100
AcDbBlockBegin
  2
*PAPER_SPACE
  1

  0
ENDBLK
  5
1D
330
1B
100
AcDbEntity
 67
     1
  8
0
100
AcDbBlockEnd
  0
ENDSEC
  0
SECTION
  2
ENTITIES
  0
LWPOLYLINE
  5
100
100
AcDbEntity
  8
0
 62
5
100
AcDbPolyline
 90
120
 70
1
 10
0.650000
 20
260.950000
 30
0.0
 10
1.500000
 20
257.550000
 30
0.0
 10
2.900000
 20
255.400000
 30
0.0
 10
4.850000
 20
253.400000
 30
0.0
 10
6.800000
 20
252.050000
 30
0.0
 10
8.400000
 20
251.450000
 30
0.0
 10
8.850000
 20
251.300000
 30
0.0
 10
13.100000
 20
251.250000
 30
0.0
 10
24.100000
 20
252.250000
 30
0.0
 10
28.000000
 20
251.900000
 30
0.0
 10
30.800000
 20
250.650000
 30
0.0
 10
32.800000
 20
248.500000
 30
0.0
 10
34.800000
 20
243.550000
 30
0.0
 10
37.450000
 20
235.050000
 30
0.0
 10
39.850000
 20
226.150000
 30
0.0
 10
41.300000
 20
219.100000
 30
0.0
 10
41.250000
 20
214.850000
 30
0.0
 10
40.350000
 20
211.250000
 30
0.0
 10
38.550000
 20
208.000000
 30
0.0
 10
35.750000
 20
205.000000
 30
0.0
 10
33.000000
 20
202.900000
 30
0.0
 10
30.100000
 20
201.750000
 30
0.0
 10
25.950000
 20
201.250000
 30
0.0
 10
13.100000
 20
201.000000
 30
0.0
 10
9.250000
 20
200.350000
 30
0.0
 10
6.550000
 20
199.000000
 30
0.0
 10
4.100000
 20
196.550000
 30
0.0
 10
2.750000
 20
194.150000
 30
0.0
 10
2.150000
 20
191.250000
 30
0.0
 10
2.350000
 20
187.900000
 30
0.0
 10
3.250000
 20
185.100000
 30
0.0
 10
7.100000
 20
179.500000
 30
0.0
 10
14.850000
 20
169.700000
 30
0.0
 10
21.950000
 20
161.300000
 30
0.0
 10
27.100000
 20
155.950000
 30
0.0
 10
30.250000
 20
154.450000
 30
0.0
 10
34.000000
 20
154.300000
 30
0.0
 10
38.600000
 20
155.700000
 30
0.0
 10
45.300000
 20
159.000000
 30
0.0
 10
56.750000
 20
164.400000
 30
0.0
 10
62.000000
 20
166.250000
 30
0.0
 10
67.400000
 20
167.650000
 30
0.0
 10
73.100000
 20
168.600000
 30
0.0
 10
78.750000
 20
169.100000
 30
0.0
 10
94.600000
 20
169.150000
 30
0.0
 10
106.000000
 20
168.450000
 30
0.0
 10
115.250000
 20
166.800000
 30
0.0
 10
124.000000
 20
163.650000
 30
0.0
 10
133.750000
 20
158.650000
 30
0.0
 10
141.100000
 20
155.050000
 30
0.0
 10
143.550000
 20
154.400000
 30
0.0
 10
145.900000
 20
154.300000
 30
0.0
 10
148.950000
 20
154.650000
 30
0.0
 10
152.050000
 20
156.200000
 30
0.0
 10
155.550000
 20
159.500000
 30
0.0
 10
159.800000
 20
164.650000
 30
0.0
 10
170.250000
 20
177.800000
 30
0.0
 10
174.200000
 20
183.200000
 30
0.0
 10
176.150000
 20
186.850000
 30
0.0
 10
176.600000
 20
190.800000
 30
0.0
 10
175.850000
 20
194.350000
 30
0.0
 10
174.100000
 20
197.400000
 30
0.0
 10
171.250000
 20
199.850000
 30
0.0
 10
167.000000
 20
200.650000
 30
0.0
 10
151.100000
 20
201.600000
 30
0.0
 10
146.350000
 20
202.500000
 30
0.0
 10
143.100000
 20
204.300000
 30
0.0
 10
140.450000
 20
207.350000
 30
0.0
 10
137.800000
 20
211.950000
 30
0.0
 10
137.200000
 20
214.250000
 30
0.0
 10
137.100000
 20
217.300000
 30
0.0
 10
138.250000
 20
224.400000
 30
0.0
 10
141.500000
 20
236.150000
 30
0.0
 10
144.300000
 20
244.700000
 30
0.0
 10
146.750000
 20
249.450000
 30
0.0
 10
148.150000
 20
250.850000
 30
0.0
 10
149.700000
 20
251.650000
 30
0.0
 10
153.650000
 20
252.100000
 30
0.0
 10
168.500000
 20
251.200000
 30
0.0
 10
169.100000
 20
251.200000
 30
0.0
 10
172.050000
 20
252.050000
 30
0.0
 10
174.300000
 20
253.600000
 30
0.0
 10
176.200000
 20
255.800000
 30
0.0
 10
177.400000
 20
258.300000
 30
0.0
 10
177.950000
 20
260.800000
 30
0.0
 10
177.950000
 20
263.400000
 30
0.0
 10
177.300000
 20
266.200000
 30
0.0
 10
177.050000
 20
266.700000
 30
0.0
 10
175.850000
 20
268.800000
 30
0.0
 10
174.000000
 20
270.700000
 30
0.0
 10
168.850000
 20
273.000000
 30
0.0
 10
159.250000
 20
276.400000
 30
0.0
 10
150.200000
 20
279.250000
 30
0.0
 10
144.900000
 20
280.500000
 30
0.0
 10
144.450000
 20
280.500000
 30
0.0
 10
141.700000
 20
280.000000
 30
0.0
 10
138.250000
 20
278.150000
 30
0.0
 10
133.450000
 20
274.300000
 30
0.0
 10
118.750000
 20
260.550000
 30
0.0
 10
115.550000
 20
258.200000
 30
0.0
 10
112.350000
 20
256.650000
 30
0.0
 10
108.650000
 20
255.700000
 30
0.0
 10
104.200000
 20
255.250000
 30
0.0
 10
90.700000
 20
254.950000
 30
0.0
 10
71.800000
 20
254.950000
 30
0.0
 10
68.400000
 20
255.400000
 30
0.0
 10
66.200000
 20
256.250000
 30
0.0
 10
60.600000
 20
260.500000
 30
0.0
 10
50.450000
 20
269.600000
 30
0.0
 10
44.600000
 20
275.000000
 30
0.0
 10
39.200000
 20
278.900000
 30
0.0
 10
37.100000
 20
279.850000
 30
0.0
 10
35.200000
 20
280.250000
 30
0.0
 10
34.450000
 20
280.250000
 30
0.0
 10
30.550000
 20
279.850000
 30
0.0
 10
16.800000
 20
275.600000
 30
0.0
 10
5.550000
 20
271.150000
 30
0.0
 10
2.800000
 20
268.400000
 30
0.0
 10
2.600000
 20
268.000000
 30
0.0
 10
1.150000
 20
264.950000
 30
0.0
  0
LWPOLYLINE
  5
101
100
AcDbEntity
  8
0
 62
5
100
AcDbPolyline
 90
17
 70
1
 10
56.300000
 20
196.200000
 30
0.0
 10
56.350000
 20
197.300000
 30
0.0
 10
56.800000
 20
198.200000
 30
0.0
 10
57.450000
 20
198.800000
 30
0.0
 10
58.550000
 20
199.200000
 30
0.0
 10
59.500000
 20
199.150000
 30
0.0
 10
60.350000
 20
198.800000
 30
0.0
 10
61.200000
 20
197.900000
 30
0.0
 10
61.500000
 20
197.050000
 30
0.0
 10
61.450000
 20
195.900000
 30
0.0
 10
60.950000
 20
194.900000
 30
0.0
 10
60.150000
 20
194.250000
 30
0.0
 10
59.400000
 20
194.000000
 30
0.0
 10
58.650000
 20
193.950000
 30
0.0
 10
58.150000
 20
194.050000
 30
0.0
 10
57.250000
 20
194.500000
 30
0.0
 10
56.700000
 20
195.100000
 30
0.0
  0
LWPOLYLINE
  5
102
100
AcDbEntity
  8
0
 62
5
100
AcDbPolyline
 90
16
 70
1
 10
56.300000
 20
231.150000
 30
0.0
 10
56.300000
 20
232.100000
 30
0.0
 10
56.700000
 20
233.100000
 30
0.0
 10
57.550000
 20
233.900000
 30
0.0
 10
58.400000
 20
234.200000
 30
0.0
 10
59.500000
 20
234.200000
 30
0.0
 10
60.400000
 20
233.800000
 30
0.0
 10
61.100000
 20
233.100000
 30
0.0
 10
61.500000
 20
232.050000
 30
0.0
 10
61.450000
 20
230.950000
 30
0.0
 10
61.100000
 20
230.150000
 30
0.0
 10
60.350000
 20
229.400000
 30
0.0
 10
59.250000
 20
229.000000
 30
0.0
 10
58.150000
 20
229.100000
 30
0.0
 10
57.450000
 20
229.400000
 30
0.0
 10
56.800000
 20
230.000000
 30
0.0
  0
LWPOLYLINE
  5
103
100
AcDbEntity
  8
0
 62
5
100
AcDbPolyline
 90
63
 70
1
 10
69.250000
 20
214.150000
 30
0.0
 10
69.350000
 20
216.150000
 30
0.0
 10
69.650000
 20
218.150000
 30
0.0
 10
70.100000
 20
219.950000
 30
0.0
 10
70.700000
 20
221.650000
 30
0.0
 10
71.600000
 20
223.600000
 30
0.0
 10
72.650000
 20
225.350000
 30
0.0
 10
73.800000
 20
226.900000
 30
0.0
 10
74.750000
 20
227.950000
 30
0.0
 10
76.550000
 20
229.650000
 30
0.0
 10
78.100000
 20
230.800000
 30
0.0
 10
79.750000
 20
231.800000
 30
0.0
 10
81.650000
 20
232.700000
 30
0.0
 10
83.500000
 20
233.350000
 30
0.0
 10
85.550000
 20
233.850000
 30
0.0
 10
87.250000
 20
234.100000
 30
0.0
 10
89.200000
 20
234.200000
 30
0.0
 10
91.300000
 20
234.100000
 30
0.0
 10
93.000000
 20
233.850000
 30
0.0
 10
95.050000
 20
233.350000
 30
0.0
 10
96.900000
 20
232.700000
 30
0.0
 10
98.800000
 20
231.800000
 30
0.0
 10
100.300000
 20
230.900000
 30
0.0
 10
102.000000
 20
229.650000
 30
0.0
 10
103.000000
 20
228.750000
 30
0.0
 10
104.750000
 20
226.900000
 30
0.0
 10
105.900000
 20
225.350000
 30
0.0
 10
106.900000
 20
223.700000
 30
0.0
 10
107.800000
 20
221.800000
 30
0.0
 10
108.450000
 20
219.950000
 30
0.0
 10
108.900000
 20
218.150000
 30
0.0
 10
109.200000
 20
216.200000
 30
0.0
 10
109.300000
 20
214.300000
 30
0.0
 10
109.200000
 20
212.150000
 30
0.0
 10
108.900000
 20
210.200000
 30
0.0
 10
108.450000
 20
208.400000
 30
0.0
 10
107.800000
 20
206.550000
 30
0.0
 10
106.950000
 20
204.750000
 30
0.0
 10
105.900000
 20
203.000000
 30
0.0
 10
104.750000
 20
201.450000
 30
0.0
 10
103.800000
 20
200.400000
 30
0.0
 10
102.000000
 20
198.700000
 30
0.0
 10
100.450000
 20
197.550000
 30
0.0
 10
98.700000
 20
196.500000
 30
0.0
 10
97.000000
 20
195.700000
 30
0.0
 10
95.050000
 20
195.000000
 30
0.0
 10
93.250000
 20
194.550000
 30
0.0
 10
90.300000
 20
194.200000
 30
0.0
 10
87.300000
 20
194.250000
 30
0.0
 10
85.600000
 20
194.500000
 30
0.0
 10
83.500000
 20
195.000000
 30
0.0
 10
81.950000
 20
195.550000
 30
0.0
 10
79.850000
 20
196.500000
 30
0.0
 10
78.350000
 20
197.400000
 30
0.0
 10
76.500000
 20
198.750000
 30
0.0
 10
75.400000
 20
199.750000
 30
0.0
 10
73.850000
 20
201.400000
 30
0.0
 10
72.800000
 20
202.800000
 30
0.0
 10
71.600000
 20
204.750000
 30
0.0
 10
70.800000
 20
206.450000
 30
0.0
 10
70.100000
 20
208.400000
 30
0.0
 10
69.650000
 20
210.200000
 30
0.0
 10
69.350000
 20
212.200000
 30
0.0
  0
LWPOLYLINE
  5
104
100
AcDbEntity
  8
0
 62
5
100
AcDbPolyline
 90
17
 70
1
 10
86.650000
 20
178.600000
 30
0.0
 10
86.650000
 20
179.550000
 30
0.0
 10
87.000000
 20
180.450000
 30
0.0
 10
87.750000
 20
181.250000
 30
0.0
 10
88.650000
 20
181.650000
 30
0.0
 10
89.600000
 20
181.700000
 30
0.0
 10
90.200000
 20
181.550000
 30
0.0
 10
90.850000
 20
181.200000
 30
0.0
 10
91.550000
 20
180.400000
 30
0.0
 10
91.900000
 20
179.200000
 30
0.0
 10
91.750000
 20
178.200000
 30
0.0
 10
91.300000
 20
177.400000
 30
0.0
 10
90.600000
 20
176.800000
 30
0.0
 10
89.500000
 20
176.450000
 30
0.0
 10
88.650000
 20
176.500000
 30
0.0
 10
87.750000
 20
176.900000
 30
0.0
 10
87.000000
 20
177.700000
 30
0.0
  0
LWPOLYLINE
  5
105
100
AcDbEntity
  8
0
 62
5
100
AcDbPolyline
 90
17
 70
1
 10
86.650000
 20
248.650000
 30
0.0
 10
86.650000
 20
249.600000
 30
0.0
 10
86.900000
 20
250.350000
 30
0.0
 10
87.600000
 20
251.200000
 30
0.0
 10
88.650000
 20
251.700000
 30
0.0
 10
89.450000
 20
251.750000
 30
0.0
 10
90.050000
 20
251.650000
 30
0.0
 10
90.600000
 20
251.400000
 30
0.0
 10
91.450000
 20
250.600000
 30
0.0
 10
91.850000
 20
249.600000
 30
0.0
 10
91.850000
 20
248.650000
 30
0.0
 10
91.450000
 20
247.650000
 30
0.0
 10
90.600000
 20
246.850000
 30
0.0
 10
89.550000
 20
246.500000
 30
0.0
 10
88.700000
 20
246.550000
 30
0.0
 10
87.750000
 20
246.950000
 30
0.0
 10
87.050000
 20
247.650000
 30
0.0
  0
LWPOLYLINE
  5
106
100
AcDbEntity
  8
0
 62
5
100
AcDbPolyline
 90
18
 70
1
 10
116.950000
 20
196.350000
 30
0.0
 10
117.000000
 20
197.200000
 30
0.0
 10
117.650000
 20
198.400000
 30
0.0
 10
118.200000
 20
198.850000
 30
0.0
 10
119.250000
 20
199.200000
 30
0.0
 10
120.250000
 20
199.150000
 30
0.0
 10
120.850000
 20
198.900000
 30
0.0
 10
121.400000
 20
198.500000
 30
0.0
 10
121.850000
 20
197.950000
 30
0.0
 10
122.200000
 20
196.950000
 30
0.0
 10
122.150000
 20
195.950000
 30
0.0
 10
121.550000
 20
194.800000
 30
0.0
 10
120.600000
 20
194.150000
 30
0.0
 10
119.700000
 20
193.950000
 30
0.0
 10
118.700000
 20
194.100000
 30
0.0
 10
118.250000
 20
194.300000
 30
0.0
 10
117.750000
 20
194.700000
 30
0.0
 10
117.150000
 20
195.550000
 30
0.0
  0
LWPOLYLINE
  5
107
100
AcDbEntity
  8
0
 62
5
100
AcDbPolyline
 90
18
 70
1
 10
116.950000
 20
231.850000
 30
0.0
 10
117.050000
 20
232.400000
 30
0.0
 10
117.350000
 20
233.050000
 30
0.0
 10
117.950000
 20
233.700000
 30
0.0
 10
118.550000
 20
234.050000
 30
0.0
 10
119.400000
 20
234.250000
 30
0.0
 10
120.500000
 20
234.100000
 30
0.0
 10
121.350000
 20
233.600000
 30
0.0
 10
121.800000
 20
233.050000
 30
0.0
 10
122.200000
 20
231.900000
 30
0.0
 10
122.100000
 20
230.800000
 30
0.0
 10
121.700000
 20
230.050000
 30
0.0
 10
120.950000
 20
229.350000
 30
0.0
 10
119.950000
 20
229.000000
 30
0.0
 10
119.250000
 20
229.000000
 30
0.0
 10
118.650000
 20
229.150000
 30
0.0
 10
117.650000
 20
229.800000
 30
0.0
 10
117.100000
 20
230.700000
 30
0.0
  0
ENDSEC
  0
SECTION
  2
OBJECTS
  0
DICTIONARY
  5
C
330
0
100
AcDbDictionary
  3
ACAD_GROUP
350
D
  3
ACAD_MLINESTYLE
350
17
  0
DICTIONARY
  5
D
330
C
100
AcDbDictionary
  0
DICTIONARY
  5
1A
330
C
100
AcDbDictionary
  0
DICTIONARY
  5
17
330
C
100
AcDbDictionary
  3
STANDARD
350
18
  0
DICTIONARY
  5
19
330
C
100
AcDbDictionary
  0
ENDSEC
  0
EOF
