  0
SECTION
  2
HEADER
  9
$ACADVER
  1
AC1014
  9
$HANDSEED
  5
FFFF
  9
$MEASUREMENT
 70
     1
  0
ENDSEC
  0
SECTION
  2
TABLES
  0
TABLE
  2
VPORT
  5
8
330
0
100
AcDbSymbolTable
 70
     4
  0
VPORT
  5
2E
330
8
100
AcDbSymbolTableRecord
100
AcDbViewportTableRecord
  2
*ACTIVE
 70
     0
 10
0.0
 20
0.0
 11
1.0
 21
1.0
 12
210.0
 22
148.5
 13
0.0
 23
0.0
 14
10.0
 24
10.0
 15
10.0
 25
10.0
 16
0.0
 26
0.0
 36
1.0
 17
0.0
 27
0.0
 37
0.0
 40
341.0
 41
1.24
 42
50.0
 43
0.0
 44
0.0
 50
0.0
 51
0.0
 71
     0
 72
   100
 73
     1
 74
     3
 75
     0
 76
     0
 77
     0
 78
     0
  0
ENDTAB
  0
TABLE
  2
LTYPE
  5
5
330
0
100
AcDbSymbolTable
 70
     1
  0
LTYPE
  5
14
330
5
100
AcDbSymbolTableRecord
100
AcDbLinetypeTableRecord
  2
BYBLOCK
 70
     0
  3

 72
    65
 73
     0
 40
0.0
  0
LTYPE
  5
15
330
5
100
AcDbSymbolTableRecord
100
AcDbLinetypeTableRecord
  2
BYLAYER
 70
     0
  3

 72
    65
 73
     0
 40
0.0
  0
LTYPE
  5
16
330
5
100
AcDbSymbolTableRecord
100
AcDbLinetypeTableRecord
  2
CONTINUOUS
 70
     0
  3
Solid line
 72
    65
 73
     0
 40
0.0
  0
ENDTAB
  0
TABLE
  2
LAYER
  5
2
100
AcDbSymbolTable
 70
1
  0
LAYER
  5
50
100
AcDbSymbolTableRecord
100
AcDbLayerTableRecord
  2
0
 70
0
  6
CONTINUOUS
  0
ENDTAB
  0
TABLE
  2
STYLE
  5
3
330
0
100
AcDbSymbolTable
 70
     1
  0
STYLE
  5
11
330
3
100
AcDbSymbolTableRecord
100
AcDbTextStyleTableRecord
  2
STANDARD
 70
     0
 40
0.0
 41
1.0
 50
0.0
 71
     0
 42
2.5
  3
txt
  4

  0
ENDTAB
  0
TABLE
  2
VIEW
  5
6
330
0
100
AcDbSymbolTable
 70
     0
  0
ENDTAB
  0
TABLE
  2
UCS
  5
7
330
0
100
AcDbSymbolTable
 70
     0
  0
ENDTAB
  0
TABLE
  2
APPID
  5
9
330
0
100
AcDbSymbolTable
 70
     2
  0
APPID
  5
12
330
9
100
AcDbSymbolTableRecord
100
AcDbRegAppTableRecord
  2
ACAD
 70
     0
  0
ENDTAB
  0
TABLE
  2
DIMSTYLE
  5
A
330
0
100
AcDbSymbolTable
 70
     1
  0
DIMSTYLE
105
27
330
A
100
AcDbSymbolTableRecord
100
AcDbDimStyleTableRecord
  2
ISO-25
 70
     0
  3

  4

  5

  6

  7

 40
1.0
 41
2.5
 42
0.625
 43
3.75
 44
1.25
 45
0.0
 46
0.0
 47
0.0
 48
0.0
140
2.5
141
2.5
142
0.0
143
0.03937007874016
144
1.0
145
0.0
146
1.0
147
0.625
 71
     0
 72
     0
 73
     0
 74
     0
 75
     0
 76
     0
 77
     1
 78
     8
170
     0
171
     3
172
     1
173
     0
174
     0
175
     0
176
     0
177
     0
178
     0
270
     2
271
     2
272
     2
273
     2
274
     3
340
11
275
     0
280
     0
281
     0
282
     0
283
     0
284
     8
285
     0
286
     0
287
     3
288
     0
  0
ENDTAB
  0
TABLE
  2
BLOCK_RECORD
  5
1
330
0
100
AcDbSymbolTable
 70
     1
  0
BLOCK_RECORD
  5
1F
330
1
100
AcDbSymbolTableRecord
100
AcDbBlockTableRecord
  2
*MODEL_SPACE
  0
BLOCK_RECORD
  5
1B
330
1
100
AcDbSymbolTableRecord
100
AcDbBlockTableRecord
  2
*PAPER_SPACE
  0
ENDTAB
  0
ENDSEC
  0
SECTION
  2
BLOCKS
  0
BLOCK
  5
20
330
1F
100
AcDbEntity
  8
0
100
AcDbBlockBegin
  2
*MODEL_SPACE
 70
     0
 10
0.0
 20
0.0
 30
0.0
  3
*MODEL_SPACE
  1

  0
ENDBLK
  5
21
330
1F
100
AcDbEntity
  8
0
100
AcDbBlockEnd
  0
BLOCK
  5
1C
330
1B
100
AcDbEntity
 67
     1
  8
0
100
AcDbBlockBegin
  2
*PAPER_SPACE
  1

  0
ENDBLK
  5
1D
330
1B
100
AcDbEntity
 67
     1
  8
0
100
AcDbBlockEnd
  0
ENDSEC
  0
SECTION
  2
ENTITIES
  0
SPLINE
  5
100
100
AcDbEntity
  8
0
 62
7
100
AcDbSpline
 70
0
 71
3
 72
16
 73
12
 74
10
 40
0.000000
 40
0.000000
 40
0.000000
 40
0.000000
 40
0.611457
 40
1.214143
 40
1.825600
 40
2.437057
 40
3.039742
 40
3.651199
 40
4.262656
 40
4.865342
 40
5.476799
 40
5.476799
 40
5.476799
 40
5.476799
 10
265.616378
 20
168.097857
 30
0.0
 10
265.595822
 20
168.302759
 30
0.0
 10
265.555004
 20
168.709624
 30
0.0
 10
265.233161
 20
169.247652
 30
0.0
 10
264.761288
 20
169.647753
 30
0.0
 10
264.176527
 20
169.859991
 30
0.0
 10
263.556236
 20
169.859991
 30
0.0
 10
262.971475
 20
169.647753
 30
0.0
 10
262.499603
 20
169.247652
 30
0.0
 10
262.177759
 20
168.709624
 30
0.0
 10
262.136942
 20
168.302759
 30
0.0
 10
262.116385
 20
168.097857
 30
0.0
 11
265.616378
 21
168.097857
 31
0.0
 11
265.510774
 21
168.700125
 31
0.0
 11
265.210122
 21
169.222464
 31
0.0
 11
264.742383
 21
169.616292
 31
0.0
 11
264.167725
 21
169.825211
 31
0.0
 11
263.565039
 21
169.825211
 31
0.0
 11
262.990381
 21
169.616292
 31
0.0
 11
262.522642
 21
169.222464
 31
0.0
 11
262.221989
 21
168.700125
 31
0.0
 11
262.116385
 21
168.097857
 31
0.0
  0
SPLINE
  5
101
100
AcDbEntity
  8
0
 62
7
100
AcDbSpline
 70
0
 71
3
 72
16
 73
12
 74
10
 40
0.000000
 40
0.000000
 40
0.000000
 40
0.000000
 40
0.611457
 40
1.214143
 40
1.825600
 40
2.437057
 40
3.039742
 40
3.651199
 40
4.262656
 40
4.865342
 40
5.476799
 40
5.476799
 40
5.476799
 40
5.476799
 10
262.116385
 20
168.097857
 30
0.0
 10
262.136942
 20
167.892954
 30
0.0
 10
262.177759
 20
167.486089
 30
0.0
 10
262.499603
 20
166.948062
 30
0.0
 10
262.971475
 20
166.547960
 30
0.0
 10
263.556236
 20
166.335722
 30
0.0
 10
264.176527
 20
166.335722
 30
0.0
 10
264.761288
 20
166.547960
 30
0.0
 10
265.233161
 20
166.948062
 30
0.0
 10
265.555004
 20
167.486089
 30
0.0
 10
265.595822
 20
167.892954
 30
0.0
 10
265.616378
 20
168.097857
 30
0.0
 11
262.116385
 21
168.097857
 31
0.0
 11
262.221989
 21
167.495588
 31
0.0
 11
262.522642
 21
166.973249
 31
0.0
 11
262.990381
 21
166.579421
 31
0.0
 11
263.565039
 21
166.370502
 31
0.0
 11
264.167725
 21
166.370502
 31
0.0
 11
264.742383
 21
166.579421
 31
0.0
 11
265.210122
 21
166.973249
 31
0.0
 11
265.510774
 21
167.495588
 31
0.0
 11
265.616378
 21
168.097857
 31
0.0
  0
LWPOLYLINE
  5
102
100
AcDbEntity
  8
0
 62
7
100
AcDbPolyline
 90
1
 70
1
 10
265.616378
 20
168.097857
 30
0.0
  0
SPLINE
  5
103
100
AcDbEntity
  8
0
 62
7
100
AcDbSpline
 70
0
 71
3
 72
25
 73
21
 74
19
 40
0.000000
 40
0.000000
 40
0.000000
 40
0.000000
 40
0.611087
 40
1.213417
 40
1.824504
 40
2.435590
 40
3.037921
 40
3.649007
 40
4.260094
 40
4.862424
 40
5.473511
 40
6.084598
 40
6.686928
 40
7.298015
 40
7.909101
 40
8.511432
 40
9.122518
 40
9.733605
 40
10.335935
 40
10.947022
 40
10.947022
 40
10.947022
 40
10.947022
 10
254.938912
 20
43.693734
 30
0.0
 10
254.918186
 20
43.898491
 30
0.0
 10
254.877031
 20
44.305072
 30
0.0
 10
254.555058
 20
44.842555
 30
0.0
 10
254.083291
 20
45.242207
 30
0.0
 10
253.498915
 20
45.454189
 30
0.0
 10
252.878779
 20
45.454189
 30
0.0
 10
252.295213
 20
45.242207
 30
0.0
 10
251.820209
 20
44.842555
 30
0.0
 10
251.510265
 20
44.305072
 30
0.0
 10
251.402981
 20
43.693734
 30
0.0
 10
251.510265
 20
43.082396
 30
0.0
 10
251.820209
 20
42.544913
 30
0.0
 10
252.295213
 20
42.145261
 30
0.0
 10
252.878779
 20
41.933279
 30
0.0
 10
253.498915
 20
41.933279
 30
0.0
 10
254.083291
 20
42.145261
 30
0.0
 10
254.555058
 20
42.544913
 30
0.0
 10
254.877031
 20
43.082396
 30
0.0
 10
254.918186
 20
43.488977
 30
0.0
 10
254.938912
 20
43.693734
 30
0.0
 11
254.938912
 21
43.693734
 31
0.0
 11
254.832863
 21
44.295548
 31
0.0
 11
254.532055
 21
44.817388
 31
0.0
 11
254.064433
 21
45.210779
 31
0.0
 11
253.490078
 21
45.419450
 31
0.0
 11
252.887748
 21
45.419450
 31
0.0
 11
252.313394
 21
45.210779
 31
0.0
 11
251.845771
 21
44.817388
 31
0.0
 11
251.544964
 21
44.295548
 31
0.0
 11
251.438914
 21
43.693734
 31
0.0
 11
251.544964
 21
43.091920
 31
0.0
 11
251.845771
 21
42.570080
 31
0.0
 11
252.313394
 21
42.176689
 31
0.0
 11
252.887748
 21
41.968018
 31
0.0
 11
253.490078
 21
41.968018
 31
0.0
 11
254.064433
 21
42.176689
 31
0.0
 11
254.532055
 21
42.570080
 31
0.0
 11
254.832863
 21
43.091920
 31
0.0
 11
254.938912
 21
43.693734
 31
0.0
  0
LWPOLYLINE
  5
104
100
AcDbEntity
  8
0
 62
7
100
AcDbPolyline
 90
1
 70
1
 10
254.938912
 20
43.693734
 30
0.0
  0
SPLINE
  5
105
100
AcDbEntity
  8
0
 62
7
100
AcDbSpline
 70
0
 71
3
 72
25
 73
21
 74
19
 40
0.000000
 40
0.000000
 40
0.000000
 40
0.000000
 40
0.610687
 40
1.212635
 40
1.823322
 40
2.434010
 40
3.035957
 40
3.646644
 40
4.257332
 40
4.859279
 40
5.469967
 40
6.080654
 40
6.682601
 40
7.293289
 40
7.903976
 40
8.505924
 40
9.116611
 40
9.727298
 40
10.329246
 40
10.939933
 40
10.939933
 40
10.939933
 40
10.939933
 10
160.757826
 20
12.867630
 30
0.0
 10
160.736917
 20
13.072230
 30
0.0
 10
160.695398
 20
13.478504
 30
0.0
 10
160.373281
 20
14.015400
 30
0.0
 10
159.901648
 20
14.414568
 30
0.0
 10
159.317619
 20
14.626274
 30
0.0
 10
158.697898
 20
14.626274
 30
0.0
 10
158.114687
 20
14.414568
 30
0.0
 10
157.639787
 20
14.015400
 30
0.0
 10
157.329805
 20
13.478504
 30
0.0
 10
157.221575
 20
12.867630
 30
0.0
 10
157.329805
 20
12.256756
 30
0.0
 10
157.639787
 20
11.719860
 30
0.0
 10
158.114687
 20
11.320691
 30
0.0
 10
158.697898
 20
11.108986
 30
0.0
 10
159.317619
 20
11.108986
 30
0.0
 10
159.901648
 20
11.320691
 30
0.0
 10
160.373281
 20
11.719860
 30
0.0
 10
160.695398
 20
12.256756
 30
0.0
 10
160.736917
 20
12.663029
 30
0.0
 10
160.757826
 20
12.867630
 30
0.0
 11
160.757826
 21
12.867630
 31
0.0
 11
160.651297
 21
13.468954
 31
0.0
 11
160.350323
 21
13.990256
 31
0.0
 11
159.882826
 21
14.383175
 31
0.0
 11
159.308799
 21
14.591580
 31
0.0
 11
158.706852
 21
14.591580
 31
0.0
 11
158.132825
 21
14.383175
 31
0.0
 11
157.665328
 21
13.990256
 31
0.0
 11
157.364354
 21
13.468954
 31
0.0
 11
157.257825
 21
12.867630
 31
0.0
 11
157.364354
 21
12.266306
 31
0.0
 11
157.665328
 21
11.745004
 31
0.0
 11
158.132825
 21
11.352085
 31
0.0
 11
158.706852
 21
11.143680
 31
0.0
 11
159.308799
 21
11.143680
 31
0.0
 11
159.882826
 21
11.352085
 31
0.0
 11
160.350323
 21
11.745004
 31
0.0
 11
160.651297
 21
12.266306
 31
0.0
 11
160.757826
 21
12.867630
 31
0.0
  0
LWPOLYLINE
  5
106
100
AcDbEntity
  8
0
 62
7
100
AcDbPolyline
 90
1
 70
1
 10
160.757826
 20
12.867630
 30
0.0
  0
SPLINE
  5
107
100
AcDbEntity
  8
0
 62
7
100
AcDbSpline
 70
0
 71
3
 72
25
 73
21
 74
19
 40
0.000000
 40
0.000000
 40
0.000000
 40
0.000000
 40
0.610687
 40
1.212635
 40
1.823322
 40
2.434010
 40
3.035957
 40
3.646644
 40
4.257332
 40
4.859279
 40
5.469966
 40
6.080654
 40
6.682601
 40
7.293289
 40
7.903976
 40
8.505923
 40
9.116611
 40
9.727298
 40
10.329246
 40
10.939933
 40
10.939933
 40
10.939933
 40
10.939933
 10
84.143084
 20
15.510912
 30
0.0
 10
84.122175
 20
15.715513
 30
0.0
 10
84.080657
 20
16.121786
 30
0.0
 10
83.758540
 20
16.658682
 30
0.0
 10
83.286906
 20
17.057851
 30
0.0
 10
82.702877
 20
17.269556
 30
0.0
 10
82.083156
 20
17.269556
 30
0.0
 10
81.499945
 20
17.057851
 30
0.0
 10
81.025046
 20
16.658682
 30
0.0
 10
80.715064
 20
16.121786
 30
0.0
 10
80.606834
 20
15.510912
 30
0.0
 10
80.715064
 20
14.900038
 30
0.0
 10
81.025046
 20
14.363142
 30
0.0
 10
81.499945
 20
13.963974
 30
0.0
 10
82.083156
 20
13.752268
 30
0.0
 10
82.702877
 20
13.752268
 30
0.0
 10
83.286906
 20
13.963974
 30
0.0
 10
83.758540
 20
14.363142
 30
0.0
 10
84.080657
 20
14.900038
 30
0.0
 10
84.122175
 20
15.306312
 30
0.0
 10
84.143084
 20
15.510912
 30
0.0
 11
84.143084
 21
15.510912
 31
0.0
 11
84.036555
 21
16.112236
 31
0.0
 11
83.735581
 21
16.633538
 31
0.0
 11
83.268084
 21
17.026457
 31
0.0
 11
82.694057
 21
17.234862
 31
0.0
 11
82.092110
 21
17.234862
 31
0.0
 11
81.518084
 21
17.026457
 31
0.0
 11
81.050586
 21
16.633538
 31
0.0
 11
80.749613
 21
16.112236
 31
0.0
 11
80.643083
 21
15.510912
 31
0.0
 11
80.749613
 21
14.909588
 31
0.0
 11
81.050586
 21
14.388286
 31
0.0
 11
81.518084
 21
13.995367
 31
0.0
 11
82.092110
 21
13.786962
 31
0.0
 11
82.694057
 21
13.786962
 31
0.0
 11
83.268084
 21
13.995367
 31
0.0
 11
83.735581
 21
14.388286
 31
0.0
 11
84.036555
 21
14.909588
 31
0.0
 11
84.143084
 21
15.510912
 31
0.0
  0
LWPOLYLINE
  5
108
100
AcDbEntity
  8
0
 62
7
100
AcDbPolyline
 90
1
 70
1
 10
84.143084
 20
15.510912
 30
0.0
  0
SPLINE
  5
109
100
AcDbEntity
  8
0
 62
7
100
AcDbSpline
 70
0
 71
3
 72
25
 73
21
 74
19
 40
0.000000
 40
0.000000
 40
0.000000
 40
0.000000
 40
0.610687
 40
1.212634
 40
1.823322
 40
2.434009
 40
3.035956
 40
3.646643
 40
4.257330
 40
4.859277
 40
5.469965
 40
6.080652
 40
6.682599
 40
7.293286
 40
7.903973
 40
8.505920
 40
9.116608
 40
9.727295
 40
10.329242
 40
10.939929
 40
10.939929
 40
10.939929
 40
10.939929
 10
20.422796
 20
105.957720
 30
0.0
 10
20.401888
 20
106.162321
 30
0.0
 10
20.360369
 20
106.568594
 30
0.0
 10
20.038252
 20
107.105490
 30
0.0
 10
19.566619
 20
107.504658
 30
0.0
 10
18.982590
 20
107.716364
 30
0.0
 10
18.362869
 20
107.716364
 30
0.0
 10
17.779658
 20
107.504658
 30
0.0
 10
17.304759
 20
107.105490
 30
0.0
 10
16.994777
 20
106.568594
 30
0.0
 10
16.886547
 20
105.957720
 30
0.0
 10
16.994777
 20
105.346847
 30
0.0
 10
17.304759
 20
104.809951
 30
0.0
 10
17.779658
 20
104.410782
 30
0.0
 10
18.362869
 20
104.199077
 30
0.0
 10
18.982590
 20
104.199077
 30
0.0
 10
19.566619
 20
104.410782
 30
0.0
 10
20.038252
 20
104.809951
 30
0.0
 10
20.360369
 20
105.346847
 30
0.0
 10
20.401888
 20
105.753120
 30
0.0
 10
20.422796
 20
105.957720
 30
0.0
 11
20.422796
 21
105.957720
 31
0.0
 11
20.316267
 21
106.559044
 31
0.0
 11
20.015294
 21
107.080346
 31
0.0
 11
19.547797
 21
107.473264
 31
0.0
 11
18.973770
 21
107.681669
 31
0.0
 11
18.371823
 21
107.681669
 31
0.0
 11
17.797797
 21
107.473264
 31
0.0
 11
17.330300
 21
107.080346
 31
0.0
 11
17.029326
 21
106.559044
 31
0.0
 11
16.922797
 21
105.957720
 31
0.0
 11
17.029326
 21
105.356396
 31
0.0
 11
17.330300
 21
104.835095
 31
0.0
 11
17.797797
 21
104.442176
 31
0.0
 11
18.371823
 21
104.233771
 31
0.0
 11
18.973770
 21
104.233771
 31
0.0
 11
19.547797
 21
104.442176
 31
0.0
 11
20.015294
 21
104.835095
 31
0.0
 11
20.316267
 21
105.356396
 31
0.0
 11
20.422796
 21
105.957720
 31
0.0
  0
SPLINE
  5
10a
100
AcDbEntity
  8
0
 62
7
100
AcDbSpline
 70
0
 71
3
 72
28
 73
24
 74
22
 40
0.000000
 40
0.000000
 40
0.000000
 40
0.000000
 40
11.404488
 40
22.736613
 40
34.220698
 40
45.602253
 40
56.837828
 40
67.758997
 40
74.955243
 40
82.284897
 40
89.670962
 40
96.792876
 40
103.859207
 40
110.961892
 40
116.167580
 40
121.341557
 40
126.486644
 40
129.142391
 40
131.787501
 40
134.396071
 40
138.681851
 40
143.064719
 40
147.389053
 40
147.389053
 40
147.389053
 40
147.389053
 10
158.995637
 20
28.621984
 30
0.0
 10
162.789360
 20
28.378433
 30
0.0
 10
170.352734
 20
27.892876
 30
0.0
 10
181.752754
 20
27.437166
 30
0.0
 10
193.153835
 20
27.402805
 30
0.0
 10
204.520501
 20
27.917643
 30
0.0
 10
215.590822
 20
29.748401
 30
0.0
 10
224.807108
 20
33.419902
 30
0.0
 10
231.634015
 20
38.540876
 30
0.0
 10
236.756561
 20
43.772457
 30
0.0
 10
241.282122
 20
49.483993
 30
0.0
 10
245.372970
 20
55.405335
 30
0.0
 10
248.894512
 20
61.580085
 30
0.0
 10
251.486001
 20
67.510522
 30
0.0
 10
253.257220
 20
73.073468
 30
0.0
 10
254.139335
 20
78.196169
 30
0.0
 10
253.995978
 20
82.562778
 30
0.0
 10
253.200111
 20
85.963472
 30
0.0
 10
252.227007
 20
88.425148
 30
0.0
 10
250.553155
 20
91.154291
 30
0.0
 10
247.738506
 20
93.731934
 30
0.0
 10
244.004412
 20
95.941589
 30
0.0
 10
241.408782
 20
97.240603
 30
0.0
 10
240.119691
 20
97.885744
 30
0.0
 11
158.995637
 21
28.621984
 31
0.0
 11
170.379554
 21
27.937316
 31
0.0
 11
181.703563
 21
27.508486
 31
0.0
 11
193.187641
 21
27.495576
 31
0.0
 11
204.550594
 21
28.146024
 31
0.0
 11
215.602878
 21
30.167203
 31
0.0
 11
225.675791
 21
34.387196
 31
0.0
 11
231.475229
 21
38.647770
 31
0.0
 11
236.646475
 21
43.842194
 31
0.0
 11
241.270607
 21
49.601652
 31
0.0
 11
245.296941
 21
55.476198
 31
0.0
 11
248.776980
 21
61.626188
 31
0.0
 11
251.606769
 21
68.140819
 31
0.0
 11
253.144266
 21
73.114278
 31
0.0
 11
253.964909
 21
78.222759
 31
0.0
 11
253.747422
 21
83.363247
 31
0.0
 11
253.136976
 21
85.947884
 31
0.0
 11
252.152681
 21
88.403036
 31
0.0
 11
250.774292
 21
90.617688
 31
0.0
 11
247.682631
 21
93.585776
 31
0.0
 11
243.963965
 21
95.905486
 31
0.0
 11
240.119691
 21
97.885744
 31
0.0
  0
SPLINE
  5
10b
100
AcDbEntity
  8
0
 62
7
100
AcDbSpline
 70
0
 71
3
 72
37
 73
33
 74
31
 40
0.000000
 40
0.000000
 40
0.000000
 40
0.000000
 40
6.311875
 40
12.623405
 40
18.935103
 40
23.294515
 40
27.653693
 40
32.012374
 40
35.062821
 40
38.113668
 40
41.175216
 40
43.674838
 40
46.165177
 40
48.629227
 40
52.002411
 40
55.421383
 40
58.868994
 40
63.859055
 40
68.812290
 40
73.755834
 40
78.456482
 40
83.166050
 40
87.889976
 40
90.277977
 40
92.657213
 40
95.024688
 40
97.061683
 40
99.107236
 40
101.155021
 40
106.772005
 40
112.397100
 40
118.011536
 40
118.011536
 40
118.011536
 40
118.011536
 10
240.119691
 20
97.885744
 30
0.0
 10
238.016074
 20
97.929626
 30
0.0
 10
233.808956
 20
98.017389
 30
0.0
 10
227.497072
 20
97.971086
 30
0.0
 10
221.835970
 20
97.965771
 30
0.0
 10
216.826682
 20
98.062503
 30
0.0
 10
212.468249
 20
98.139084
 30
0.0
 10
208.544906
 20
98.125532
 30
0.0
 10
205.059851
 20
97.994931
 30
0.0
 10
202.015950
 20
97.718761
 30
0.0
 10
199.182151
 20
97.235555
 30
0.0
 10
196.585518
 20
96.542337
 30
0.0
 10
194.258108
 20
95.658054
 30
0.0
 10
191.800401
 20
94.345196
 30
0.0
 10
189.383360
 20
92.397544
 30
0.0
 10
187.031697
 20
89.919551
 30
0.0
 10
184.458181
 20
86.919886
 30
0.0
 10
181.441981
 20
83.628076
 30
0.0
 10
177.990562
 20
80.062310
 30
0.0
 10
174.555704
 20
76.615838
 30
0.0
 10
171.172611
 20
73.232429
 30
0.0
 10
167.926624
 20
69.816264
 30
0.0
 10
165.364291
 20
66.818563
 30
0.0
 10
163.453675
 20
64.295190
 30
0.0
 10
162.152799
 20
62.301021
 30
0.0
 10
161.115798
 20
60.284842
 30
0.0
 10
160.379823
 20
58.259972
 30
0.0
 10
159.873258
 20
56.277589
 30
0.0
 10
159.331785
 20
53.083203
 30
0.0
 10
159.135971
 20
48.642675
 30
0.0
 10
159.342320
 20
43.025750
 30
0.0
 10
159.111125
 20
39.283603
 30
0.0
 10
158.995637
 20
37.414304
 30
0.0
 11
240.119691
 21
97.885744
 31
0.0
 11
233.808640
 21
97.987732
 31
0.0
 11
227.497118
 21
97.977815
 31
0.0
 11
221.185432
 21
97.990355
 31
0.0
 11
216.826597
 21
98.061241
 31
0.0
 11
212.467867
 21
98.123812
 31
0.0
 11
208.109283
 21
98.094963
 31
0.0
 11
205.061478
 21
97.968011
 31
0.0
 11
202.024300
 21
97.679541
 31
0.0
 11
199.008286
 21
97.153480
 31
0.0
 11
196.595379
 21
96.500801
 31
0.0
 11
194.271314
 21
95.606091
 31
0.0
 11
192.104080
 21
94.433641
 31
0.0
 11
189.448030
 21
92.354273
 31
0.0
 11
187.059736
 21
89.907760
 31
0.0
 11
184.781438
 21
87.320218
 31
0.0
 11
181.417155
 21
83.634799
 31
0.0
 11
177.979733
 21
80.068475
 31
0.0
 11
174.497566
 21
76.559466
 31
0.0
 11
171.188892
 21
73.220490
 31
0.0
 11
167.960261
 21
69.791791
 31
0.0
 11
164.906444
 21
66.187671
 31
0.0
 11
163.474608
 21
64.276548
 31
0.0
 11
162.185792
 21
62.276617
 31
0.0
 11
161.114606
 21
60.165339
 31
0.0
 11
160.412786
 21
58.253064
 31
0.0
 11
159.900910
 21
56.272591
 31
0.0
 11
159.553260
 21
54.254532
 31
0.0
 11
159.211796
 21
48.647936
 31
0.0
 11
159.250079
 21
43.022972
 31
0.0
 11
158.995637
 21
37.414304
 31
0.0
  0
SPLINE
  5
10c
100
AcDbEntity
  8
0
 62
7
100
AcDbSpline
 70
0
 71
3
 72
37
 73
33
 74
31
 40
0.000000
 40
0.000000
 40
0.000000
 40
0.000000
 40
5.614437
 40
11.239531
 40
16.856515
 40
18.904300
 40
20.949854
 40
22.986848
 40
25.354323
 40
27.733559
 40
30.121560
 40
34.845487
 40
39.555055
 40
44.255702
 40
49.199246
 40
54.152481
 40
59.142543
 40
62.590153
 40
66.009126
 40
69.382310
 40
71.846360
 40
74.336699
 40
76.836320
 40
79.897869
 40
82.948716
 40
85.999163
 40
90.357843
 40
94.717022
 40
99.076433
 40
105.388132
 40
111.699661
 40
118.011537
 40
118.011537
 40
118.011537
 40
118.011537
 10
131.369049
 20
37.414304
 30
0.0
 10
131.253561
 20
39.283603
 30
0.0
 10
131.022367
 20
43.025750
 30
0.0
 10
131.228715
 20
48.642675
 30
0.0
 10
131.032901
 20
53.083203
 30
0.0
 10
130.491428
 20
56.277589
 30
0.0
 10
129.984863
 20
58.259972
 30
0.0
 10
129.248889
 20
60.284842
 30
0.0
 10
128.211888
 20
62.301021
 30
0.0
 10
126.911013
 20
64.295191
 30
0.0
 10
125.000394
 20
66.818563
 30
0.0
 10
122.438062
 20
69.816264
 30
0.0
 10
119.192075
 20
73.232429
 30
0.0
 10
115.808982
 20
76.615837
 30
0.0
 10
112.374125
 20
80.062309
 30
0.0
 10
108.922707
 20
83.628076
 30
0.0
 10
105.906505
 20
86.919885
 30
0.0
 10
103.332990
 20
89.919552
 30
0.0
 10
100.981327
 20
92.397543
 30
0.0
 10
98.564286
 20
94.345196
 30
0.0
 10
96.106579
 20
95.658054
 30
0.0
 10
93.779168
 20
96.542337
 30
0.0
 10
91.182536
 20
97.235555
 30
0.0
 10
88.348736
 20
97.718761
 30
0.0
 10
85.304835
 20
97.994931
 30
0.0
 10
81.819781
 20
98.125532
 30
0.0
 10
77.896437
 20
98.139084
 30
0.0
 10
73.538005
 20
98.062503
 30
0.0
 10
68.528716
 20
97.965771
 30
0.0
 10
62.867614
 20
97.971086
 30
0.0
 10
56.555730
 20
98.017389
 30
0.0
 10
52.348612
 20
97.929626
 30
0.0
 10
50.244995
 20
97.885744
 30
0.0
 11
131.369049
 21
37.414304
 31
0.0
 11
131.114607
 21
43.022972
 31
0.0
 11
131.152890
 21
48.647936
 31
0.0
 11
130.811426
 21
54.254532
 31
0.0
 11
130.463777
 21
56.272591
 31
0.0
 11
129.951900
 21
58.253064
 31
0.0
 11
129.250081
 21
60.165339
 31
0.0
 11
128.178895
 21
62.276617
 31
0.0
 11
126.890080
 21
64.276548
 31
0.0
 11
125.458242
 21
66.187671
 31
0.0
 11
122.404425
 21
69.791791
 31
0.0
 11
119.175794
 21
73.220490
 31
0.0
 11
115.867121
 21
76.559466
 31
0.0
 11
112.384954
 21
80.068475
 31
0.0
 11
108.947533
 21
83.634799
 31
0.0
 11
105.583249
 21
87.320218
 31
0.0
 11
103.304951
 21
89.907760
 31
0.0
 11
100.916657
 21
92.354273
 31
0.0
 11
98.260607
 21
94.433641
 31
0.0
 11
96.093373
 21
95.606091
 31
0.0
 11
93.769307
 21
96.500801
 31
0.0
 11
91.356400
 21
97.153480
 31
0.0
 11
88.340386
 21
97.679541
 31
0.0
 11
85.303209
 21
97.968011
 31
0.0
 11
82.255404
 21
98.094963
 31
0.0
 11
77.896819
 21
98.123812
 31
0.0
 11
73.538090
 21
98.061241
 31
0.0
 11
69.179255
 21
97.990355
 31
0.0
 11
62.867568
 21
97.977815
 31
0.0
 11
56.556047
 21
97.987732
 31
0.0
 11
50.244995
 21
97.885744
 31
0.0
  0
SPLINE
  5
10d
100
AcDbEntity
  8
0
 62
7
100
AcDbSpline
 70
0
 71
3
 72
28
 73
24
 74
22
 40
0.000000
 40
0.000000
 40
0.000000
 40
0.000000
 40
4.324334
 40
8.707202
 40
12.992982
 40
15.601553
 40
18.246663
 40
20.902410
 40
26.047497
 40
31.221473
 40
36.427161
 40
43.529846
 40
50.596178
 40
57.718092
 40
65.104156
 40
72.433810
 40
79.630057
 40
90.551226
 40
101.786801
 40
113.168355
 40
124.652440
 40
135.984566
 40
147.389053
 40
147.389053
 40
147.389053
 40
147.389053
 10
50.244995
 20
97.885744
 30
0.0
 10
48.955905
 20
97.240603
 30
0.0
 10
46.360274
 20
95.941589
 30
0.0
 10
42.626180
 20
93.731934
 30
0.0
 10
39.811532
 20
91.154291
 30
0.0
 10
38.137679
 20
88.425148
 30
0.0
 10
37.164576
 20
85.963472
 30
0.0
 10
36.368708
 20
82.562778
 30
0.0
 10
36.225351
 20
78.196169
 30
0.0
 10
37.107467
 20
73.073468
 30
0.0
 10
38.878685
 20
67.510522
 30
0.0
 10
41.470175
 20
61.580085
 30
0.0
 10
44.991717
 20
55.405335
 30
0.0
 10
49.082564
 20
49.483993
 30
0.0
 10
53.608126
 20
43.772457
 30
0.0
 10
58.730671
 20
38.540876
 30
0.0
 10
65.557579
 20
33.419902
 30
0.0
 10
74.773864
 20
29.748401
 30
0.0
 10
85.844185
 20
27.917643
 30
0.0
 10
97.210851
 20
27.402805
 30
0.0
 10
108.611933
 20
27.437166
 30
0.0
 10
120.011952
 20
27.892876
 30
0.0
 10
127.575326
 20
28.378433
 30
0.0
 10
131.369049
 20
28.621984
 30
0.0
 11
50.244995
 21
97.885744
 31
0.0
 11
46.400721
 21
95.905486
 31
0.0
 11
42.682055
 21
93.585776
 31
0.0
 11
39.590395
 21
90.617688
 31
0.0
 11
38.212006
 21
88.403036
 31
0.0
 11
37.227711
 21
85.947884
 31
0.0
 11
36.617264
 21
83.363247
 31
0.0
 11
36.399777
 21
78.222759
 31
0.0
 11
37.220420
 21
73.114278
 31
0.0
 11
38.757918
 21
68.140819
 31
0.0
 11
41.587707
 21
61.626188
 31
0.0
 11
45.067746
 21
55.476198
 31
0.0
 11
49.094079
 21
49.601652
 31
0.0
 11
53.718211
 21
43.842194
 31
0.0
 11
58.889458
 21
38.647770
 31
0.0
 11
64.688895
 21
34.387196
 31
0.0
 11
74.761808
 21
30.167203
 31
0.0
 11
85.814092
 21
28.146024
 31
0.0
 11
97.177045
 21
27.495576
 31
0.0
 11
108.661123
 21
27.508486
 31
0.0
 11
119.985132
 21
27.937316
 31
0.0
 11
131.369049
 21
28.621984
 31
0.0
  0
SPLINE
  5
10e
100
AcDbEntity
  8
0
 62
7
100
AcDbSpline
 70
0
 71
3
 72
70
 73
66
 74
64
 40
0.000000
 40
0.000000
 40
0.000000
 40
0.000000
 40
10.054560
 40
20.110613
 40
30.164557
 40
33.798955
 40
37.433477
 40
41.066816
 40
48.926906
 40
56.788919
 40
64.675223
 40
74.397252
 40
84.101534
 40
93.735683
 40
107.399270
 40
121.239401
 40
135.170226
 40
150.187088
 40
165.105889
 40
180.026486
 40
193.533066
 40
207.031464
 40
220.489167
 40
227.948142
 40
235.416234
 40
242.905857
 40
249.093737
 40
255.263493
 40
261.407440
 40
263.407147
 40
265.410736
 40
267.419258
 40
273.035107
 40
278.631520
 40
284.250645
 40
287.240306
 40
290.198102
 40
293.066424
 40
296.552723
 40
300.177032
 40
303.958608
 40
308.228984
 40
312.325200
 40
316.185220
 40
320.761792
 40
325.661368
 40
330.687936
 40
335.044111
 40
339.281567
 40
343.517911
 40
347.648786
 40
351.765081
 40
355.796879
 40
358.831959
 40
361.925105
 40
365.081550
 40
367.709344
 40
370.281338
 40
372.767756
 40
375.308525
 40
377.933435
 40
380.615231
 40
384.663781
 40
388.584149
 40
392.547384
 40
392.547384
 40
392.547384
 40
392.547384
 10
145.182343
 20
0.118625
 30
0.0
 10
148.533595
 20
0.172605
 30
0.0
 10
155.236596
 20
0.280573
 30
0.0
 10
165.291230
 20
0.186225
 30
0.0
 10
173.207255
 20
0.261436
 30
0.0
 10
178.977270
 20
0.489037
 30
0.0
 10
182.607220
 20
0.661967
 30
0.0
 10
187.644274
 20
0.900816
 30
0.0
 10
194.092370
 20
1.120178
 30
0.0
 10
201.954442
 20
1.477152
 30
0.0
 10
210.416815
 20
2.211720
 30
0.0
 10
219.412860
 20
3.702094
 30
0.0
 10
228.767352
 20
6.301893
 30
0.0
 10
238.917889
 20
10.651955
 30
0.0
 10
249.191006
 20
17.740278
 30
0.0
 10
258.955478
 20
27.588471
 30
0.0
 10
267.488863
 20
39.061778
 30
0.0
 10
274.811900
 20
51.755848
 30
0.0
 10
280.779969
 20
65.497547
 30
0.0
 10
285.151848
 20
79.292285
 30
0.0
 10
288.199027
 20
92.947799
 30
0.0
 10
289.970162
 20
106.336973
 30
0.0
 10
290.389676
 20
117.821949
 30
0.0
 10
289.974366
 20
127.278312
 30
0.0
 10
289.305722
 20
134.722635
 30
0.0
 10
288.438942
 20
141.718266
 30
0.0
 10
287.495112
 20
148.267372
 30
0.0
 10
286.319597
 20
154.325118
 30
0.0
 10
285.034779
 20
158.929305
 30
0.0
 10
283.885179
 20
162.110863
 30
0.0
 10
283.166130
 20
163.981367
 30
0.0
 10
282.002673
 20
166.972473
 30
0.0
 10
280.498875
 20
171.114744
 30
0.0
 10
278.262753
 20
176.269892
 30
0.0
 10
275.678852
 20
180.283322
 30
0.0
 10
273.017310
 20
183.089769
 30
0.0
 10
270.681647
 20
184.895786
 30
0.0
 10
267.861327
 20
186.270519
 30
0.0
 10
264.513645
 20
186.752295
 30
0.0
 10
260.882360
 20
186.350680
 30
0.0
 10
257.120419
 20
185.323667
 30
0.0
 10
253.325821
 20
183.881179
 30
0.0
 10
249.780764
 20
181.818486
 30
0.0
 10
246.805677
 20
178.754052
 30
0.0
 10
245.333312
 20
174.418668
 30
0.0
 10
245.234084
 20
169.548692
 30
0.0
 10
246.029547
 20
164.833374
 30
0.0
 10
247.399979
 20
160.492025
 30
0.0
 10
249.230229
 20
156.613014
 30
0.0
 10
251.490228
 20
153.058645
 30
0.0
 10
254.076996
 20
149.796622
 30
0.0
 10
256.567855
 20
146.549331
 30
0.0
 10
258.423681
 20
143.280565
 30
0.0
 10
259.365940
 20
140.003951
 30
0.0
 10
259.691710
 20
136.913154
 30
0.0
 10
259.553425
 20
133.947569
 30
0.0
 10
259.084694
 20
131.194789
 30
0.0
 10
258.278514
 20
128.750006
 30
0.0
 10
256.981889
 20
126.538624
 30
0.0
 10
255.091740
 20
124.784313
 30
0.0
 10
252.889540
 20
123.367029
 30
0.0
 10
250.163423
 20
121.846834
 30
0.0
 10
247.132424
 20
120.026859
 30
0.0
 10
243.501569
 20
118.241181
 30
0.0
 10
240.850842
 20
118.096416
 30
0.0
 10
239.518272
 20
118.023640
 30
0.0
 11
145.182343
 21
0.118625
 31
0.0
 11
155.236197
 21
0.237854
 31
0.0
 11
165.292229
 21
0.217875
 31
0.0
 11
175.345232
 21
0.355403
 31
0.0
 11
178.976988
 21
0.493984
 31
0.0
 11
182.607630
 21
0.661853
 31
0.0
 11
186.237125
 21
0.828965
 31
0.0
 11
194.091253
 21
1.135039
 31
0.0
 11
201.943307
 21
1.530633
 31
0.0
 11
209.796766
 21
2.249647
 31
0.0
 11
219.382332
 21
3.872840
 31
0.0
 11
228.720172
 21
6.514402
 31
0.0
 11
237.555230
 21
10.356091
 31
0.0
 11
248.864130
 21
18.024363
 31
0.0
 11
258.684242
 21
27.777035
 31
0.0
 11
267.054415
 21
38.912928
 31
0.0
 11
274.572972
 21
51.912060
 31
0.0
 11
280.539636
 21
65.585741
 31
0.0
 11
285.073782
 21
79.800723
 31
0.0
 11
288.004334
 21
92.985547
 31
0.0
 11
289.758467
 21
106.369484
 31
0.0
 11
290.230564
 21
119.818904
 31
0.0
 11
289.917859
 21
127.271321
 31
0.0
 11
289.264741
 21
134.710799
 31
0.0
 11
288.358663
 21
142.145412
 31
0.0
 11
287.444733
 21
148.265428
 31
0.0
 11
286.236880
 21
154.315798
 31
0.0
 11
284.553717
 21
160.224694
 31
0.0
 11
283.879312
 21
162.107247
 31
0.0
 11
283.165484
 21
163.979363
 31
0.0
 11
282.442342
 21
165.853190
 31
0.0
 11
280.442914
 21
171.101051
 31
0.0
 11
278.128813
 21
176.196615
 31
0.0
 11
275.023744
 21
180.879895
 31
0.0
 11
272.957626
 21
183.040735
 31
0.0
 11
270.601008
 21
184.828167
 31
0.0
 11
268.006253
 21
186.050671
 31
0.0
 11
264.563518
 21
186.600081
 31
0.0
 11
260.954651
 21
186.265870
 31
0.0
 11
257.295357
 21
185.311988
 31
0.0
 11
253.320274
 21
183.751596
 31
0.0
 11
249.823129
 21
181.618767
 31
0.0
 11
247.200033
 21
178.786962
 31
0.0
 11
245.597874
 21
174.499993
 31
0.0
 11
245.386197
 21
169.604992
 31
0.0
 11
246.187854
 21
164.642761
 31
0.0
 11
247.504749
 21
160.490407
 31
0.0
 11
249.308037
 21
156.655803
 31
0.0
 11
251.569015
 21
153.073264
 31
0.0
 11
254.070998
 21
149.786288
 31
0.0
 11
256.508247
 21
146.469105
 31
0.0
 11
258.420694
 21
142.919747
 31
0.0
 11
259.273890
 21
140.007057
 31
0.0
 11
259.611927
 21
136.932438
 31
0.0
 11
259.475402
 21
133.778947
 31
0.0
 11
259.016767
 21
131.191485
 31
0.0
 11
258.183566
 21
128.758190
 31
0.0
 11
256.897228
 21
126.630371
 31
0.0
 11
255.070516
 21
124.864407
 31
0.0
 11
252.891515
 21
123.400813
 31
0.0
 11
250.568980
 21
122.059970
 31
0.0
 11
247.055406
 21
120.048613
 31
0.0
 11
243.452343
 21
118.503549
 31
0.0
 11
239.518272
 21
118.023640
 31
0.0
  0
SPLINE
  5
10f
100
AcDbEntity
  8
0
 62
7
100
AcDbSpline
 70
0
 71
3
 72
70
 73
66
 74
64
 40
0.000000
 40
0.000000
 40
0.000000
 40
0.000000
 40
3.963235
 40
7.883602
 40
11.932153
 40
14.613949
 40
17.238859
 40
19.779628
 40
22.266045
 40
24.838039
 40
27.465834
 40
30.622279
 40
33.715424
 40
36.750504
 40
40.782302
 40
44.898597
 40
49.029472
 40
53.265816
 40
57.503272
 40
61.859447
 40
66.886015
 40
71.785592
 40
76.362164
 40
80.222184
 40
84.318399
 40
88.588776
 40
92.370353
 40
95.994662
 40
99.480958
 40
102.349284
 40
105.307079
 40
108.296733
 40
113.915863
 40
119.512276
 40
125.128127
 40
127.136646
 40
129.140233
 40
131.139941
 40
137.283888
 40
143.453645
 40
149.641525
 40
157.131148
 40
164.599240
 40
172.058214
 40
185.515917
 40
199.014315
 40
212.520896
 40
227.441490
 40
242.360290
 40
257.377156
 40
271.307977
 40
285.148106
 40
298.811693
 40
308.445841
 40
318.150124
 40
327.872153
 40
335.758457
 40
343.620470
 40
351.480560
 40
355.113899
 40
358.748421
 40
362.382819
 40
372.436763
 40
382.492815
 40
392.547376
 40
392.547376
 40
392.547376
 40
392.547376
 10
50.846415
 20
118.023640
 30
0.0
 10
49.513844
 20
118.096416
 30
0.0
 10
46.863117
 20
118.241181
 30
0.0
 10
43.232262
 20
120.026859
 30
0.0
 10
40.201263
 20
121.846834
 30
0.0
 10
37.475146
 20
123.367029
 30
0.0
 10
35.272946
 20
124.784314
 30
0.0
 10
33.382798
 20
126.538624
 30
0.0
 10
32.086174
 20
128.750007
 30
0.0
 10
31.279993
 20
131.194789
 30
0.0
 10
30.811261
 20
133.947569
 30
0.0
 10
30.672976
 20
136.913154
 30
0.0
 10
30.998746
 20
140.003951
 30
0.0
 10
31.941006
 20
143.280565
 30
0.0
 10
33.796831
 20
146.549331
 30
0.0
 10
36.287691
 20
149.796622
 30
0.0
 10
38.874458
 20
153.058645
 30
0.0
 10
41.134457
 20
156.613014
 30
0.0
 10
42.964707
 20
160.492025
 30
0.0
 10
44.335139
 20
164.833374
 30
0.0
 10
45.130603
 20
169.548692
 30
0.0
 10
45.031376
 20
174.418668
 30
0.0
 10
43.559009
 20
178.754052
 30
0.0
 10
40.583922
 20
181.818487
 30
0.0
 10
37.038865
 20
183.881179
 30
0.0
 10
33.244267
 20
185.323668
 30
0.0
 10
29.482325
 20
186.350679
 30
0.0
 10
25.851040
 20
186.752295
 30
0.0
 10
22.503359
 20
186.270517
 30
0.0
 10
19.683038
 20
184.895788
 30
0.0
 10
17.347376
 20
183.089771
 30
0.0
 10
14.685846
 20
180.283315
 30
0.0
 10
12.101930
 20
176.269897
 30
0.0
 10
9.865817
 20
171.114741
 30
0.0
 10
8.361998
 20
166.972479
 30
0.0
 10
7.198560
 20
163.981366
 30
0.0
 10
6.479515
 20
162.110861
 30
0.0
 10
5.329907
 20
158.929307
 30
0.0
 10
4.045096
 20
154.325117
 30
0.0
 10
2.869571
 20
148.267373
 30
0.0
 10
1.925746
 20
141.718266
 30
0.0
 10
1.058965
 20
134.722636
 30
0.0
 10
0.390329
 20
127.278311
 30
0.0
 10
-0.024977
 20
117.821949
 30
0.0
 10
0.394533
 20
106.336973
 30
0.0
 10
2.165671
 20
92.947799
 30
0.0
 10
5.212852
 20
79.292286
 30
0.0
 10
9.584720
 20
65.497547
 30
0.0
 10
15.552786
 20
51.755844
 30
0.0
 10
22.875836
 20
39.061783
 30
0.0
 10
31.409210
 20
27.588469
 30
0.0
 10
41.173682
 20
17.740277
 30
0.0
 10
51.446797
 20
10.651955
 30
0.0
 10
61.597334
 20
6.301893
 30
0.0
 10
70.951827
 20
3.702094
 30
0.0
 10
79.947872
 20
2.211720
 30
0.0
 10
88.410244
 20
1.477152
 30
0.0
 10
96.272316
 20
1.120178
 30
0.0
 10
102.720413
 20
0.900816
 30
0.0
 10
107.757467
 20
0.661967
 30
0.0
 10
111.387416
 20
0.489037
 30
0.0
 10
117.157431
 20
0.261436
 30
0.0
 10
125.073456
 20
0.186225
 30
0.0
 10
135.128090
 20
0.280573
 30
0.0
 10
141.831091
 20
0.172605
 30
0.0
 10
145.182343
 20
0.118625
 30
0.0
 11
50.846415
 21
118.023640
 31
0.0
 11
46.912343
 21
118.503549
 31
0.0
 11
43.309281
 21
120.048613
 31
0.0
 11
39.795706
 21
122.059970
 31
0.0
 11
37.473172
 21
123.400813
 31
0.0
 11
35.294171
 21
124.864407
 31
0.0
 11
33.467458
 21
126.630371
 31
0.0
 11
32.181121
 21
128.758190
 31
0.0
 11
31.347920
 21
131.191485
 31
0.0
 11
30.889284
 21
133.778947
 31
0.0
 11
30.752759
 21
136.932438
 31
0.0
 11
31.090796
 21
140.007057
 31
0.0
 11
31.943993
 21
142.919747
 31
0.0
 11
33.856440
 21
146.469105
 31
0.0
 11
36.293689
 21
149.786288
 31
0.0
 11
38.795671
 21
153.073264
 31
0.0
 11
41.056649
 21
156.655803
 31
0.0
 11
42.859938
 21
160.490407
 31
0.0
 11
44.176833
 21
164.642761
 31
0.0
 11
44.978490
 21
169.604992
 31
0.0
 11
44.766813
 21
174.499993
 31
0.0
 11
43.164653
 21
178.786962
 31
0.0
 11
40.541557
 21
181.618767
 31
0.0
 11
37.044412
 21
183.751596
 31
0.0
 11
33.069329
 21
185.311988
 31
0.0
 11
29.410034
 21
186.265870
 31
0.0
 11
25.801167
 21
186.600081
 31
0.0
 11
22.358435
 21
186.050671
 31
0.0
 11
19.763675
 21
184.828167
 31
0.0
 11
17.407060
 21
183.040735
 31
0.0
 11
15.340952
 21
180.879895
 31
0.0
 11
12.235874
 21
176.196615
 31
0.0
 11
9.921772
 21
171.101051
 31
0.0
 11
7.922337
 21
165.853190
 31
0.0
 11
7.199205
 21
163.979363
 31
0.0
 11
6.485381
 21
162.107247
 31
0.0
 11
5.810973
 21
160.224694
 31
0.0
 11
4.127810
 21
154.315798
 31
0.0
 11
2.919953
 21
148.265428
 31
0.0
 11
2.006024
 21
142.145412
 31
0.0
 11
1.099948
 21
134.710799
 31
0.0
 11
0.446835
 21
127.271321
 31
0.0
 11
0.134134
 21
119.818904
 31
0.0
 11
0.606230
 21
106.369484
 31
0.0
 11
2.360364
 21
92.985547
 31
0.0
 11
5.290916
 21
79.800723
 31
0.0
 11
9.825054
 21
65.585741
 31
0.0
 11
15.791716
 21
51.912060
 31
0.0
 11
23.310281
 21
38.912928
 31
0.0
 11
31.680447
 21
27.777035
 31
0.0
 11
41.500557
 21
18.024363
 31
0.0
 11
52.809456
 21
10.356091
 31
0.0
 11
61.644514
 21
6.514402
 31
0.0
 11
70.982354
 21
3.872840
 31
0.0
 11
80.567921
 21
2.249647
 31
0.0
 11
88.421379
 21
1.530633
 31
0.0
 11
96.273433
 21
1.135039
 31
0.0
 11
104.127562
 21
0.828965
 31
0.0
 11
107.757056
 21
0.661853
 31
0.0
 11
111.387698
 21
0.493984
 31
0.0
 11
115.019454
 21
0.355403
 31
0.0
 11
125.072457
 21
0.217875
 31
0.0
 11
135.128490
 21
0.237854
 31
0.0
 11
145.182343
 21
0.118625
 31
0.0
  0
SPLINE
  5
110
100
AcDbEntity
  8
0
 62
7
100
AcDbSpline
 70
0
 71
3
 72
31
 73
27
 74
25
 40
0.000000
 40
0.000000
 40
0.000000
 40
0.000000
 40
11.207477
 40
22.419313
 40
33.641167
 40
39.670403
 40
45.696862
 40
51.712903
 40
57.164320
 40
62.625586
 40
68.124813
 40
70.976651
 40
73.807219
 40
76.609064
 40
77.784785
 40
78.966146
 40
80.149530
 40
81.985704
 40
83.818663
 40
85.653998
 40
87.263290
 40
88.870821
 40
90.472887
 40
93.533876
 40
96.611828
 40
99.666198
 40
99.666198
 40
99.666198
 40
99.666198
 10
145.182343
 20
146.293645
 30
0.0
 10
141.440730
 20
146.204403
 30
0.0
 10
133.956048
 20
146.025884
 30
0.0
 10
122.928681
 20
143.707962
 30
0.0
 10
113.915333
 20
140.691316
 30
0.0
 10
106.810573
 20
137.562542
 30
0.0
 10
101.385161
 20
134.944691
 30
0.0
 10
96.154281
 20
132.367136
 30
0.0
 10
91.047669
 20
129.965689
 30
0.0
 10
86.091606
 20
127.649511
 30
0.0
 10
81.945280
 20
125.647271
 30
0.0
 10
78.622388
 20
123.958471
 30
0.0
 10
76.034985
 20
122.810726
 30
0.0
 10
73.851214
 20
122.151418
 30
0.0
 10
72.150504
 20
121.886418
 30
0.0
 10
70.974948
 20
121.776819
 30
0.0
 10
69.576123
 20
121.706974
 30
0.0
 10
67.958668
 20
121.678331
 30
0.0
 10
66.123906
 20
121.671665
 30
0.0
 10
64.364754
 20
121.644956
 30
0.0
 10
62.682276
 20
121.561333
 30
0.0
 10
61.083377
 20
121.397658
 30
0.0
 10
59.022703
 20
121.030360
 30
0.0
 10
56.559278
 20
120.231222
 30
0.0
 10
53.736953
 20
119.037693
 30
0.0
 10
51.807454
 20
118.360790
 30
0.0
 10
50.846415
 20
118.023640
 30
0.0
 11
145.182343
 21
146.293645
 31
0.0
 11
133.991432
 21
145.684501
 31
0.0
 11
122.994298
 21
143.500856
 31
0.0
 11
112.354573
 21
139.933467
 31
0.0
 11
106.824814
 21
137.530667
 31
0.0
 11
101.385664
 21
134.935699
 31
0.0
 11
95.977112
 21
132.301251
 31
0.0
 11
91.049753
 21
129.969070
 31
0.0
 11
86.107939
 21
127.644440
 31
0.0
 11
81.161481
 21
125.241512
 31
0.0
 11
78.604916
 21
123.977807
 31
0.0
 11
76.003759
 21
122.861519
 31
0.0
 11
73.312046
 21
122.083692
 31
0.0
 11
72.150973
 21
121.898678
 31
0.0
 11
70.975061
 21
121.785339
 31
0.0
 11
69.793331
 21
121.722800
 31
0.0
 11
67.957596
 21
121.682623
 31
0.0
 11
66.124695
 21
121.668142
 31
0.0
 11
64.289705
 21
121.632575
 31
0.0
 11
62.682675
 21
121.547284
 31
0.0
 11
61.084118
 21
121.377658
 31
0.0
 11
59.507864
 21
121.091235
 31
0.0
 11
56.581821
 21
120.192387
 31
0.0
 11
53.717901
 21
119.064669
 31
0.0
 11
50.846415
 21
118.023640
 31
0.0
  0
SPLINE
  5
111
100
AcDbEntity
  8
0
 62
7
100
AcDbSpline
 70
0
 71
3
 72
31
 73
27
 74
25
 40
0.000000
 40
0.000000
 40
0.000000
 40
0.000000
 40
3.054370
 40
6.132321
 40
9.193311
 40
10.795375
 40
12.402907
 40
14.012200
 40
15.847535
 40
17.680493
 40
19.516668
 40
20.700051
 40
21.881413
 40
23.057134
 40
25.858978
 40
28.689547
 40
31.541384
 40
37.040612
 40
42.501878
 40
47.953295
 40
53.969335
 40
59.995795
 40
66.025030
 40
77.246884
 40
88.458720
 40
99.666198
 40
99.666198
 40
99.666198
 40
99.666198
 10
239.518272
 20
118.023640
 30
0.0
 10
238.557232
 20
118.360790
 30
0.0
 10
236.627733
 20
119.037693
 30
0.0
 10
233.805408
 20
120.231222
 30
0.0
 10
231.341983
 20
121.030360
 30
0.0
 10
229.281310
 20
121.397658
 30
0.0
 10
227.682411
 20
121.561333
 30
0.0
 10
225.999933
 20
121.644956
 30
0.0
 10
224.240781
 20
121.671667
 30
0.0
 10
222.406019
 20
121.678338
 30
0.0
 10
220.788563
 20
121.706973
 30
0.0
 10
219.389738
 20
121.776819
 30
0.0
 10
218.214182
 20
121.886418
 30
0.0
 10
216.513472
 20
122.151418
 30
0.0
 10
214.329701
 20
122.810726
 30
0.0
 10
211.742298
 20
123.958471
 30
0.0
 10
208.419407
 20
125.647271
 30
0.0
 10
204.273081
 20
127.649511
 30
0.0
 10
199.317017
 20
129.965689
 30
0.0
 10
194.210406
 20
132.367136
 30
0.0
 10
188.979525
 20
134.944691
 30
0.0
 10
183.554114
 20
137.562542
 30
0.0
 10
176.449353
 20
140.691316
 30
0.0
 10
167.436005
 20
143.707962
 30
0.0
 10
156.408639
 20
146.025884
 30
0.0
 10
148.923957
 20
146.204403
 30
0.0
 10
145.182343
 20
146.293645
 30
0.0
 11
239.518272
 21
118.023640
 31
0.0
 11
236.646785
 21
119.064669
 31
0.0
 11
233.782866
 21
120.192387
 31
0.0
 11
230.856822
 21
121.091235
 31
0.0
 11
229.280570
 21
121.377658
 31
0.0
 11
227.682012
 21
121.547284
 31
0.0
 11
226.074982
 21
121.632575
 31
0.0
 11
224.239991
 21
121.668144
 31
0.0
 11
222.407090
 21
121.682628
 31
0.0
 11
220.571355
 21
121.722800
 31
0.0
 11
219.389625
 21
121.785339
 31
0.0
 11
218.213713
 21
121.898678
 31
0.0
 11
217.052640
 21
122.083692
 31
0.0
 11
214.360927
 21
122.861519
 31
0.0
 11
211.759770
 21
123.977807
 31
0.0
 11
209.203205
 21
125.241512
 31
0.0
 11
204.256747
 21
127.644440
 31
0.0
 11
199.314934
 21
129.969070
 31
0.0
 11
194.387574
 21
132.301251
 31
0.0
 11
188.979022
 21
134.935699
 31
0.0
 11
183.539872
 21
137.530667
 31
0.0
 11
178.010113
 21
139.933467
 31
0.0
 11
167.370389
 21
143.500856
 31
0.0
 11
156.373254
 21
145.684501
 31
0.0
 11
145.182343
 21
146.293645
 31
0.0
  0
SPLINE
  5
112
100
AcDbEntity
  8
0
 62
7
100
AcDbSpline
 70
0
 71
3
 72
16
 73
12
 74
10
 40
0.000000
 40
0.000000
 40
0.000000
 40
0.000000
 40
0.884293
 40
1.756176
 40
2.641235
 40
3.526706
 40
4.399611
 40
5.285082
 40
6.170141
 40
7.042023
 40
7.926316
 40
7.926316
 40
7.926316
 40
7.926316
 10
147.714059
 20
139.442969
 30
0.0
 10
147.684688
 20
139.739351
 30
0.0
 10
147.626359
 20
140.327955
 30
0.0
 10
147.160822
 20
141.106546
 30
0.0
 10
146.477700
 20
141.685529
 30
0.0
 10
145.630911
 20
141.992643
 30
0.0
 10
144.732632
 20
141.992643
 30
0.0
 10
143.885843
 20
141.685529
 30
0.0
 10
143.202722
 20
141.106546
 30
0.0
 10
142.737184
 20
140.327955
 30
0.0
 10
142.678855
 20
139.739351
 30
0.0
 10
142.649484
 20
139.442969
 30
0.0
 11
147.714059
 21
139.442969
 31
0.0
 11
147.562254
 21
140.314134
 31
0.0
 11
147.127551
 21
141.069920
 31
0.0
 11
146.450458
 21
141.639899
 31
0.0
 11
145.618224
 21
141.942298
 31
0.0
 11
144.745319
 21
141.942298
 31
0.0
 11
143.913085
 21
141.639899
 31
0.0
 11
143.235993
 21
141.069920
 31
0.0
 11
142.801290
 21
140.314134
 31
0.0
 11
142.649484
 21
139.442969
 31
0.0
  0
LWPOLYLINE
  5
113
100
AcDbEntity
  8
0
 62
7
100
AcDbPolyline
 90
1
 70
1
 10
20.422796
 20
105.957720
 30
0.0
  0
SPLINE
  5
114
100
AcDbEntity
  8
0
 62
7
100
AcDbSpline
 70
0
 71
3
 72
16
 73
12
 74
10
 40
0.000000
 40
0.000000
 40
0.000000
 40
0.000000
 40
0.884293
 40
1.756176
 40
2.641235
 40
3.526706
 40
4.399611
 40
5.285082
 40
6.170141
 40
7.042023
 40
7.926316
 40
7.926316
 40
7.926316
 40
7.926316
 10
142.649484
 20
139.442969
 30
0.0
 10
142.678855
 20
139.146587
 30
0.0
 10
142.737184
 20
138.557983
 30
0.0
 10
143.202722
 20
137.779392
 30
0.0
 10
143.885843
 20
137.200409
 30
0.0
 10
144.732632
 20
136.893295
 30
0.0
 10
145.630911
 20
136.893295
 30
0.0
 10
146.477700
 20
137.200409
 30
0.0
 10
147.160822
 20
137.779392
 30
0.0
 10
147.626359
 20
138.557983
 30
0.0
 10
147.684688
 20
139.146587
 30
0.0
 10
147.714059
 20
139.442969
 30
0.0
 11
142.649484
 21
139.442969
 31
0.0
 11
142.801290
 21
138.571803
 31
0.0
 11
143.235993
 21
137.816017
 31
0.0
 11
143.913085
 21
137.246039
 31
0.0
 11
144.745319
 21
136.943639
 31
0.0
 11
145.618224
 21
136.943639
 31
0.0
 11
146.450458
 21
137.246039
 31
0.0
 11
147.127551
 21
137.816017
 31
0.0
 11
147.562254
 21
138.571803
 31
0.0
 11
147.714059
 21
139.442969
 31
0.0
  0
LWPOLYLINE
  5
115
100
AcDbEntity
  8
0
 62
7
100
AcDbPolyline
 90
1
 70
1
 10
147.714059
 20
139.442969
 30
0.0
  0
SPLINE
  5
116
100
AcDbEntity
  8
0
 62
7
100
AcDbSpline
 70
0
 71
3
 72
25
 73
21
 74
19
 40
0.000000
 40
0.000000
 40
0.000000
 40
0.000000
 40
0.610989
 40
1.213226
 40
1.824215
 40
2.435204
 40
3.037441
 40
3.648430
 40
4.259420
 40
4.861656
 40
5.472646
 40
6.083635
 40
6.685872
 40
7.296861
 40
7.907850
 40
8.510087
 40
9.121076
 40
9.732065
 40
10.334302
 40
10.945291
 40
10.945291
 40
10.945291
 40
10.945291
 10
28.248301
 20
168.097857
 30
0.0
 10
28.227530
 20
168.302576
 30
0.0
 10
28.186286
 20
168.709081
 30
0.0
 10
27.864278
 20
169.246421
 30
0.0
 10
27.392544
 20
169.645955
 30
0.0
 10
26.808252
 20
169.857870
 30
0.0
 10
26.188218
 20
169.857870
 30
0.0
 10
25.604738
 20
169.645955
 30
0.0
 10
25.129760
 20
169.246421
 30
0.0
 10
24.819807
 20
168.709081
 30
0.0
 10
24.712292
 20
168.097857
 30
0.0
 10
24.819807
 20
167.486632
 30
0.0
 10
25.129760
 20
166.949293
 30
0.0
 10
25.604738
 20
166.549758
 30
0.0
 10
26.188218
 20
166.337844
 30
0.0
 10
26.808252
 20
166.337844
 30
0.0
 10
27.392544
 20
166.549758
 30
0.0
 10
27.864278
 20
166.949293
 30
0.0
 10
28.186286
 20
167.486632
 30
0.0
 10
28.227530
 20
167.893138
 30
0.0
 10
28.248301
 20
168.097857
 30
0.0
 11
28.248301
 21
168.097857
 31
0.0
 11
28.142134
 21
168.699551
 31
0.0
 11
27.841286
 21
169.221260
 31
0.0
 11
27.373694
 21
169.614535
 31
0.0
 11
26.799420
 21
169.823142
 31
0.0
 11
26.197183
 21
169.823142
 31
0.0
 11
25.622909
 21
169.614535
 31
0.0
 11
25.155317
 21
169.221260
 31
0.0
 11
24.854469
 21
168.699551
 31
0.0
 11
24.748302
 21
168.097857
 31
0.0
 11
24.854469
 21
167.496162
 31
0.0
 11
25.155317
 21
166.974454
 31
0.0
 11
25.622909
 21
166.581178
 31
0.0
 11
26.197183
 21
166.372572
 31
0.0
 11
26.799420
 21
166.372572
 31
0.0
 11
27.373694
 21
166.581178
 31
0.0
 11
27.841286
 21
166.974454
 31
0.0
 11
28.142134
 21
167.496162
 31
0.0
 11
28.248301
 21
168.097857
 31
0.0
  0
LWPOLYLINE
  5
117
100
AcDbEntity
  8
0
 62
7
100
AcDbPolyline
 90
1
 70
1
 10
28.248301
 20
168.097857
 30
0.0
  0
SPLINE
  5
118
100
AcDbEntity
  8
0
 62
7
100
AcDbSpline
 70
0
 71
3
 72
25
 73
21
 74
19
 40
0.000000
 40
0.000000
 40
0.000000
 40
0.000000
 40
0.611057
 40
1.213359
 40
1.824416
 40
2.435473
 40
3.037775
 40
3.648832
 40
4.259889
 40
4.862191
 40
5.473248
 40
6.084305
 40
6.686606
 40
7.297663
 40
7.908720
 40
8.511022
 40
9.122079
 40
9.733136
 40
10.335438
 40
10.946495
 40
10.946495
 40
10.946495
 40
10.946495
 10
38.925772
 20
43.693734
 30
0.0
 10
38.905032
 20
43.898480
 30
0.0
 10
38.863850
 20
44.305037
 30
0.0
 10
38.541866
 20
44.842477
 30
0.0
 10
38.070110
 20
45.242093
 30
0.0
 10
37.485759
 20
45.454055
 30
0.0
 10
36.865654
 20
45.454055
 30
0.0
 10
36.282115
 20
45.242093
 30
0.0
 10
35.807119
 20
44.842477
 30
0.0
 10
35.497172
 20
44.305037
 30
0.0
 10
35.389818
 20
43.693734
 30
0.0
 10
35.497172
 20
43.082431
 30
0.0
 10
35.807119
 20
42.544991
 30
0.0
 10
36.282115
 20
42.145375
 30
0.0
 10
36.865654
 20
41.933414
 30
0.0
 10
37.485759
 20
41.933414
 30
0.0
 10
38.070110
 20
42.145375
 30
0.0
 10
38.541866
 20
42.544991
 30
0.0
 10
38.863850
 20
43.082431
 30
0.0
 10
38.905032
 20
43.488988
 30
0.0
 10
38.925772
 20
43.693734
 30
0.0
 11
38.925772
 21
43.693734
 31
0.0
 11
38.819687
 21
44.295512
 31
0.0
 11
38.518867
 21
44.817312
 31
0.0
 11
38.051254
 21
45.210667
 31
0.0
 11
37.476924
 21
45.419319
 31
0.0
 11
36.874622
 21
45.419319
 31
0.0
 11
36.300292
 21
45.210667
 31
0.0
 11
35.832679
 21
44.817312
 31
0.0
 11
35.531859
 21
44.295512
 31
0.0
 11
35.425774
 21
43.693734
 31
0.0
 11
35.531859
 21
43.091956
 31
0.0
 11
35.832679
 21
42.570156
 31
0.0
 11
36.300292
 21
42.176801
 31
0.0
 11
36.874622
 21
41.968149
 31
0.0
 11
37.476924
 21
41.968149
 31
0.0
 11
38.051254
 21
42.176801
 31
0.0
 11
38.518867
 21
42.570156
 31
0.0
 11
38.819687
 21
43.091956
 31
0.0
 11
38.925772
 21
43.693734
 31
0.0
  0
LWPOLYLINE
  5
119
100
AcDbEntity
  8
0
 62
7
100
AcDbPolyline
 90
1
 70
1
 10
38.925772
 20
43.693734
 30
0.0
  0
SPLINE
  5
11a
100
AcDbEntity
  8
0
 62
7
100
AcDbSpline
 70
0
 71
3
 72
25
 73
21
 74
19
 40
0.000000
 40
0.000000
 40
0.000000
 40
0.000000
 40
0.610687
 40
1.212635
 40
1.823322
 40
2.434009
 40
3.035957
 40
3.646644
 40
4.257331
 40
4.859279
 40
5.469966
 40
6.080653
 40
6.682601
 40
7.293288
 40
7.903976
 40
8.505923
 40
9.116610
 40
9.727298
 40
10.329245
 40
10.939932
 40
10.939932
 40
10.939932
 40
10.939932
 10
133.106861
 20
12.867630
 30
0.0
 10
133.085952
 20
13.072230
 30
0.0
 10
133.044434
 20
13.478504
 30
0.0
 10
132.722317
 20
14.015400
 30
0.0
 10
132.250684
 20
14.414568
 30
0.0
 10
131.666654
 20
14.626274
 30
0.0
 10
131.046934
 20
14.626274
 30
0.0
 10
130.463722
 20
14.414568
 30
0.0
 10
129.988823
 20
14.015400
 30
0.0
 10
129.678841
 20
13.478504
 30
0.0
 10
129.570611
 20
12.867630
 30
0.0
 10
129.678841
 20
12.256756
 30
0.0
 10
129.988823
 20
11.719860
 30
0.0
 10
130.463722
 20
11.320691
 30
0.0
 10
131.046934
 20
11.108986
 30
0.0
 10
131.666654
 20
11.108986
 30
0.0
 10
132.250684
 20
11.320691
 30
0.0
 10
132.722317
 20
11.719860
 30
0.0
 10
133.044434
 20
12.256756
 30
0.0
 10
133.085952
 20
12.663029
 30
0.0
 10
133.106861
 20
12.867630
 30
0.0
 11
133.106861
 21
12.867630
 31
0.0
 11
133.000332
 21
13.468954
 31
0.0
 11
132.699358
 21
13.990255
 31
0.0
 11
132.231861
 21
14.383174
 31
0.0
 11
131.657835
 21
14.591579
 31
0.0
 11
131.055887
 21
14.591579
 31
0.0
 11
130.481861
 21
14.383174
 31
0.0
 11
130.014364
 21
13.990255
 31
0.0
 11
129.713390
 21
13.468954
 31
0.0
 11
129.606861
 21
12.867630
 31
0.0
 11
129.713390
 21
12.266306
 31
0.0
 11
130.014364
 21
11.745004
 31
0.0
 11
130.481861
 21
11.352085
 31
0.0
 11
131.055887
 21
11.143680
 31
0.0
 11
131.657835
 21
11.143680
 31
0.0
 11
132.231861
 21
11.352085
 31
0.0
 11
132.699358
 21
11.745004
 31
0.0
 11
133.000332
 21
12.266306
 31
0.0
 11
133.106861
 21
12.867630
 31
0.0
  0
LWPOLYLINE
  5
11b
100
AcDbEntity
  8
0
 62
7
100
AcDbPolyline
 90
1
 70
1
 10
133.106861
 20
12.867630
 30
0.0
  0
SPLINE
  5
11c
100
AcDbEntity
  8
0
 62
7
100
AcDbSpline
 70
0
 71
3
 72
25
 73
21
 74
19
 40
0.000000
 40
0.000000
 40
0.000000
 40
0.000000
 40
0.610687
 40
1.212635
 40
1.823322
 40
2.434009
 40
3.035957
 40
3.646644
 40
4.257331
 40
4.859279
 40
5.469966
 40
6.080653
 40
6.682601
 40
7.293288
 40
7.903976
 40
8.505923
 40
9.116610
 40
9.727298
 40
10.329245
 40
10.939932
 40
10.939932
 40
10.939932
 40
10.939932
 10
209.721603
 20
15.510912
 30
0.0
 10
209.700694
 20
15.715513
 30
0.0
 10
209.659175
 20
16.121786
 30
0.0
 10
209.337059
 20
16.658682
 30
0.0
 10
208.865425
 20
17.057851
 30
0.0
 10
208.281396
 20
17.269556
 30
0.0
 10
207.661675
 20
17.269556
 30
0.0
 10
207.078464
 20
17.057851
 30
0.0
 10
206.603565
 20
16.658682
 30
0.0
 10
206.293583
 20
16.121786
 30
0.0
 10
206.185353
 20
15.510912
 30
0.0
 10
206.293583
 20
14.900038
 30
0.0
 10
206.603565
 20
14.363142
 30
0.0
 10
207.078464
 20
13.963974
 30
0.0
 10
207.661675
 20
13.752268
 30
0.0
 10
208.281396
 20
13.752268
 30
0.0
 10
208.865425
 20
13.963974
 30
0.0
 10
209.337059
 20
14.363142
 30
0.0
 10
209.659175
 20
14.900038
 30
0.0
 10
209.700694
 20
15.306312
 30
0.0
 10
209.721603
 20
15.510912
 30
0.0
 11
209.721603
 21
15.510912
 31
0.0
 11
209.615074
 21
16.112236
 31
0.0
 11
209.314100
 21
16.633538
 31
0.0
 11
208.846603
 21
17.026457
 31
0.0
 11
208.272576
 21
17.234862
 31
0.0
 11
207.670629
 21
17.234862
 31
0.0
 11
207.096602
 21
17.026457
 31
0.0
 11
206.629105
 21
16.633538
 31
0.0
 11
206.328132
 21
16.112236
 31
0.0
 11
206.221602
 21
15.510912
 31
0.0
 11
206.328132
 21
14.909588
 31
0.0
 11
206.629105
 21
14.388287
 31
0.0
 11
207.096602
 21
13.995368
 31
0.0
 11
207.670629
 21
13.786963
 31
0.0
 11
208.272576
 21
13.786963
 31
0.0
 11
208.846603
 21
13.995368
 31
0.0
 11
209.314100
 21
14.388287
 31
0.0
 11
209.615074
 21
14.909588
 31
0.0
 11
209.721603
 21
15.510912
 31
0.0
  0
SPLINE
  5
11d
100
AcDbEntity
  8
0
 62
7
100
AcDbSpline
 70
0
 71
3
 72
16
 73
12
 74
10
 40
0.000000
 40
0.000000
 40
0.000000
 40
0.000000
 40
0.611722
 40
1.214662
 40
1.826384
 40
2.438107
 40
3.041047
 40
3.652769
 40
4.264491
 40
4.867431
 40
5.479153
 40
5.479153
 40
5.479153
 40
5.479153
 10
273.441879
 20
105.957720
 30
0.0
 10
273.421445
 20
106.162726
 30
0.0
 10
273.380869
 20
106.569795
 30
0.0
 10
273.059122
 20
107.108212
 30
0.0
 10
272.587161
 20
107.508636
 30
0.0
 10
272.002170
 20
107.721058
 30
0.0
 10
271.381602
 20
107.721058
 30
0.0
 10
270.796610
 20
107.508636
 30
0.0
 10
270.324650
 20
107.108212
 30
0.0
 10
270.002902
 20
106.569795
 30
0.0
 10
269.962327
 20
106.162726
 30
0.0
 10
269.941892
 20
105.957720
 30
0.0
 11
273.441879
 21
105.957720
 31
0.0
 11
273.336595
 21
106.560314
 31
0.0
 11
273.036053
 21
107.083010
 31
0.0
 11
272.568232
 21
107.477151
 31
0.0
 11
271.993356
 21
107.686248
 31
0.0
 11
271.390416
 21
107.686248
 31
0.0
 11
270.815539
 21
107.477151
 31
0.0
 11
270.347718
 21
107.083010
 31
0.0
 11
270.047177
 21
106.560314
 31
0.0
 11
269.941892
 21
105.957720
 31
0.0
  0
LWPOLYLINE
  5
11e
100
AcDbEntity
  8
0
 62
7
100
AcDbPolyline
 90
1
 70
1
 10
209.721603
 20
15.510912
 30
0.0
  0
LWPOLYLINE
  5
11f
100
AcDbEntity
  8
0
 62
7
100
AcDbPolyline
 90
1
 70
1
 10
273.441879
 20
105.957720
 30
0.0
  0
LWPOLYLINE
  5
120
100
AcDbEntity
  8
0
 62
7
100
AcDbPolyline
 90
2
 70
0
 10
158.995637
 20
37.414304
 30
0.0
 10
158.995637
 20
28.621984
 30
0.0
  0
SPLINE
  5
121
100
AcDbEntity
  8
0
 62
7
100
AcDbSpline
 70
0
 71
3
 72
16
 73
12
 74
10
 40
0.000000
 40
0.000000
 40
0.000000
 40
0.000000
 40
0.611722
 40
1.214662
 40
1.826384
 40
2.438107
 40
3.041047
 40
3.652769
 40
4.264491
 40
4.867431
 40
5.479153
 40
5.479153
 40
5.479153
 40
5.479153
 10
269.941892
 20
105.957720
 30
0.0
 10
269.962327
 20
105.752714
 30
0.0
 10
270.002902
 20
105.345645
 30
0.0
 10
270.324650
 20
104.807228
 30
0.0
 10
270.796610
 20
104.406805
 30
0.0
 10
271.381602
 20
104.194383
 30
0.0
 10
272.002170
 20
104.194383
 30
0.0
 10
272.587161
 20
104.406805
 30
0.0
 10
273.059122
 20
104.807228
 30
0.0
 10
273.380869
 20
105.345645
 30
0.0
 10
273.421445
 20
105.752714
 30
0.0
 10
273.441879
 20
105.957720
 30
0.0
 11
269.941892
 21
105.957720
 31
0.0
 11
270.047177
 21
105.355126
 31
0.0
 11
270.347718
 21
104.832430
 31
0.0
 11
270.815539
 21
104.438289
 31
0.0
 11
271.390416
 21
104.229192
 31
0.0
 11
271.993356
 21
104.229192
 31
0.0
 11
272.568232
 21
104.438289
 31
0.0
 11
273.036053
 21
104.832430
 31
0.0
 11
273.336595
 21
105.355126
 31
0.0
 11
273.441879
 21
105.957720
 31
0.0
  0
SPLINE
  5
122
100
AcDbEntity
  8
0
 62
7
100
AcDbSpline
 70
0
 71
3
 72
16
 73
12
 74
10
 40
0.000000
 40
0.000000
 40
0.000000
 40
0.000000
 40
0.908527
 40
1.804020
 40
2.712547
 40
3.621075
 40
4.516567
 40
5.425094
 40
6.333622
 40
7.229114
 40
8.137642
 40
8.137642
 40
8.137642
 40
8.137642
 10
147.774701
 20
139.432883
 30
0.0
 10
147.744196
 20
139.737339
 30
0.0
 10
147.683623
 20
140.341884
 30
0.0
 10
147.205483
 20
141.141352
 30
0.0
 10
146.504390
 20
141.735882
 30
0.0
 10
145.635535
 20
142.051261
 30
0.0
 10
144.713880
 20
142.051261
 30
0.0
 10
143.845025
 20
141.735882
 30
0.0
 10
143.143931
 20
141.141352
 30
0.0
 10
142.665792
 20
140.341884
 30
0.0
 10
142.605219
 20
139.737339
 30
0.0
 10
142.574713
 20
139.432883
 30
0.0
 11
147.774701
 21
139.432883
 31
0.0
 11
147.617897
 21
140.327777
 31
0.0
 11
147.171245
 21
141.103926
 31
0.0
 11
146.476295
 21
141.689133
 31
0.0
 11
145.622453
 21
141.999579
 31
0.0
 11
144.726961
 21
141.999579
 31
0.0
 11
143.873119
 21
141.689133
 31
0.0
 11
143.178170
 21
141.103926
 31
0.0
 11
142.731518
 21
140.327777
 31
0.0
 11
142.574713
 21
139.432883
 31
0.0
  0
LWPOLYLINE
  5
123
100
AcDbEntity
  8
0
 62
7
100
AcDbPolyline
 90
2
 70
0
 10
131.369049
 20
28.621984
 30
0.0
 10
131.369049
 20
37.414304
 30
0.0
  0
SPLINE
  5
124
100
AcDbEntity
  8
0
 62
7
100
AcDbSpline
 70
0
 71
3
 72
16
 73
12
 74
10
 40
0.000000
 40
0.000000
 40
0.000000
 40
0.000000
 40
0.908527
 40
1.804020
 40
2.712547
 40
3.621075
 40
4.516567
 40
5.425094
 40
6.333622
 40
7.229114
 40
8.137642
 40
8.137642
 40
8.137642
 40
8.137642
 10
142.574713
 20
139.432883
 30
0.0
 10
142.605219
 20
139.128426
 30
0.0
 10
142.665792
 20
138.523882
 30
0.0
 10
143.143931
 20
137.724414
 30
0.0
 10
143.845025
 20
137.129884
 30
0.0
 10
144.713880
 20
136.814505
 30
0.0
 10
145.635535
 20
136.814505
 30
0.0
 10
146.504390
 20
137.129884
 30
0.0
 10
147.205483
 20
137.724414
 30
0.0
 10
147.683623
 20
138.523882
 30
0.0
 10
147.744196
 20
139.128426
 30
0.0
 10
147.774701
 20
139.432883
 30
0.0
 11
142.574713
 21
139.432883
 31
0.0
 11
142.731518
 21
138.537989
 31
0.0
 11
143.178170
 21
137.761840
 31
0.0
 11
143.873119
 21
137.176633
 31
0.0
 11
144.726961
 21
136.866187
 31
0.0
 11
145.622453
 21
136.866187
 31
0.0
 11
146.476295
 21
137.176633
 31
0.0
 11
147.171245
 21
137.761840
 31
0.0
 11
147.617897
 21
138.537989
 31
0.0
 11
147.774701
 21
139.432883
 31
0.0
  0
SPLINE
  5
125
100
AcDbEntity
  8
0
 62
7
100
AcDbSpline
 70
0
 71
3
 72
16
 73
12
 74
10
 40
0.000000
 40
0.000000
 40
0.000000
 40
0.000000
 40
0.908527
 40
1.804020
 40
2.712547
 40
3.621075
 40
4.516567
 40
5.425094
 40
6.333622
 40
7.229114
 40
8.137642
 40
8.137642
 40
8.137642
 40
8.137642
 10
147.775072
 20
69.578089
 30
0.0
 10
147.744566
 20
69.882545
 30
0.0
 10
147.683993
 20
70.487090
 30
0.0
 10
147.205854
 20
71.286558
 30
0.0
 10
146.504760
 20
71.881088
 30
0.0
 10
145.635906
 20
72.196466
 30
0.0
 10
144.714250
 20
72.196466
 30
0.0
 10
143.845395
 20
71.881088
 30
0.0
 10
143.144302
 20
71.286558
 30
0.0
 10
142.666162
 20
70.487090
 30
0.0
 10
142.605589
 20
69.882545
 30
0.0
 10
142.575084
 20
69.578089
 30
0.0
 11
147.775072
 21
69.578089
 31
0.0
 11
147.618267
 21
70.472982
 31
0.0
 11
147.171615
 21
71.249132
 31
0.0
 11
146.476666
 21
71.834339
 31
0.0
 11
145.622824
 21
72.144785
 31
0.0
 11
144.727332
 21
72.144785
 31
0.0
 11
143.873490
 21
71.834339
 31
0.0
 11
143.178540
 21
71.249132
 31
0.0
 11
142.731888
 21
70.472982
 31
0.0
 11
142.575084
 21
69.578089
 31
0.0
  0
LWPOLYLINE
  5
126
100
AcDbEntity
  8
0
 62
7
100
AcDbPolyline
 90
1
 70
1
 10
147.774701
 20
139.432883
 30
0.0
  0
SPLINE
  5
127
100
AcDbEntity
  8
0
 62
7
100
AcDbSpline
 70
0
 71
3
 72
16
 73
12
 74
10
 40
0.000000
 40
0.000000
 40
0.000000
 40
0.000000
 40
0.908527
 40
1.804020
 40
2.712547
 40
3.621075
 40
4.516567
 40
5.425094
 40
6.333622
 40
7.229114
 40
8.137642
 40
8.137642
 40
8.137642
 40
8.137642
 10
142.575084
 20
69.578089
 30
0.0
 10
142.605589
 20
69.273632
 30
0.0
 10
142.666162
 20
68.669088
 30
0.0
 10
143.144302
 20
67.869620
 30
0.0
 10
143.845395
 20
67.275090
 30
0.0
 10
144.714250
 20
66.959711
 30
0.0
 10
145.635906
 20
66.959711
 30
0.0
 10
146.504760
 20
67.275090
 30
0.0
 10
147.205854
 20
67.869620
 30
0.0
 10
147.683993
 20
68.669088
 30
0.0
 10
147.744566
 20
69.273632
 30
0.0
 10
147.775072
 20
69.578089
 30
0.0
 11
142.575084
 21
69.578089
 31
0.0
 11
142.731888
 21
68.683195
 31
0.0
 11
143.178540
 21
67.907045
 31
0.0
 11
143.873490
 21
67.321839
 31
0.0
 11
144.727332
 21
67.011393
 31
0.0
 11
145.622824
 21
67.011393
 31
0.0
 11
146.476666
 21
67.321839
 31
0.0
 11
147.171615
 21
67.907045
 31
0.0
 11
147.618267
 21
68.683195
 31
0.0
 11
147.775072
 21
69.578089
 31
0.0
  0
LWPOLYLINE
  5
128
100
AcDbEntity
  8
0
 62
7
100
AcDbPolyline
 90
1
 70
1
 10
147.775072
 20
69.578089
 30
0.0
  0
SPLINE
  5
129
100
AcDbEntity
  8
0
 62
7
100
AcDbSpline
 70
0
 71
3
 72
25
 73
21
 74
19
 40
0.000000
 40
0.000000
 40
0.000000
 40
0.000000
 40
0.907309
 40
1.801633
 40
2.708943
 40
3.616252
 40
4.510576
 40
5.417885
 40
6.325195
 40
7.219519
 40
8.126828
 40
9.034137
 40
9.928462
 40
10.835771
 40
11.743080
 40
12.637404
 40
13.544714
 40
14.452023
 40
15.346347
 40
16.253656
 40
16.253656
 40
16.253656
 40
16.253656
 10
117.472080
 20
87.123582
 30
0.0
 10
117.441016
 20
87.427561
 30
0.0
 10
117.379331
 20
88.031168
 30
0.0
 10
116.900756
 20
88.828845
 30
0.0
 10
116.200042
 20
89.421896
 30
0.0
 10
115.332339
 20
89.736431
 30
0.0
 10
114.411608
 20
89.736431
 30
0.0
 10
113.545121
 20
89.421896
 30
0.0
 10
112.839554
 20
88.828845
 30
0.0
 10
112.379009
 20
88.031168
 30
0.0
 10
112.218209
 20
87.123582
 30
0.0
 10
112.379009
 20
86.215996
 30
0.0
 10
112.839554
 20
85.418319
 30
0.0
 10
113.545121
 20
84.825268
 30
0.0
 10
114.411608
 20
84.510733
 30
0.0
 10
115.332339
 20
84.510733
 30
0.0
 10
116.200042
 20
84.825268
 30
0.0
 10
116.900756
 20
85.418319
 30
0.0
 10
117.379331
 20
86.215996
 30
0.0
 10
117.441016
 20
86.819603
 30
0.0
 10
117.472080
 20
87.123582
 30
0.0
 11
117.472080
 21
87.123582
 31
0.0
 11
117.313808
 21
88.016980
 31
0.0
 11
116.866646
 21
88.791487
 31
0.0
 11
116.172077
 21
89.375254
 31
0.0
 11
115.319235
 21
89.684885
 31
0.0
 11
114.424911
 21
89.684885
 31
0.0
 11
113.572069
 21
89.375254
 31
0.0
 11
112.877500
 21
88.791487
 31
0.0
 11
112.430338
 21
88.016980
 31
0.0
 11
112.272066
 21
87.123582
 31
0.0
 11
112.430338
 21
86.230184
 31
0.0
 11
112.877500
 21
85.455677
 31
0.0
 11
113.572069
 21
84.871910
 31
0.0
 11
114.424911
 21
84.562279
 31
0.0
 11
115.319235
 21
84.562279
 31
0.0
 11
116.172077
 21
84.871910
 31
0.0
 11
116.866646
 21
85.455677
 31
0.0
 11
117.313808
 21
86.230184
 31
0.0
 11
117.472080
 21
87.123582
 31
0.0
  0
SPLINE
  5
12a
100
AcDbEntity
  8
0
 62
7
100
AcDbSpline
 70
0
 71
3
 72
16
 73
12
 74
10
 40
0.000000
 40
0.000000
 40
0.000000
 40
0.000000
 40
0.908527
 40
1.804020
 40
2.712547
 40
3.621075
 40
4.516567
 40
5.425094
 40
6.333622
 40
7.229114
 40
8.137642
 40
8.137642
 40
8.137642
 40
8.137642
 10
178.094070
 20
87.118087
 30
0.0
 10
178.063565
 20
87.422543
 30
0.0
 10
178.002992
 20
88.027088
 30
0.0
 10
177.524852
 20
88.826555
 30
0.0
 10
176.823759
 20
89.421086
 30
0.0
 10
175.954904
 20
89.736464
 30
0.0
 10
175.033249
 20
89.736464
 30
0.0
 10
174.164394
 20
89.421086
 30
0.0
 10
173.463301
 20
88.826555
 30
0.0
 10
172.985161
 20
88.027088
 30
0.0
 10
172.924588
 20
87.422543
 30
0.0
 10
172.894082
 20
87.118087
 30
0.0
 11
178.094070
 21
87.118087
 31
0.0
 11
177.937266
 21
88.012980
 31
0.0
 11
177.490614
 21
88.789130
 31
0.0
 11
176.795664
 21
89.374337
 31
0.0
 11
175.941823
 21
89.684782
 31
0.0
 11
175.046330
 21
89.684782
 31
0.0
 11
174.192489
 21
89.374337
 31
0.0
 11
173.497539
 21
88.789130
 31
0.0
 11
173.050887
 21
88.012980
 31
0.0
 11
172.894082
 21
87.118087
 31
0.0
  0
LWPOLYLINE
  5
12b
100
AcDbEntity
  8
0
 62
7
100
AcDbPolyline
 90
1
 70
1
 10
117.472080
 20
87.123582
 30
0.0
  0
SPLINE
  5
12c
100
AcDbEntity
  8
0
 62
7
100
AcDbSpline
 70
0
 71
3
 72
16
 73
12
 74
10
 40
0.000000
 40
0.000000
 40
0.000000
 40
0.000000
 40
0.908527
 40
1.804020
 40
2.712547
 40
3.621075
 40
4.516567
 40
5.425094
 40
6.333622
 40
7.229114
 40
8.137642
 40
8.137642
 40
8.137642
 40
8.137642
 10
172.894082
 20
87.118087
 30
0.0
 10
172.924588
 20
86.813630
 30
0.0
 10
172.985161
 20
86.209085
 30
0.0
 10
173.463301
 20
85.409618
 30
0.0
 10
174.164394
 20
84.815088
 30
0.0
 10
175.033249
 20
84.499709
 30
0.0
 10
175.954904
 20
84.499709
 30
0.0
 10
176.823759
 20
84.815088
 30
0.0
 10
177.524852
 20
85.409618
 30
0.0
 10
178.002992
 20
86.209085
 30
0.0
 10
178.063565
 20
86.813630
 30
0.0
 10
178.094070
 20
87.118087
 30
0.0
 11
172.894082
 21
87.118087
 31
0.0
 11
173.050887
 21
86.223193
 31
0.0
 11
173.497539
 21
85.447043
 31
0.0
 11
174.192489
 21
84.861836
 31
0.0
 11
175.046330
 21
84.551391
 31
0.0
 11
175.941823
 21
84.551391
 31
0.0
 11
176.795664
 21
84.861836
 31
0.0
 11
177.490614
 21
85.447043
 31
0.0
 11
177.937266
 21
86.223193
 31
0.0
 11
178.094070
 21
87.118087
 31
0.0
  0
LWPOLYLINE
  5
12d
100
AcDbEntity
  8
0
 62
7
100
AcDbPolyline
 90
1
 70
1
 10
178.094070
 20
87.118087
 30
0.0
  0
SPLINE
  5
12e
100
AcDbEntity
  8
0
 62
7
100
AcDbSpline
 70
0
 71
3
 72
25
 73
21
 74
19
 40
0.000000
 40
0.000000
 40
0.000000
 40
0.000000
 40
0.907309
 40
1.801634
 40
2.708943
 40
3.616252
 40
4.510577
 40
5.417886
 40
6.325195
 40
7.219519
 40
8.126829
 40
9.034138
 40
9.928462
 40
10.835772
 40
11.743081
 40
12.637405
 40
13.544715
 40
14.452024
 40
15.346348
 40
16.253658
 40
16.253658
 40
16.253658
 40
16.253658
 10
178.094097
 20
122.083578
 30
0.0
 10
178.063032
 20
122.387557
 30
0.0
 10
178.001347
 20
122.991165
 30
0.0
 10
177.522773
 20
123.788841
 30
0.0
 10
176.822058
 20
124.381893
 30
0.0
 10
175.954355
 20
124.696428
 30
0.0
 10
175.033625
 20
124.696428
 30
0.0
 10
174.167137
 20
124.381893
 30
0.0
 10
173.461570
 20
123.788841
 30
0.0
 10
173.001025
 20
122.991165
 30
0.0
 10
172.840226
 20
122.083578
 30
0.0
 10
173.001025
 20
121.175992
 30
0.0
 10
173.461570
 20
120.378315
 30
0.0
 10
174.167137
 20
119.785264
 30
0.0
 10
175.033625
 20
119.470729
 30
0.0
 10
175.954355
 20
119.470729
 30
0.0
 10
176.822058
 20
119.785264
 30
0.0
 10
177.522773
 20
120.378315
 30
0.0
 10
178.001347
 20
121.175992
 30
0.0
 10
178.063032
 20
121.779599
 30
0.0
 10
178.094097
 20
122.083578
 30
0.0
 11
178.094097
 21
122.083578
 31
0.0
 11
177.935825
 21
122.976976
 31
0.0
 11
177.488663
 21
123.751484
 31
0.0
 11
176.794093
 21
124.335251
 31
0.0
 11
175.941252
 21
124.644882
 31
0.0
 11
175.046927
 21
124.644882
 31
0.0
 11
174.194086
 21
124.335251
 31
0.0
 11
173.499517
 21
123.751484
 31
0.0
 11
173.052355
 21
122.976976
 31
0.0
 11
172.894082
 21
122.083578
 31
0.0
 11
173.052355
 21
121.190180
 31
0.0
 11
173.499517
 21
120.415673
 31
0.0
 11
174.194086
 21
119.831906
 31
0.0
 11
175.046927
 21
119.522275
 31
0.0
 11
175.941252
 21
119.522275
 31
0.0
 11
176.794093
 21
119.831906
 31
0.0
 11
177.488663
 21
120.415673
 31
0.0
 11
177.935825
 21
121.190180
 31
0.0
 11
178.094097
 21
122.083578
 31
0.0
  0
SPLINE
  5
12f
100
AcDbEntity
  8
0
 62
7
100
AcDbSpline
 70
0
 71
3
 72
16
 73
12
 74
10
 40
0.000000
 40
0.000000
 40
0.000000
 40
0.000000
 40
0.908527
 40
1.804020
 40
2.712547
 40
3.621075
 40
4.516567
 40
5.425094
 40
6.333622
 40
7.229114
 40
8.137642
 40
8.137642
 40
8.137642
 40
8.137642
 10
117.472319
 20
122.078086
 30
0.0
 10
117.441813
 20
122.382542
 30
0.0
 10
117.381240
 20
122.987087
 30
0.0
 10
116.903100
 20
123.786554
 30
0.0
 10
116.202007
 20
124.381085
 30
0.0
 10
115.333152
 20
124.696463
 30
0.0
 10
114.411497
 20
124.696463
 30
0.0
 10
113.542642
 20
124.381085
 30
0.0
 10
112.841549
 20
123.786554
 30
0.0
 10
112.363409
 20
122.987087
 30
0.0
 10
112.302836
 20
122.382542
 30
0.0
 10
112.272330
 20
122.078086
 30
0.0
 11
117.472319
 21
122.078086
 31
0.0
 11
117.315514
 21
122.972979
 31
0.0
 11
116.868862
 21
123.749129
 31
0.0
 11
116.173912
 21
124.334336
 31
0.0
 11
115.320071
 21
124.644781
 31
0.0
 11
114.424578
 21
124.644781
 31
0.0
 11
113.570737
 21
124.334336
 31
0.0
 11
112.875787
 21
123.749129
 31
0.0
 11
112.429135
 21
122.972979
 31
0.0
 11
112.272330
 21
122.078086
 31
0.0
  0
LWPOLYLINE
  5
130
100
AcDbEntity
  8
0
 62
7
100
AcDbPolyline
 90
1
 70
1
 10
178.094097
 20
122.083578
 30
0.0
  0
SPLINE
  5
131
100
AcDbEntity
  8
0
 62
7
100
AcDbSpline
 70
0
 71
3
 72
16
 73
12
 74
10
 40
0.000000
 40
0.000000
 40
0.000000
 40
0.000000
 40
0.908527
 40
1.804020
 40
2.712547
 40
3.621075
 40
4.516567
 40
5.425094
 40
6.333622
 40
7.229114
 40
8.137642
 40
8.137642
 40
8.137642
 40
8.137642
 10
112.272330
 20
122.078086
 30
0.0
 10
112.302836
 20
121.773629
 30
0.0
 10
112.363409
 20
121.169084
 30
0.0
 10
112.841549
 20
120.369617
 30
0.0
 10
113.542642
 20
119.775087
 30
0.0
 10
114.411497
 20
119.459708
 30
0.0
 10
115.333152
 20
119.459708
 30
0.0
 10
116.202007
 20
119.775087
 30
0.0
 10
116.903100
 20
120.369617
 30
0.0
 10
117.381240
 20
121.169084
 30
0.0
 10
117.441813
 20
121.773629
 30
0.0
 10
117.472319
 20
122.078086
 30
0.0
 11
112.272330
 21
122.078086
 31
0.0
 11
112.429135
 21
121.183192
 31
0.0
 11
112.875787
 21
120.407042
 31
0.0
 11
113.570737
 21
119.821835
 31
0.0
 11
114.424578
 21
119.511390
 31
0.0
 11
115.320071
 21
119.511390
 31
0.0
 11
116.173912
 21
119.821835
 31
0.0
 11
116.868862
 21
120.407042
 31
0.0
 11
117.315514
 21
121.183192
 31
0.0
 11
117.472319
 21
122.078086
 31
0.0
  0
SPLINE
  5
132
100
AcDbEntity
  8
0
 62
7
100
AcDbSpline
 70
0
 71
3
 72
16
 73
12
 74
10
 40
0.000000
 40
0.000000
 40
0.000000
 40
0.000000
 40
1.659279
 40
3.295502
 40
4.956712
 40
6.618958
 40
8.257754
 40
9.919999
 40
11.581209
 40
13.217432
 40
14.876711
 40
14.876711
 40
14.876711
 40
14.876711
 10
149.958128
 20
139.471922
 30
0.0
 10
149.902276
 20
140.027972
 30
0.0
 10
149.791348
 20
141.132345
 30
0.0
 10
148.916012
 20
142.592439
 30
0.0
 10
147.632896
 20
143.677965
 30
0.0
 10
146.043108
 20
144.253662
 30
0.0
 10
144.356866
 20
144.253662
 30
0.0
 10
142.767078
 20
143.677965
 30
0.0
 10
141.483962
 20
142.592439
 30
0.0
 10
140.608626
 20
141.132345
 30
0.0
 10
140.497698
 20
140.027972
 30
0.0
 10
140.441846
 20
139.471922
 30
0.0
 11
149.958128
 21
139.471922
 31
0.0
 11
149.671157
 21
141.106197
 31
0.0
 11
148.853755
 21
142.523618
 31
0.0
 11
147.581959
 21
143.592333
 31
0.0
 11
146.019385
 21
144.159274
 31
0.0
 11
144.380589
 21
144.159274
 31
0.0
 11
142.818015
 21
143.592333
 31
0.0
 11
141.546218
 21
142.523618
 31
0.0
 11
140.728817
 21
141.106197
 31
0.0
 11
140.441846
 21
139.471922
 31
0.0
  0
LWPOLYLINE
  5
133
100
AcDbEntity
  8
0
 62
7
100
AcDbPolyline
 90
1
 70
1
 10
117.472319
 20
122.078086
 30
0.0
  0
SPLINE
  5
134
100
AcDbEntity
  8
0
 62
7
100
AcDbSpline
 70
0
 71
3
 72
16
 73
12
 74
10
 40
0.000000
 40
0.000000
 40
0.000000
 40
0.000000
 40
1.659279
 40
3.295502
 40
4.956712
 40
6.618958
 40
8.257754
 40
9.919999
 40
11.581209
 40
13.217432
 40
14.876711
 40
14.876711
 40
14.876711
 40
14.876711
 10
140.441846
 20
139.471922
 30
0.0
 10
140.497698
 20
138.915873
 30
0.0
 10
140.608626
 20
137.811499
 30
0.0
 10
141.483962
 20
136.351405
 30
0.0
 10
142.767078
 20
135.265880
 30
0.0
 10
144.356866
 20
134.690183
 30
0.0
 10
146.043108
 20
134.690183
 30
0.0
 10
147.632896
 20
135.265880
 30
0.0
 10
148.916012
 20
136.351405
 30
0.0
 10
149.791348
 20
137.811499
 30
0.0
 10
149.902276
 20
138.915873
 30
0.0
 10
149.958128
 20
139.471922
 30
0.0
 11
140.441846
 21
139.471922
 31
0.0
 11
140.728817
 21
137.837647
 31
0.0
 11
141.546218
 21
136.420227
 31
0.0
 11
142.818015
 21
135.351512
 31
0.0
 11
144.380589
 21
134.784570
 31
0.0
 11
146.019385
 21
134.784570
 31
0.0
 11
147.581959
 21
135.351512
 31
0.0
 11
148.853755
 21
136.420227
 31
0.0
 11
149.671157
 21
137.837647
 31
0.0
 11
149.958128
 21
139.471922
 31
0.0
  0
SPLINE
  5
135
100
AcDbEntity
  8
0
 62
7
100
AcDbSpline
 70
0
 71
3
 72
16
 73
12
 74
10
 40
0.000000
 40
0.000000
 40
0.000000
 40
0.000000
 40
1.659279
 40
3.295502
 40
4.956712
 40
6.618958
 40
8.257754
 40
9.919999
 40
11.581209
 40
13.217432
 40
14.876711
 40
14.876711
 40
14.876711
 40
14.876711
 10
149.958128
 20
69.596930
 30
0.0
 10
149.902276
 20
70.152980
 30
0.0
 10
149.791348
 20
71.257353
 30
0.0
 10
148.916012
 20
72.717447
 30
0.0
 10
147.632896
 20
73.802972
 30
0.0
 10
146.043108
 20
74.378669
 30
0.0
 10
144.356866
 20
74.378669
 30
0.0
 10
142.767078
 20
73.802972
 30
0.0
 10
141.483962
 20
72.717447
 30
0.0
 10
140.608626
 20
71.257353
 30
0.0
 10
140.497698
 20
70.152980
 30
0.0
 10
140.441846
 20
69.596930
 30
0.0
 11
149.958128
 21
69.596930
 31
0.0
 11
149.671157
 21
71.231205
 31
0.0
 11
148.853755
 21
72.648625
 31
0.0
 11
147.581959
 21
73.717341
 31
0.0
 11
146.019385
 21
74.284282
 31
0.0
 11
144.380589
 21
74.284282
 31
0.0
 11
142.818015
 21
73.717341
 31
0.0
 11
141.546218
 21
72.648625
 31
0.0
 11
140.728817
 21
71.231205
 31
0.0
 11
140.441846
 21
69.596930
 31
0.0
  0
LWPOLYLINE
  5
136
100
AcDbEntity
  8
0
 62
7
100
AcDbPolyline
 90
1
 70
1
 10
149.958128
 20
139.471922
 30
0.0
  0
SPLINE
  5
137
100
AcDbEntity
  8
0
 62
7
100
AcDbSpline
 70
0
 71
3
 72
16
 73
12
 74
10
 40
0.000000
 40
0.000000
 40
0.000000
 40
0.000000
 40
1.659279
 40
3.295502
 40
4.956712
 40
6.618958
 40
8.257754
 40
9.919999
 40
11.581209
 40
13.217432
 40
14.876711
 40
14.876711
 40
14.876711
 40
14.876711
 10
140.441846
 20
69.596930
 30
0.0
 10
140.497698
 20
69.040880
 30
0.0
 10
140.608626
 20
67.936507
 30
0.0
 10
141.483962
 20
66.476413
 30
0.0
 10
142.767078
 20
65.390887
 30
0.0
 10
144.356866
 20
64.815190
 30
0.0
 10
146.043108
 20
64.815190
 30
0.0
 10
147.632896
 20
65.390887
 30
0.0
 10
148.916012
 20
66.476413
 30
0.0
 10
149.791348
 20
67.936507
 30
0.0
 10
149.902276
 20
69.040880
 30
0.0
 10
149.958128
 20
69.596930
 30
0.0
 11
140.441846
 21
69.596930
 31
0.0
 11
140.728817
 21
67.962655
 31
0.0
 11
141.546218
 21
66.545234
 31
0.0
 11
142.818015
 21
65.476519
 31
0.0
 11
144.380589
 21
64.909578
 31
0.0
 11
146.019385
 21
64.909578
 31
0.0
 11
147.581959
 21
65.476519
 31
0.0
 11
148.853755
 21
66.545234
 31
0.0
 11
149.671157
 21
67.962655
 31
0.0
 11
149.958128
 21
69.596930
 31
0.0
  0
SPLINE
  5
138
100
AcDbEntity
  8
0
 62
7
100
AcDbSpline
 70
0
 71
3
 72
16
 73
12
 74
10
 40
0.000000
 40
0.000000
 40
0.000000
 40
0.000000
 40
1.659279
 40
3.295502
 40
4.956712
 40
6.618958
 40
8.257754
 40
9.919999
 40
11.581209
 40
13.217432
 40
14.876711
 40
14.876711
 40
14.876711
 40
14.876711
 10
119.628130
 20
87.092927
 30
0.0
 10
119.572278
 20
87.648977
 30
0.0
 10
119.461351
 20
88.753350
 30
0.0
 10
118.586014
 20
90.213444
 30
0.0
 10
117.302898
 20
91.298970
 30
0.0
 10
115.713111
 20
91.874667
 30
0.0
 10
114.026868
 20
91.874667
 30
0.0
 10
112.437081
 20
91.298970
 30
0.0
 10
111.153965
 20
90.213444
 30
0.0
 10
110.278629
 20
88.753350
 30
0.0
 10
110.167701
 20
87.648977
 30
0.0
 10
110.111849
 20
87.092927
 30
0.0
 11
119.628130
 21
87.092927
 31
0.0
 11
119.341160
 21
88.727202
 31
0.0
 11
118.523758
 21
90.144623
 31
0.0
 11
117.251962
 21
91.213338
 31
0.0
 11
115.689387
 21
91.780279
 31
0.0
 11
114.050592
 21
91.780279
 31
0.0
 11
112.488017
 21
91.213338
 31
0.0
 11
111.216221
 21
90.144623
 31
0.0
 11
110.398819
 21
88.727202
 31
0.0
 11
110.111849
 21
87.092927
 31
0.0
  0
LWPOLYLINE
  5
139
100
AcDbEntity
  8
0
 62
7
100
AcDbPolyline
 90
1
 70
1
 10
149.958128
 20
69.596930
 30
0.0
  0
SPLINE
  5
13a
100
AcDbEntity
  8
0
 62
7
100
AcDbSpline
 70
0
 71
3
 72
16
 73
12
 74
10
 40
0.000000
 40
0.000000
 40
0.000000
 40
0.000000
 40
1.659279
 40
3.295502
 40
4.956712
 40
6.618958
 40
8.257754
 40
9.919999
 40
11.581209
 40
13.217432
 40
14.876711
 40
14.876711
 40
14.876711
 40
14.876711
 10
110.111849
 20
87.092927
 30
0.0
 10
110.167701
 20
86.536878
 30
0.0
 10
110.278629
 20
85.432505
 30
0.0
 10
111.153965
 20
83.972411
 30
0.0
 10
112.437081
 20
82.886885
 30
0.0
 10
114.026868
 20
82.311188
 30
0.0
 10
115.713111
 20
82.311188
 30
0.0
 10
117.302898
 20
82.886885
 30
0.0
 10
118.586014
 20
83.972411
 30
0.0
 10
119.461351
 20
85.432505
 30
0.0
 10
119.572278
 20
86.536878
 30
0.0
 10
119.628130
 20
87.092927
 30
0.0
 11
110.111849
 21
87.092927
 31
0.0
 11
110.398819
 21
85.458652
 31
0.0
 11
111.216221
 21
84.041232
 31
0.0
 11
112.488017
 21
82.972517
 31
0.0
 11
114.050592
 21
82.405575
 31
0.0
 11
115.689387
 21
82.405575
 31
0.0
 11
117.251962
 21
82.972517
 31
0.0
 11
118.523758
 21
84.041232
 31
0.0
 11
119.341160
 21
85.458652
 31
0.0
 11
119.628130
 21
87.092927
 31
0.0
  0
SPLINE
  5
13b
100
AcDbEntity
  8
0
 62
7
100
AcDbSpline
 70
0
 71
3
 72
16
 73
12
 74
10
 40
0.000000
 40
0.000000
 40
0.000000
 40
0.000000
 40
1.659279
 40
3.295502
 40
4.956712
 40
6.618958
 40
8.257754
 40
9.919999
 40
11.581209
 40
13.217432
 40
14.876711
 40
14.876711
 40
14.876711
 40
14.876711
 10
119.628130
 20
122.021925
 30
0.0
 10
119.572278
 20
122.577975
 30
0.0
 10
119.461351
 20
123.682348
 30
0.0
 10
118.586014
 20
125.142442
 30
0.0
 10
117.302898
 20
126.227968
 30
0.0
 10
115.713111
 20
126.803664
 30
0.0
 10
114.026868
 20
126.803664
 30
0.0
 10
112.437081
 20
126.227968
 30
0.0
 10
111.153965
 20
125.142442
 30
0.0
 10
110.278629
 20
123.682348
 30
0.0
 10
110.167701
 20
122.577975
 30
0.0
 10
110.111849
 20
122.021925
 30
0.0
 11
119.628130
 21
122.021925
 31
0.0
 11
119.341160
 21
123.656200
 31
0.0
 11
118.523758
 21
125.073621
 31
0.0
 11
117.251962
 21
126.142336
 31
0.0
 11
115.689387
 21
126.709277
 31
0.0
 11
114.050592
 21
126.709277
 31
0.0
 11
112.488017
 21
126.142336
 31
0.0
 11
111.216221
 21
125.073621
 31
0.0
 11
110.398819
 21
123.656200
 31
0.0
 11
110.111849
 21
122.021925
 31
0.0
  0
LWPOLYLINE
  5
13c
100
AcDbEntity
  8
0
 62
7
100
AcDbPolyline
 90
1
 70
1
 10
119.628130
 20
87.092927
 30
0.0
  0
SPLINE
  5
13d
100
AcDbEntity
  8
0
 62
7
100
AcDbSpline
 70
0
 71
3
 72
16
 73
12
 74
10
 40
0.000000
 40
0.000000
 40
0.000000
 40
0.000000
 40
1.659279
 40
3.295502
 40
4.956712
 40
6.618958
 40
8.257754
 40
9.919999
 40
11.581209
 40
13.217432
 40
14.876711
 40
14.876711
 40
14.876711
 40
14.876711
 10
110.111849
 20
122.021925
 30
0.0
 10
110.167701
 20
121.465875
 30
0.0
 10
110.278629
 20
120.361502
 30
0.0
 10
111.153965
 20
118.901408
 30
0.0
 10
112.437081
 20
117.815883
 30
0.0
 10
114.026868
 20
117.240186
 30
0.0
 10
115.713111
 20
117.240186
 30
0.0
 10
117.302898
 20
117.815883
 30
0.0
 10
118.586014
 20
118.901408
 30
0.0
 10
119.461351
 20
120.361502
 30
0.0
 10
119.572278
 20
121.465875
 30
0.0
 10
119.628130
 20
122.021925
 30
0.0
 11
110.111849
 21
122.021925
 31
0.0
 11
110.398819
 21
120.387650
 31
0.0
 11
111.216221
 21
118.970230
 31
0.0
 11
112.488017
 21
117.901514
 31
0.0
 11
114.050592
 21
117.334573
 31
0.0
 11
115.689387
 21
117.334573
 31
0.0
 11
117.251962
 21
117.901514
 31
0.0
 11
118.523758
 21
118.970230
 31
0.0
 11
119.341160
 21
120.387650
 31
0.0
 11
119.628130
 21
122.021925
 31
0.0
  0
SPLINE
  5
13e
100
AcDbEntity
  8
0
 62
7
100
AcDbSpline
 70
0
 71
3
 72
16
 73
12
 74
10
 40
0.000000
 40
0.000000
 40
0.000000
 40
0.000000
 40
1.659279
 40
3.295502
 40
4.956712
 40
6.618958
 40
8.257754
 40
9.919999
 40
11.581209
 40
13.217432
 40
14.876711
 40
14.876711
 40
14.876711
 40
14.876711
 10
180.255380
 20
87.092927
 30
0.0
 10
180.199528
 20
87.648977
 30
0.0
 10
180.088601
 20
88.753350
 30
0.0
 10
179.213264
 20
90.213444
 30
0.0
 10
177.930148
 20
91.298970
 30
0.0
 10
176.340361
 20
91.874667
 30
0.0
 10
174.654118
 20
91.874667
 30
0.0
 10
173.064331
 20
91.298970
 30
0.0
 10
171.781215
 20
90.213444
 30
0.0
 10
170.905878
 20
88.753350
 30
0.0
 10
170.794951
 20
87.648977
 30
0.0
 10
170.739099
 20
87.092927
 30
0.0
 11
180.255380
 21
87.092927
 31
0.0
 11
179.968410
 21
88.727202
 31
0.0
 11
179.151008
 21
90.144623
 31
0.0
 11
177.879212
 21
91.213338
 31
0.0
 11
176.316637
 21
91.780279
 31
0.0
 11
174.677842
 21
91.780279
 31
0.0
 11
173.115267
 21
91.213338
 31
0.0
 11
171.843471
 21
90.144623
 31
0.0
 11
171.026069
 21
88.727202
 31
0.0
 11
170.739099
 21
87.092927
 31
0.0
  0
LWPOLYLINE
  5
13f
100
AcDbEntity
  8
0
 62
7
100
AcDbPolyline
 90
1
 70
1
 10
119.628130
 20
122.021925
 30
0.0
  0
SPLINE
  5
140
100
AcDbEntity
  8
0
 62
7
100
AcDbSpline
 70
0
 71
3
 72
16
 73
12
 74
10
 40
0.000000
 40
0.000000
 40
0.000000
 40
0.000000
 40
1.659279
 40
3.295502
 40
4.956712
 40
6.618958
 40
8.257754
 40
9.919999
 40
11.581209
 40
13.217432
 40
14.876711
 40
14.876711
 40
14.876711
 40
14.876711
 10
170.739099
 20
87.092927
 30
0.0
 10
170.794951
 20
86.536878
 30
0.0
 10
170.905878
 20
85.432505
 30
0.0
 10
171.781215
 20
83.972411
 30
0.0
 10
173.064331
 20
82.886885
 30
0.0
 10
174.654118
 20
82.311188
 30
0.0
 10
176.340361
 20
82.311188
 30
0.0
 10
177.930148
 20
82.886885
 30
0.0
 10
179.213264
 20
83.972411
 30
0.0
 10
180.088601
 20
85.432505
 30
0.0
 10
180.199528
 20
86.536878
 30
0.0
 10
180.255380
 20
87.092927
 30
0.0
 11
170.739099
 21
87.092927
 31
0.0
 11
171.026069
 21
85.458652
 31
0.0
 11
171.843471
 21
84.041232
 31
0.0
 11
173.115267
 21
82.972517
 31
0.0
 11
174.677842
 21
82.405575
 31
0.0
 11
176.316637
 21
82.405575
 31
0.0
 11
177.879212
 21
82.972517
 31
0.0
 11
179.151008
 21
84.041232
 31
0.0
 11
179.968410
 21
85.458652
 31
0.0
 11
180.255380
 21
87.092927
 31
0.0
  0
SPLINE
  5
141
100
AcDbEntity
  8
0
 62
7
100
AcDbSpline
 70
0
 71
3
 72
16
 73
12
 74
10
 40
0.000000
 40
0.000000
 40
0.000000
 40
0.000000
 40
1.659279
 40
3.295502
 40
4.956712
 40
6.618958
 40
8.257754
 40
9.919999
 40
11.581209
 40
13.217432
 40
14.876711
 40
14.876711
 40
14.876711
 40
14.876711
 10
180.255126
 20
122.021925
 30
0.0
 10
180.199274
 20
122.577975
 30
0.0
 10
180.088347
 20
123.682348
 30
0.0
 10
179.213010
 20
125.142442
 30
0.0
 10
177.929894
 20
126.227968
 30
0.0
 10
176.340107
 20
126.803664
 30
0.0
 10
174.653864
 20
126.803664
 30
0.0
 10
173.064077
 20
126.227968
 30
0.0
 10
171.780961
 20
125.142442
 30
0.0
 10
170.905624
 20
123.682348
 30
0.0
 10
170.794697
 20
122.577975
 30
0.0
 10
170.738845
 20
122.021925
 30
0.0
 11
180.255126
 21
122.021925
 31
0.0
 11
179.968156
 21
123.656200
 31
0.0
 11
179.150754
 21
125.073621
 31
0.0
 11
177.878958
 21
126.142336
 31
0.0
 11
176.316383
 21
126.709277
 31
0.0
 11
174.677588
 21
126.709277
 31
0.0
 11
173.115013
 21
126.142336
 31
0.0
 11
171.843217
 21
125.073621
 31
0.0
 11
171.025815
 21
123.656200
 31
0.0
 11
170.738845
 21
122.021925
 31
0.0
  0
LWPOLYLINE
  5
142
100
AcDbEntity
  8
0
 62
7
100
AcDbPolyline
 90
1
 70
1
 10
180.255380
 20
87.092927
 30
0.0
  0
SPLINE
  5
143
100
AcDbEntity
  8
0
 62
7
100
AcDbSpline
 70
0
 71
3
 72
16
 73
12
 74
10
 40
0.000000
 40
0.000000
 40
0.000000
 40
0.000000
 40
1.659279
 40
3.295502
 40
4.956712
 40
6.618958
 40
8.257754
 40
9.919999
 40
11.581209
 40
13.217432
 40
14.876711
 40
14.876711
 40
14.876711
 40
14.876711
 10
170.738845
 20
122.021925
 30
0.0
 10
170.794697
 20
121.465875
 30
0.0
 10
170.905624
 20
120.361502
 30
0.0
 10
171.780961
 20
118.901408
 30
0.0
 10
173.064077
 20
117.815883
 30
0.0
 10
174.653864
 20
117.240186
 30
0.0
 10
176.340107
 20
117.240186
 30
0.0
 10
177.929894
 20
117.815883
 30
0.0
 10
179.213010
 20
118.901408
 30
0.0
 10
180.088347
 20
120.361502
 30
0.0
 10
180.199274
 20
121.465875
 30
0.0
 10
180.255126
 20
122.021925
 30
0.0
 11
170.738845
 21
122.021925
 31
0.0
 11
171.025815
 21
120.387650
 31
0.0
 11
171.843217
 21
118.970230
 31
0.0
 11
173.115013
 21
117.901514
 31
0.0
 11
174.677588
 21
117.334573
 31
0.0
 11
176.316383
 21
117.334573
 31
0.0
 11
177.878958
 21
117.901514
 31
0.0
 11
179.150754
 21
118.970230
 31
0.0
 11
179.968156
 21
120.387650
 31
0.0
 11
180.255126
 21
122.021925
 31
0.0
  0
LWPOLYLINE
  5
144
100
AcDbEntity
  8
0
 62
7
100
AcDbPolyline
 90
1
 70
1
 10
180.255126
 20
122.021925
 30
0.0
  0
ENDSEC
  0
SECTION
  2
OBJECTS
  0
DICTIONARY
  5
C
330
0
100
AcDbDictionary
  3
ACAD_GROUP
350
D
  3
ACAD_MLINESTYLE
350
17
  0
DICTIONARY
  5
D
330
C
100
AcDbDictionary
  0
DICTIONARY
  5
1A
330
C
100
AcDbDictionary
  0
DICTIONARY
  5
17
330
C
100
AcDbDictionary
  3
STANDARD
350
18
  0
DICTIONARY
  5
19
330
C
100
AcDbDictionary
  0
ENDSEC
  0
EOF
