  0
SECTION
  2
HEADER
  9
$ACADVER
  1
AC1014
  9
$HANDSEED
  5
FFFF
  9
$MEASUREMENT
 70
     1
  0
ENDSEC
  0
SECTION
  2
TABLES
  0
TABLE
  2
VPORT
  5
8
330
0
100
AcDbSymbolTable
 70
     4
  0
VPORT
  5
2E
330
8
100
AcDbSymbolTableRecord
100
AcDbViewportTableRecord
  2
*ACTIVE
 70
     0
 10
0.0
 20
0.0
 11
1.0
 21
1.0
 12
210.0
 22
148.5
 13
0.0
 23
0.0
 14
10.0
 24
10.0
 15
10.0
 25
10.0
 16
0.0
 26
0.0
 36
1.0
 17
0.0
 27
0.0
 37
0.0
 40
341.0
 41
1.24
 42
50.0
 43
0.0
 44
0.0
 50
0.0
 51
0.0
 71
     0
 72
   100
 73
     1
 74
     3
 75
     0
 76
     0
 77
     0
 78
     0
  0
ENDTAB
  0
TABLE
  2
LTYPE
  5
5
330
0
100
AcDbSymbolTable
 70
     1
  0
LTYPE
  5
14
330
5
100
AcDbSymbolTableRecord
100
AcDbLinetypeTableRecord
  2
BYBLOCK
 70
     0
  3

 72
    65
 73
     0
 40
0.0
  0
LTYPE
  5
15
330
5
100
AcDbSymbolTableRecord
100
AcDbLinetypeTableRecord
  2
BYLAYER
 70
     0
  3

 72
    65
 73
     0
 40
0.0
  0
LTYPE
  5
16
330
5
100
AcDbSymbolTableRecord
100
AcDbLinetypeTableRecord
  2
CONTINUOUS
 70
     0
  3
Solid line
 72
    65
 73
     0
 40
0.0
  0
ENDTAB
  0
TABLE
  2
LAYER
  5
2
100
AcDbSymbolTable
 70
2
  0
LAYER
  5
50
100
AcDbSymbolTableRecord
100
AcDbLayerTableRecord
  2
0
 70
0
  6
CONTINUOUS
  0
LAYER
  5
51
100
AcDbSymbolTableRecord
100
AcDbLayerTableRecord
  2
Calque_1
 70
0
  6
CONTINUOUS
  0
ENDTAB
  0
TABLE
  2
STYLE
  5
3
330
0
100
AcDbSymbolTable
 70
     1
  0
STYLE
  5
11
330
3
100
AcDbSymbolTableRecord
100
AcDbTextStyleTableRecord
  2
STANDARD
 70
     0
 40
0.0
 41
1.0
 50
0.0
 71
     0
 42
2.5
  3
txt
  4

  0
ENDTAB
  0
TABLE
  2
VIEW
  5
6
330
0
100
AcDbSymbolTable
 70
     0
  0
ENDTAB
  0
TABLE
  2
UCS
  5
7
330
0
100
AcDbSymbolTable
 70
     0
  0
ENDTAB
  0
TABLE
  2
APPID
  5
9
330
0
100
AcDbSymbolTable
 70
     2
  0
APPID
  5
12
330
9
100
AcDbSymbolTableRecord
100
AcDbRegAppTableRecord
  2
ACAD
 70
     0
  0
ENDTAB
  0
TABLE
  2
DIMSTYLE
  5
A
330
0
100
AcDbSymbolTable
 70
     1
  0
DIMSTYLE
105
27
330
A
100
AcDbSymbolTableRecord
100
AcDbDimStyleTableRecord
  2
ISO-25
 70
     0
  3

  4

  5

  6

  7

 40
1.0
 41
2.5
 42
0.625
 43
3.75
 44
1.25
 45
0.0
 46
0.0
 47
0.0
 48
0.0
140
2.5
141
2.5
142
0.0
143
0.03937007874016
144
1.0
145
0.0
146
1.0
147
0.625
 71
     0
 72
     0
 73
     0
 74
     0
 75
     0
 76
     0
 77
     1
 78
     8
170
     0
171
     3
172
     1
173
     0
174
     0
175
     0
176
     0
177
     0
178
     0
270
     2
271
     2
272
     2
273
     2
274
     3
340
11
275
     0
280
     0
281
     0
282
     0
283
     0
284
     8
285
     0
286
     0
287
     3
288
     0
  0
ENDTAB
  0
TABLE
  2
BLOCK_RECORD
  5
1
330
0
100
AcDbSymbolTable
 70
     1
  0
BLOCK_RECORD
  5
1F
330
1
100
AcDbSymbolTableRecord
100
AcDbBlockTableRecord
  2
*MODEL_SPACE
  0
BLOCK_RECORD
  5
1B
330
1
100
AcDbSymbolTableRecord
100
AcDbBlockTableRecord
  2
*PAPER_SPACE
  0
ENDTAB
  0
ENDSEC
  0
SECTION
  2
BLOCKS
  0
BLOCK
  5
20
330
1F
100
AcDbEntity
  8
0
100
AcDbBlockBegin
  2
*MODEL_SPACE
 70
     0
 10
0.0
 20
0.0
 30
0.0
  3
*MODEL_SPACE
  1

  0
ENDBLK
  5
21
330
1F
100
AcDbEntity
  8
0
100
AcDbBlockEnd
  0
BLOCK
  5
1C
330
1B
100
AcDbEntity
 67
     1
  8
0
100
AcDbBlockBegin
  2
*PAPER_SPACE
  1

  0
ENDBLK
  5
1D
330
1B
100
AcDbEntity
 67
     1
  8
0
100
AcDbBlockEnd
  0
ENDSEC
  0
SECTION
  2
ENTITIES
  0
LWPOLYLINE
  5
100
100
AcDbEntity
  8
Calque_1
 62
5
100
AcDbPolyline
 90
25
 70
1
 10
132.587733
 20
167.740016
 30
0.0
 10
132.657631
 20
168.179092
 30
0.0
 10
132.787440
 20
168.498416
 30
0.0
 10
133.096983
 20
168.907555
 30
0.0
 10
133.506380
 20
169.216903
 30
0.0
 10
133.716071
 20
169.316699
 30
0.0
 10
134.165407
 20
169.416492
 30
0.0
 10
134.504907
 20
169.416492
 30
0.0
 10
134.744555
 20
169.376581
 30
0.0
 10
135.163936
 20
169.216919
 30
0.0
 10
135.523407
 20
168.957464
 30
0.0
 10
135.693156
 20
168.787822
 30
0.0
 10
135.952775
 20
168.338767
 30
0.0
 10
136.052627
 20
168.019443
 30
0.0
 10
136.052627
 20
167.330894
 30
0.0
 10
135.882877
 20
166.851902
 30
0.0
 10
135.693156
 20
166.562512
 30
0.0
 10
135.223848
 20
166.163352
 30
0.0
 10
134.674657
 20
165.953795
 30
0.0
 10
133.995657
 20
165.953795
 30
0.0
 10
133.666144
 20
166.053590
 30
0.0
 10
133.226792
 20
166.323022
 30
0.0
 10
132.877305
 20
166.702221
 30
0.0
 10
132.727526
 20
166.991614
 30
0.0
 10
132.627674
 20
167.320917
 30
0.0
  0
LWPOLYLINE
  5
101
100
AcDbEntity
  8
Calque_1
 62
5
100
AcDbPolyline
 90
24
 70
1
 10
44.367740
 20
167.740016
 30
0.0
 10
44.437637
 20
168.179092
 30
0.0
 10
44.567447
 20
168.498416
 30
0.0
 10
44.757167
 20
168.787809
 30
0.0
 10
45.286387
 20
169.216903
 30
0.0
 10
45.695782
 20
169.376568
 30
0.0
 10
46.115164
 20
169.426461
 30
0.0
 10
46.724266
 20
169.316691
 30
0.0
 10
47.023825
 20
169.167005
 30
0.0
 10
47.303413
 20
168.957448
 30
0.0
 10
47.573015
 20
168.648100
 30
0.0
 10
47.792693
 20
168.179089
 30
0.0
 10
47.862590
 20
167.779930
 30
0.0
 10
47.822649
 20
167.320896
 30
0.0
 10
47.652900
 20
166.841907
 30
0.0
 10
47.343354
 20
166.422789
 30
0.0
 10
46.933959
 20
166.123420
 30
0.0
 10
46.454664
 20
165.953779
 30
0.0
 10
45.775664
 20
165.953779
 30
0.0
 10
45.446150
 20
166.053572
 30
0.0
 10
45.006799
 20
166.323004
 30
0.0
 10
44.657312
 20
166.702205
 30
0.0
 10
44.507533
 20
166.991595
 30
0.0
 10
44.407680
 20
167.320901
 30
0.0
  0
LWPOLYLINE
  5
102
100
AcDbEntity
  8
Calque_1
 62
5
100
AcDbPolyline
 90
39
 70
1
 10
137.430597
 20
202.945821
 30
0.0
 10
137.500494
 20
203.724182
 30
0.0
 10
137.600347
 20
204.113362
 30
0.0
 10
137.730156
 20
204.482585
 30
0.0
 10
138.099610
 20
205.171131
 30
0.0
 10
138.598876
 20
205.769869
 30
0.0
 10
138.888448
 20
206.039304
 30
0.0
 10
139.537491
 20
206.468398
 30
0.0
 10
140.266418
 20
206.767767
 30
0.0
 10
140.645859
 20
206.867563
 30
0.0
 10
141.025299
 20
206.927434
 30
0.0
 10
141.424711
 20
206.947398
 30
0.0
 10
149.412938
 20
206.947398
 30
0.0
 10
149.802363
 20
206.927434
 30
0.0
 10
150.571231
 20
206.767770
 30
0.0
 10
151.300158
 20
206.468403
 30
0.0
 10
151.949201
 20
206.039307
 30
0.0
 10
152.498391
 20
205.480482
 30
0.0
 10
152.738039
 20
205.171137
 30
0.0
 10
153.107493
 20
204.482587
 30
0.0
 10
153.337155
 20
203.724184
 30
0.0
 10
153.407052
 20
202.945826
 30
0.0
 10
153.327171
 20
202.157486
 30
0.0
 10
153.097510
 20
201.409065
 30
0.0
 10
152.728053
 20
200.720516
 30
0.0
 10
152.228789
 20
200.111799
 30
0.0
 10
151.619685
 20
199.622828
 30
0.0
 10
151.290172
 20
199.413270
 30
0.0
 10
150.561247
 20
199.113901
 30
0.0
 10
149.802363
 20
198.974194
 30
0.0
 10
141.035283
 20
198.974194
 30
0.0
 10
140.645859
 20
199.034069
 30
0.0
 10
140.266418
 20
199.123883
 30
0.0
 10
139.537491
 20
199.423252
 30
0.0
 10
138.888448
 20
199.862328
 30
0.0
 10
138.598876
 20
200.121780
 30
0.0
 10
138.099610
 20
200.730497
 30
0.0
 10
137.730156
 20
201.419047
 30
0.0
 10
137.490508
 20
202.167468
 30
0.0
  0
LWPOLYLINE
  5
103
100
AcDbEntity
  8
Calque_1
 62
5
100
AcDbPolyline
 90
39
 70
1
 10
27.492607
 20
203.105486
 30
0.0
 10
27.562505
 20
203.724182
 30
0.0
 10
27.662357
 20
204.113362
 30
0.0
 10
27.961916
 20
204.831846
 30
0.0
 10
28.161623
 20
205.171131
 30
0.0
 10
28.660886
 20
205.769869
 30
0.0
 10
28.950461
 20
206.039304
 30
0.0
 10
29.599504
 20
206.468398
 30
0.0
 10
30.328428
 20
206.767767
 30
0.0
 10
30.707869
 20
206.867563
 30
0.0
 10
31.087310
 20
206.927434
 30
0.0
 10
31.486721
 20
206.947398
 30
0.0
 10
39.864376
 20
206.927434
 30
0.0
 10
40.253803
 20
206.867563
 30
0.0
 10
41.002698
 20
206.638047
 30
0.0
 10
41.362168
 20
206.468403
 30
0.0
 10
42.011211
 20
206.039309
 30
0.0
 10
42.560402
 20
205.480485
 30
0.0
 10
42.800049
 20
205.171137
 30
0.0
 10
43.169506
 20
204.482590
 30
0.0
 10
43.399167
 20
203.724187
 30
0.0
 10
43.469063
 20
202.945826
 30
0.0
 10
43.389181
 20
202.157489
 30
0.0
 10
43.159520
 20
201.409065
 30
0.0
 10
42.790066
 20
200.720518
 30
0.0
 10
42.290800
 20
200.111801
 30
0.0
 10
41.681698
 20
199.622830
 30
0.0
 10
41.352184
 20
199.413273
 30
0.0
 10
40.623257
 20
199.113904
 30
0.0
 10
39.864376
 20
198.974197
 30
0.0
 10
31.097296
 20
198.974197
 30
0.0
 10
30.707869
 20
199.034069
 30
0.0
 10
30.328428
 20
199.123883
 30
0.0
 10
29.599504
 20
199.423254
 30
0.0
 10
28.950461
 20
199.862328
 30
0.0
 10
28.660886
 20
200.121780
 30
0.0
 10
28.161623
 20
200.730497
 30
0.0
 10
27.792166
 20
201.419047
 30
0.0
 10
27.552521
 20
202.167471
 30
0.0
  0
LWPOLYLINE
  5
104
100
AcDbEntity
  8
Calque_1
 62
5
100
AcDbPolyline
 90
4
 70
1
 10
154.605286
 20
250.765050
 30
0.0
 10
154.605286
 20
250.854872
 30
0.0
 10
154.655213
 20
250.854872
 30
0.0
 10
154.625256
 20
250.765050
 30
0.0
  0
LWPOLYLINE
  5
105
100
AcDbEntity
  8
Calque_1
 62
5
100
AcDbPolyline
 90
23
 70
1
 10
120.515523
 20
270.234015
 30
0.0
 10
120.535496
 20
270.653136
 30
0.0
 10
120.705246
 20
271.132127
 30
0.0
 10
121.014791
 20
271.541266
 30
0.0
 10
121.424186
 20
271.850609
 30
0.0
 10
122.073229
 20
272.050187
 30
0.0
 10
122.422716
 20
272.050187
 30
0.0
 10
123.081745
 20
271.850609
 30
0.0
 10
123.441215
 20
271.591159
 30
0.0
 10
123.610965
 20
271.421509
 30
0.0
 10
123.870581
 20
270.982442
 30
0.0
 10
123.970435
 20
270.653136
 30
0.0
 10
124.000390
 20
270.204086
 30
0.0
 10
123.920508
 20
269.794947
 30
0.0
 10
123.790699
 20
269.475612
 30
0.0
 10
123.600979
 20
269.186230
 30
0.0
 10
123.271465
 20
268.886856
 30
0.0
 10
122.752229
 20
268.627403
 30
0.0
 10
122.083216
 20
268.567521
 30
0.0
 10
121.524039
 20
268.717207
 30
0.0
 10
121.064716
 20
269.026552
 30
0.0
 10
120.795114
 20
269.335895
 30
0.0
 10
120.645335
 20
269.625288
 30
0.0
  0
LWPOLYLINE
  5
106
100
AcDbEntity
  8
Calque_1
 62
5
100
AcDbPolyline
 90
26
 70
1
 10
56.859331
 20
270.234015
 30
0.0
 10
56.879304
 20
270.653136
 30
0.0
 10
57.049054
 20
271.132127
 30
0.0
 10
57.238775
 20
271.421509
 30
0.0
 10
57.767995
 20
271.850609
 30
0.0
 10
58.147436
 20
272.000297
 30
0.0
 10
58.596774
 20
272.060179
 30
0.0
 10
59.205876
 20
271.950415
 30
0.0
 10
59.505435
 20
271.800727
 30
0.0
 10
59.785024
 20
271.591167
 30
0.0
 10
60.054626
 20
271.281824
 30
0.0
 10
60.214389
 20
270.982450
 30
0.0
 10
60.314241
 20
270.653146
 30
0.0
 10
60.344198
 20
270.204094
 30
0.0
 10
60.274300
 20
269.804926
 30
0.0
 10
60.144494
 20
269.485602
 30
0.0
 10
59.834948
 20
269.076463
 30
0.0
 10
59.425553
 20
268.767121
 30
0.0
 10
59.205876
 20
268.667317
 30
0.0
 10
59.016156
 20
268.617414
 30
0.0
 10
58.427024
 20
268.567511
 30
0.0
 10
58.187376
 20
268.607432
 30
0.0
 10
57.708084
 20
268.797031
 30
0.0
 10
57.408525
 20
269.026552
 30
0.0
 10
57.138923
 20
269.335895
 30
0.0
 10
56.989143
 20
269.625288
 30
0.0
  0
LWPOLYLINE
  5
107
100
AcDbEntity
  8
Calque_1
 62
5
100
AcDbPolyline
 90
245
 70
1
 10
49.420294
 20
217.325516
 30
0.0
 10
49.510162
 20
218.722573
 30
0.0
 10
49.679912
 20
219.530872
 30
0.0
 10
49.829692
 20
220.039798
 30
0.0
 10
50.079323
 20
220.598620
 30
0.0
 10
50.368896
 20
221.087588
 30
0.0
 10
50.718380
 20
221.486748
 30
0.0
 10
51.107807
 20
221.816054
 30
0.0
 10
51.497234
 20
222.025614
 30
0.0
 10
51.477261
 20
222.085486
 30
0.0
 10
52.565656
 20
222.624349
 30
0.0
 10
54.542744
 20
224.071302
 30
0.0
 10
56.180329
 20
225.957327
 30
0.0
 10
57.378562
 20
228.202596
 30
0.0
 10
58.097503
 20
230.677380
 30
0.0
 10
58.297210
 20
233.271910
 30
0.0
 10
57.957710
 20
235.846485
 30
0.0
 10
57.108960
 20
238.271377
 30
0.0
 10
55.780918
 20
240.426831
 30
0.0
 10
54.043478
 20
242.213072
 30
0.0
 10
52.326008
 20
243.280820
 30
0.0
 10
51.936583
 20
243.560233
 30
0.0
 10
51.587097
 20
243.919469
 30
0.0
 10
51.287541
 20
244.368529
 30
0.0
 10
51.057877
 20
244.887434
 30
0.0
 10
50.868156
 20
245.566005
 30
0.0
 10
50.768304
 20
246.114847
 30
0.0
 10
50.718377
 20
246.813371
 30
0.0
 10
50.748334
 20
247.691519
 30
0.0
 10
50.868156
 20
248.689425
 30
0.0
 10
51.157732
 20
250.036587
 30
0.0
 10
51.467274
 20
251.054442
 30
0.0
 10
52.176231
 20
252.810740
 30
0.0
 10
52.885185
 20
254.197813
 30
0.0
 10
53.514257
 20
255.245600
 30
0.0
 10
54.053464
 20
256.033945
 30
0.0
 10
54.642596
 20
256.802322
 30
0.0
 10
55.241711
 20
257.520814
 30
0.0
 10
55.870786
 20
258.179423
 30
0.0
 10
57.148901
 20
259.317025
 30
0.0
 10
57.797947
 20
259.776054
 30
0.0
 10
58.546841
 20
260.215135
 30
0.0
 10
59.076062
 20
260.474587
 30
0.0
 10
59.695150
 20
260.704098
 30
0.0
 10
60.284282
 20
260.843802
 30
0.0
 10
60.853443
 20
260.903687
 30
0.0
 10
61.462545
 20
260.853784
 30
0.0
 10
61.871942
 20
260.753980
 30
0.0
 10
62.301308
 20
260.554399
 30
0.0
 10
62.321281
 20
260.544417
 30
0.0
 10
62.301308
 20
260.504496
 30
0.0
 10
64.328323
 20
259.496619
 30
0.0
 10
67.044319
 20
258.917844
 30
0.0
 10
69.800259
 20
259.037588
 30
0.0
 10
72.466330
 20
259.845886
 30
0.0
 10
74.912724
 20
261.302820
 30
0.0
 10
77.009635
 20
263.338523
 30
0.0
 10
78.647220
 20
265.843247
 30
0.0
 10
79.755588
 20
268.697236
 30
0.0
 10
80.264838
 20
271.770753
 30
0.0
 10
80.294792
 20
272.808569
 30
0.0
 10
80.324749
 20
272.808569
 30
0.0
 10
80.364690
 20
273.187768
 30
0.0
 10
80.504483
 20
273.676739
 30
0.0
 10
80.744131
 20
274.145750
 30
0.0
 10
81.073644
 20
274.614762
 30
0.0
 10
81.493028
 20
275.053841
 30
0.0
 10
81.992291
 20
275.472950
 30
0.0
 10
82.581423
 20
275.872108
 30
0.0
 10
83.240452
 20
276.231354
 30
0.0
 10
83.959393
 20
276.560659
 30
0.0
 10
84.748231
 20
276.850052
 30
0.0
 10
85.586994
 20
277.109504
 30
0.0
 10
86.475685
 20
277.319063
 30
0.0
 10
87.404316
 20
277.478731
 30
0.0
 10
88.742345
 20
277.628407
 30
0.0
 10
90.300049
 20
277.698271
 30
0.0
 10
92.247180
 20
277.598466
 30
0.0
 10
93.195781
 20
277.478721
 30
0.0
 10
94.124413
 20
277.319054
 30
0.0
 10
95.003117
 20
277.109494
 30
0.0
 10
96.171396
 20
276.740277
 30
0.0
 10
96.940264
 20
276.420943
 30
0.0
 10
97.639234
 20
276.081658
 30
0.0
 10
98.268306
 20
275.702461
 30
0.0
 10
98.617790
 20
275.462970
 30
0.0
 10
99.117056
 20
275.043851
 30
0.0
 10
99.536437
 20
274.604771
 30
0.0
 10
99.865951
 20
274.135760
 30
0.0
 10
100.105599
 20
273.666749
 30
0.0
 10
100.245391
 20
273.177775
 30
0.0
 10
100.285332
 20
272.808561
 30
0.0
 10
100.355230
 20
272.808561
 30
0.0
 10
100.385187
 20
271.770742
 30
0.0
 10
100.894437
 20
268.697225
 30
0.0
 10
102.002802
 20
265.843237
 30
0.0
 10
103.640390
 20
263.338513
 30
0.0
 10
105.737298
 20
261.302812
 30
0.0
 10
108.173708
 20
259.845875
 30
0.0
 10
110.849766
 20
259.037580
 30
0.0
 10
113.605703
 20
258.917834
 30
0.0
 10
116.321702
 20
259.496608
 30
0.0
 10
118.278817
 20
260.464574
 30
0.0
 10
118.248860
 20
260.554396
 30
0.0
 10
118.678228
 20
260.753977
 30
0.0
 10
119.167507
 20
260.863741
 30
0.0
 10
119.696728
 20
260.903663
 30
0.0
 10
120.265889
 20
260.843781
 30
0.0
 10
120.855020
 20
260.704074
 30
0.0
 10
121.623888
 20
260.404710
 30
0.0
 10
122.103181
 20
260.165210
 30
0.0
 10
122.752224
 20
259.776033
 30
0.0
 10
123.401269
 20
259.317001
 30
0.0
 10
124.200091
 20
258.638431
 30
0.0
 10
125.308456
 20
257.520790
 30
0.0
 10
125.917561
 20
256.802298
 30
0.0
 10
126.716383
 20
255.714589
 30
0.0
 10
127.555146
 20
254.397370
 30
0.0
 10
128.443837
 20
252.661030
 30
0.0
 10
128.943100
 20
251.433617
 30
0.0
 10
129.132823
 20
250.904733
 30
0.0
 10
129.632086
 20
248.978786
 30
0.0
 10
129.741925
 20
248.350116
 30
0.0
 10
129.821807
 20
247.252428
 30
0.0
 10
129.831793
 20
246.803378
 30
0.0
 10
129.781869
 20
246.104845
 30
0.0
 10
129.672030
 20
245.456217
 30
0.0
 10
129.442369
 20
244.747704
 30
0.0
 10
129.262632
 20
244.358526
 30
0.0
 10
128.973060
 20
243.909476
 30
0.0
 10
128.623576
 20
243.550230
 30
0.0
 10
128.244133
 20
243.270817
 30
0.0
 10
128.224160
 20
243.260835
 30
0.0
 10
128.164246
 20
243.360639
 30
0.0
 10
126.366894
 20
242.213058
 30
0.0
 10
124.629454
 20
240.426816
 30
0.0
 10
123.301412
 20
238.271361
 30
0.0
 10
122.452662
 20
235.846469
 30
0.0
 10
122.113165
 20
233.271897
 30
0.0
 10
122.312869
 20
230.677364
 30
0.0
 10
123.031810
 20
228.202580
 30
0.0
 10
124.240030
 20
225.957311
 30
0.0
 10
125.867631
 20
224.071286
 30
0.0
 10
127.844716
 20
222.624333
 30
0.0
 10
128.933114
 20
222.085470
 30
0.0
 10
128.903157
 20
222.015616
 30
0.0
 10
129.282597
 20
221.816038
 30
0.0
 10
129.672025
 20
221.486732
 30
0.0
 10
130.011524
 20
221.087572
 30
0.0
 10
130.311083
 20
220.598604
 30
0.0
 10
130.630613
 20
219.790306
 30
0.0
 10
130.770406
 20
219.281379
 30
0.0
 10
130.950142
 20
217.974134
 30
0.0
 10
130.950142
 20
216.836532
 30
0.0
 10
130.910199
 20
216.167941
 30
0.0
 10
130.670554
 20
214.571305
 30
0.0
 10
130.201245
 20
212.735175
 30
0.0
 10
129.881715
 20
211.817110
 30
0.0
 10
129.112847
 20
210.020896
 30
0.0
 10
128.573643
 20
208.993062
 30
0.0
 10
127.445305
 20
207.246740
 30
0.0
 10
126.456762
 20
206.019327
 30
0.0
 10
125.288483
 20
204.891705
 30
0.0
 10
125.268510
 20
204.901686
 30
0.0
 10
124.569540
 20
204.372799
 30
0.0
 10
124.220056
 20
204.143284
 30
0.0
 10
123.630925
 20
203.853894
 30
0.0
 10
123.061764
 20
203.634357
 30
0.0
 10
122.402735
 20
203.504629
 30
0.0
 10
121.973367
 20
203.484666
 30
0.0
 10
121.474103
 20
203.544538
 30
0.0
 10
121.024765
 20
203.684245
 30
0.0
 10
121.004792
 20
203.694226
 30
0.0
 10
121.044733
 20
203.784040
 30
0.0
 10
118.468529
 20
204.761977
 30
0.0
 10
115.363106
 20
205.260927
 30
0.0
 10
112.217742
 20
205.161131
 30
0.0
 10
109.172229
 20
204.462603
 30
0.0
 10
106.386335
 20
203.185297
 30
0.0
 10
103.989866
 20
201.419018
 30
0.0
 10
102.122617
 20
199.233623
 30
0.0
 10
100.854485
 20
196.738881
 30
0.0
 10
100.275341
 20
194.074497
 30
0.0
 10
100.235400
 20
193.176388
 30
0.0
 10
100.285324
 20
193.166406
 30
0.0
 10
100.235400
 20
192.687414
 30
0.0
 10
100.095604
 20
192.198446
 30
0.0
 10
99.855959
 20
191.719454
 30
0.0
 10
99.526443
 20
191.260422
 30
0.0
 10
99.107061
 20
190.821347
 30
0.0
 10
98.607798
 20
190.402232
 30
0.0
 10
98.018667
 20
190.003072
 30
0.0
 10
97.359637
 20
189.643829
 30
0.0
 10
96.640697
 20
189.314523
 30
0.0
 10
95.851858
 20
189.015154
 30
0.0
 10
95.003109
 20
188.765680
 30
0.0
 10
94.124405
 20
188.556120
 30
0.0
 10
92.816333
 20
188.346562
 30
0.0
 10
91.278597
 20
188.206858
 30
0.0
 10
90.310025
 20
188.186895
 30
0.0
 10
88.932055
 20
188.226808
 30
0.0
 10
87.404308
 20
188.396450
 30
0.0
 10
86.475677
 20
188.556115
 30
0.0
 10
85.586986
 20
188.765672
 30
0.0
 10
84.748223
 20
189.015146
 30
0.0
 10
83.669810
 20
189.444243
 30
0.0
 10
82.970842
 20
189.783528
 30
0.0
 10
82.341767
 20
190.162729
 30
0.0
 10
81.992284
 20
190.402224
 30
0.0
 10
81.493020
 20
190.821339
 30
0.0
 10
81.073636
 20
191.260415
 30
0.0
 10
80.744123
 20
191.719448
 30
0.0
 10
80.504475
 20
192.198438
 30
0.0
 10
80.364682
 20
192.687409
 30
0.0
 10
80.304771
 20
193.176377
 30
0.0
 10
80.364682
 20
193.176377
 30
0.0
 10
80.324741
 20
194.074484
 30
0.0
 10
79.745594
 20
196.738870
 30
0.0
 10
78.477462
 20
199.233613
 30
0.0
 10
76.610213
 20
201.419007
 30
0.0
 10
74.213746
 20
203.185284
 30
0.0
 10
71.427852
 20
204.462592
 30
0.0
 10
68.382340
 20
205.161121
 30
0.0
 10
65.236976
 20
205.260917
 30
0.0
 10
62.131550
 20
204.761967
 30
0.0
 10
59.365626
 20
203.714174
 30
0.0
 10
59.365626
 20
203.684242
 30
0.0
 10
58.916290
 20
203.544538
 30
0.0
 10
58.307186
 20
203.484663
 30
0.0
 10
57.777966
 20
203.534556
 30
0.0
 10
57.328630
 20
203.634341
 30
0.0
 10
56.639643
 20
203.903773
 30
0.0
 10
56.170337
 20
204.143268
 30
0.0
 10
55.461380
 20
204.612281
 30
0.0
 10
54.872249
 20
205.091270
 30
0.0
 10
54.402940
 20
205.530346
 30
0.0
 10
53.154779
 20
206.947358
 30
0.0
 10
52.615575
 20
207.695782
 30
0.0
 10
52.106325
 20
208.484119
 30
0.0
 10
51.357428
 20
209.851239
 30
0.0
 10
50.868148
 20
210.909011
 30
0.0
 10
50.189151
 20
212.725183
 30
0.0
 10
49.709856
 20
214.571292
 30
0.0
 10
49.540106
 20
215.629064
 30
0.0
 10
49.450238
 20
216.497234
 30
0.0
  0
LWPOLYLINE
  5
108
100
AcDbEntity
  8
Calque_1
 62
5
100
AcDbPolyline
 90
186
 70
1
 10
0.132927
 20
287.866862
 30
0.0
 10
0.362589
 20
285.861081
 30
0.0
 10
1.021617
 20
283.965076
 30
0.0
 10
2.090043
 20
282.258679
 30
0.0
 10
3.517939
 20
280.831685
 30
0.0
 10
5.215437
 20
279.763936
 30
0.0
 10
7.112641
 20
279.095346
 30
0.0
 10
9.119683
 20
278.865826
 30
0.0
 10
9.129670
 20
278.885787
 30
0.0
 10
10.248022
 20
278.785982
 30
0.0
 10
11.416300
 20
278.436716
 30
0.0
 10
12.414829
 20
277.857940
 30
0.0
 10
13.173710
 20
277.099536
 30
0.0
 10
13.593092
 20
276.311200
 30
0.0
 10
22.979260
 20
247.372184
 30
0.0
 10
23.348716
 20
246.394250
 30
0.0
 10
24.277347
 20
244.897403
 30
0.0
 10
25.485567
 20
243.600136
 30
0.0
 10
26.913462
 20
242.572299
 30
0.0
 10
28.521093
 20
241.853818
 30
0.0
 10
30.238563
 20
241.444679
 30
0.0
 10
32.195677
 20
241.404755
 30
0.0
 10
32.195677
 20
241.374815
 30
0.0
 10
39.474949
 20
242.013475
 30
0.0
 10
39.464962
 20
216.726760
 30
0.0
 10
39.444989
 20
216.716778
 30
0.0
 10
39.165400
 20
215.449449
 30
0.0
 10
38.566282
 20
214.291889
 30
0.0
 10
37.677595
 20
213.333908
 30
0.0
 10
36.579211
 20
212.625400
 30
0.0
 10
35.351023
 20
212.226244
 30
0.0
 10
15.799835
 20
208.763541
 30
0.0
 10
15.809819
 20
208.693687
 30
0.0
 10
14.411879
 20
208.304507
 30
0.0
 10
13.013939
 20
207.595999
 30
0.0
 10
11.775764
 20
206.628039
 30
0.0
 10
10.757265
 20
205.440542
 30
0.0
 10
9.988398
 20
204.073422
 30
0.0
 10
9.509104
 20
202.576577
 30
0.0
 10
9.319384
 20
201.019858
 30
0.0
 10
9.349340
 20
200.151688
 30
0.0
 10
11.476205
 20
175.783044
 30
0.0
 10
11.516146
 20
175.812984
 30
0.0
 10
11.586043
 20
175.743131
 30
0.0
 10
11.456235
 20
175.723167
 30
0.0
 10
12.115263
 20
172.440087
 30
0.0
 10
13.493233
 20
169.396500
 30
0.0
 10
15.510260
 20
166.732116
 30
0.0
 10
18.066493
 20
164.576659
 30
0.0
 10
21.032123
 20
163.059856
 30
0.0
 10
24.267355
 20
162.231600
 30
0.0
 10
26.114634
 20
162.111854
 30
0.0
 10
26.124621
 20
162.022039
 30
0.0
 10
56.070490
 20
162.032021
 30
0.0
 10
56.050517
 20
162.032021
 30
0.0
 10
56.050517
 20
162.071935
 30
0.0
 10
58.836411
 20
162.381283
 30
0.0
 10
61.582364
 20
163.339264
 30
0.0
 10
64.038745
 20
164.886002
 30
0.0
 10
65.127142
 20
165.863941
 30
0.0
 10
68.532125
 20
169.256793
 30
0.0
 10
70.609062
 20
170.843449
 30
0.0
 10
73.015518
 20
171.841344
 30
0.0
 10
75.441942
 20
172.170650
 30
0.0
 10
105.337884
 20
172.170650
 30
0.0
 10
107.754324
 20
171.851323
 30
0.0
 10
110.160777
 20
170.853426
 30
0.0
 10
112.247701
 20
169.276748
 30
0.0
 10
115.632713
 20
165.883899
 30
0.0
 10
116.751065
 20
164.886002
 30
0.0
 10
119.207446
 20
163.339264
 30
0.0
 10
121.953399
 20
162.381283
 30
0.0
 10
124.729309
 20
162.071935
 30
0.0
 10
124.729309
 20
162.032045
 30
0.0
 10
154.675178
 20
162.022063
 30
0.0
 10
154.695151
 20
162.042027
 30
0.0
 10
154.695151
 20
162.121859
 30
0.0
 10
156.542430
 20
162.241608
 30
0.0
 10
159.777660
 20
163.069861
 30
0.0
 10
162.743291
 20
164.586667
 30
0.0
 10
165.299523
 20
166.742124
 30
0.0
 10
167.316552
 20
169.406508
 30
0.0
 10
168.694522
 20
172.450093
 30
0.0
 10
169.353549
 20
175.713217
 30
0.0
 10
169.213756
 20
175.723199
 30
0.0
 10
169.203769
 20
175.743162
 30
0.0
 10
169.273664
 20
175.803037
 30
0.0
 10
169.293637
 20
175.783073
 30
0.0
 10
169.313610
 20
175.793055
 30
0.0
 10
171.450462
 20
200.181657
 30
0.0
 10
171.480419
 20
201.029869
 30
0.0
 10
171.290698
 20
202.586588
 30
0.0
 10
170.811403
 20
204.083436
 30
0.0
 10
170.052521
 20
205.440574
 30
0.0
 10
170.042535
 20
205.430592
 30
0.0
 10
169.014049
 20
206.618089
 30
0.0
 10
167.785861
 20
207.586049
 30
0.0
 10
166.387921
 20
208.294557
 30
0.0
 10
164.989980
 20
208.683735
 30
0.0
 10
164.999967
 20
208.753588
 30
0.0
 10
145.448779
 20
212.216291
 30
0.0
 10
145.448779
 20
212.236254
 30
0.0
 10
144.210605
 20
212.625435
 30
0.0
 10
143.112223
 20
213.333942
 30
0.0
 10
142.233519
 20
214.291924
 30
0.0
 10
141.624415
 20
215.449483
 30
0.0
 10
141.344829
 20
216.716813
 30
0.0
 10
141.324856
 20
217.155888
 30
0.0
 10
141.324856
 20
241.983566
 30
0.0
 10
141.334842
 20
242.003530
 30
0.0
 10
148.414409
 20
241.384834
 30
0.0
 10
148.424396
 20
241.404797
 30
0.0
 10
148.604130
 20
241.384834
 30
0.0
 10
150.371527
 20
241.444716
 30
0.0
 10
152.079010
 20
241.853855
 30
0.0
 10
153.686641
 20
242.572336
 30
0.0
 10
155.114536
 20
243.600173
 30
0.0
 10
156.322756
 20
244.897442
 30
0.0
 10
157.251387
 20
246.394290
 30
0.0
 10
157.790594
 20
247.901106
 30
0.0
 10
167.007009
 20
276.311238
 30
0.0
 10
167.426393
 20
277.099574
 30
0.0
 10
168.185275
 20
277.857978
 30
0.0
 10
169.183801
 20
278.436754
 30
0.0
 10
170.352080
 20
278.786020
 30
0.0
 10
171.480419
 20
278.885824
 30
0.0
 10
171.480419
 20
278.865864
 30
0.0
 10
173.487461
 20
279.095384
 30
0.0
 10
175.384664
 20
279.763974
 30
0.0
 10
177.082164
 20
280.831722
 30
0.0
 10
178.510058
 20
282.258717
 30
0.0
 10
179.578485
 20
283.965113
 30
0.0
 10
180.247498
 20
285.861119
 30
0.0
 10
180.467176
 20
287.866900
 30
0.0
 10
180.247498
 20
289.872670
 30
0.0
 10
179.578485
 20
291.768675
 30
0.0
 10
178.510058
 20
293.475073
 30
0.0
 10
177.082164
 20
294.902067
 30
0.0
 10
175.384664
 20
295.969815
 30
0.0
 10
173.487461
 20
296.638405
 30
0.0
 10
171.480419
 20
296.867926
 30
0.0
 10
151.509849
 20
296.867926
 30
0.0
 10
151.509849
 20
296.818023
 30
0.0
 10
149.053468
 20
296.548591
 30
0.0
 10
146.617058
 20
295.740295
 30
0.0
 10
144.430282
 20
294.433046
 30
0.0
 10
142.602974
 20
292.686727
 30
0.0
 10
141.804151
 20
291.608998
 30
0.0
 10
130.630618
 20
275.023950
 30
0.0
 10
130.650591
 20
275.003989
 30
0.0
 10
130.311091
 20
274.644753
 30
0.0
 10
129.142812
 20
275.153676
 30
0.0
 10
127.385402
 20
275.732462
 30
0.0
 10
125.258537
 20
276.281297
 30
0.0
 10
122.722275
 20
276.810191
 30
0.0
 10
115.273251
 20
277.887919
 30
0.0
 10
108.213654
 20
278.536549
 30
0.0
 10
101.623367
 20
278.925726
 30
0.0
 10
98.448045
 20
279.045472
 30
0.0
 10
92.317080
 20
279.155247
 30
0.0
 10
86.206085
 20
279.135286
 30
0.0
 10
78.098035
 20
278.885815
 30
0.0
 10
73.005540
 20
278.576461
 30
0.0
 10
68.771778
 20
278.237175
 30
0.0
 10
61.812036
 20
277.418909
 30
0.0
 10
57.897804
 20
276.790230
 30
0.0
 10
55.441423
 20
276.281297
 30
0.0
 10
53.324542
 20
275.732462
 30
0.0
 10
51.557148
 20
275.153676
 30
0.0
 10
50.308987
 20
274.614812
 30
0.0
 10
49.949517
 20
274.994009
 30
0.0
 10
49.969490
 20
275.023950
 30
0.0
 10
38.775986
 20
291.599018
 30
0.0
 10
37.997132
 20
292.686727
 30
0.0
 10
36.169826
 20
294.433046
 30
0.0
 10
33.983048
 20
295.740295
 30
0.0
 10
31.546640
 20
296.548591
 30
0.0
 10
29.090259
 20
296.818023
 30
0.0
 10
29.090259
 20
296.867918
 30
0.0
 10
9.119683
 20
296.867918
 30
0.0
 10
7.112641
 20
296.638398
 30
0.0
 10
5.215437
 20
295.969807
 30
0.0
 10
3.517939
 20
294.902059
 30
0.0
 10
2.090043
 20
293.475065
 30
0.0
 10
1.021617
 20
291.768668
 30
0.0
 10
0.362589
 20
289.872662
 30
0.0
  0
SPLINE
  5
109
100
AcDbEntity
  8
Calque_1
 62
7
100
AcDbSpline
 70
0
 71
3
 72
25
 73
21
 74
19
 40
0.000000
 40
0.000000
 40
0.000000
 40
0.000000
 40
1.134134
 40
2.252037
 40
3.386170
 40
4.520304
 40
5.638207
 40
6.772341
 40
7.906475
 40
9.024377
 40
10.158511
 40
11.292645
 40
12.410548
 40
13.544682
 40
14.678816
 40
15.796719
 40
16.930852
 40
18.064986
 40
19.182889
 40
20.317023
 40
20.317023
 40
20.317023
 40
20.317023
 10
49.320294
 20
167.693710
 30
0.0
 10
49.281463
 20
168.073683
 30
0.0
 10
49.204357
 20
168.828190
 30
0.0
 10
48.606140
 20
169.825283
 30
0.0
 10
47.730249
 20
170.566596
 30
0.0
 10
46.645623
 20
170.959764
 30
0.0
 10
45.494713
 20
170.959764
 30
0.0
 10
44.411606
 20
170.566596
 30
0.0
 10
43.529650
 20
169.825283
 30
0.0
 10
42.953969
 20
168.828190
 30
0.0
 10
42.752970
 20
167.693710
 30
0.0
 10
42.953969
 20
166.559230
 30
0.0
 10
43.529650
 20
165.562136
 30
0.0
 10
44.411606
 20
164.820824
 30
0.0
 10
45.494713
 20
164.427656
 30
0.0
 10
46.645623
 20
164.427656
 30
0.0
 10
47.730249
 20
164.820824
 30
0.0
 10
48.606140
 20
165.562136
 30
0.0
 10
49.204357
 20
166.559230
 30
0.0
 10
49.281463
 20
167.313737
 30
0.0
 10
49.320294
 20
167.693710
 30
0.0
 11
49.320294
 21
167.693710
 31
0.0
 11
49.122454
 21
168.810455
 31
0.0
 11
48.563503
 21
169.778587
 31
0.0
 11
47.695293
 21
170.508294
 31
0.0
 11
46.629244
 21
170.895332
 31
0.0
 11
45.511341
 21
170.895332
 31
0.0
 11
44.445292
 21
170.508294
 31
0.0
 11
43.577082
 21
169.778587
 31
0.0
 11
43.018131
 21
168.810455
 31
0.0
 11
42.820291
 21
167.693710
 31
0.0
 11
43.018131
 21
166.576965
 31
0.0
 11
43.577082
 21
165.608833
 31
0.0
 11
44.445292
 21
164.879126
 31
0.0
 11
45.511341
 21
164.492088
 31
0.0
 11
46.629244
 21
164.492088
 31
0.0
 11
47.695293
 21
164.879126
 31
0.0
 11
48.563503
 21
165.608833
 31
0.0
 11
49.122454
 21
166.576965
 31
0.0
 11
49.320294
 21
167.693710
 31
0.0
  0
SPLINE
  5
10a
100
AcDbEntity
  8
Calque_1
 62
7
100
AcDbSpline
 70
0
 71
3
 72
16
 73
12
 74
10
 40
0.000000
 40
0.000000
 40
0.000000
 40
0.000000
 40
1.134827
 40
2.253394
 40
3.388221
 40
4.523047
 40
5.641614
 40
6.776441
 40
7.911268
 40
9.029835
 40
10.164662
 40
10.164662
 40
10.164662
 40
10.164662
 10
137.579290
 20
167.690590
 30
0.0
 10
137.540777
 20
168.070834
 30
0.0
 10
137.464302
 20
168.825875
 30
0.0
 10
136.866326
 20
169.823986
 30
0.0
 10
135.990235
 20
170.566139
 30
0.0
 10
134.904890
 20
170.959786
 30
0.0
 10
133.753690
 20
170.959786
 30
0.0
 10
132.668345
 20
170.566139
 30
0.0
 10
131.792254
 20
169.823986
 30
0.0
 10
131.194278
 20
168.825875
 30
0.0
 10
131.117803
 20
168.070834
 30
0.0
 10
131.079290
 20
167.690590
 30
0.0
 11
137.579290
 21
167.690590
 31
0.0
 11
137.382282
 21
168.808185
 31
0.0
 11
136.823619
 21
169.777251
 31
0.0
 11
135.955192
 21
170.507776
 31
0.0
 11
134.888574
 21
170.895276
 31
0.0
 11
133.770006
 21
170.895276
 31
0.0
 11
132.703388
 21
170.507776
 31
0.0
 11
131.834961
 21
169.777251
 31
0.0
 11
131.276298
 21
168.808185
 31
0.0
 11
131.079290
 21
167.690590
 31
0.0
  0
LWPOLYLINE
  5
10b
100
AcDbEntity
  8
Calque_1
 62
7
100
AcDbPolyline
 90
1
 70
1
 10
49.320294
 20
167.693710
 30
0.0
  0
SPLINE
  5
10c
100
AcDbEntity
  8
Calque_1
 62
7
100
AcDbSpline
 70
0
 71
3
 72
16
 73
12
 74
10
 40
0.000000
 40
0.000000
 40
0.000000
 40
0.000000
 40
1.134827
 40
2.253394
 40
3.388221
 40
4.523047
 40
5.641614
 40
6.776441
 40
7.911268
 40
9.029835
 40
10.164662
 40
10.164662
 40
10.164662
 40
10.164662
 10
131.079290
 20
167.690590
 30
0.0
 10
131.117803
 20
167.310346
 30
0.0
 10
131.194278
 20
166.555305
 30
0.0
 10
131.792254
 20
165.557194
 30
0.0
 10
132.668345
 20
164.815041
 30
0.0
 10
133.753690
 20
164.421394
 30
0.0
 10
134.904890
 20
164.421394
 30
0.0
 10
135.990235
 20
164.815041
 30
0.0
 10
136.866326
 20
165.557194
 30
0.0
 10
137.464302
 20
166.555305
 30
0.0
 10
137.540777
 20
167.310346
 30
0.0
 10
137.579290
 20
167.690590
 30
0.0
 11
131.079290
 21
167.690590
 31
0.0
 11
131.276298
 21
166.572995
 31
0.0
 11
131.834961
 21
165.603929
 31
0.0
 11
132.703388
 21
164.873404
 31
0.0
 11
133.770006
 21
164.485904
 31
0.0
 11
134.888574
 21
164.485904
 31
0.0
 11
135.955192
 21
164.873404
 31
0.0
 11
136.823619
 21
165.603929
 31
0.0
 11
137.382282
 21
166.572995
 31
0.0
 11
137.579290
 21
167.690590
 31
0.0
  0
LWPOLYLINE
  5
10d
100
AcDbEntity
  8
Calque_1
 62
7
100
AcDbPolyline
 90
1
 70
1
 10
137.579290
 20
167.690590
 30
0.0
  0
SPLINE
  5
10e
100
AcDbEntity
  8
Calque_1
 62
7
100
AcDbSpline
 70
0
 71
3
 72
25
 73
21
 74
19
 40
0.000000
 40
0.000000
 40
0.000000
 40
0.000000
 40
1.134134
 40
2.252037
 40
3.386172
 40
4.520306
 40
5.638209
 40
6.772343
 40
7.906477
 40
9.024380
 40
10.158515
 40
11.292649
 40
12.410552
 40
13.544686
 40
14.678820
 40
15.796723
 40
16.930858
 40
18.064992
 40
19.182895
 40
20.317029
 40
20.317029
 40
20.317029
 40
20.317029
 10
61.849296
 20
270.362707
 30
0.0
 10
61.810465
 20
270.742680
 30
0.0
 10
61.733359
 20
271.497188
 30
0.0
 10
61.135142
 20
272.494281
 30
0.0
 10
60.259251
 20
273.235594
 30
0.0
 10
59.174624
 20
273.628762
 30
0.0
 10
58.023714
 20
273.628762
 30
0.0
 10
56.940606
 20
273.235594
 30
0.0
 10
56.058650
 20
272.494281
 30
0.0
 10
55.482969
 20
271.497188
 30
0.0
 10
55.281970
 20
270.362707
 30
0.0
 10
55.482969
 20
269.228226
 30
0.0
 10
56.058650
 20
268.231133
 30
0.0
 10
56.940606
 20
267.489820
 30
0.0
 10
58.023714
 20
267.096652
 30
0.0
 10
59.174624
 20
267.096652
 30
0.0
 10
60.259251
 20
267.489820
 30
0.0
 10
61.135142
 20
268.231133
 30
0.0
 10
61.733359
 20
269.228226
 30
0.0
 10
61.810465
 20
269.982734
 30
0.0
 10
61.849296
 20
270.362707
 30
0.0
 11
61.849296
 21
270.362707
 31
0.0
 11
61.651456
 21
271.479452
 31
0.0
 11
61.092504
 21
272.447585
 31
0.0
 11
60.224295
 21
273.177292
 31
0.0
 11
59.158245
 21
273.564330
 31
0.0
 11
58.040342
 21
273.564330
 31
0.0
 11
56.974292
 21
273.177292
 31
0.0
 11
56.106083
 21
272.447585
 31
0.0
 11
55.547131
 21
271.479452
 31
0.0
 11
55.349291
 21
270.362707
 31
0.0
 11
55.547131
 21
269.245962
 31
0.0
 11
56.106083
 21
268.277829
 31
0.0
 11
56.974292
 21
267.548122
 31
0.0
 11
58.040342
 21
267.161084
 31
0.0
 11
59.158245
 21
267.161084
 31
0.0
 11
60.224295
 21
267.548122
 31
0.0
 11
61.092504
 21
268.277829
 31
0.0
 11
61.651456
 21
269.245962
 31
0.0
 11
61.849296
 21
270.362707
 31
0.0
  0
LWPOLYLINE
  5
10f
100
AcDbEntity
  8
Calque_1
 62
7
100
AcDbPolyline
 90
1
 70
1
 10
61.849296
 20
270.362707
 30
0.0
  0
SPLINE
  5
110
100
AcDbEntity
  8
Calque_1
 62
7
100
AcDbSpline
 70
0
 71
3
 72
25
 73
21
 74
19
 40
0.000000
 40
0.000000
 40
0.000000
 40
0.000000
 40
1.134140
 40
2.252049
 40
3.386190
 40
4.520330
 40
5.638239
 40
6.772379
 40
7.906520
 40
9.024429
 40
10.158569
 40
11.292710
 40
12.410619
 40
13.544759
 40
14.678899
 40
15.796808
 40
16.930949
 40
18.065089
 40
19.182998
 40
20.317138
 40
20.317138
 40
20.317138
 40
20.317138
 10
125.438330
 20
270.362690
 30
0.0
 10
125.399499
 20
270.742665
 30
0.0
 10
125.322392
 20
271.497177
 30
0.0
 10
124.724172
 20
272.494276
 30
0.0
 10
123.848276
 20
273.235593
 30
0.0
 10
122.763644
 20
273.628762
 30
0.0
 10
121.612727
 20
273.628762
 30
0.0
 10
120.529614
 20
273.235593
 30
0.0
 10
119.647653
 20
272.494276
 30
0.0
 10
119.071969
 20
271.497177
 30
0.0
 10
118.870969
 20
270.362690
 30
0.0
 10
119.071969
 20
269.228203
 30
0.0
 10
119.647653
 20
268.231104
 30
0.0
 10
120.529614
 20
267.489787
 30
0.0
 10
121.612727
 20
267.096618
 30
0.0
 10
122.763644
 20
267.096618
 30
0.0
 10
123.848276
 20
267.489787
 30
0.0
 10
124.724172
 20
268.231104
 30
0.0
 10
125.322392
 20
269.228203
 30
0.0
 10
125.399499
 20
269.982715
 30
0.0
 10
125.438330
 20
270.362690
 30
0.0
 11
125.438330
 21
270.362690
 31
0.0
 11
125.240489
 21
271.479441
 31
0.0
 11
124.681534
 21
272.447579
 31
0.0
 11
123.813320
 21
273.177290
 31
0.0
 11
122.747265
 21
273.564330
 31
0.0
 11
121.629355
 21
273.564330
 31
0.0
 11
120.563300
 21
273.177290
 31
0.0
 11
119.695086
 21
272.447579
 31
0.0
 11
119.136131
 21
271.479441
 31
0.0
 11
118.938290
 21
270.362690
 31
0.0
 11
119.136131
 21
269.245939
 31
0.0
 11
119.695086
 21
268.277801
 31
0.0
 11
120.563300
 21
267.548090
 31
0.0
 11
121.629355
 21
267.161050
 31
0.0
 11
122.747265
 21
267.161050
 31
0.0
 11
123.813320
 21
267.548090
 31
0.0
 11
124.681534
 21
268.277801
 31
0.0
 11
125.240489
 21
269.245939
 31
0.0
 11
125.438330
 21
270.362690
 31
0.0
  0
LWPOLYLINE
  5
111
100
AcDbEntity
  8
Calque_1
 62
7
100
AcDbPolyline
 90
1
 70
1
 10
125.438330
 20
270.362690
 30
0.0
  0
ENDSEC
  0
SECTION
  2
OBJECTS
  0
DICTIONARY
  5
C
330
0
100
AcDbDictionary
  3
ACAD_GROUP
350
D
  3
ACAD_MLINESTYLE
350
17
  0
DICTIONARY
  5
D
330
C
100
AcDbDictionary
  0
DICTIONARY
  5
1A
330
C
100
AcDbDictionary
  0
DICTIONARY
  5
17
330
C
100
AcDbDictionary
  3
STANDARD
350
18
  0
DICTIONARY
  5
19
330
C
100
AcDbDictionary
  0
ENDSEC
  0
EOF
