  0
SECTION
  2
HEADER
  9
$ACADVER
  1
AC1014
  9
$HANDSEED
  5
FFFF
  9
$MEASUREMENT
 70
     1
  0
ENDSEC
  0
SECTION
  2
TABLES
  0
TABLE
  2
VPORT
  5
8
330
0
100
AcDbSymbolTable
 70
     4
  0
VPORT
  5
2E
330
8
100
AcDbSymbolTableRecord
100
AcDbViewportTableRecord
  2
*ACTIVE
 70
     0
 10
0.0
 20
0.0
 11
1.0
 21
1.0
 12
210.0
 22
148.5
 13
0.0
 23
0.0
 14
10.0
 24
10.0
 15
10.0
 25
10.0
 16
0.0
 26
0.0
 36
1.0
 17
0.0
 27
0.0
 37
0.0
 40
341.0
 41
1.24
 42
50.0
 43
0.0
 44
0.0
 50
0.0
 51
0.0
 71
     0
 72
   100
 73
     1
 74
     3
 75
     0
 76
     0
 77
     0
 78
     0
  0
ENDTAB
  0
TABLE
  2
LTYPE
  5
5
330
0
100
AcDbSymbolTable
 70
     1
  0
LTYPE
  5
14
330
5
100
AcDbSymbolTableRecord
100
AcDbLinetypeTableRecord
  2
BYBLOCK
 70
     0
  3

 72
    65
 73
     0
 40
0.0
  0
LTYPE
  5
15
330
5
100
AcDbSymbolTableRecord
100
AcDbLinetypeTableRecord
  2
BYLAYER
 70
     0
  3

 72
    65
 73
     0
 40
0.0
  0
LTYPE
  5
16
330
5
100
AcDbSymbolTableRecord
100
AcDbLinetypeTableRecord
  2
CONTINUOUS
 70
     0
  3
Solid line
 72
    65
 73
     0
 40
0.0
  0
ENDTAB
  0
TABLE
  2
LAYER
  5
2
100
AcDbSymbolTable
 70
1
  0
LAYER
  5
50
100
AcDbSymbolTableRecord
100
AcDbLayerTableRecord
  2
0
 70
0
  6
CONTINUOUS
  0
ENDTAB
  0
TABLE
  2
STYLE
  5
3
330
0
100
AcDbSymbolTable
 70
     1
  0
STYLE
  5
11
330
3
100
AcDbSymbolTableRecord
100
AcDbTextStyleTableRecord
  2
STANDARD
 70
     0
 40
0.0
 41
1.0
 50
0.0
 71
     0
 42
2.5
  3
txt
  4

  0
ENDTAB
  0
TABLE
  2
VIEW
  5
6
330
0
100
AcDbSymbolTable
 70
     0
  0
ENDTAB
  0
TABLE
  2
UCS
  5
7
330
0
100
AcDbSymbolTable
 70
     0
  0
ENDTAB
  0
TABLE
  2
APPID
  5
9
330
0
100
AcDbSymbolTable
 70
     2
  0
APPID
  5
12
330
9
100
AcDbSymbolTableRecord
100
AcDbRegAppTableRecord
  2
ACAD
 70
     0
  0
ENDTAB
  0
TABLE
  2
DIMSTYLE
  5
A
330
0
100
AcDbSymbolTable
 70
     1
  0
DIMSTYLE
105
27
330
A
100
AcDbSymbolTableRecord
100
AcDbDimStyleTableRecord
  2
ISO-25
 70
     0
  3

  4

  5

  6

  7

 40
1.0
 41
2.5
 42
0.625
 43
3.75
 44
1.25
 45
0.0
 46
0.0
 47
0.0
 48
0.0
140
2.5
141
2.5
142
0.0
143
0.03937007874016
144
1.0
145
0.0
146
1.0
147
0.625
 71
     0
 72
     0
 73
     0
 74
     0
 75
     0
 76
     0
 77
     1
 78
     8
170
     0
171
     3
172
     1
173
     0
174
     0
175
     0
176
     0
177
     0
178
     0
270
     2
271
     2
272
     2
273
     2
274
     3
340
11
275
     0
280
     0
281
     0
282
     0
283
     0
284
     8
285
     0
286
     0
287
     3
288
     0
  0
ENDTAB
  0
TABLE
  2
BLOCK_RECORD
  5
1
330
0
100
AcDbSymbolTable
 70
     1
  0
BLOCK_RECORD
  5
1F
330
1
100
AcDbSymbolTableRecord
100
AcDbBlockTableRecord
  2
*MODEL_SPACE
  0
BLOCK_RECORD
  5
1B
330
1
100
AcDbSymbolTableRecord
100
AcDbBlockTableRecord
  2
*PAPER_SPACE
  0
ENDTAB
  0
ENDSEC
  0
SECTION
  2
BLOCKS
  0
BLOCK
  5
20
330
1F
100
AcDbEntity
  8
0
100
AcDbBlockBegin
  2
*MODEL_SPACE
 70
     0
 10
0.0
 20
0.0
 30
0.0
  3
*MODEL_SPACE
  1

  0
ENDBLK
  5
21
330
1F
100
AcDbEntity
  8
0
100
AcDbBlockEnd
  0
BLOCK
  5
1C
330
1B
100
AcDbEntity
 67
     1
  8
0
100
AcDbBlockBegin
  2
*PAPER_SPACE
  1

  0
ENDBLK
  5
1D
330
1B
100
AcDbEntity
 67
     1
  8
0
100
AcDbBlockEnd
  0
ENDSEC
  0
SECTION
  2
ENTITIES
  0
LWPOLYLINE
  5
100
100
AcDbEntity
  8
0
 62
5
100
AcDbPolyline
 90
25
 70
1
 10
132.492009
 20
167.682817
 30
0.0
 10
132.571765
 20
168.190676
 30
0.0
 10
132.801093
 20
168.648734
 30
0.0
 10
133.100215
 20
168.977346
 30
0.0
 10
133.598740
 20
169.266133
 30
0.0
 10
134.057387
 20
169.385630
 30
0.0
 10
134.406354
 20
169.385630
 30
0.0
 10
134.745359
 20
169.315923
 30
0.0
 10
135.064414
 20
169.186467
 30
0.0
 10
135.373501
 20
168.977346
 30
0.0
 10
135.592853
 20
168.758276
 30
0.0
 10
135.862059
 20
168.280296
 30
0.0
 10
135.951795
 20
167.991511
 30
0.0
 10
135.981711
 20
167.782395
 30
0.0
 10
135.931853
 20
167.264582
 30
0.0
 10
135.772331
 20
166.816479
 30
0.0
 10
135.463229
 20
166.398244
 30
0.0
 10
135.054448
 20
166.099500
 30
0.0
 10
134.865001
 20
166.009875
 30
0.0
 10
134.406354
 20
165.910297
 30
0.0
 10
133.857976
 20
165.940174
 30
0.0
 10
133.568826
 20
166.029791
 30
0.0
 10
133.100215
 20
166.318578
 30
0.0
 10
132.781151
 20
166.677064
 30
0.0
 10
132.541859
 20
167.174960
 30
0.0
  0
LWPOLYLINE
  5
101
100
AcDbEntity
  8
0
 62
5
100
AcDbPolyline
 90
25
 70
1
 10
44.202240
 20
167.781977
 30
0.0
 10
44.272034
 20
168.250004
 30
0.0
 10
44.401651
 20
168.568660
 30
0.0
 10
44.740651
 20
169.006807
 30
0.0
 10
45.119531
 20
169.285628
 30
0.0
 10
45.468506
 20
169.425042
 30
0.0
 10
45.957064
 20
169.494746
 30
0.0
 10
46.465564
 20
169.405124
 30
0.0
 10
46.814531
 20
169.255756
 30
0.0
 10
47.213359
 20
168.947062
 30
0.0
 10
47.502500
 20
168.558698
 30
0.0
 10
47.642092
 20
168.210174
 30
0.0
 10
47.701914
 20
167.702314
 30
0.0
 10
47.632120
 20
167.234290
 30
0.0
 10
47.392831
 20
166.766266
 30
0.0
 10
47.043856
 20
166.387864
 30
0.0
 10
46.764678
 20
166.198661
 30
0.0
 10
46.575237
 20
166.109039
 30
0.0
 10
46.325973
 20
166.039334
 30
0.0
 10
45.608095
 20
166.029386
 30
0.0
 10
45.089623
 20
166.228545
 30
0.0
 10
44.710740
 20
166.507369
 30
0.0
 10
44.401651
 20
166.925601
 30
0.0
 10
44.262065
 20
167.264169
 30
0.0
 10
44.202240
 20
167.781985
 30
0.0
  0
LWPOLYLINE
  5
102
100
AcDbEntity
  8
0
 62
5
100
AcDbPolyline
 90
25
 70
1
 10
14.445094
 20
184.388141
 30
0.0
 10
14.514889
 20
184.856167
 30
0.0
 10
14.644506
 20
185.174824
 30
0.0
 10
14.983506
 20
185.612968
 30
0.0
 10
15.362387
 20
185.891789
 30
0.0
 10
15.711360
 20
186.031203
 30
0.0
 10
16.199919
 20
186.100907
 30
0.0
 10
16.708418
 20
186.011288
 30
0.0
 10
17.057386
 20
185.861920
 30
0.0
 10
17.456211
 20
185.553223
 30
0.0
 10
17.745356
 20
185.164862
 30
0.0
 10
17.884945
 20
184.816334
 30
0.0
 10
17.944769
 20
184.308475
 30
0.0
 10
17.874975
 20
183.840451
 30
0.0
 10
17.635684
 20
183.372429
 30
0.0
 10
17.286709
 20
182.994025
 30
0.0
 10
17.007533
 20
182.804824
 30
0.0
 10
16.818093
 20
182.715202
 30
0.0
 10
16.568828
 20
182.645495
 30
0.0
 10
15.850947
 20
182.635547
 30
0.0
 10
15.332477
 20
182.834709
 30
0.0
 10
14.953594
 20
183.113529
 30
0.0
 10
14.644506
 20
183.531764
 30
0.0
 10
14.504919
 20
183.870333
 30
0.0
 10
14.445094
 20
184.388149
 30
0.0
  0
LWPOLYLINE
  5
103
100
AcDbEntity
  8
0
 62
5
100
AcDbPolyline
 90
25
 70
1
 10
162.579782
 20
184.387969
 30
0.0
 10
162.649577
 20
184.855995
 30
0.0
 10
162.779196
 20
185.174652
 30
0.0
 10
163.118196
 20
185.612796
 30
0.0
 10
163.497077
 20
185.891617
 30
0.0
 10
163.846049
 20
186.031031
 30
0.0
 10
164.334607
 20
186.100735
 30
0.0
 10
164.843109
 20
186.011116
 30
0.0
 10
165.192076
 20
185.861748
 30
0.0
 10
165.590901
 20
185.553051
 30
0.0
 10
165.880046
 20
185.164690
 30
0.0
 10
166.019635
 20
184.816165
 30
0.0
 10
166.079457
 20
184.308303
 30
0.0
 10
166.009662
 20
183.840281
 30
0.0
 10
165.770373
 20
183.372257
 30
0.0
 10
165.421399
 20
182.993853
 30
0.0
 10
165.142223
 20
182.804652
 30
0.0
 10
164.952782
 20
182.715030
 30
0.0
 10
164.703518
 20
182.645323
 30
0.0
 10
163.985637
 20
182.635375
 30
0.0
 10
163.467168
 20
182.834537
 30
0.0
 10
163.088285
 20
183.113357
 30
0.0
 10
162.779196
 20
183.531592
 30
0.0
 10
162.639607
 20
183.870161
 30
0.0
 10
162.579782
 20
184.387977
 30
0.0
  0
LWPOLYLINE
  5
104
100
AcDbEntity
  8
0
 62
5
100
AcDbPolyline
 90
45
 70
1
 10
154.178147
 20
173.030740
 30
0.0
 10
154.188122
 20
173.717839
 30
0.0
 10
154.327714
 20
174.385023
 30
0.0
 10
154.437389
 20
174.703676
 30
0.0
 10
154.766419
 20
175.311112
 30
0.0
 10
154.965827
 20
175.589935
 30
0.0
 10
155.195152
 20
175.838884
 30
0.0
 10
155.723594
 20
176.277034
 30
0.0
 10
156.331799
 20
176.595690
 30
0.0
 10
156.650858
 20
176.715181
 30
0.0
 10
157.328855
 20
176.844637
 30
0.0
 10
157.667855
 20
176.874513
 30
0.0
 10
157.677830
 20
176.854617
 30
0.0
 10
158.355827
 20
176.784912
 30
0.0
 10
158.694827
 20
176.705249
 30
0.0
 10
159.322971
 20
176.436385
 30
0.0
 10
159.622091
 20
176.267099
 30
0.0
 10
160.150532
 20
175.828949
 30
0.0
 10
160.379854
 20
175.579997
 30
0.0
 10
160.758735
 20
175.002439
 30
0.0
 10
160.928235
 20
174.633993
 30
0.0
 10
161.107707
 20
174.046473
 30
0.0
 10
161.157560
 20
173.707901
 30
0.0
 10
161.157560
 20
173.030759
 30
0.0
 10
161.137610
 20
173.020810
 30
0.0
 10
161.087758
 20
172.682239
 30
0.0
 10
160.888346
 20
172.025014
 30
0.0
 10
160.738785
 20
171.716317
 30
0.0
 10
160.359905
 20
171.148712
 30
0.0
 10
159.871347
 20
170.670726
 30
0.0
 10
159.602141
 20
170.461610
 30
0.0
 10
159.303022
 20
170.282368
 30
0.0
 10
158.674877
 20
170.023461
 30
0.0
 10
157.996877
 20
169.894011
 30
0.0
 10
157.328847
 20
169.903959
 30
0.0
 10
156.989850
 20
169.953748
 30
0.0
 10
156.650850
 20
170.033411
 30
0.0
 10
156.022703
 20
170.292319
 30
0.0
 10
155.723586
 20
170.471561
 30
0.0
 10
155.195144
 20
170.909714
 30
0.0
 10
154.965820
 20
171.158660
 30
0.0
 10
154.586939
 20
171.726265
 30
0.0
 10
154.417439
 20
172.104667
 30
0.0
 10
154.247942
 20
172.692188
 30
0.0
 10
154.178145
 20
173.030764
 30
0.0
  0
LWPOLYLINE
  5
105
100
AcDbEntity
  8
0
 62
5
100
AcDbPolyline
 90
45
 70
1
 10
19.076784
 20
173.030740
 30
0.0
 10
19.086756
 20
173.717839
 30
0.0
 10
19.136609
 20
174.056411
 30
0.0
 10
19.336021
 20
174.703676
 30
0.0
 10
19.665050
 20
175.311112
 30
0.0
 10
19.864461
 20
175.589935
 30
0.0
 10
20.093784
 20
175.838884
 30
0.0
 10
20.622225
 20
176.277034
 30
0.0
 10
21.230431
 20
176.595690
 30
0.0
 10
21.888489
 20
176.794850
 30
0.0
 10
22.227489
 20
176.844637
 30
0.0
 10
22.566489
 20
176.874513
 30
0.0
 10
22.576461
 20
176.854617
 30
0.0
 10
23.254459
 20
176.784912
 30
0.0
 10
23.593459
 20
176.705249
 30
0.0
 10
24.221605
 20
176.436385
 30
0.0
 10
24.520723
 20
176.267099
 30
0.0
 10
25.049164
 20
175.828949
 30
0.0
 10
25.278488
 20
175.579997
 30
0.0
 10
25.657369
 20
175.002439
 30
0.0
 10
25.806928
 20
174.693739
 30
0.0
 10
25.996370
 20
174.046473
 30
0.0
 10
26.056192
 20
173.707901
 30
0.0
 10
26.056192
 20
173.030759
 30
0.0
 10
26.036251
 20
173.020810
 30
0.0
 10
25.896662
 20
172.353624
 30
0.0
 10
25.786986
 20
172.025014
 30
0.0
 10
25.637428
 20
171.716317
 30
0.0
 10
25.258545
 20
171.148712
 30
0.0
 10
24.769987
 20
170.670726
 30
0.0
 10
24.500781
 20
170.461610
 30
0.0
 10
24.201664
 20
170.282368
 30
0.0
 10
23.573516
 20
170.023461
 30
0.0
 10
22.895517
 20
169.894011
 30
0.0
 10
22.227489
 20
169.903959
 30
0.0
 10
21.888489
 20
169.953748
 30
0.0
 10
21.549489
 20
170.033411
 30
0.0
 10
20.921343
 20
170.292319
 30
0.0
 10
20.622225
 20
170.471561
 30
0.0
 10
20.093784
 20
170.909714
 30
0.0
 10
19.864461
 20
171.158660
 30
0.0
 10
19.485580
 20
171.726265
 30
0.0
 10
19.316079
 20
172.104667
 30
0.0
 10
19.136609
 20
172.692188
 30
0.0
 10
19.076783
 20
173.030764
 30
0.0
  0
LWPOLYLINE
  5
106
100
AcDbEntity
  8
0
 62
5
100
AcDbPolyline
 90
39
 70
1
 10
86.976439
 20
198.035173
 30
0.0
 10
87.056200
 20
198.662527
 30
0.0
 10
87.135964
 20
198.971224
 30
0.0
 10
87.385231
 20
199.548785
 30
0.0
 10
87.754139
 20
200.066601
 30
0.0
 10
88.212789
 20
200.514710
 30
0.0
 10
88.741228
 20
200.853281
 30
0.0
 10
89.339464
 20
201.082313
 30
0.0
 10
89.947672
 20
201.191850
 30
0.0
 10
90.605727
 20
201.171953
 30
0.0
 10
91.164078
 20
201.062419
 30
0.0
 10
91.473169
 20
200.952878
 30
0.0
 10
92.081374
 20
200.614307
 30
0.0
 10
92.520077
 20
200.245862
 30
0.0
 10
92.769341
 20
199.967041
 30
0.0
 10
93.118316
 20
199.429310
 30
0.0
 10
93.227994
 20
199.200276
 30
0.0
 10
93.417433
 20
198.533095
 30
0.0
 10
93.457316
 20
198.274187
 30
0.0
 10
93.457316
 20
197.656793
 30
0.0
 10
93.437366
 20
197.646844
 30
0.0
 10
93.327691
 20
197.079242
 30
0.0
 10
93.178130
 20
196.661007
 30
0.0
 10
93.038544
 20
196.382184
 30
0.0
 10
92.669630
 20
195.854412
 30
0.0
 10
92.210983
 20
195.416262
 30
0.0
 10
91.732394
 20
195.107565
 30
0.0
 10
91.453219
 20
194.968156
 30
0.0
 10
90.775219
 20
194.768993
 30
0.0
 10
90.276689
 20
194.729163
 30
0.0
 10
89.518928
 20
194.808826
 30
0.0
 10
89.279634
 20
194.868575
 30
0.0
 10
88.691370
 20
195.117524
 30
0.0
 10
88.412192
 20
195.276853
 30
0.0
 10
87.923634
 20
195.675170
 30
0.0
 10
87.484928
 20
196.222857
 30
0.0
 10
87.195781
 20
196.790462
 30
0.0
 10
87.016312
 20
197.407854
 30
0.0
 10
86.976434
 20
198.035208
 30
0.0
  0
LWPOLYLINE
  5
107
100
AcDbEntity
  8
0
 62
5
100
AcDbPolyline
 90
44
 70
1
 10
156.969908
 20
199.220173
 30
0.0
 10
156.979883
 20
199.907272
 30
0.0
 10
157.139411
 20
200.644160
 30
0.0
 10
157.378705
 20
201.201809
 30
0.0
 10
157.757591
 20
201.779368
 30
0.0
 10
157.986913
 20
202.028319
 30
0.0
 10
158.515352
 20
202.466467
 30
0.0
 10
159.123555
 20
202.785120
 30
0.0
 10
159.442616
 20
202.904616
 30
0.0
 10
160.120616
 20
203.034072
 30
0.0
 10
160.459616
 20
203.063946
 30
0.0
 10
160.469591
 20
203.044049
 30
0.0
 10
161.147590
 20
202.974345
 30
0.0
 10
161.486588
 20
202.894679
 30
0.0
 10
162.114735
 20
202.625812
 30
0.0
 10
162.413852
 20
202.456529
 30
0.0
 10
162.942293
 20
202.018379
 30
0.0
 10
163.171618
 20
201.769427
 30
0.0
 10
163.550499
 20
201.191869
 30
0.0
 10
163.700060
 20
200.883171
 30
0.0
 10
163.899468
 20
200.235905
 30
0.0
 10
163.949321
 20
199.897334
 30
0.0
 10
163.949321
 20
199.220191
 30
0.0
 10
163.929371
 20
199.210243
 30
0.0
 10
163.879516
 20
198.871669
 30
0.0
 10
163.680105
 20
198.214444
 30
0.0
 10
163.530549
 20
197.905750
 30
0.0
 10
163.151666
 20
197.338145
 30
0.0
 10
162.663105
 20
196.860164
 30
0.0
 10
162.393902
 20
196.651048
 30
0.0
 10
162.094783
 20
196.471804
 30
0.0
 10
161.466638
 20
196.212896
 30
0.0
 10
160.788638
 20
196.083443
 30
0.0
 10
160.120608
 20
196.093391
 30
0.0
 10
159.781608
 20
196.143183
 30
0.0
 10
159.442608
 20
196.222844
 30
0.0
 10
158.754639
 20
196.521582
 30
0.0
 10
158.515344
 20
196.660994
 30
0.0
 10
157.986905
 20
197.099146
 30
0.0
 10
157.757580
 20
197.348093
 30
0.0
 10
157.378697
 20
197.915698
 30
0.0
 10
157.229139
 20
198.224393
 30
0.0
 10
157.019758
 20
198.951325
 30
0.0
 10
156.969905
 20
199.220191
 30
0.0
  0
LWPOLYLINE
  5
108
100
AcDbEntity
  8
0
 62
5
100
AcDbPolyline
 90
45
 70
1
 10
16.384726
 20
199.220173
 30
0.0
 10
16.394696
 20
199.907272
 30
0.0
 10
16.444548
 20
200.245843
 30
0.0
 10
16.643960
 20
200.893112
 30
0.0
 10
16.972990
 20
201.500547
 30
0.0
 10
17.172402
 20
201.779368
 30
0.0
 10
17.401725
 20
202.028319
 30
0.0
 10
17.989989
 20
202.496343
 30
0.0
 10
18.538371
 20
202.785120
 30
0.0
 10
18.857429
 20
202.904616
 30
0.0
 10
19.535429
 20
203.034072
 30
0.0
 10
19.874428
 20
203.063946
 30
0.0
 10
19.884401
 20
203.044049
 30
0.0
 10
20.562400
 20
202.974345
 30
0.0
 10
20.901400
 20
202.894679
 30
0.0
 10
21.529547
 20
202.625812
 30
0.0
 10
21.828664
 20
202.456529
 30
0.0
 10
22.357105
 20
202.018379
 30
0.0
 10
22.586429
 20
201.769427
 30
0.0
 10
22.965311
 20
201.191869
 30
0.0
 10
23.114869
 20
200.883171
 30
0.0
 10
23.304310
 20
200.235905
 30
0.0
 10
23.364133
 20
199.897334
 30
0.0
 10
23.364133
 20
199.220191
 30
0.0
 10
23.344192
 20
199.210243
 30
0.0
 10
23.204602
 20
198.543057
 30
0.0
 10
23.094926
 20
198.214444
 30
0.0
 10
22.945369
 20
197.905750
 30
0.0
 10
22.566487
 20
197.338145
 30
0.0
 10
22.028075
 20
196.820334
 30
0.0
 10
21.808723
 20
196.651048
 30
0.0
 10
21.509604
 20
196.471804
 30
0.0
 10
20.881458
 20
196.212896
 30
0.0
 10
20.203458
 20
196.083443
 30
0.0
 10
19.944224
 20
196.073495
 30
0.0
 10
19.465636
 20
196.103372
 30
0.0
 10
18.857431
 20
196.222865
 30
0.0
 10
18.229284
 20
196.481773
 30
0.0
 10
17.930166
 20
196.661015
 30
0.0
 10
17.401725
 20
197.099165
 30
0.0
 10
17.172402
 20
197.348114
 30
0.0
 10
16.793520
 20
197.915719
 30
0.0
 10
16.643961
 20
198.224414
 30
0.0
 10
16.444549
 20
198.881639
 30
0.0
 10
16.384726
 20
199.220215
 30
0.0
  0
LWPOLYLINE
  5
109
100
AcDbEntity
  8
0
 62
5
100
AcDbPolyline
 90
40
 70
1
 10
56.506343
 20
215.391899
 30
0.0
 10
56.526292
 20
215.401847
 30
0.0
 10
56.536267
 20
215.720500
 30
0.0
 10
56.665884
 20
216.347851
 30
0.0
 10
56.765589
 20
216.646592
 30
0.0
 10
56.935089
 20
216.985161
 30
0.0
 10
57.304001
 20
217.502977
 30
0.0
 10
57.762648
 20
217.951085
 30
0.0
 10
58.291089
 20
218.289654
 30
0.0
 10
58.829503
 20
218.508729
 30
0.0
 10
59.507500
 20
218.628225
 30
0.0
 10
60.145617
 20
218.618277
 30
0.0
 10
60.145617
 20
218.598380
 30
0.0
 10
60.703969
 20
218.488840
 30
0.0
 10
61.352058
 20
218.210017
 30
0.0
 10
61.870528
 20
217.851531
 30
0.0
 10
62.309233
 20
217.393468
 30
0.0
 10
62.628291
 20
216.915483
 30
0.0
 10
62.787822
 20
216.566953
 30
0.0
 10
62.957319
 20
215.959520
 30
0.0
 10
63.007172
 20
215.381958
 30
0.0
 10
62.987222
 20
215.013515
 30
0.0
 10
62.967273
 20
215.003567
 30
0.0
 10
62.867567
 20
214.505672
 30
0.0
 10
62.718009
 20
214.087437
 30
0.0
 10
62.578420
 20
213.808614
 30
0.0
 10
62.249392
 20
213.330634
 30
0.0
 10
61.750862
 20
212.842692
 30
0.0
 10
61.222423
 20
212.504120
 30
0.0
 10
60.624187
 20
212.275087
 30
0.0
 10
60.315098
 20
212.195423
 30
0.0
 10
59.756746
 20
212.155593
 30
0.0
 10
59.118629
 20
212.215341
 30
0.0
 10
58.460571
 20
212.434413
 30
0.0
 10
57.902218
 20
212.743108
 30
0.0
 10
57.463512
 20
213.101597
 30
0.0
 10
57.024807
 20
213.649284
 30
0.0
 10
56.755601
 20
214.157141
 30
0.0
 10
56.576129
 20
214.764577
 30
0.0
 10
56.506338
 20
215.391930
 30
0.0
  0
LWPOLYLINE
  5
10a
100
AcDbEntity
  8
0
 62
5
100
AcDbPolyline
 90
39
 70
1
 10
117.287002
 20
215.083201
 30
0.0
 10
117.306951
 20
215.083201
 30
0.0
 10
117.316926
 20
215.790218
 30
0.0
 10
117.416634
 20
216.288116
 30
0.0
 10
117.566193
 20
216.706348
 30
0.0
 10
117.875279
 20
217.254038
 30
0.0
 10
118.294043
 20
217.741980
 30
0.0
 10
118.792576
 20
218.130338
 30
0.0
 10
119.061779
 20
218.289667
 30
0.0
 10
119.660012
 20
218.518696
 30
0.0
 10
120.208395
 20
218.628236
 30
0.0
 10
120.218370
 20
218.608339
 30
0.0
 10
120.916309
 20
218.598391
 30
0.0
 10
121.474662
 20
218.488854
 30
0.0
 10
122.122753
 20
218.210028
 30
0.0
 10
122.641220
 20
217.851541
 30
0.0
 10
123.040042
 20
217.443265
 30
0.0
 10
123.269364
 20
217.134568
 30
0.0
 10
123.538572
 20
216.626714
 30
0.0
 10
123.728014
 20
215.959530
 30
0.0
 10
123.777867
 20
215.381969
 30
0.0
 10
123.757917
 20
215.381969
 30
0.0
 10
123.737968
 20
215.003567
 30
0.0
 10
123.638262
 20
214.505669
 30
0.0
 10
123.488701
 20
214.087434
 30
0.0
 10
123.179615
 20
213.539747
 30
0.0
 10
122.760851
 20
213.051805
 30
0.0
 10
122.262323
 20
212.663445
 30
0.0
 10
121.693998
 20
212.374665
 30
0.0
 10
121.085793
 20
212.195421
 30
0.0
 10
120.527440
 20
212.155590
 30
0.0
 10
119.829499
 20
212.235254
 30
0.0
 10
119.231268
 20
212.434411
 30
0.0
 10
118.672913
 20
212.743108
 30
0.0
 10
118.194324
 20
213.151386
 30
0.0
 10
117.835385
 20
213.599493
 30
0.0
 10
117.635971
 20
213.928105
 30
0.0
 10
117.406649
 20
214.515625
 30
0.0
 10
117.287004
 20
215.083233
 30
0.0
  0
LWPOLYLINE
  5
10b
100
AcDbEntity
  8
0
 62
5
100
AcDbPolyline
 90
5
 70
1
 10
154.377558
 20
250.862155
 30
0.0
 10
154.377558
 20
250.951775
 30
0.0
 10
154.427414
 20
250.951775
 30
0.0
 10
154.397500
 20
250.862155
 30
0.0
 10
154.377550
 20
250.862155
 30
0.0
  0
LWPOLYLINE
  5
10c
100
AcDbEntity
  8
0
 62
5
100
AcDbPolyline
 90
39
 70
1
 10
117.287002
 20
250.095393
 30
0.0
 10
117.306951
 20
250.483751
 30
0.0
 10
117.446540
 20
251.101145
 30
0.0
 10
117.665893
 20
251.628915
 30
0.0
 10
117.865301
 20
251.947571
 30
0.0
 10
118.234215
 20
252.385723
 30
0.0
 10
118.722776
 20
252.794002
 30
0.0
 10
119.051804
 20
252.983203
 30
0.0
 10
119.590215
 20
253.202275
 30
0.0
 10
120.198420
 20
253.321771
 30
0.0
 10
120.846507
 20
253.321771
 30
0.0
 10
121.464682
 20
253.202275
 30
0.0
 10
121.773770
 20
253.092738
 30
0.0
 10
122.381976
 20
252.754166
 30
0.0
 10
122.631242
 20
252.564965
 30
0.0
 10
123.069945
 20
252.106898
 30
0.0
 10
123.418915
 20
251.569169
 30
0.0
 10
123.528592
 20
251.340138
 30
0.0
 10
123.718034
 20
250.672954
 30
0.0
 10
123.757917
 20
250.414046
 30
0.0
 10
123.737968
 20
249.707032
 30
0.0
 10
123.638262
 20
249.209134
 30
0.0
 10
123.518615
 20
248.850645
 30
0.0
 10
123.349115
 20
248.512071
 30
0.0
 10
123.020084
 20
248.034094
 30
0.0
 10
122.521557
 20
247.546154
 30
0.0
 10
121.993118
 20
247.207580
 30
0.0
 10
121.394879
 20
246.978549
 30
0.0
 10
121.155585
 20
246.908847
 30
0.0
 10
120.587265
 20
246.859053
 30
0.0
 10
119.829499
 20
246.938719
 30
0.0
 10
119.231268
 20
247.137879
 30
0.0
 10
118.672913
 20
247.446573
 30
0.0
 10
118.194324
 20
247.854849
 30
0.0
 10
117.795502
 20
248.352747
 30
0.0
 10
117.635971
 20
248.631570
 30
0.0
 10
117.506355
 20
248.920352
 30
0.0
 10
117.326885
 20
249.537747
 30
0.0
 10
117.287004
 20
250.095393
 30
0.0
  0
LWPOLYLINE
  5
10d
100
AcDbEntity
  8
0
 62
5
100
AcDbPolyline
 90
41
 70
1
 10
56.516312
 20
249.786693
 30
0.0
 10
56.536262
 20
249.796641
 30
0.0
 10
56.546237
 20
250.493702
 30
0.0
 10
56.665881
 20
251.051345
 30
0.0
 10
56.765587
 20
251.350084
 30
0.0
 10
57.104589
 20
251.957517
 30
0.0
 10
57.473498
 20
252.395672
 30
0.0
 10
58.021878
 20
252.833822
 30
0.0
 10
58.590203
 20
253.122601
 30
0.0
 10
58.829498
 20
253.212223
 30
0.0
 10
59.437703
 20
253.331717
 30
0.0
 10
59.447678
 20
253.311820
 30
0.0
 10
60.145619
 20
253.301872
 30
0.0
 10
60.703972
 20
253.192335
 30
0.0
 10
61.292236
 20
252.943383
 30
0.0
 10
61.571411
 20
252.784054
 30
0.0
 10
61.870530
 20
252.555022
 30
0.0
 10
62.269353
 20
252.146747
 30
0.0
 10
62.498677
 20
251.838052
 30
0.0
 10
62.658208
 20
251.559226
 30
0.0
 10
62.867589
 20
251.031457
 30
0.0
 10
62.997205
 20
250.404106
 30
0.0
 10
62.977256
 20
250.404106
 30
0.0
 10
62.967281
 20
249.707048
 30
0.0
 10
62.827692
 20
249.089654
 30
0.0
 10
62.608342
 20
248.561882
 30
0.0
 10
62.408928
 20
248.243225
 30
0.0
 10
62.040017
 20
247.795117
 30
0.0
 10
61.491634
 20
247.366926
 30
0.0
 10
60.983137
 20
247.098064
 30
0.0
 10
60.384898
 20
246.908861
 30
0.0
 10
60.006017
 20
246.859069
 30
0.0
 10
59.756753
 20
246.859069
 30
0.0
 10
59.118637
 20
246.918820
 30
0.0
 10
58.460579
 20
247.137894
 30
0.0
 10
57.902226
 20
247.446589
 30
0.0
 10
57.423640
 20
247.854865
 30
0.0
 10
57.024815
 20
248.352763
 30
0.0
 10
56.755609
 20
248.860620
 30
0.0
 10
56.566170
 20
249.527806
 30
0.0
 10
56.516315
 20
249.786714
 30
0.0
  0
LWPOLYLINE
  5
10e
100
AcDbEntity
  8
0
 62
5
100
AcDbPolyline
 90
40
 70
1
 10
86.976439
 20
267.691106
 30
0.0
 10
87.056200
 20
268.318459
 30
0.0
 10
87.135964
 20
268.627156
 30
0.0
 10
87.385231
 20
269.204718
 30
0.0
 10
87.754139
 20
269.722531
 30
0.0
 10
88.212789
 20
270.170640
 30
0.0
 10
88.741228
 20
270.509211
 30
0.0
 10
89.339464
 20
270.738242
 30
0.0
 10
89.947672
 20
270.847779
 30
0.0
 10
90.605727
 20
270.827864
 30
0.0
 10
91.164078
 20
270.718325
 30
0.0
 10
91.473169
 20
270.608789
 30
0.0
 10
92.081374
 20
270.270218
 30
0.0
 10
92.559961
 20
269.861943
 30
0.0
 10
92.918905
 20
269.413834
 30
0.0
 10
93.118316
 20
269.085221
 30
0.0
 10
93.227994
 20
268.856187
 30
0.0
 10
93.417433
 20
268.189006
 30
0.0
 10
93.457316
 20
267.930101
 30
0.0
 10
93.457316
 20
267.312704
 30
0.0
 10
93.437366
 20
267.302756
 30
0.0
 10
93.307750
 20
266.675405
 30
0.0
 10
93.208041
 20
266.376664
 30
0.0
 10
93.038544
 20
266.038093
 30
0.0
 10
92.669630
 20
265.510323
 30
0.0
 10
92.210983
 20
265.072173
 30
0.0
 10
91.682544
 20
264.733602
 30
0.0
 10
91.084308
 20
264.504571
 30
0.0
 10
90.775219
 20
264.424907
 30
0.0
 10
90.535925
 20
264.405011
 30
0.0
 10
89.897808
 20
264.405011
 30
0.0
 10
89.279634
 20
264.524507
 30
0.0
 10
88.691370
 20
264.773456
 30
0.0
 10
88.412192
 20
264.932785
 30
0.0
 10
87.883753
 20
265.380892
 30
0.0
 10
87.524812
 20
265.829000
 30
0.0
 10
87.325398
 20
266.157613
 30
0.0
 10
87.195781
 20
266.446395
 30
0.0
 10
87.026281
 20
266.994080
 30
0.0
 10
86.976434
 20
267.691140
 30
0.0
  0
LWPOLYLINE
  5
10f
100
AcDbEntity
  8
0
 62
5
100
AcDbPolyline
 90
24
 70
1
 10
120.427441
 20
270.130622
 30
0.0
 10
120.457352
 20
270.608606
 30
0.0
 10
120.626850
 20
271.086588
 30
0.0
 10
120.965849
 20
271.524738
 30
0.0
 10
121.344733
 20
271.803561
 30
0.0
 10
121.653821
 20
271.933015
 30
0.0
 10
122.172294
 20
272.012679
 30
0.0
 10
122.680791
 20
271.933015
 30
0.0
 10
122.999849
 20
271.803561
 30
0.0
 10
123.378730
 20
271.524738
 30
0.0
 10
123.717732
 20
271.086588
 30
0.0
 10
123.847352
 20
270.767933
 30
0.0
 10
123.917143
 20
270.230203
 30
0.0
 10
123.847352
 20
269.762179
 30
0.0
 10
123.627996
 20
269.294155
 30
0.0
 10
123.528291
 20
269.154743
 30
0.0
 10
123.109524
 20
268.796254
 30
0.0
 10
122.650880
 20
268.587141
 30
0.0
 10
122.341791
 20
268.527395
 30
0.0
 10
121.833291
 20
268.557267
 30
0.0
 10
121.344733
 20
268.726552
 30
0.0
 10
120.935941
 20
269.035249
 30
0.0
 10
120.716588
 20
269.294155
 30
0.0
 10
120.487266
 20
269.762179
 30
0.0
  0
LWPOLYLINE
  5
110
100
AcDbEntity
  8
0
 62
5
100
AcDbPolyline
 90
24
 70
1
 10
161.454502
 20
279.604648
 30
0.0
 10
161.484410
 20
280.082632
 30
0.0
 10
161.653910
 20
280.560615
 30
0.0
 10
161.992910
 20
280.998765
 30
0.0
 10
162.371791
 20
281.277588
 30
0.0
 10
162.680880
 20
281.407040
 30
0.0
 10
163.199352
 20
281.486705
 30
0.0
 10
163.707852
 20
281.407040
 30
0.0
 10
164.026910
 20
281.277588
 30
0.0
 10
164.405788
 20
280.998765
 30
0.0
 10
164.744790
 20
280.560615
 30
0.0
 10
164.874410
 20
280.241959
 30
0.0
 10
164.944201
 20
279.704229
 30
0.0
 10
164.874410
 20
279.236204
 30
0.0
 10
164.655054
 20
278.768180
 30
0.0
 10
164.555351
 20
278.628766
 30
0.0
 10
164.136585
 20
278.270281
 30
0.0
 10
163.677938
 20
278.061167
 30
0.0
 10
163.368852
 20
278.001420
 30
0.0
 10
162.860352
 20
278.031292
 30
0.0
 10
162.371791
 20
278.200578
 30
0.0
 10
161.962999
 20
278.509273
 30
0.0
 10
161.743649
 20
278.768180
 30
0.0
 10
161.514324
 20
279.236204
 30
0.0
  0
LWPOLYLINE
  5
111
100
AcDbEntity
  8
0
 62
5
100
AcDbPolyline
 90
24
 70
1
 10
15.239459
 20
279.604648
 30
0.0
 10
15.269368
 20
280.082632
 30
0.0
 10
15.438867
 20
280.560615
 30
0.0
 10
15.777868
 20
280.998765
 30
0.0
 10
16.156751
 20
281.277588
 30
0.0
 10
16.465839
 20
281.407040
 30
0.0
 10
16.984310
 20
281.486705
 30
0.0
 10
17.492809
 20
281.407040
 30
0.0
 10
17.811868
 20
281.277588
 30
0.0
 10
18.190749
 20
280.998765
 30
0.0
 10
18.529749
 20
280.560615
 30
0.0
 10
18.659368
 20
280.241959
 30
0.0
 10
18.729160
 20
279.704229
 30
0.0
 10
18.659368
 20
279.236204
 30
0.0
 10
18.440013
 20
278.768180
 30
0.0
 10
18.340309
 20
278.628766
 30
0.0
 10
17.921543
 20
278.270281
 30
0.0
 10
17.462897
 20
278.061167
 30
0.0
 10
17.153808
 20
278.001420
 30
0.0
 10
16.645309
 20
278.031292
 30
0.0
 10
16.156751
 20
278.200578
 30
0.0
 10
15.747958
 20
278.509273
 30
0.0
 10
15.528606
 20
278.768180
 30
0.0
 10
15.299283
 20
279.236204
 30
0.0
  0
LWPOLYLINE
  5
112
100
AcDbEntity
  8
0
 62
5
100
AcDbPolyline
 90
29
 70
1
 10
56.666109
 20
270.299711
 30
0.0
 10
56.735903
 20
270.767735
 30
0.0
 10
56.865520
 20
271.086390
 30
0.0
 10
57.054959
 20
271.375172
 30
0.0
 10
57.473728
 20
271.733658
 30
0.0
 10
57.902461
 20
271.932817
 30
0.0
 10
58.430898
 20
272.012481
 30
0.0
 10
58.929431
 20
271.922859
 30
0.0
 10
59.248489
 20
271.793406
 30
0.0
 10
59.677222
 20
271.464793
 30
0.0
 10
59.966370
 20
271.076433
 30
0.0
 10
60.105956
 20
270.727904
 30
0.0
 10
60.165781
 20
270.389331
 30
0.0
 10
60.125900
 20
269.891433
 30
0.0
 10
60.105950
 20
269.881485
 30
0.0
 10
60.016214
 20
269.582744
 30
0.0
 10
59.776920
 20
269.174471
 30
0.0
 10
59.477803
 20
268.885691
 30
0.0
 10
59.188656
 20
268.696485
 30
0.0
 10
58.879570
 20
268.576991
 30
0.0
 10
58.580451
 20
268.527205
 30
0.0
 10
58.241453
 20
268.527205
 30
0.0
 10
57.872540
 20
268.606865
 30
0.0
 10
57.583395
 20
268.726362
 30
0.0
 10
57.274306
 20
268.935480
 30
0.0
 10
57.054951
 20
269.154553
 30
0.0
 10
56.865512
 20
269.443335
 30
0.0
 10
56.715954
 20
269.791865
 30
0.0
 10
56.666104
 20
270.299722
 30
0.0
  0
LWPOLYLINE
  5
113
100
AcDbEntity
  8
0
 62
5
100
AcDbPolyline
 90
42
 70
1
 10
139.930188
 20
274.900670
 30
0.0
 10
139.930188
 20
275.587769
 30
0.0
 10
140.069777
 20
276.254951
 30
0.0
 10
140.179452
 20
276.573608
 30
0.0
 10
140.329010
 20
276.892262
 30
0.0
 10
140.707893
 20
277.459865
 30
0.0
 10
140.937216
 20
277.708814
 30
0.0
 10
141.525479
 20
278.176838
 30
0.0
 10
142.073860
 20
278.465620
 30
0.0
 10
142.382954
 20
278.585114
 30
0.0
 10
143.070921
 20
278.714568
 30
0.0
 10
143.409921
 20
278.734484
 30
0.0
 10
144.157715
 20
278.644862
 30
0.0
 10
144.426921
 20
278.585114
 30
0.0
 10
145.055065
 20
278.316249
 30
0.0
 10
145.354184
 20
278.146964
 30
0.0
 10
145.882626
 20
277.708814
 30
0.0
 10
146.151832
 20
277.400117
 30
0.0
 10
146.490831
 20
276.892260
 30
0.0
 10
146.730123
 20
276.324658
 30
0.0
 10
146.839798
 20
275.926339
 30
0.0
 10
146.889654
 20
275.518062
 30
0.0
 10
146.889654
 20
274.900669
 30
0.0
 10
146.819857
 20
274.492392
 30
0.0
 10
146.640390
 20
273.904873
 30
0.0
 10
146.490831
 20
273.596175
 30
0.0
 10
146.111948
 20
273.028572
 30
0.0
 10
145.623387
 20
272.550591
 30
0.0
 10
145.354184
 20
272.341474
 30
0.0
 10
144.745979
 20
272.022818
 30
0.0
 10
144.426921
 20
271.903324
 30
0.0
 10
143.818715
 20
271.783827
 30
0.0
 10
143.070921
 20
271.773868
 30
0.0
 10
142.731921
 20
271.823658
 30
0.0
 10
142.392924
 20
271.903321
 30
0.0
 10
141.764774
 20
272.172186
 30
0.0
 10
141.465657
 20
272.341472
 30
0.0
 10
140.937216
 20
272.779622
 30
0.0
 10
140.707893
 20
273.028571
 30
0.0
 10
140.329010
 20
273.596174
 30
0.0
 10
140.179452
 20
273.904872
 30
0.0
 10
140.049835
 20
274.283274
 30
0.0
  0
LWPOLYLINE
  5
114
100
AcDbEntity
  8
0
 62
5
100
AcDbPolyline
 90
42
 70
1
 10
33.344685
 20
274.900670
 30
0.0
 10
33.344685
 20
275.587769
 30
0.0
 10
33.394540
 20
275.926340
 30
0.0
 10
33.593949
 20
276.573608
 30
0.0
 10
33.743507
 20
276.892262
 30
0.0
 10
34.122387
 20
277.459865
 30
0.0
 10
34.351710
 20
277.708814
 30
0.0
 10
34.939976
 20
278.176838
 30
0.0
 10
35.488359
 20
278.465620
 30
0.0
 10
35.807418
 20
278.585114
 30
0.0
 10
36.475445
 20
278.714568
 30
0.0
 10
36.824418
 20
278.734484
 30
0.0
 10
37.502415
 20
278.664778
 30
0.0
 10
37.841415
 20
278.585114
 30
0.0
 10
38.529387
 20
278.286375
 30
0.0
 10
38.768681
 20
278.146964
 30
0.0
 10
39.337003
 20
277.659024
 30
0.0
 10
39.526442
 20
277.459865
 30
0.0
 10
39.935237
 20
276.822555
 30
0.0
 10
40.184503
 20
276.185245
 30
0.0
 10
40.304150
 20
275.587769
 30
0.0
 10
40.304150
 20
274.900669
 30
0.0
 10
40.234359
 20
274.492392
 30
0.0
 10
40.054887
 20
273.904873
 30
0.0
 10
39.905326
 20
273.596175
 30
0.0
 10
39.526442
 20
273.028572
 30
0.0
 10
39.037884
 20
272.550591
 30
0.0
 10
38.768681
 20
272.341474
 30
0.0
 10
38.160473
 20
272.022818
 30
0.0
 10
37.502415
 20
271.823659
 30
0.0
 10
37.243181
 20
271.793785
 30
0.0
 10
36.485415
 20
271.773870
 30
0.0
 10
36.146415
 20
271.823660
 30
0.0
 10
35.807418
 20
271.903324
 30
0.0
 10
35.179271
 20
272.172189
 30
0.0
 10
34.880151
 20
272.341474
 30
0.0
 10
34.351710
 20
272.779624
 30
0.0
 10
34.122387
 20
273.028573
 30
0.0
 10
33.743507
 20
273.596177
 30
0.0
 10
33.593949
 20
273.904873
 30
0.0
 10
33.394540
 20
274.552141
 30
0.0
 10
33.344685
 20
274.900670
 30
0.0
  0
LWPOLYLINE
  5
115
100
AcDbEntity
  8
0
 62
5
100
AcDbPolyline
 90
43
 70
1
 10
149.292564
 20
287.248540
 30
0.0
 10
149.302539
 20
287.935640
 30
0.0
 10
149.442125
 20
288.602823
 30
0.0
 10
149.551800
 20
288.921479
 30
0.0
 10
149.701361
 20
289.240133
 30
0.0
 10
150.080242
 20
289.807738
 30
0.0
 10
150.309564
 20
290.056687
 30
0.0
 10
150.838008
 20
290.494836
 30
0.0
 10
151.446211
 20
290.813491
 30
0.0
 10
151.765270
 20
290.932987
 30
0.0
 10
152.443267
 20
291.072399
 30
0.0
 10
153.121269
 20
291.062440
 30
0.0
 10
153.460269
 20
291.012651
 30
0.0
 10
153.799269
 20
290.932987
 30
0.0
 10
154.427416
 20
290.664120
 30
0.0
 10
154.726533
 20
290.494837
 30
0.0
 10
155.254972
 20
290.056687
 30
0.0
 10
155.484294
 20
289.807738
 30
0.0
 10
155.863177
 20
289.240133
 30
0.0
 10
156.122416
 20
288.602823
 30
0.0
 10
156.212147
 20
288.274211
 30
0.0
 10
156.262002
 20
287.935640
 30
0.0
 10
156.262002
 20
287.248540
 30
0.0
 10
156.212147
 20
286.909970
 30
0.0
 10
156.012738
 20
286.252745
 30
0.0
 10
155.863177
 20
285.944048
 30
0.0
 10
155.484294
 20
285.376444
 30
0.0
 10
154.995739
 20
284.898462
 30
0.0
 10
154.726533
 20
284.689345
 30
0.0
 10
154.118328
 20
284.370690
 30
0.0
 10
153.799269
 20
284.251195
 30
0.0
 10
153.041505
 20
284.101825
 30
0.0
 10
152.782269
 20
284.101825
 30
0.0
 10
152.104270
 20
284.171531
 30
0.0
 10
151.765270
 20
284.251195
 30
0.0
 10
151.137125
 20
284.520059
 30
0.0
 10
150.838008
 20
284.689345
 30
0.0
 10
150.309564
 20
285.127495
 30
0.0
 10
150.080242
 20
285.376444
 30
0.0
 10
149.701361
 20
285.944048
 30
0.0
 10
149.531861
 20
286.322451
 30
0.0
 10
149.362362
 20
286.909970
 30
0.0
 10
149.292567
 20
287.248541
 30
0.0
  0
LWPOLYLINE
  5
116
100
AcDbEntity
  8
0
 62
5
100
AcDbPolyline
 90
43
 70
1
 10
167.648398
 20
287.248540
 30
0.0
 10
167.648398
 20
287.935640
 30
0.0
 10
167.787990
 20
288.602823
 30
0.0
 10
167.897668
 20
288.921479
 30
0.0
 10
168.047226
 20
289.240133
 30
0.0
 10
168.426109
 20
289.807738
 30
0.0
 10
168.655431
 20
290.056687
 30
0.0
 10
169.243693
 20
290.524709
 30
0.0
 10
169.792078
 20
290.813491
 30
0.0
 10
170.111137
 20
290.932987
 30
0.0
 10
170.779165
 20
291.062440
 30
0.0
 10
171.128134
 20
291.082355
 30
0.0
 10
171.806134
 20
291.012651
 30
0.0
 10
172.145134
 20
290.932987
 30
0.0
 10
172.773281
 20
290.664121
 30
0.0
 10
173.072398
 20
290.494837
 30
0.0
 10
173.600837
 20
290.056688
 30
0.0
 10
173.830161
 20
289.807738
 30
0.0
 10
174.209045
 20
289.240133
 30
0.0
 10
174.468278
 20
288.602824
 30
0.0
 10
174.558011
 20
288.274212
 30
0.0
 10
174.607867
 20
287.935640
 30
0.0
 10
174.607867
 20
287.248541
 30
0.0
 10
174.558011
 20
286.909970
 30
0.0
 10
174.358603
 20
286.252745
 30
0.0
 10
174.209045
 20
285.944048
 30
0.0
 10
173.830161
 20
285.376445
 30
0.0
 10
173.550986
 20
285.077706
 30
0.0
 10
173.072398
 20
284.689346
 30
0.0
 10
172.464192
 20
284.370690
 30
0.0
 10
172.145134
 20
284.251195
 30
0.0
 10
171.546900
 20
284.141657
 30
0.0
 10
170.789134
 20
284.121742
 30
0.0
 10
170.450137
 20
284.171533
 30
0.0
 10
170.111137
 20
284.251196
 30
0.0
 10
169.423162
 20
284.549935
 30
0.0
 10
169.183873
 20
284.689347
 30
0.0
 10
168.655431
 20
285.127497
 30
0.0
 10
168.426109
 20
285.376446
 30
0.0
 10
168.047226
 20
285.944051
 30
0.0
 10
167.897668
 20
286.252747
 30
0.0
 10
167.708226
 20
286.900013
 30
0.0
 10
167.648398
 20
287.248541
 30
0.0
  0
LWPOLYLINE
  5
117
100
AcDbEntity
  8
0
 62
5
100
AcDbPolyline
 90
41
 70
1
 10
5.526762
 20
287.248540
 30
0.0
 10
5.526762
 20
287.935640
 30
0.0
 10
5.576616
 20
288.274211
 30
0.0
 10
5.776027
 20
288.921479
 30
0.0
 10
5.925586
 20
289.240133
 30
0.0
 10
6.304469
 20
289.807738
 30
0.0
 10
6.533792
 20
290.056687
 30
0.0
 10
7.062233
 20
290.494836
 30
0.0
 10
7.670439
 20
290.813491
 30
0.0
 10
7.989497
 20
290.932987
 30
0.0
 10
8.657525
 20
291.062440
 30
0.0
 10
9.006497
 20
291.082355
 30
0.0
 10
9.754291
 20
290.992735
 30
0.0
 10
10.023495
 20
290.932987
 30
0.0
 10
10.651642
 20
290.664121
 30
0.0
 10
10.950761
 20
290.494837
 30
0.0
 10
11.479201
 20
290.056688
 30
0.0
 10
11.708525
 20
289.807738
 30
0.0
 10
12.117318
 20
289.170427
 30
0.0
 10
12.346642
 20
288.602824
 30
0.0
 10
12.486230
 20
287.935640
 30
0.0
 10
12.486230
 20
287.248541
 30
0.0
 10
12.346642
 20
286.581358
 30
0.0
 10
12.207054
 20
286.192998
 30
0.0
 10
11.907936
 20
285.655268
 30
0.0
 10
11.708525
 20
285.376445
 30
0.0
 10
11.219966
 20
284.898463
 30
0.0
 10
10.950761
 20
284.689346
 30
0.0
 10
10.342555
 20
284.370690
 30
0.0
 10
9.614702
 20
284.161573
 30
0.0
 10
9.345495
 20
284.121741
 30
0.0
 10
8.667496
 20
284.121741
 30
0.0
 10
8.328497
 20
284.171530
 30
0.0
 10
7.989497
 20
284.251194
 30
0.0
 10
7.361350
 20
284.520060
 30
0.0
 10
7.012379
 20
284.729176
 30
0.0
 10
6.533792
 20
285.127495
 30
0.0
 10
6.264586
 20
285.436192
 30
0.0
 10
5.895674
 20
286.013753
 30
0.0
 10
5.666351
 20
286.581358
 30
0.0
 10
5.566646
 20
286.909969
 30
0.0
  0
LWPOLYLINE
  5
118
100
AcDbEntity
  8
0
 62
5
100
AcDbPolyline
 90
40
 70
1
 10
23.972338
 20
287.248540
 30
0.0
 10
23.972338
 20
287.935640
 30
0.0
 10
24.022191
 20
288.274211
 30
0.0
 10
24.221603
 20
288.921479
 30
0.0
 10
24.371162
 20
289.240133
 30
0.0
 10
24.750043
 20
289.807738
 30
0.0
 10
24.979367
 20
290.056687
 30
0.0
 10
25.507808
 20
290.494836
 30
0.0
 10
26.116013
 20
290.813491
 30
0.0
 10
26.435072
 20
290.932987
 30
0.0
 10
27.103099
 20
291.062440
 30
0.0
 10
27.452069
 20
291.082355
 30
0.0
 10
28.130071
 20
291.012651
 30
0.0
 10
28.469071
 20
290.932987
 30
0.0
 10
29.097216
 20
290.664121
 30
0.0
 10
29.396333
 20
290.494837
 30
0.0
 10
29.924777
 20
290.056688
 30
0.0
 10
30.154099
 20
289.807738
 30
0.0
 10
30.532980
 20
289.240133
 30
0.0
 10
30.792216
 20
288.602824
 30
0.0
 10
30.931802
 20
287.935640
 30
0.0
 10
30.931802
 20
287.248541
 30
0.0
 10
30.792216
 20
286.581358
 30
0.0
 10
30.682538
 20
286.252745
 30
0.0
 10
30.353510
 20
285.655268
 30
0.0
 10
30.154099
 20
285.376445
 30
0.0
 10
29.615685
 20
284.858630
 30
0.0
 10
29.396333
 20
284.689346
 30
0.0
 10
28.788130
 20
284.370690
 30
0.0
 10
28.130071
 20
284.171531
 30
0.0
 10
27.860863
 20
284.131699
 30
0.0
 10
27.043277
 20
284.131699
 30
0.0
 10
26.435072
 20
284.251195
 30
0.0
 10
25.806926
 20
284.520060
 30
0.0
 10
25.507808
 20
284.689346
 30
0.0
 10
24.979367
 20
285.127496
 30
0.0
 10
24.750043
 20
285.376445
 30
0.0
 10
24.371162
 20
285.944049
 30
0.0
 10
24.201661
 20
286.322452
 30
0.0
 10
24.012221
 20
286.909970
 30
0.0
  0
LWPOLYLINE
  5
119
100
AcDbEntity
  8
0
 62
5
100
AcDbPolyline
 90
22
 70
1
 10
43.086444
 20
167.540445
 30
0.0
 10
43.116403
 20
168.119220
 30
0.0
 10
43.685564
 20
169.426465
 30
0.0
 10
44.284681
 20
170.005241
 30
0.0
 10
45.532842
 20
170.524158
 30
0.0
 10
46.381591
 20
170.524158
 30
0.0
 10
47.669693
 20
169.985308
 30
0.0
 10
48.258825
 20
169.386545
 30
0.0
 10
48.538410
 20
168.937516
 30
0.0
 10
48.758088
 20
168.278902
 30
0.0
 10
48.827989
 20
167.550425
 30
0.0
 10
48.718149
 20
166.941711
 30
0.0
 10
48.528427
 20
166.412841
 30
0.0
 10
48.228869
 20
165.933842
 30
0.0
 10
47.549869
 20
165.285208
 30
0.0
 10
46.930784
 20
164.985830
 30
0.0
 10
46.361617
 20
164.836152
 30
0.0
 10
45.123445
 20
164.925976
 30
0.0
 10
44.244742
 20
165.375005
 30
0.0
 10
43.635637
 20
165.993723
 30
0.0
 10
43.356050
 20
166.482675
 30
0.0
 10
43.156345
 20
167.011574
 30
0.0
  0
LWPOLYLINE
  5
11a
100
AcDbEntity
  8
0
 62
5
100
AcDbPolyline
 90
27
 70
1
 10
131.366324
 20
167.560511
 30
0.0
 10
131.396280
 20
168.119353
 30
0.0
 10
131.655897
 20
168.947601
 30
0.0
 10
131.965438
 20
169.436551
 30
0.0
 10
132.554572
 20
170.015354
 30
0.0
 10
133.013897
 20
170.294746
 30
0.0
 10
133.613011
 20
170.484343
 30
0.0
 10
134.461763
 20
170.544221
 30
0.0
 10
134.471737
 20
170.524166
 30
0.0
 10
135.470261
 20
170.274685
 30
0.0
 10
136.558662
 20
169.356639
 30
0.0
 10
136.828259
 20
168.897603
 30
0.0
 10
137.037952
 20
168.288890
 30
0.0
 10
137.097861
 20
167.510512
 30
0.0
 10
137.017981
 20
166.951699
 30
0.0
 10
136.998005
 20
166.941671
 30
0.0
 10
136.808283
 20
166.442715
 30
0.0
 10
136.508722
 20
165.943782
 30
0.0
 10
135.939566
 20
165.374965
 30
0.0
 10
135.560124
 20
165.125511
 30
0.0
 10
135.010932
 20
164.905973
 30
0.0
 10
133.822686
 20
164.836113
 30
0.0
 10
133.163656
 20
165.015730
 30
0.0
 10
132.624451
 20
165.295149
 30
0.0
 10
131.925478
 20
165.973723
 30
0.0
 10
131.625920
 20
166.482635
 30
0.0
 10
131.436200
 20
167.011535
 30
0.0
  0
LWPOLYLINE
  5
11b
100
AcDbEntity
  8
0
 62
5
100
AcDbPolyline
 90
26
 70
1
 10
13.410190
 20
183.696491
 30
0.0
 10
13.410190
 20
184.953841
 30
0.0
 10
13.589926
 20
185.502682
 30
0.0
 10
13.779646
 20
185.861925
 30
0.0
 10
14.328837
 20
186.510562
 30
0.0
 10
14.768189
 20
186.819907
 30
0.0
 10
15.297409
 20
187.059402
 30
0.0
 10
15.806658
 20
187.179150
 30
0.0
 10
16.645421
 20
187.159201
 30
0.0
 10
17.224568
 20
187.019495
 30
0.0
 10
17.743802
 20
186.770020
 30
0.0
 10
18.722361
 20
185.752165
 30
0.0
 10
19.061861
 20
184.744291
 30
0.0
 10
19.061861
 20
183.926014
 30
0.0
 10
19.041888
 20
183.916040
 30
0.0
 10
18.902093
 20
183.337261
 30
0.0
 10
18.652460
 20
182.828332
 30
0.0
 10
18.093286
 20
182.169721
 30
0.0
 10
17.623977
 20
181.840416
 30
0.0
 10
16.875080
 20
181.541050
 30
0.0
 10
16.355847
 20
181.481172
 30
0.0
 10
15.766716
 20
181.511113
 30
0.0
 10
15.197554
 20
181.660793
 30
0.0
 10
14.678318
 20
181.920246
 30
0.0
 10
13.979349
 20
182.538942
 30
0.0
 10
13.649835
 20
183.047870
 30
0.0
  0
LWPOLYLINE
  5
11c
100
AcDbEntity
  8
0
 62
5
100
AcDbPolyline
 90
27
 70
1
 10
161.461966
 20
183.945964
 30
0.0
 10
161.491919
 20
184.834093
 30
0.0
 10
161.831419
 20
185.802053
 30
0.0
 10
162.839931
 20
186.809930
 30
0.0
 10
163.319226
 20
187.039445
 30
0.0
 10
163.948297
 20
187.189130
 30
0.0
 10
164.707177
 20
187.189130
 30
0.0
 10
164.717178
 20
187.169181
 30
0.0
 10
165.276349
 20
187.029473
 30
0.0
 10
165.765627
 20
186.809937
 30
0.0
 10
166.204980
 20
186.500589
 30
0.0
 10
166.754171
 20
185.851956
 30
0.0
 10
166.963861
 20
185.452797
 30
0.0
 10
167.133612
 20
184.883996
 30
0.0
 10
167.113636
 20
183.676541
 30
0.0
 10
167.093660
 20
183.666567
 30
0.0
 10
166.863999
 20
183.037893
 30
0.0
 10
166.534487
 20
182.528964
 30
0.0
 10
165.805560
 20
181.890311
 30
0.0
 10
165.296311
 20
181.640840
 30
0.0
 10
164.717165
 20
181.501138
 30
0.0
 10
164.197926
 20
181.471198
 30
0.0
 10
163.638756
 20
181.551033
 30
0.0
 10
162.859902
 20
181.870353
 30
0.0
 10
162.400577
 20
182.199661
 30
0.0
 10
161.841404
 20
182.868253
 30
0.0
 10
161.601758
 20
183.377179
 30
0.0
  0
LWPOLYLINE
  5
11d
100
AcDbEntity
  8
0
 62
5
100
AcDbPolyline
 90
26
 70
1
 10
55.568051
 20
270.363748
 30
0.0
 10
55.667902
 20
270.942529
 30
0.0
 10
55.847639
 20
271.451457
 30
0.0
 10
56.117241
 20
271.910488
 30
0.0
 10
56.726341
 20
272.529184
 30
0.0
 10
57.205636
 20
272.818573
 30
0.0
 10
57.824724
 20
273.018154
 30
0.0
 10
58.713414
 20
273.068047
 30
0.0
 10
59.302546
 20
272.958277
 30
0.0
 10
60.171265
 20
272.509226
 30
0.0
 10
61.039985
 20
271.441476
 30
0.0
 10
61.239690
 20
270.892634
 30
0.0
 10
61.309585
 20
270.313851
 30
0.0
 10
61.279634
 20
269.784967
 30
0.0
 10
61.259658
 20
269.774993
 30
0.0
 10
61.010024
 20
268.956716
 30
0.0
 10
60.710468
 20
268.477725
 30
0.0
 10
60.351000
 20
268.078569
 30
0.0
 10
59.632058
 20
267.599578
 30
0.0
 10
59.032941
 20
267.409981
 30
0.0
 10
58.443809
 20
267.340125
 30
0.0
 10
57.974502
 20
267.390023
 30
0.0
 10
57.205634
 20
267.619539
 30
0.0
 10
56.117239
 20
268.527623
 30
0.0
 10
55.837651
 20
269.026571
 30
0.0
 10
55.588019
 20
269.794950
 30
0.0
  0
LWPOLYLINE
  5
11e
100
AcDbEntity
  8
0
 62
5
100
AcDbPolyline
 90
26
 70
1
 10
119.294117
 20
270.044420
 30
0.0
 10
119.344041
 20
270.832760
 30
0.0
 10
119.553732
 20
271.451457
 30
0.0
 10
119.823337
 20
271.910488
 30
0.0
 10
120.302632
 20
272.409435
 30
0.0
 10
120.941690
 20
272.828553
 30
0.0
 10
121.311144
 20
272.978235
 30
0.0
 10
121.970173
 20
273.078026
 30
0.0
 10
122.569290
 20
273.058066
 30
0.0
 10
123.368112
 20
272.818570
 30
0.0
 10
123.857393
 20
272.529181
 30
0.0
 10
124.456507
 20
271.930443
 30
0.0
 10
124.736095
 20
271.451453
 30
0.0
 10
124.935802
 20
270.882653
 30
0.0
 10
125.015685
 20
270.353766
 30
0.0
 10
124.945788
 20
269.595364
 30
0.0
 10
124.736095
 20
268.996628
 30
0.0
 10
124.446524
 20
268.497677
 30
0.0
 10
123.847407
 20
267.908921
 30
0.0
 10
122.978685
 20
267.469848
 30
0.0
 10
122.389556
 20
267.360075
 30
0.0
 10
121.520834
 20
267.419953
 30
0.0
 10
120.921720
 20
267.619533
 30
0.0
 10
120.352559
 20
267.988751
 30
0.0
 10
119.823337
 20
268.527617
 30
0.0
 10
119.383983
 20
269.405764
 30
0.0
  0
LWPOLYLINE
  5
11f
100
AcDbEntity
  8
0
 62
5
100
AcDbPolyline
 90
27
 70
1
 10
160.353595
 20
279.963505
 30
0.0
 10
160.453448
 20
280.542286
 30
0.0
 10
160.683109
 20
281.101107
 30
0.0
 10
161.202346
 20
281.799634
 30
0.0
 10
162.041109
 20
282.378414
 30
0.0
 10
163.409092
 20
282.627887
 30
0.0
 10
163.978256
 20
282.518119
 30
0.0
 10
164.577370
 20
282.278625
 30
0.0
 10
165.206440
 20
281.829572
 30
0.0
 10
165.585885
 20
281.390498
 30
0.0
 10
165.855484
 20
280.921486
 30
0.0
 10
166.035218
 20
280.372643
 30
0.0
 10
166.095131
 20
279.574327
 30
0.0
 10
166.035218
 20
279.135251
 30
0.0
 10
166.015242
 20
279.125271
 30
0.0
 10
165.825523
 20
278.566451
 30
0.0
 10
165.096601
 20
277.588512
 30
0.0
 10
164.547411
 20
277.209311
 30
0.0
 10
164.048145
 20
277.019711
 30
0.0
 10
163.988233
 20
276.979796
 30
0.0
 10
163.069589
 20
276.899964
 30
0.0
 10
162.440514
 20
276.999753
 30
0.0
 10
161.941250
 20
277.189354
 30
0.0
 10
161.441990
 20
277.518661
 30
0.0
 10
161.052560
 20
277.877904
 30
0.0
 10
160.603221
 20
278.586408
 30
0.0
 10
160.423487
 20
279.115293
 30
0.0
  0
LWPOLYLINE
  5
120
100
AcDbEntity
  8
0
 62
5
100
AcDbPolyline
 90
27
 70
1
 10
14.139117
 20
279.584305
 30
0.0
 10
14.209011
 20
280.432517
 30
0.0
 10
14.378761
 20
280.931464
 30
0.0
 10
14.668337
 20
281.430413
 30
0.0
 10
15.057762
 20
281.869488
 30
0.0
 10
15.696820
 20
282.308561
 30
0.0
 10
16.246011
 20
282.528099
 30
0.0
 10
16.805188
 20
282.627887
 30
0.0
 10
18.223098
 20
282.358457
 30
0.0
 10
19.071844
 20
281.739760
 30
0.0
 10
19.551140
 20
281.091129
 30
0.0
 10
19.790785
 20
280.482413
 30
0.0
 10
19.880653
 20
279.953528
 30
0.0
 10
19.810755
 20
279.125274
 30
0.0
 10
19.790782
 20
279.115294
 30
0.0
 10
19.591078
 20
278.546494
 30
0.0
 10
19.161710
 20
277.867925
 30
0.0
 10
18.742329
 20
277.478744
 30
0.0
 10
18.273020
 20
277.179378
 30
0.0
 10
17.713846
 20
276.979797
 30
0.0
 10
17.194610
 20
276.899966
 30
0.0
 10
16.226037
 20
276.989777
 30
0.0
 10
16.166127
 20
277.029693
 30
0.0
 10
15.666864
 20
277.219293
 30
0.0
 10
15.097702
 20
277.608471
 30
0.0
 10
14.358789
 20
278.626325
 30
0.0
 10
14.179055
 20
279.135252
 30
0.0
  0
LWPOLYLINE
  5
121
100
AcDbEntity
  8
0
 62
5
100
AcDbPolyline
 90
186
 70
1
 10
0.132917
 20
287.866841
 30
0.0
 10
0.362578
 20
285.861069
 30
0.0
 10
1.021607
 20
283.965070
 30
0.0
 10
2.090032
 20
282.258668
 30
0.0
 10
3.507941
 20
280.831675
 30
0.0
 10
5.215424
 20
279.753948
 30
0.0
 10
7.212482
 20
279.075378
 30
0.0
 10
9.119671
 20
278.865820
 30
0.0
 10
9.129659
 20
278.885780
 30
0.0
 10
10.238023
 20
278.785991
 30
0.0
 10
11.466213
 20
278.406790
 30
0.0
 10
12.454756
 20
277.818032
 30
0.0
 10
13.183682
 20
277.059631
 30
0.0
 10
13.593077
 20
276.301233
 30
0.0
 10
22.999213
 20
247.322338
 30
0.0
 10
23.348699
 20
246.384311
 30
0.0
 10
24.277329
 20
244.897446
 30
0.0
 10
25.485550
 20
243.600186
 30
0.0
 10
26.993329
 20
242.532434
 30
0.0
 10
28.521078
 20
241.843888
 30
0.0
 10
30.228561
 20
241.444729
 30
0.0
 10
32.005941
 20
241.384857
 30
0.0
 10
32.195663
 20
241.404806
 30
0.0
 10
32.195663
 20
241.374869
 30
0.0
 10
39.474931
 20
242.013523
 30
0.0
 10
39.474931
 20
230.118600
 30
0.0
 10
28.920487
 20
213.244184
 30
0.0
 10
28.940463
 20
213.224234
 30
0.0
 10
28.331364
 20
212.266252
 30
0.0
 10
27.262937
 20
211.258378
 30
0.0
 10
26.004791
 20
210.609747
 30
0.0
 10
24.796572
 20
210.410166
 30
0.0
 10
24.796572
 20
210.360276
 30
0.0
 10
15.799833
 20
208.763641
 30
0.0
 10
15.809819
 20
208.693788
 30
0.0
 10
14.341982
 20
208.274670
 30
0.0
 10
12.954028
 20
207.546206
 30
0.0
 10
11.775766
 20
206.628142
 30
0.0
 10
10.717326
 20
205.360814
 30
0.0
 10
9.988399
 20
204.073527
 30
0.0
 10
9.509106
 20
202.586664
 30
0.0
 10
9.319386
 20
200.980051
 30
0.0
 10
9.339359
 20
200.151800
 30
0.0
 10
11.476209
 20
175.783179
 30
0.0
 10
11.516150
 20
175.813119
 30
0.0
 10
11.586048
 20
175.743285
 30
0.0
 10
11.456238
 20
175.723230
 30
0.0
 10
12.115268
 20
172.440138
 30
0.0
 10
13.493237
 20
169.396568
 30
0.0
 10
15.510263
 20
166.732169
 30
0.0
 10
18.066495
 20
164.576710
 30
0.0
 10
21.032124
 20
163.049948
 30
0.0
 10
24.267355
 20
162.231650
 30
0.0
 10
26.104647
 20
162.111913
 30
0.0
 10
26.104647
 20
162.032072
 30
0.0
 10
56.060494
 20
162.042100
 30
0.0
 10
56.060494
 20
162.082020
 30
0.0
 10
58.846386
 20
162.391379
 30
0.0
 10
61.592340
 20
163.349350
 30
0.0
 10
64.108632
 20
164.945999
 30
0.0
 10
65.137115
 20
165.874025
 30
0.0
 10
68.532110
 20
169.256894
 30
0.0
 10
70.609049
 20
170.843563
 30
0.0
 10
73.015502
 20
171.851432
 30
0.0
 10
75.431936
 20
172.170771
 30
0.0
 10
105.327868
 20
172.170771
 30
0.0
 10
107.744306
 20
171.851432
 30
0.0
 10
110.150760
 20
170.843563
 30
0.0
 10
112.237682
 20
169.276854
 30
0.0
 10
115.622694
 20
165.884005
 30
0.0
 10
115.662635
 20
165.873977
 30
0.0
 10
116.751030
 20
164.886069
 30
0.0
 10
119.207411
 20
163.339323
 30
0.0
 10
121.953361
 20
162.381351
 30
0.0
 10
124.729269
 20
162.071993
 30
0.0
 10
124.729269
 20
162.032072
 30
0.0
 10
154.675130
 20
162.022045
 30
0.0
 10
154.695106
 20
162.042100
 30
0.0
 10
154.695106
 20
162.121941
 30
0.0
 10
156.542381
 20
162.241704
 30
0.0
 10
159.777615
 20
163.059976
 30
0.0
 10
162.753227
 20
164.586738
 30
0.0
 10
165.309461
 20
166.742197
 30
0.0
 10
167.316503
 20
169.406595
 30
0.0
 10
168.694471
 20
172.450165
 30
0.0
 10
169.353497
 20
175.713297
 30
0.0
 10
169.223690
 20
175.723325
 30
0.0
 10
169.213689
 20
175.743380
 30
0.0
 10
169.273601
 20
175.803234
 30
0.0
 10
169.323528
 20
175.793206
 30
0.0
 10
171.450394
 20
200.161827
 30
0.0
 10
171.470370
 20
201.109834
 30
0.0
 10
171.300621
 20
202.596694
 30
0.0
 10
170.811341
 20
204.083560
 30
0.0
 10
170.042475
 20
205.440700
 30
0.0
 10
168.964063
 20
206.678092
 30
0.0
 10
167.715902
 20
207.616114
 30
0.0
 10
166.327951
 20
208.314638
 30
0.0
 10
164.989924
 20
208.683861
 30
0.0
 10
164.999899
 20
208.763694
 30
0.0
 10
155.993175
 20
210.350349
 30
0.0
 10
155.993175
 20
210.400244
 30
0.0
 10
154.725043
 20
210.619777
 30
0.0
 10
153.526807
 20
211.248453
 30
0.0
 10
152.468365
 20
212.256328
 30
0.0
 10
141.324796
 20
230.068769
 30
0.0
 10
141.324796
 20
241.973666
 30
0.0
 10
141.334770
 20
241.993615
 30
0.0
 10
148.414336
 20
241.374922
 30
0.0
 10
148.424311
 20
241.404859
 30
0.0
 10
148.604042
 20
241.384910
 30
0.0
 10
150.371437
 20
241.444782
 30
0.0
 10
152.078920
 20
241.843941
 30
0.0
 10
153.696537
 20
242.572404
 30
0.0
 10
155.114447
 20
243.600236
 30
0.0
 10
156.322669
 20
244.897499
 30
0.0
 10
157.271266
 20
246.434259
 30
0.0
 10
157.620754
 20
247.372283
 30
0.0
 10
167.006916
 20
276.301283
 30
0.0
 10
167.426302
 20
277.099600
 30
0.0
 10
168.185172
 20
277.857995
 30
0.0
 10
169.243608
 20
278.456734
 30
0.0
 10
170.361962
 20
278.786038
 30
0.0
 10
171.480315
 20
278.885827
 30
0.0
 10
171.480315
 20
278.865867
 30
0.0
 10
173.487357
 20
279.095383
 30
0.0
 10
175.384559
 20
279.753995
 30
0.0
 10
177.082056
 20
280.831723
 30
0.0
 10
178.509951
 20
282.258716
 30
0.0
 10
179.578376
 20
283.965115
 30
0.0
 10
180.247390
 20
285.851142
 30
0.0
 10
180.467068
 20
287.866888
 30
0.0
 10
180.247390
 20
289.872659
 30
0.0
 10
179.578376
 20
291.768661
 30
0.0
 10
178.509951
 20
293.475063
 30
0.0
 10
177.082056
 20
294.902056
 30
0.0
 10
175.384559
 20
295.969804
 30
0.0
 10
173.487357
 20
296.638393
 30
0.0
 10
171.490298
 20
296.867856
 30
0.0
 10
151.519734
 20
296.867856
 30
0.0
 10
151.519734
 20
296.817960
 30
0.0
 10
149.053368
 20
296.548529
 30
0.0
 10
146.616961
 20
295.740233
 30
0.0
 10
144.430186
 20
294.432992
 30
0.0
 10
142.602878
 20
292.686674
 30
0.0
 10
141.834013
 20
291.598966
 30
0.0
 10
141.804054
 20
291.598966
 30
0.0
 10
130.630526
 20
275.023915
 30
0.0
 10
130.640527
 20
274.993977
 30
0.0
 10
130.320998
 20
274.644719
 30
0.0
 10
129.142737
 20
275.153641
 30
0.0
 10
127.385327
 20
275.732422
 30
0.0
 10
125.138637
 20
276.301223
 30
0.0
 10
122.662289
 20
276.820128
 30
0.0
 10
115.333089
 20
277.887875
 30
0.0
 10
107.993909
 20
278.556467
 30
0.0
 10
102.541943
 20
278.885772
 30
0.0
 10
98.128451
 20
279.045437
 30
0.0
 10
92.307030
 20
279.155206
 30
0.0
 10
86.126142
 20
279.135246
 30
0.0
 10
77.868314
 20
278.865812
 30
0.0
 10
74.193731
 20
278.666234
 30
0.0
 10
68.701824
 20
278.227160
 30
0.0
 10
62.261320
 20
277.488717
 30
0.0
 10
57.897749
 20
276.800167
 30
0.0
 10
55.331532
 20
276.251327
 30
0.0
 10
53.324491
 20
275.732422
 30
0.0
 10
51.557096
 20
275.153644
 30
0.0
 10
50.308938
 20
274.614776
 30
0.0
 10
49.949464
 20
274.993977
 30
0.0
 10
49.969440
 20
275.023915
 30
0.0
 10
38.795912
 20
291.598966
 30
0.0
 10
38.775936
 20
291.588986
 30
0.0
 10
37.997085
 20
292.686672
 30
0.0
 10
36.169775
 20
294.432989
 30
0.0
 10
33.983000
 20
295.740230
 30
0.0
 10
31.546595
 20
296.548527
 30
0.0
 10
29.080224
 20
296.817958
 30
0.0
 10
29.080224
 20
296.867862
 30
0.0
 10
9.119677
 20
296.867862
 30
0.0
 10
7.112635
 20
296.638346
 30
0.0
 10
5.215430
 20
295.969756
 30
0.0
 10
3.507947
 20
294.902006
 30
0.0
 10
2.090037
 20
293.475018
 30
0.0
 10
1.021612
 20
291.768614
 30
0.0
 10
0.362583
 20
289.872612
 30
0.0
  0
ENDSEC
  0
SECTION
  2
OBJECTS
  0
DICTIONARY
  5
C
330
0
100
AcDbDictionary
  3
ACAD_GROUP
350
D
  3
ACAD_MLINESTYLE
350
17
  0
DICTIONARY
  5
D
330
C
100
AcDbDictionary
  0
DICTIONARY
  5
1A
330
C
100
AcDbDictionary
  0
DICTIONARY
  5
17
330
C
100
AcDbDictionary
  3
STANDARD
350
18
  0
DICTIONARY
  5
19
330
C
100
AcDbDictionary
  0
ENDSEC
  0
EOF
