  0
SECTION
  2
HEADER
  9
$ACADVER
  1
AC1014
  9
$HANDSEED
  5
FFFF
  9
$MEASUREMENT
 70
     1
  0
ENDSEC
  0
SECTION
  2
TABLES
  0
TABLE
  2
VPORT
  5
8
330
0
100
AcDbSymbolTable
 70
     4
  0
VPORT
  5
2E
330
8
100
AcDbSymbolTableRecord
100
AcDbViewportTableRecord
  2
*ACTIVE
 70
     0
 10
0.0
 20
0.0
 11
1.0
 21
1.0
 12
210.0
 22
148.5
 13
0.0
 23
0.0
 14
10.0
 24
10.0
 15
10.0
 25
10.0
 16
0.0
 26
0.0
 36
1.0
 17
0.0
 27
0.0
 37
0.0
 40
341.0
 41
1.24
 42
50.0
 43
0.0
 44
0.0
 50
0.0
 51
0.0
 71
     0
 72
   100
 73
     1
 74
     3
 75
     0
 76
     0
 77
     0
 78
     0
  0
ENDTAB
  0
TABLE
  2
LTYPE
  5
5
330
0
100
AcDbSymbolTable
 70
     1
  0
LTYPE
  5
14
330
5
100
AcDbSymbolTableRecord
100
AcDbLinetypeTableRecord
  2
BYBLOCK
 70
     0
  3

 72
    65
 73
     0
 40
0.0
  0
LTYPE
  5
15
330
5
100
AcDbSymbolTableRecord
100
AcDbLinetypeTableRecord
  2
BYLAYER
 70
     0
  3

 72
    65
 73
     0
 40
0.0
  0
LTYPE
  5
16
330
5
100
AcDbSymbolTableRecord
100
AcDbLinetypeTableRecord
  2
CONTINUOUS
 70
     0
  3
Solid line
 72
    65
 73
     0
 40
0.0
  0
ENDTAB
  0
TABLE
  2
LAYER
  5
2
100
AcDbSymbolTable
 70
2
  0
LAYER
  5
50
100
AcDbSymbolTableRecord
100
AcDbLayerTableRecord
  2
0
 70
0
  6
CONTINUOUS
  0
LAYER
  5
51
100
AcDbSymbolTableRecord
100
AcDbLayerTableRecord
  2
Calque_1
 70
0
  6
CONTINUOUS
  0
ENDTAB
  0
TABLE
  2
STYLE
  5
3
330
0
100
AcDbSymbolTable
 70
     1
  0
STYLE
  5
11
330
3
100
AcDbSymbolTableRecord
100
AcDbTextStyleTableRecord
  2
STANDARD
 70
     0
 40
0.0
 41
1.0
 50
0.0
 71
     0
 42
2.5
  3
txt
  4

  0
ENDTAB
  0
TABLE
  2
VIEW
  5
6
330
0
100
AcDbSymbolTable
 70
     0
  0
ENDTAB
  0
TABLE
  2
UCS
  5
7
330
0
100
AcDbSymbolTable
 70
     0
  0
ENDTAB
  0
TABLE
  2
APPID
  5
9
330
0
100
AcDbSymbolTable
 70
     2
  0
APPID
  5
12
330
9
100
AcDbSymbolTableRecord
100
AcDbRegAppTableRecord
  2
ACAD
 70
     0
  0
ENDTAB
  0
TABLE
  2
DIMSTYLE
  5
A
330
0
100
AcDbSymbolTable
 70
     1
  0
DIMSTYLE
105
27
330
A
100
AcDbSymbolTableRecord
100
AcDbDimStyleTableRecord
  2
ISO-25
 70
     0
  3

  4

  5

  6

  7

 40
1.0
 41
2.5
 42
0.625
 43
3.75
 44
1.25
 45
0.0
 46
0.0
 47
0.0
 48
0.0
140
2.5
141
2.5
142
0.0
143
0.03937007874016
144
1.0
145
0.0
146
1.0
147
0.625
 71
     0
 72
     0
 73
     0
 74
     0
 75
     0
 76
     0
 77
     1
 78
     8
170
     0
171
     3
172
     1
173
     0
174
     0
175
     0
176
     0
177
     0
178
     0
270
     2
271
     2
272
     2
273
     2
274
     3
340
11
275
     0
280
     0
281
     0
282
     0
283
     0
284
     8
285
     0
286
     0
287
     3
288
     0
  0
ENDTAB
  0
TABLE
  2
BLOCK_RECORD
  5
1
330
0
100
AcDbSymbolTable
 70
     1
  0
BLOCK_RECORD
  5
1F
330
1
100
AcDbSymbolTableRecord
100
AcDbBlockTableRecord
  2
*MODEL_SPACE
  0
BLOCK_RECORD
  5
1B
330
1
100
AcDbSymbolTableRecord
100
AcDbBlockTableRecord
  2
*PAPER_SPACE
  0
ENDTAB
  0
ENDSEC
  0
SECTION
  2
BLOCKS
  0
BLOCK
  5
20
330
1F
100
AcDbEntity
  8
0
100
AcDbBlockBegin
  2
*MODEL_SPACE
 70
     0
 10
0.0
 20
0.0
 30
0.0
  3
*MODEL_SPACE
  1

  0
ENDBLK
  5
21
330
1F
100
AcDbEntity
  8
0
100
AcDbBlockEnd
  0
BLOCK
  5
1C
330
1B
100
AcDbEntity
 67
     1
  8
0
100
AcDbBlockBegin
  2
*PAPER_SPACE
  1

  0
ENDBLK
  5
1D
330
1B
100
AcDbEntity
 67
     1
  8
0
100
AcDbBlockEnd
  0
ENDSEC
  0
SECTION
  2
ENTITIES
  0
LWPOLYLINE
  5
100
100
AcDbEntity
  8
Calque_1
 62
5
100
AcDbPolyline
 90
12
 70
1
 10
46.431994
 20
126.755402
 30
0.0
 10
46.431994
 20
128.348790
 30
0.0
 10
46.930661
 20
129.245071
 30
0.0
 10
48.227196
 20
130.141351
 30
0.0
 10
49.822932
 20
130.141351
 30
0.0
 10
50.720533
 20
129.643417
 30
0.0
 10
51.618131
 20
128.348790
 30
0.0
 10
51.618131
 20
126.755402
 30
0.0
 10
51.119465
 20
125.859121
 30
0.0
 10
49.822932
 20
124.962840
 30
0.0
 10
48.227196
 20
124.962840
 30
0.0
 10
47.329593
 20
125.460774
 30
0.0
  0
LWPOLYLINE
  5
101
100
AcDbEntity
  8
Calque_1
 62
5
100
AcDbPolyline
 90
12
 70
1
 10
43.315554
 20
125.797925
 30
0.0
 10
43.315554
 20
129.306293
 30
0.0
 10
44.413541
 20
131.279739
 30
0.0
 10
47.268291
 20
133.253209
 30
0.0
 10
50.781826
 20
133.253209
 30
0.0
 10
52.758197
 20
132.156863
 30
0.0
 10
54.734566
 20
129.306293
 30
0.0
 10
54.734566
 20
125.797925
 30
0.0
 10
53.636577
 20
123.824455
 30
0.0
 10
50.781826
 20
121.850984
 30
0.0
 10
47.268291
 20
121.850984
 30
0.0
 10
45.291923
 20
122.947357
 30
0.0
  0
LWPOLYLINE
  5
102
100
AcDbEntity
  8
Calque_1
 62
5
100
AcDbPolyline
 90
12
 70
1
 10
43.315554
 20
160.796476
 30
0.0
 10
43.315554
 20
164.304851
 30
0.0
 10
44.413538
 20
166.278293
 30
0.0
 10
47.268288
 20
168.251766
 30
0.0
 10
50.781826
 20
168.251766
 30
0.0
 10
52.758203
 20
167.155412
 30
0.0
 10
54.734571
 20
164.304851
 30
0.0
 10
54.734571
 20
160.796476
 30
0.0
 10
53.636577
 20
158.823014
 30
0.0
 10
50.781826
 20
156.849540
 30
0.0
 10
47.268288
 20
156.849540
 30
0.0
 10
45.291923
 20
157.945915
 30
0.0
  0
LWPOLYLINE
  5
103
100
AcDbEntity
  8
Calque_1
 62
5
100
AcDbPolyline
 90
13
 70
1
 10
46.430761
 20
161.753578
 30
0.0
 10
46.430761
 20
163.347723
 30
0.0
 10
46.919905
 20
164.244432
 30
0.0
 10
48.191679
 20
165.141139
 30
0.0
 10
49.756942
 20
165.141139
 30
0.0
 10
50.637403
 20
164.642968
 30
0.0
 10
51.322205
 20
163.845897
 30
0.0
 10
51.615689
 20
162.799735
 30
0.0
 10
51.322205
 20
161.305223
 30
0.0
 10
50.637403
 20
160.458333
 30
0.0
 10
49.756942
 20
159.960162
 30
0.0
 10
48.191679
 20
159.960162
 30
0.0
 10
47.311220
 20
160.458333
 30
0.0
  0
LWPOLYLINE
  5
104
100
AcDbEntity
  8
Calque_1
 62
5
100
AcDbPolyline
 90
42
 70
1
 10
0.132231
 20
10.067491
 30
0.0
 10
0.482233
 20
7.471307
 30
0.0
 10
1.532235
 20
5.074831
 30
0.0
 10
3.132238
 20
3.027838
 30
0.0
 10
5.182245
 20
1.430187
 30
0.0
 10
7.632251
 20
0.481582
 30
0.0
 10
10.132257
 20
0.132097
 30
0.0
 10
66.732400
 20
0.132097
 30
0.0
 10
69.382407
 20
0.481582
 30
0.0
 10
71.782411
 20
1.530040
 30
0.0
 10
73.832416
 20
3.127693
 30
0.0
 10
75.432422
 20
5.174684
 30
0.0
 10
76.382424
 20
7.621087
 30
0.0
 10
76.832426
 20
10.566758
 30
0.0
 10
76.782425
 20
170.182144
 30
0.0
 10
76.482423
 20
172.478767
 30
0.0
 10
75.432422
 20
174.925171
 30
0.0
 10
73.882417
 20
176.922236
 30
0.0
 10
71.832413
 20
178.519887
 30
0.0
 10
69.432405
 20
179.518420
 30
0.0
 10
66.882400
 20
179.867908
 30
0.0
 10
31.882311
 20
179.867908
 30
0.0
 10
29.332306
 20
179.518420
 30
0.0
 10
26.882298
 20
178.469962
 30
0.0
 10
24.882294
 20
176.922236
 30
0.0
 10
23.282291
 20
174.875246
 30
0.0
 10
22.282288
 20
172.478767
 30
0.0
 10
21.832286
 20
169.433243
 30
0.0
 10
21.782285
 20
79.914826
 30
0.0
 10
21.532285
 20
76.120402
 30
0.0
 10
20.832283
 20
72.375905
 30
0.0
 10
19.732280
 20
68.930969
 30
0.0
 10
18.232277
 20
65.935373
 30
0.0
 10
16.382271
 20
63.439042
 30
0.0
 10
14.332266
 20
61.641683
 30
0.0
 10
12.082262
 20
60.493373
 30
0.0
 10
7.482250
 20
59.794400
 30
0.0
 10
5.082243
 20
58.745940
 30
0.0
 10
3.032238
 20
57.148289
 30
0.0
 10
1.432235
 20
55.101298
 30
0.0
 10
0.482233
 20
52.654892
 30
0.0
 10
0.132231
 20
50.158564
 30
0.0
  0
ENDSEC
  0
SECTION
  2
OBJECTS
  0
DICTIONARY
  5
C
330
0
100
AcDbDictionary
  3
ACAD_GROUP
350
D
  3
ACAD_MLINESTYLE
350
17
  0
DICTIONARY
  5
D
330
C
100
AcDbDictionary
  0
DICTIONARY
  5
1A
330
C
100
AcDbDictionary
  0
DICTIONARY
  5
17
330
C
100
AcDbDictionary
  3
STANDARD
350
18
  0
DICTIONARY
  5
19
330
C
100
AcDbDictionary
  0
ENDSEC
  0
EOF
